G04 #@! TF.GenerationSoftware,KiCad,Pcbnew,7.0.2*
G04 #@! TF.CreationDate,2023-04-26T23:45:07+03:00*
G04 #@! TF.ProjectId,mriya-left,6d726979-612d-46c6-9566-742e6b696361,0.9*
G04 #@! TF.SameCoordinates,Original*
G04 #@! TF.FileFunction,Soldermask,Top*
G04 #@! TF.FilePolarity,Negative*
%FSLAX46Y46*%
G04 Gerber Fmt 4.6, Leading zero omitted, Abs format (unit mm)*
G04 Created by KiCad (PCBNEW 7.0.2) date 2023-04-26 23:45:07*
%MOMM*%
%LPD*%
G01*
G04 APERTURE LIST*
%ADD10C,1.900000*%
%ADD11C,3.000000*%
%ADD12C,4.100000*%
%ADD13C,2.000000*%
%ADD14C,3.800000*%
%ADD15C,1.300000*%
%ADD16C,0.800000*%
G04 APERTURE END LIST*
G36*
X166952586Y-100300000D02*
G01*
X166952586Y-101274642D01*
X166702570Y-101274642D01*
X166452553Y-101274642D01*
X166452553Y-100300000D01*
X166452553Y-99325359D01*
X166702570Y-99325359D01*
X166952586Y-99325359D01*
X166952586Y-100300000D01*
G37*
G36*
X169267336Y-99378329D02*
G01*
X169258006Y-99393479D01*
X169240603Y-99421981D01*
X169215824Y-99462681D01*
X169184370Y-99514429D01*
X169146939Y-99576072D01*
X169104231Y-99646458D01*
X169056945Y-99724434D01*
X169005779Y-99808849D01*
X168951433Y-99898551D01*
X168894606Y-99992387D01*
X168847686Y-100069893D01*
X168461162Y-100708488D01*
X168461162Y-100991565D01*
X168461162Y-101274642D01*
X168211145Y-101274642D01*
X167961128Y-101274642D01*
X167961128Y-100991509D01*
X167961128Y-100708377D01*
X167545846Y-100020666D01*
X167486321Y-99922050D01*
X167429347Y-99827584D01*
X167375529Y-99738272D01*
X167325470Y-99655119D01*
X167279773Y-99579130D01*
X167239041Y-99511309D01*
X167203878Y-99452661D01*
X167174886Y-99404190D01*
X167152670Y-99366902D01*
X167137831Y-99341801D01*
X167130975Y-99329892D01*
X167130564Y-99329038D01*
X167138703Y-99328149D01*
X167161772Y-99327469D01*
X167197755Y-99327012D01*
X167244634Y-99326789D01*
X167300391Y-99326813D01*
X167363008Y-99327097D01*
X167398501Y-99327359D01*
X167666437Y-99329596D01*
X167937548Y-99789332D01*
X167985077Y-99869714D01*
X168030142Y-99945513D01*
X168072000Y-100015506D01*
X168109909Y-100078471D01*
X168143126Y-100133188D01*
X168170910Y-100178435D01*
X168192517Y-100212990D01*
X168207206Y-100235632D01*
X168214235Y-100245139D01*
X168214680Y-100245346D01*
X168219932Y-100237580D01*
X168233029Y-100216452D01*
X168253224Y-100183209D01*
X168279770Y-100139100D01*
X168311920Y-100085374D01*
X168348928Y-100023279D01*
X168390046Y-99954064D01*
X168434528Y-99878978D01*
X168481628Y-99799269D01*
X168490936Y-99783492D01*
X168761171Y-99325359D01*
X169030817Y-99325359D01*
X169300463Y-99325359D01*
X169267336Y-99378329D01*
G37*
G36*
X170145170Y-99302358D02*
G01*
X170215625Y-99310658D01*
X170277530Y-99325797D01*
X170277931Y-99325931D01*
X170339252Y-99355053D01*
X170393321Y-99398120D01*
X170437359Y-99452726D01*
X170450541Y-99475347D01*
X170456025Y-99487296D01*
X170467545Y-99513645D01*
X170484583Y-99553162D01*
X170506618Y-99604616D01*
X170533131Y-99666776D01*
X170563603Y-99738410D01*
X170597515Y-99818286D01*
X170634347Y-99905174D01*
X170673580Y-99997841D01*
X170714693Y-100095056D01*
X170757169Y-100195589D01*
X170800487Y-100298207D01*
X170844128Y-100401679D01*
X170887573Y-100504774D01*
X170930303Y-100606261D01*
X170971797Y-100704907D01*
X171011536Y-100799481D01*
X171049002Y-100888753D01*
X171083674Y-100971490D01*
X171115034Y-101046461D01*
X171142561Y-101112435D01*
X171165737Y-101168180D01*
X171184042Y-101212466D01*
X171196957Y-101244059D01*
X171203437Y-101260351D01*
X171204057Y-101264403D01*
X171201329Y-101267597D01*
X171193559Y-101270013D01*
X171179053Y-101271731D01*
X171156118Y-101272832D01*
X171123059Y-101273396D01*
X171078184Y-101273503D01*
X171019798Y-101273232D01*
X170946208Y-101272666D01*
X170943741Y-101272645D01*
X170678467Y-101270404D01*
X170590458Y-101047931D01*
X170502450Y-100825459D01*
X170092633Y-100825459D01*
X169682815Y-100825459D01*
X169594955Y-101047931D01*
X169507094Y-101270404D01*
X169246857Y-101272645D01*
X169167584Y-101273137D01*
X169104183Y-101273083D01*
X169055585Y-101272453D01*
X169020720Y-101271217D01*
X168998519Y-101269345D01*
X168987911Y-101266806D01*
X168986620Y-101265264D01*
X168989819Y-101256264D01*
X168999079Y-101232842D01*
X169013896Y-101196206D01*
X169033768Y-101147562D01*
X169058192Y-101088117D01*
X169086664Y-101019077D01*
X169118680Y-100941648D01*
X169153738Y-100857037D01*
X169191334Y-100766451D01*
X169230964Y-100671096D01*
X169272126Y-100572178D01*
X169314317Y-100470904D01*
X169327464Y-100439380D01*
X169808709Y-100439380D01*
X169816858Y-100440495D01*
X169839998Y-100441515D01*
X169876172Y-100442409D01*
X169923421Y-100443143D01*
X169979786Y-100443686D01*
X170043310Y-100444005D01*
X170093198Y-100444078D01*
X170170044Y-100444058D01*
X170231596Y-100443929D01*
X170279509Y-100443589D01*
X170315441Y-100442933D01*
X170341046Y-100441860D01*
X170357981Y-100440264D01*
X170367902Y-100438045D01*
X170372465Y-100435097D01*
X170373325Y-100431318D01*
X170372167Y-100426689D01*
X170366939Y-100412422D01*
X170356262Y-100385005D01*
X170340985Y-100346517D01*
X170321956Y-100299040D01*
X170300024Y-100244653D01*
X170276038Y-100185439D01*
X170250846Y-100123476D01*
X170225296Y-100060845D01*
X170200237Y-99999627D01*
X170176519Y-99941902D01*
X170154988Y-99889751D01*
X170136494Y-99845254D01*
X170121885Y-99810492D01*
X170112010Y-99787544D01*
X170107911Y-99778779D01*
X170097770Y-99761829D01*
X170081680Y-99778779D01*
X170076161Y-99788931D01*
X170065182Y-99812745D01*
X170049585Y-99848181D01*
X170030213Y-99893198D01*
X170007910Y-99945757D01*
X169983518Y-100003817D01*
X169957880Y-100065339D01*
X169931839Y-100128281D01*
X169906239Y-100190605D01*
X169881922Y-100250269D01*
X169859732Y-100305234D01*
X169840511Y-100353460D01*
X169825102Y-100392907D01*
X169814349Y-100421533D01*
X169809094Y-100437300D01*
X169808709Y-100439380D01*
X169327464Y-100439380D01*
X169357032Y-100368481D01*
X169399768Y-100266115D01*
X169442023Y-100165012D01*
X169483293Y-100066380D01*
X169523074Y-99971424D01*
X169560863Y-99881351D01*
X169596158Y-99797367D01*
X169628454Y-99720680D01*
X169657249Y-99652495D01*
X169682038Y-99594019D01*
X169702319Y-99546459D01*
X169717589Y-99511020D01*
X169727344Y-99488911D01*
X169730185Y-99482850D01*
X169756016Y-99441383D01*
X169789998Y-99400800D01*
X169827720Y-99365593D01*
X169864773Y-99340255D01*
X169875030Y-99335279D01*
X169931094Y-99317355D01*
X169998045Y-99305819D01*
X170071023Y-99300782D01*
X170145170Y-99302358D01*
G37*
G36*
X164881454Y-99326371D02*
G01*
X164974253Y-99326705D01*
X165081942Y-99327170D01*
X165160683Y-99327530D01*
X165281860Y-99328085D01*
X165387352Y-99328612D01*
X165478423Y-99329198D01*
X165556340Y-99329929D01*
X165622366Y-99330891D01*
X165677767Y-99332173D01*
X165723807Y-99333859D01*
X165761752Y-99336038D01*
X165792866Y-99338794D01*
X165818414Y-99342216D01*
X165839661Y-99346389D01*
X165857873Y-99351401D01*
X165874313Y-99357337D01*
X165890247Y-99364284D01*
X165906940Y-99372330D01*
X165921747Y-99379643D01*
X165977853Y-99413092D01*
X166023898Y-99454679D01*
X166061306Y-99503271D01*
X166097361Y-99570107D01*
X166126011Y-99650902D01*
X166146935Y-99744217D01*
X166159813Y-99848610D01*
X166164322Y-99962643D01*
X166164324Y-99965232D01*
X166159768Y-100094748D01*
X166146053Y-100210391D01*
X166123206Y-100312065D01*
X166091254Y-100399670D01*
X166050225Y-100473109D01*
X166009068Y-100523469D01*
X165959578Y-100566548D01*
X165904737Y-100598790D01*
X165842131Y-100621029D01*
X165769348Y-100634099D01*
X165683972Y-100638834D01*
X165674959Y-100638881D01*
X165637039Y-100639454D01*
X165606269Y-100640917D01*
X165586029Y-100643040D01*
X165579613Y-100645320D01*
X165585433Y-100652355D01*
X165602147Y-100670211D01*
X165628639Y-100697749D01*
X165663792Y-100733828D01*
X165706490Y-100777309D01*
X165755617Y-100827054D01*
X165810055Y-100881921D01*
X165868689Y-100940773D01*
X165891032Y-100963138D01*
X166202450Y-101274642D01*
X165892057Y-101274642D01*
X165581663Y-101274642D01*
X165362404Y-101022702D01*
X165311052Y-100963806D01*
X165260574Y-100906118D01*
X165212657Y-100851551D01*
X165168990Y-100802018D01*
X165131257Y-100759434D01*
X165101148Y-100725711D01*
X165080349Y-100702763D01*
X165079400Y-100701733D01*
X165049971Y-100668111D01*
X165022209Y-100633322D01*
X165000005Y-100602393D01*
X164990607Y-100587123D01*
X164977863Y-100561895D01*
X164970296Y-100539516D01*
X164966586Y-100513825D01*
X164965411Y-100478663D01*
X164965362Y-100469503D01*
X164967619Y-100416955D01*
X164975882Y-100377389D01*
X164991893Y-100347384D01*
X165017397Y-100323517D01*
X165049282Y-100304769D01*
X165065616Y-100296740D01*
X165080313Y-100290583D01*
X165095966Y-100285969D01*
X165115170Y-100282569D01*
X165140520Y-100280054D01*
X165174611Y-100278095D01*
X165220038Y-100276364D01*
X165279395Y-100274531D01*
X165290432Y-100274204D01*
X165363635Y-100271681D01*
X165422096Y-100268637D01*
X165468027Y-100264650D01*
X165503636Y-100259295D01*
X165531133Y-100252148D01*
X165552726Y-100242784D01*
X165570627Y-100230779D01*
X165585145Y-100217627D01*
X165608692Y-100186923D01*
X165625636Y-100147449D01*
X165636531Y-100097065D01*
X165641930Y-100033633D01*
X165642748Y-99994895D01*
X165641318Y-99928790D01*
X165635921Y-99876513D01*
X165625877Y-99835262D01*
X165610504Y-99802237D01*
X165589191Y-99774711D01*
X165575740Y-99761252D01*
X165562277Y-99750173D01*
X165547074Y-99741244D01*
X165528401Y-99734233D01*
X165504527Y-99728909D01*
X165473723Y-99725042D01*
X165434259Y-99722399D01*
X165384405Y-99720750D01*
X165322432Y-99719864D01*
X165246609Y-99719509D01*
X165175551Y-99719453D01*
X165095301Y-99719484D01*
X165030242Y-99719638D01*
X164978618Y-99720011D01*
X164938670Y-99720696D01*
X164908641Y-99721789D01*
X164886773Y-99723383D01*
X164871308Y-99725573D01*
X164860487Y-99728452D01*
X164852553Y-99732117D01*
X164845748Y-99736660D01*
X164845021Y-99737197D01*
X164825246Y-99758073D01*
X164811063Y-99783554D01*
X164810973Y-99783810D01*
X164809057Y-99793951D01*
X164807363Y-99813290D01*
X164805882Y-99842594D01*
X164804603Y-99882630D01*
X164803514Y-99934165D01*
X164802605Y-99997966D01*
X164801866Y-100074799D01*
X164801286Y-100165432D01*
X164800853Y-100270630D01*
X164800558Y-100391162D01*
X164800390Y-100527793D01*
X164800379Y-100543661D01*
X164799900Y-101274642D01*
X164549692Y-101274642D01*
X164299484Y-101274642D01*
X164301794Y-100399583D01*
X164302148Y-100254407D01*
X164302447Y-100125186D01*
X164302766Y-100010925D01*
X164303181Y-99910629D01*
X164303765Y-99823303D01*
X164304593Y-99747952D01*
X164305739Y-99683581D01*
X164307278Y-99629195D01*
X164309285Y-99583800D01*
X164311833Y-99546400D01*
X164314998Y-99516000D01*
X164318855Y-99491606D01*
X164323476Y-99472223D01*
X164328938Y-99456854D01*
X164335314Y-99444507D01*
X164342679Y-99434185D01*
X164351108Y-99424894D01*
X164360675Y-99415639D01*
X164371455Y-99405425D01*
X164376630Y-99400341D01*
X164405588Y-99374678D01*
X164435202Y-99357141D01*
X164473419Y-99343076D01*
X164475385Y-99342475D01*
X164486772Y-99339116D01*
X164498084Y-99336215D01*
X164510569Y-99333744D01*
X164525472Y-99331675D01*
X164544043Y-99329983D01*
X164567526Y-99328639D01*
X164597171Y-99327616D01*
X164634223Y-99326888D01*
X164679931Y-99326426D01*
X164735540Y-99326204D01*
X164802299Y-99326195D01*
X164881454Y-99326371D01*
G37*
G36*
X161847329Y-99310844D02*
G01*
X161905508Y-99317344D01*
X161926039Y-99321459D01*
X161999603Y-99346861D01*
X162067356Y-99385964D01*
X162126500Y-99436526D01*
X162174235Y-99496308D01*
X162197814Y-99539038D01*
X162204744Y-99555715D01*
X162216924Y-99586925D01*
X162233831Y-99631262D01*
X162254942Y-99687322D01*
X162279732Y-99753700D01*
X162307680Y-99828992D01*
X162338262Y-99911792D01*
X162370954Y-100000696D01*
X162405234Y-100094300D01*
X162434575Y-100174712D01*
X162469346Y-100270001D01*
X162502629Y-100360899D01*
X162533944Y-100446108D01*
X162562808Y-100524333D01*
X162588739Y-100594275D01*
X162611254Y-100654639D01*
X162629873Y-100704127D01*
X162644113Y-100741443D01*
X162653491Y-100765288D01*
X162657379Y-100774165D01*
X162675005Y-100792879D01*
X162693699Y-100794897D01*
X162708112Y-100785278D01*
X162713430Y-100774998D01*
X162724021Y-100750042D01*
X162739405Y-100711676D01*
X162759099Y-100661167D01*
X162782622Y-100599782D01*
X162809492Y-100528788D01*
X162839226Y-100449450D01*
X162871344Y-100363036D01*
X162905362Y-100270813D01*
X162940799Y-100174046D01*
X162944257Y-100164566D01*
X162980065Y-100066640D01*
X163014662Y-99972538D01*
X163047545Y-99883599D01*
X163078210Y-99801162D01*
X163106153Y-99726566D01*
X163130872Y-99661150D01*
X163151861Y-99606252D01*
X163168619Y-99563211D01*
X163180640Y-99533367D01*
X163187421Y-99518057D01*
X163187608Y-99517708D01*
X163231936Y-99451119D01*
X163285510Y-99397861D01*
X163349052Y-99357523D01*
X163423284Y-99329693D01*
X163508927Y-99313959D01*
X163550256Y-99310770D01*
X163645225Y-99311659D01*
X163730928Y-99323817D01*
X163805744Y-99346959D01*
X163836288Y-99361335D01*
X163878836Y-99388133D01*
X163911431Y-99419585D01*
X163938583Y-99460581D01*
X163951622Y-99486387D01*
X163973574Y-99533000D01*
X163973574Y-100405940D01*
X163973574Y-101278879D01*
X163728351Y-101281130D01*
X163665414Y-101281466D01*
X163607958Y-101281309D01*
X163558178Y-101280701D01*
X163518264Y-101279687D01*
X163490410Y-101278309D01*
X163476807Y-101276610D01*
X163475926Y-101276179D01*
X163474922Y-101266778D01*
X163474188Y-101241710D01*
X163473721Y-101202258D01*
X163473516Y-101149702D01*
X163473570Y-101085324D01*
X163473877Y-101010407D01*
X163474434Y-100926230D01*
X163475237Y-100834077D01*
X163476281Y-100735229D01*
X163477562Y-100630966D01*
X163478168Y-100586036D01*
X163479900Y-100458999D01*
X163481333Y-100347853D01*
X163482444Y-100251540D01*
X163483205Y-100169003D01*
X163483591Y-100099182D01*
X163483578Y-100041022D01*
X163483138Y-99993464D01*
X163482246Y-99955451D01*
X163480877Y-99925925D01*
X163479004Y-99903829D01*
X163476603Y-99888104D01*
X163473648Y-99877694D01*
X163470112Y-99871540D01*
X163465970Y-99868586D01*
X163461196Y-99867772D01*
X163460725Y-99867768D01*
X163450779Y-99874151D01*
X163439253Y-99888357D01*
X163434234Y-99899569D01*
X163424015Y-99925435D01*
X163409082Y-99964639D01*
X163389920Y-100015865D01*
X163367014Y-100077799D01*
X163340847Y-100149124D01*
X163311905Y-100228525D01*
X163280672Y-100314687D01*
X163247634Y-100406295D01*
X163218309Y-100487973D01*
X163183726Y-100584279D01*
X163150248Y-100677080D01*
X163118396Y-100764959D01*
X163088691Y-100846498D01*
X163061655Y-100920279D01*
X163037809Y-100984884D01*
X163017672Y-101038895D01*
X163001767Y-101080894D01*
X162990614Y-101109463D01*
X162985504Y-101121608D01*
X162951172Y-101183864D01*
X162912591Y-101230950D01*
X162868405Y-101264400D01*
X162851214Y-101273238D01*
X162827508Y-101283111D01*
X162804551Y-101289677D01*
X162777631Y-101293710D01*
X162742036Y-101295984D01*
X162706540Y-101297007D01*
X162666044Y-101297478D01*
X162630563Y-101297171D01*
X162604261Y-101296165D01*
X162592126Y-101294795D01*
X162528938Y-101273459D01*
X162478199Y-101243412D01*
X162436700Y-101202082D01*
X162401234Y-101146897D01*
X162396632Y-101138046D01*
X162390061Y-101122745D01*
X162378340Y-101092825D01*
X162361968Y-101049649D01*
X162341446Y-100994578D01*
X162317273Y-100928976D01*
X162289949Y-100854203D01*
X162259974Y-100771622D01*
X162227848Y-100682596D01*
X162194069Y-100588487D01*
X162159615Y-100491993D01*
X162125012Y-100395170D01*
X162091772Y-100302816D01*
X162060369Y-100216205D01*
X162031274Y-100136609D01*
X162004961Y-100065301D01*
X161981902Y-100003556D01*
X161962569Y-99952647D01*
X161947435Y-99913846D01*
X161936973Y-99888427D01*
X161931656Y-99877663D01*
X161931546Y-99877545D01*
X161919850Y-99868375D01*
X161911085Y-99872454D01*
X161905121Y-99879982D01*
X161902890Y-99884973D01*
X161900941Y-99894229D01*
X161899255Y-99908800D01*
X161897814Y-99929735D01*
X161896602Y-99958083D01*
X161895598Y-99994892D01*
X161894786Y-100041213D01*
X161894148Y-100098094D01*
X161893665Y-100166585D01*
X161893319Y-100247735D01*
X161893093Y-100342592D01*
X161892968Y-100452207D01*
X161892927Y-100577628D01*
X161892927Y-100589775D01*
X161892927Y-101283117D01*
X161646994Y-101283117D01*
X161401062Y-101283117D01*
X161403334Y-100403821D01*
X161405606Y-99524525D01*
X161425093Y-99482149D01*
X161457533Y-99429502D01*
X161502305Y-99386605D01*
X161560192Y-99352925D01*
X161631978Y-99327929D01*
X161661843Y-99320854D01*
X161718570Y-99312583D01*
X161782708Y-99309251D01*
X161847329Y-99310844D01*
G37*
D10*
X120920000Y-50000000D03*
D11*
X122190000Y-47460000D03*
D12*
X126000000Y-50000000D03*
D11*
X128540000Y-44920000D03*
D10*
X131080000Y-50000000D03*
D13*
X156900000Y-46300000D03*
D10*
X101920000Y-85000000D03*
D11*
X103190000Y-82460000D03*
D12*
X107000000Y-85000000D03*
D11*
X109540000Y-79920000D03*
D10*
X112080000Y-85000000D03*
D14*
X135500000Y-60650000D03*
D10*
X82920000Y-69000000D03*
D11*
X84190000Y-66460000D03*
D12*
X88000000Y-69000000D03*
D11*
X90540000Y-63920000D03*
D10*
X93080000Y-69000000D03*
X44920000Y-76000000D03*
D11*
X46190000Y-73460000D03*
D12*
X50000000Y-76000000D03*
D11*
X52540000Y-70920000D03*
D10*
X55080000Y-76000000D03*
X139920000Y-110000000D03*
D11*
X141190000Y-107460000D03*
D12*
X145000000Y-110000000D03*
D11*
X147540000Y-104920000D03*
D10*
X150080000Y-110000000D03*
X82920000Y-88000000D03*
D11*
X84190000Y-85460000D03*
D12*
X88000000Y-88000000D03*
D11*
X90540000Y-82920000D03*
D10*
X93080000Y-88000000D03*
D13*
X156900000Y-100300000D03*
D14*
X59500000Y-85500000D03*
D10*
X139920000Y-52300000D03*
D11*
X141190000Y-49760000D03*
D12*
X145000000Y-52300000D03*
D11*
X147540000Y-47220000D03*
D10*
X150080000Y-52300000D03*
X63920000Y-57000000D03*
D11*
X65190000Y-54460000D03*
D12*
X69000000Y-57000000D03*
D11*
X71540000Y-51920000D03*
D10*
X74080000Y-57000000D03*
D13*
X175700000Y-100300000D03*
D10*
X139920000Y-71300000D03*
D11*
X141190000Y-68760000D03*
D12*
X145000000Y-71300000D03*
D11*
X147540000Y-66220000D03*
D10*
X150080000Y-71300000D03*
D15*
X175100000Y-91500000D03*
X168100000Y-91500000D03*
D10*
X120920000Y-69000000D03*
D11*
X122190000Y-66460000D03*
D12*
X126000000Y-69000000D03*
D11*
X128540000Y-63920000D03*
D10*
X131080000Y-69000000D03*
X44920000Y-95000000D03*
D11*
X46190000Y-92460000D03*
D12*
X50000000Y-95000000D03*
D11*
X52540000Y-89920000D03*
D10*
X55080000Y-95000000D03*
D14*
X135500000Y-99000000D03*
D10*
X161320000Y-113000000D03*
D11*
X162590000Y-110460000D03*
D12*
X166400000Y-113000000D03*
D11*
X168940000Y-107920000D03*
D10*
X171480000Y-113000000D03*
X82920000Y-50000000D03*
D11*
X84190000Y-47460000D03*
D12*
X88000000Y-50000000D03*
D11*
X90540000Y-44920000D03*
D10*
X93080000Y-50000000D03*
X63920000Y-95000000D03*
D11*
X65190000Y-92460000D03*
D12*
X69000000Y-95000000D03*
D11*
X71540000Y-89920000D03*
D10*
X74080000Y-95000000D03*
X120920000Y-107700000D03*
D11*
X122190000Y-105160000D03*
D12*
X126000000Y-107700000D03*
D11*
X128540000Y-102620000D03*
D10*
X131080000Y-107700000D03*
X44920000Y-57000000D03*
D11*
X46190000Y-54460000D03*
D12*
X50000000Y-57000000D03*
D11*
X52540000Y-51920000D03*
D10*
X55080000Y-57000000D03*
X101920000Y-47000000D03*
D11*
X103190000Y-44460000D03*
D12*
X107000000Y-47000000D03*
D11*
X109540000Y-41920000D03*
D10*
X112080000Y-47000000D03*
X139920000Y-90300000D03*
D11*
X141190000Y-87760000D03*
D12*
X145000000Y-90300000D03*
D11*
X147540000Y-85220000D03*
D10*
X150080000Y-90300000D03*
X101920000Y-66000000D03*
D11*
X103190000Y-63460000D03*
D12*
X107000000Y-66000000D03*
D11*
X109540000Y-60920000D03*
D10*
X112080000Y-66000000D03*
X63920000Y-76000000D03*
D11*
X65190000Y-73460000D03*
D12*
X69000000Y-76000000D03*
D11*
X71540000Y-70920000D03*
D10*
X74080000Y-76000000D03*
X120920000Y-88000000D03*
D11*
X122190000Y-85460000D03*
D12*
X126000000Y-88000000D03*
D11*
X128540000Y-82920000D03*
D10*
X131080000Y-88000000D03*
D14*
X59500000Y-66500000D03*
D16*
X166500000Y-45400000D03*
X169500000Y-45400000D03*
M02*
