G04 #@! TF.GenerationSoftware,KiCad,Pcbnew,7.0.2*
G04 #@! TF.CreationDate,2023-04-26T23:45:06+03:00*
G04 #@! TF.ProjectId,mriya-left,6d726979-612d-46c6-9566-742e6b696361,0.9*
G04 #@! TF.SameCoordinates,Original*
G04 #@! TF.FileFunction,Copper,L1,Top*
G04 #@! TF.FilePolarity,Positive*
%FSLAX46Y46*%
G04 Gerber Fmt 4.6, Leading zero omitted, Abs format (unit mm)*
G04 Created by KiCad (PCBNEW 7.0.2) date 2023-04-26 23:45:06*
%MOMM*%
%LPD*%
G01*
G04 APERTURE LIST*
G04 Aperture macros list*
%AMRoundRect*
0 Rectangle with rounded corners*
0 $1 Rounding radius*
0 $2 $3 $4 $5 $6 $7 $8 $9 X,Y pos of 4 corners*
0 Add a 4 corners polygon primitive as box body*
4,1,4,$2,$3,$4,$5,$6,$7,$8,$9,$2,$3,0*
0 Add four circle primitives for the rounded corners*
1,1,$1+$1,$2,$3*
1,1,$1+$1,$4,$5*
1,1,$1+$1,$6,$7*
1,1,$1+$1,$8,$9*
0 Add four rect primitives between the rounded corners*
20,1,$1+$1,$2,$3,$4,$5,0*
20,1,$1+$1,$4,$5,$6,$7,0*
20,1,$1+$1,$6,$7,$8,$9,0*
20,1,$1+$1,$8,$9,$2,$3,0*%
G04 Aperture macros list end*
%ADD10C,0.240000*%
G04 #@! TA.AperFunction,NonConductor*
%ADD11C,0.240000*%
G04 #@! TD*
G04 #@! TA.AperFunction,WasherPad*
%ADD12C,3.800000*%
G04 #@! TD*
G04 #@! TA.AperFunction,ComponentPad*
%ADD13C,1.500000*%
G04 #@! TD*
G04 #@! TA.AperFunction,ComponentPad*
%ADD14RoundRect,0.375000X-0.375000X-0.375000X0.375000X-0.375000X0.375000X0.375000X-0.375000X0.375000X0*%
G04 #@! TD*
G04 #@! TA.AperFunction,ComponentPad*
%ADD15C,1.300000*%
G04 #@! TD*
G04 #@! TA.AperFunction,ComponentPad*
%ADD16O,2.200000X1.400000*%
G04 #@! TD*
G04 #@! TA.AperFunction,ComponentPad*
%ADD17O,1.200000X1.200000*%
G04 #@! TD*
G04 #@! TA.AperFunction,ComponentPad*
%ADD18RoundRect,0.300000X-0.300000X-0.300000X0.300000X-0.300000X0.300000X0.300000X-0.300000X0.300000X0*%
G04 #@! TD*
G04 #@! TA.AperFunction,ViaPad*
%ADD19C,0.800000*%
G04 #@! TD*
G04 #@! TA.AperFunction,Conductor*
%ADD20C,0.250000*%
G04 #@! TD*
G04 #@! TA.AperFunction,Conductor*
%ADD21C,0.254000*%
G04 #@! TD*
G04 #@! TA.AperFunction,Conductor*
%ADD22C,0.350000*%
G04 #@! TD*
G04 APERTURE END LIST*
D10*
D11*
G36*
X162607786Y-44558685D02*
G01*
X162622113Y-44559154D01*
X162636245Y-44559936D01*
X162650182Y-44561030D01*
X162663926Y-44562436D01*
X162690829Y-44566187D01*
X162716956Y-44571188D01*
X162742305Y-44577439D01*
X162766876Y-44584940D01*
X162790671Y-44593692D01*
X162813687Y-44603693D01*
X162835927Y-44614945D01*
X162857389Y-44627447D01*
X162878074Y-44641200D01*
X162897981Y-44656202D01*
X162917111Y-44672455D01*
X162935463Y-44689958D01*
X162953039Y-44708712D01*
X162961535Y-44718557D01*
X162977857Y-44739021D01*
X162993143Y-44760493D01*
X163007392Y-44782971D01*
X163020605Y-44806457D01*
X163032781Y-44830950D01*
X163038481Y-44843574D01*
X163043921Y-44856450D01*
X163049102Y-44869577D01*
X163054024Y-44882957D01*
X163058687Y-44896588D01*
X163063091Y-44910471D01*
X163067236Y-44924606D01*
X163071121Y-44938992D01*
X163074748Y-44953630D01*
X163078115Y-44968521D01*
X163081223Y-44983662D01*
X163084072Y-44999056D01*
X163086662Y-45014701D01*
X163088993Y-45030599D01*
X163091065Y-45046748D01*
X163092877Y-45063148D01*
X163094431Y-45079801D01*
X163095725Y-45096705D01*
X163096760Y-45113861D01*
X163097536Y-45131269D01*
X163098053Y-45148929D01*
X163098311Y-45166840D01*
X163098311Y-45407224D01*
X163098181Y-45424775D01*
X163097790Y-45442079D01*
X163097139Y-45459137D01*
X163096227Y-45475949D01*
X163095055Y-45492514D01*
X163093622Y-45508832D01*
X163091929Y-45524905D01*
X163089976Y-45540730D01*
X163087762Y-45556310D01*
X163085288Y-45571643D01*
X163082553Y-45586729D01*
X163079557Y-45601569D01*
X163076302Y-45616163D01*
X163072785Y-45630510D01*
X163069009Y-45644610D01*
X163064972Y-45658465D01*
X163060674Y-45672072D01*
X163056116Y-45685434D01*
X163051297Y-45698549D01*
X163046218Y-45711417D01*
X163040879Y-45724039D01*
X163029419Y-45748544D01*
X163016916Y-45772063D01*
X163003372Y-45794596D01*
X162988786Y-45816144D01*
X162973159Y-45836706D01*
X162964954Y-45846617D01*
X162947923Y-45865540D01*
X162930082Y-45883242D01*
X162911431Y-45899723D01*
X162891971Y-45914984D01*
X162871702Y-45929023D01*
X162850623Y-45941842D01*
X162828735Y-45953440D01*
X162806038Y-45963817D01*
X162782530Y-45972973D01*
X162758214Y-45980909D01*
X162733088Y-45987623D01*
X162707153Y-45993117D01*
X162680408Y-45997390D01*
X162666732Y-45999069D01*
X162652854Y-46000442D01*
X162638773Y-46001510D01*
X162624490Y-46002273D01*
X162610005Y-46002731D01*
X162595317Y-46002884D01*
X162580691Y-46002732D01*
X162566261Y-46002279D01*
X162552029Y-46001522D01*
X162537994Y-46000463D01*
X162524156Y-45999102D01*
X162510515Y-45997438D01*
X162483823Y-45993202D01*
X162457920Y-45987757D01*
X162432805Y-45981101D01*
X162408478Y-45973235D01*
X162384938Y-45964159D01*
X162362187Y-45953873D01*
X162340224Y-45942376D01*
X162319050Y-45929670D01*
X162298663Y-45915753D01*
X162279064Y-45900626D01*
X162260253Y-45884289D01*
X162242231Y-45866742D01*
X162224996Y-45847985D01*
X162208675Y-45828138D01*
X162193393Y-45807321D01*
X162179151Y-45785534D01*
X162165947Y-45762778D01*
X162153783Y-45739052D01*
X162142658Y-45714356D01*
X162137485Y-45701644D01*
X162132572Y-45688690D01*
X162127919Y-45675494D01*
X162123525Y-45662055D01*
X162119392Y-45648374D01*
X162115518Y-45634450D01*
X162111904Y-45620284D01*
X162108549Y-45605875D01*
X162105455Y-45591224D01*
X162102620Y-45576331D01*
X162100045Y-45561195D01*
X162097730Y-45545817D01*
X162095675Y-45530196D01*
X162093879Y-45514333D01*
X162092344Y-45498227D01*
X162091068Y-45481879D01*
X162090052Y-45465289D01*
X162089295Y-45448456D01*
X162088799Y-45431381D01*
X162088562Y-45414063D01*
X162088562Y-45407566D01*
X162371346Y-45407566D01*
X162371560Y-45430268D01*
X162372201Y-45452211D01*
X162373270Y-45473395D01*
X162374766Y-45493821D01*
X162376689Y-45513487D01*
X162379040Y-45532396D01*
X162381818Y-45550545D01*
X162385024Y-45567936D01*
X162388657Y-45584568D01*
X162392718Y-45600442D01*
X162397206Y-45615556D01*
X162402121Y-45629913D01*
X162407464Y-45643510D01*
X162413234Y-45656349D01*
X162422691Y-45674184D01*
X162426057Y-45679750D01*
X162436841Y-45695394D01*
X162448677Y-45709499D01*
X162461565Y-45722065D01*
X162475504Y-45733093D01*
X162490496Y-45742582D01*
X162506540Y-45750532D01*
X162523635Y-45756943D01*
X162541782Y-45761816D01*
X162560981Y-45765150D01*
X162581232Y-45766945D01*
X162595317Y-45767287D01*
X162615527Y-45766536D01*
X162634739Y-45764282D01*
X162652953Y-45760525D01*
X162670170Y-45755266D01*
X162686389Y-45748504D01*
X162701610Y-45740239D01*
X162715833Y-45730472D01*
X162729058Y-45719202D01*
X162741286Y-45706429D01*
X162752516Y-45692154D01*
X162759448Y-45681802D01*
X162769112Y-45664883D01*
X162777845Y-45646311D01*
X162783149Y-45633011D01*
X162788039Y-45618977D01*
X162792515Y-45604208D01*
X162796577Y-45588705D01*
X162800225Y-45572467D01*
X162803458Y-45555494D01*
X162806278Y-45537787D01*
X162808684Y-45519344D01*
X162810675Y-45500168D01*
X162812253Y-45480256D01*
X162813416Y-45459610D01*
X162814165Y-45438230D01*
X162814501Y-45416115D01*
X162814501Y-45171286D01*
X162814290Y-45147860D01*
X162813656Y-45125199D01*
X162812601Y-45103301D01*
X162811124Y-45082168D01*
X162809225Y-45061798D01*
X162806903Y-45042193D01*
X162804160Y-45023351D01*
X162800994Y-45005274D01*
X162797406Y-44987960D01*
X162793396Y-44971411D01*
X162788965Y-44955626D01*
X162784111Y-44940604D01*
X162778835Y-44926347D01*
X162773136Y-44912854D01*
X162767016Y-44900125D01*
X162760474Y-44888159D01*
X162749882Y-44871538D01*
X162738239Y-44856551D01*
X162725543Y-44843200D01*
X162711796Y-44831483D01*
X162696996Y-44821401D01*
X162681145Y-44812954D01*
X162664242Y-44806142D01*
X162646287Y-44800965D01*
X162627281Y-44797422D01*
X162607222Y-44795515D01*
X162593265Y-44795152D01*
X162579431Y-44795502D01*
X162559537Y-44797339D01*
X162540671Y-44800751D01*
X162522832Y-44805738D01*
X162506021Y-44812299D01*
X162490238Y-44820436D01*
X162475483Y-44830147D01*
X162461756Y-44841433D01*
X162449056Y-44854294D01*
X162437384Y-44868729D01*
X162426741Y-44884740D01*
X162417132Y-44902297D01*
X162411233Y-44914917D01*
X162405741Y-44928268D01*
X162400654Y-44942352D01*
X162395974Y-44957168D01*
X162391700Y-44972715D01*
X162387832Y-44988995D01*
X162384369Y-45006006D01*
X162381313Y-45023750D01*
X162378663Y-45042225D01*
X162376419Y-45061433D01*
X162374581Y-45081372D01*
X162373150Y-45102043D01*
X162372124Y-45123447D01*
X162371504Y-45145582D01*
X162371346Y-45156924D01*
X162371346Y-45407566D01*
X162088562Y-45407566D01*
X162088562Y-45173679D01*
X162088693Y-45155702D01*
X162089084Y-45137972D01*
X162089737Y-45120490D01*
X162090651Y-45103256D01*
X162091826Y-45086269D01*
X162093262Y-45069530D01*
X162094960Y-45053039D01*
X162096918Y-45036796D01*
X162099138Y-45020801D01*
X162101618Y-45005053D01*
X162104360Y-44989554D01*
X162107363Y-44974301D01*
X162110627Y-44959297D01*
X162114153Y-44944541D01*
X162117939Y-44930032D01*
X162121987Y-44915771D01*
X162126295Y-44901758D01*
X162130865Y-44887992D01*
X162135696Y-44874475D01*
X162140788Y-44861205D01*
X162146141Y-44848183D01*
X162151755Y-44835408D01*
X162157631Y-44822882D01*
X162163767Y-44810603D01*
X162176824Y-44786789D01*
X162190925Y-44763966D01*
X162206070Y-44742134D01*
X162222260Y-44721293D01*
X162239378Y-44701583D01*
X162257304Y-44683145D01*
X162276040Y-44665978D01*
X162295585Y-44650084D01*
X162315940Y-44635460D01*
X162337104Y-44622109D01*
X162359078Y-44610029D01*
X162381861Y-44599220D01*
X162405454Y-44589683D01*
X162429855Y-44581418D01*
X162455067Y-44574424D01*
X162481088Y-44568702D01*
X162507918Y-44564251D01*
X162521637Y-44562503D01*
X162535558Y-44561072D01*
X162549681Y-44559960D01*
X162564007Y-44559165D01*
X162578535Y-44558688D01*
X162593265Y-44558529D01*
X162607786Y-44558685D01*
G37*
G36*
X164016420Y-45405856D02*
G01*
X163577027Y-45405856D01*
X163577027Y-45981000D01*
X163294242Y-45981000D01*
X163294242Y-44580413D01*
X164069420Y-44580413D01*
X164069420Y-44816010D01*
X163577027Y-44816010D01*
X163577027Y-45171286D01*
X164016420Y-45171286D01*
X164016420Y-45405856D01*
G37*
G36*
X164947864Y-45405856D02*
G01*
X164508471Y-45405856D01*
X164508471Y-45981000D01*
X164225687Y-45981000D01*
X164225687Y-44580413D01*
X165000865Y-44580413D01*
X165000865Y-44816010D01*
X164508471Y-44816010D01*
X164508471Y-45171286D01*
X164947864Y-45171286D01*
X164947864Y-45405856D01*
G37*
G04 #@! TA.AperFunction,EtchedComponent*
G36*
X166952586Y-100300000D02*
G01*
X166952586Y-101274642D01*
X166702570Y-101274642D01*
X166452553Y-101274642D01*
X166452553Y-100300000D01*
X166452553Y-99325359D01*
X166702570Y-99325359D01*
X166952586Y-99325359D01*
X166952586Y-100300000D01*
G37*
G04 #@! TD.AperFunction*
G04 #@! TA.AperFunction,EtchedComponent*
G36*
X169267336Y-99378329D02*
G01*
X169258006Y-99393479D01*
X169240603Y-99421981D01*
X169215824Y-99462681D01*
X169184370Y-99514429D01*
X169146939Y-99576072D01*
X169104231Y-99646458D01*
X169056945Y-99724434D01*
X169005779Y-99808849D01*
X168951433Y-99898551D01*
X168894606Y-99992387D01*
X168847686Y-100069893D01*
X168461162Y-100708488D01*
X168461162Y-100991565D01*
X168461162Y-101274642D01*
X168211145Y-101274642D01*
X167961128Y-101274642D01*
X167961128Y-100991509D01*
X167961128Y-100708377D01*
X167545846Y-100020666D01*
X167486321Y-99922050D01*
X167429347Y-99827584D01*
X167375529Y-99738272D01*
X167325470Y-99655119D01*
X167279773Y-99579130D01*
X167239041Y-99511309D01*
X167203878Y-99452661D01*
X167174886Y-99404190D01*
X167152670Y-99366902D01*
X167137831Y-99341801D01*
X167130975Y-99329892D01*
X167130564Y-99329038D01*
X167138703Y-99328149D01*
X167161772Y-99327469D01*
X167197755Y-99327012D01*
X167244634Y-99326789D01*
X167300391Y-99326813D01*
X167363008Y-99327097D01*
X167398501Y-99327359D01*
X167666437Y-99329596D01*
X167937548Y-99789332D01*
X167985077Y-99869714D01*
X168030142Y-99945513D01*
X168072000Y-100015506D01*
X168109909Y-100078471D01*
X168143126Y-100133188D01*
X168170910Y-100178435D01*
X168192517Y-100212990D01*
X168207206Y-100235632D01*
X168214235Y-100245139D01*
X168214680Y-100245346D01*
X168219932Y-100237580D01*
X168233029Y-100216452D01*
X168253224Y-100183209D01*
X168279770Y-100139100D01*
X168311920Y-100085374D01*
X168348928Y-100023279D01*
X168390046Y-99954064D01*
X168434528Y-99878978D01*
X168481628Y-99799269D01*
X168490936Y-99783492D01*
X168761171Y-99325359D01*
X169030817Y-99325359D01*
X169300463Y-99325359D01*
X169267336Y-99378329D01*
G37*
G04 #@! TD.AperFunction*
G04 #@! TA.AperFunction,EtchedComponent*
G36*
X170145170Y-99302358D02*
G01*
X170215625Y-99310658D01*
X170277530Y-99325797D01*
X170277931Y-99325931D01*
X170339252Y-99355053D01*
X170393321Y-99398120D01*
X170437359Y-99452726D01*
X170450541Y-99475347D01*
X170456025Y-99487296D01*
X170467545Y-99513645D01*
X170484583Y-99553162D01*
X170506618Y-99604616D01*
X170533131Y-99666776D01*
X170563603Y-99738410D01*
X170597515Y-99818286D01*
X170634347Y-99905174D01*
X170673580Y-99997841D01*
X170714693Y-100095056D01*
X170757169Y-100195589D01*
X170800487Y-100298207D01*
X170844128Y-100401679D01*
X170887573Y-100504774D01*
X170930303Y-100606261D01*
X170971797Y-100704907D01*
X171011536Y-100799481D01*
X171049002Y-100888753D01*
X171083674Y-100971490D01*
X171115034Y-101046461D01*
X171142561Y-101112435D01*
X171165737Y-101168180D01*
X171184042Y-101212466D01*
X171196957Y-101244059D01*
X171203437Y-101260351D01*
X171204057Y-101264403D01*
X171201329Y-101267597D01*
X171193559Y-101270013D01*
X171179053Y-101271731D01*
X171156118Y-101272832D01*
X171123059Y-101273396D01*
X171078184Y-101273503D01*
X171019798Y-101273232D01*
X170946208Y-101272666D01*
X170943741Y-101272645D01*
X170678467Y-101270404D01*
X170590458Y-101047931D01*
X170502450Y-100825459D01*
X170092633Y-100825459D01*
X169682815Y-100825459D01*
X169594955Y-101047931D01*
X169507094Y-101270404D01*
X169246857Y-101272645D01*
X169167584Y-101273137D01*
X169104183Y-101273083D01*
X169055585Y-101272453D01*
X169020720Y-101271217D01*
X168998519Y-101269345D01*
X168987911Y-101266806D01*
X168986620Y-101265264D01*
X168989819Y-101256264D01*
X168999079Y-101232842D01*
X169013896Y-101196206D01*
X169033768Y-101147562D01*
X169058192Y-101088117D01*
X169086664Y-101019077D01*
X169118680Y-100941648D01*
X169153738Y-100857037D01*
X169191334Y-100766451D01*
X169230964Y-100671096D01*
X169272126Y-100572178D01*
X169314317Y-100470904D01*
X169327464Y-100439380D01*
X169808709Y-100439380D01*
X169816858Y-100440495D01*
X169839998Y-100441515D01*
X169876172Y-100442409D01*
X169923421Y-100443143D01*
X169979786Y-100443686D01*
X170043310Y-100444005D01*
X170093198Y-100444078D01*
X170170044Y-100444058D01*
X170231596Y-100443929D01*
X170279509Y-100443589D01*
X170315441Y-100442933D01*
X170341046Y-100441860D01*
X170357981Y-100440264D01*
X170367902Y-100438045D01*
X170372465Y-100435097D01*
X170373325Y-100431318D01*
X170372167Y-100426689D01*
X170366939Y-100412422D01*
X170356262Y-100385005D01*
X170340985Y-100346517D01*
X170321956Y-100299040D01*
X170300024Y-100244653D01*
X170276038Y-100185439D01*
X170250846Y-100123476D01*
X170225296Y-100060845D01*
X170200237Y-99999627D01*
X170176519Y-99941902D01*
X170154988Y-99889751D01*
X170136494Y-99845254D01*
X170121885Y-99810492D01*
X170112010Y-99787544D01*
X170107911Y-99778779D01*
X170097770Y-99761829D01*
X170081680Y-99778779D01*
X170076161Y-99788931D01*
X170065182Y-99812745D01*
X170049585Y-99848181D01*
X170030213Y-99893198D01*
X170007910Y-99945757D01*
X169983518Y-100003817D01*
X169957880Y-100065339D01*
X169931839Y-100128281D01*
X169906239Y-100190605D01*
X169881922Y-100250269D01*
X169859732Y-100305234D01*
X169840511Y-100353460D01*
X169825102Y-100392907D01*
X169814349Y-100421533D01*
X169809094Y-100437300D01*
X169808709Y-100439380D01*
X169327464Y-100439380D01*
X169357032Y-100368481D01*
X169399768Y-100266115D01*
X169442023Y-100165012D01*
X169483293Y-100066380D01*
X169523074Y-99971424D01*
X169560863Y-99881351D01*
X169596158Y-99797367D01*
X169628454Y-99720680D01*
X169657249Y-99652495D01*
X169682038Y-99594019D01*
X169702319Y-99546459D01*
X169717589Y-99511020D01*
X169727344Y-99488911D01*
X169730185Y-99482850D01*
X169756016Y-99441383D01*
X169789998Y-99400800D01*
X169827720Y-99365593D01*
X169864773Y-99340255D01*
X169875030Y-99335279D01*
X169931094Y-99317355D01*
X169998045Y-99305819D01*
X170071023Y-99300782D01*
X170145170Y-99302358D01*
G37*
G04 #@! TD.AperFunction*
G04 #@! TA.AperFunction,EtchedComponent*
G36*
X164881454Y-99326371D02*
G01*
X164974253Y-99326705D01*
X165081942Y-99327170D01*
X165160683Y-99327530D01*
X165281860Y-99328085D01*
X165387352Y-99328612D01*
X165478423Y-99329198D01*
X165556340Y-99329929D01*
X165622366Y-99330891D01*
X165677767Y-99332173D01*
X165723807Y-99333859D01*
X165761752Y-99336038D01*
X165792866Y-99338794D01*
X165818414Y-99342216D01*
X165839661Y-99346389D01*
X165857873Y-99351401D01*
X165874313Y-99357337D01*
X165890247Y-99364284D01*
X165906940Y-99372330D01*
X165921747Y-99379643D01*
X165977853Y-99413092D01*
X166023898Y-99454679D01*
X166061306Y-99503271D01*
X166097361Y-99570107D01*
X166126011Y-99650902D01*
X166146935Y-99744217D01*
X166159813Y-99848610D01*
X166164322Y-99962643D01*
X166164324Y-99965232D01*
X166159768Y-100094748D01*
X166146053Y-100210391D01*
X166123206Y-100312065D01*
X166091254Y-100399670D01*
X166050225Y-100473109D01*
X166009068Y-100523469D01*
X165959578Y-100566548D01*
X165904737Y-100598790D01*
X165842131Y-100621029D01*
X165769348Y-100634099D01*
X165683972Y-100638834D01*
X165674959Y-100638881D01*
X165637039Y-100639454D01*
X165606269Y-100640917D01*
X165586029Y-100643040D01*
X165579613Y-100645320D01*
X165585433Y-100652355D01*
X165602147Y-100670211D01*
X165628639Y-100697749D01*
X165663792Y-100733828D01*
X165706490Y-100777309D01*
X165755617Y-100827054D01*
X165810055Y-100881921D01*
X165868689Y-100940773D01*
X165891032Y-100963138D01*
X166202450Y-101274642D01*
X165892057Y-101274642D01*
X165581663Y-101274642D01*
X165362404Y-101022702D01*
X165311052Y-100963806D01*
X165260574Y-100906118D01*
X165212657Y-100851551D01*
X165168990Y-100802018D01*
X165131257Y-100759434D01*
X165101148Y-100725711D01*
X165080349Y-100702763D01*
X165079400Y-100701733D01*
X165049971Y-100668111D01*
X165022209Y-100633322D01*
X165000005Y-100602393D01*
X164990607Y-100587123D01*
X164977863Y-100561895D01*
X164970296Y-100539516D01*
X164966586Y-100513825D01*
X164965411Y-100478663D01*
X164965362Y-100469503D01*
X164967619Y-100416955D01*
X164975882Y-100377389D01*
X164991893Y-100347384D01*
X165017397Y-100323517D01*
X165049282Y-100304769D01*
X165065616Y-100296740D01*
X165080313Y-100290583D01*
X165095966Y-100285969D01*
X165115170Y-100282569D01*
X165140520Y-100280054D01*
X165174611Y-100278095D01*
X165220038Y-100276364D01*
X165279395Y-100274531D01*
X165290432Y-100274204D01*
X165363635Y-100271681D01*
X165422096Y-100268637D01*
X165468027Y-100264650D01*
X165503636Y-100259295D01*
X165531133Y-100252148D01*
X165552726Y-100242784D01*
X165570627Y-100230779D01*
X165585145Y-100217627D01*
X165608692Y-100186923D01*
X165625636Y-100147449D01*
X165636531Y-100097065D01*
X165641930Y-100033633D01*
X165642748Y-99994895D01*
X165641318Y-99928790D01*
X165635921Y-99876513D01*
X165625877Y-99835262D01*
X165610504Y-99802237D01*
X165589191Y-99774711D01*
X165575740Y-99761252D01*
X165562277Y-99750173D01*
X165547074Y-99741244D01*
X165528401Y-99734233D01*
X165504527Y-99728909D01*
X165473723Y-99725042D01*
X165434259Y-99722399D01*
X165384405Y-99720750D01*
X165322432Y-99719864D01*
X165246609Y-99719509D01*
X165175551Y-99719453D01*
X165095301Y-99719484D01*
X165030242Y-99719638D01*
X164978618Y-99720011D01*
X164938670Y-99720696D01*
X164908641Y-99721789D01*
X164886773Y-99723383D01*
X164871308Y-99725573D01*
X164860487Y-99728452D01*
X164852553Y-99732117D01*
X164845748Y-99736660D01*
X164845021Y-99737197D01*
X164825246Y-99758073D01*
X164811063Y-99783554D01*
X164810973Y-99783810D01*
X164809057Y-99793951D01*
X164807363Y-99813290D01*
X164805882Y-99842594D01*
X164804603Y-99882630D01*
X164803514Y-99934165D01*
X164802605Y-99997966D01*
X164801866Y-100074799D01*
X164801286Y-100165432D01*
X164800853Y-100270630D01*
X164800558Y-100391162D01*
X164800390Y-100527793D01*
X164800379Y-100543661D01*
X164799900Y-101274642D01*
X164549692Y-101274642D01*
X164299484Y-101274642D01*
X164301794Y-100399583D01*
X164302148Y-100254407D01*
X164302447Y-100125186D01*
X164302766Y-100010925D01*
X164303181Y-99910629D01*
X164303765Y-99823303D01*
X164304593Y-99747952D01*
X164305739Y-99683581D01*
X164307278Y-99629195D01*
X164309285Y-99583800D01*
X164311833Y-99546400D01*
X164314998Y-99516000D01*
X164318855Y-99491606D01*
X164323476Y-99472223D01*
X164328938Y-99456854D01*
X164335314Y-99444507D01*
X164342679Y-99434185D01*
X164351108Y-99424894D01*
X164360675Y-99415639D01*
X164371455Y-99405425D01*
X164376630Y-99400341D01*
X164405588Y-99374678D01*
X164435202Y-99357141D01*
X164473419Y-99343076D01*
X164475385Y-99342475D01*
X164486772Y-99339116D01*
X164498084Y-99336215D01*
X164510569Y-99333744D01*
X164525472Y-99331675D01*
X164544043Y-99329983D01*
X164567526Y-99328639D01*
X164597171Y-99327616D01*
X164634223Y-99326888D01*
X164679931Y-99326426D01*
X164735540Y-99326204D01*
X164802299Y-99326195D01*
X164881454Y-99326371D01*
G37*
G04 #@! TD.AperFunction*
G04 #@! TA.AperFunction,EtchedComponent*
G36*
X161847329Y-99310844D02*
G01*
X161905508Y-99317344D01*
X161926039Y-99321459D01*
X161999603Y-99346861D01*
X162067356Y-99385964D01*
X162126500Y-99436526D01*
X162174235Y-99496308D01*
X162197814Y-99539038D01*
X162204744Y-99555715D01*
X162216924Y-99586925D01*
X162233831Y-99631262D01*
X162254942Y-99687322D01*
X162279732Y-99753700D01*
X162307680Y-99828992D01*
X162338262Y-99911792D01*
X162370954Y-100000696D01*
X162405234Y-100094300D01*
X162434575Y-100174712D01*
X162469346Y-100270001D01*
X162502629Y-100360899D01*
X162533944Y-100446108D01*
X162562808Y-100524333D01*
X162588739Y-100594275D01*
X162611254Y-100654639D01*
X162629873Y-100704127D01*
X162644113Y-100741443D01*
X162653491Y-100765288D01*
X162657379Y-100774165D01*
X162675005Y-100792879D01*
X162693699Y-100794897D01*
X162708112Y-100785278D01*
X162713430Y-100774998D01*
X162724021Y-100750042D01*
X162739405Y-100711676D01*
X162759099Y-100661167D01*
X162782622Y-100599782D01*
X162809492Y-100528788D01*
X162839226Y-100449450D01*
X162871344Y-100363036D01*
X162905362Y-100270813D01*
X162940799Y-100174046D01*
X162944257Y-100164566D01*
X162980065Y-100066640D01*
X163014662Y-99972538D01*
X163047545Y-99883599D01*
X163078210Y-99801162D01*
X163106153Y-99726566D01*
X163130872Y-99661150D01*
X163151861Y-99606252D01*
X163168619Y-99563211D01*
X163180640Y-99533367D01*
X163187421Y-99518057D01*
X163187608Y-99517708D01*
X163231936Y-99451119D01*
X163285510Y-99397861D01*
X163349052Y-99357523D01*
X163423284Y-99329693D01*
X163508927Y-99313959D01*
X163550256Y-99310770D01*
X163645225Y-99311659D01*
X163730928Y-99323817D01*
X163805744Y-99346959D01*
X163836288Y-99361335D01*
X163878836Y-99388133D01*
X163911431Y-99419585D01*
X163938583Y-99460581D01*
X163951622Y-99486387D01*
X163973574Y-99533000D01*
X163973574Y-100405940D01*
X163973574Y-101278879D01*
X163728351Y-101281130D01*
X163665414Y-101281466D01*
X163607958Y-101281309D01*
X163558178Y-101280701D01*
X163518264Y-101279687D01*
X163490410Y-101278309D01*
X163476807Y-101276610D01*
X163475926Y-101276179D01*
X163474922Y-101266778D01*
X163474188Y-101241710D01*
X163473721Y-101202258D01*
X163473516Y-101149702D01*
X163473570Y-101085324D01*
X163473877Y-101010407D01*
X163474434Y-100926230D01*
X163475237Y-100834077D01*
X163476281Y-100735229D01*
X163477562Y-100630966D01*
X163478168Y-100586036D01*
X163479900Y-100458999D01*
X163481333Y-100347853D01*
X163482444Y-100251540D01*
X163483205Y-100169003D01*
X163483591Y-100099182D01*
X163483578Y-100041022D01*
X163483138Y-99993464D01*
X163482246Y-99955451D01*
X163480877Y-99925925D01*
X163479004Y-99903829D01*
X163476603Y-99888104D01*
X163473648Y-99877694D01*
X163470112Y-99871540D01*
X163465970Y-99868586D01*
X163461196Y-99867772D01*
X163460725Y-99867768D01*
X163450779Y-99874151D01*
X163439253Y-99888357D01*
X163434234Y-99899569D01*
X163424015Y-99925435D01*
X163409082Y-99964639D01*
X163389920Y-100015865D01*
X163367014Y-100077799D01*
X163340847Y-100149124D01*
X163311905Y-100228525D01*
X163280672Y-100314687D01*
X163247634Y-100406295D01*
X163218309Y-100487973D01*
X163183726Y-100584279D01*
X163150248Y-100677080D01*
X163118396Y-100764959D01*
X163088691Y-100846498D01*
X163061655Y-100920279D01*
X163037809Y-100984884D01*
X163017672Y-101038895D01*
X163001767Y-101080894D01*
X162990614Y-101109463D01*
X162985504Y-101121608D01*
X162951172Y-101183864D01*
X162912591Y-101230950D01*
X162868405Y-101264400D01*
X162851214Y-101273238D01*
X162827508Y-101283111D01*
X162804551Y-101289677D01*
X162777631Y-101293710D01*
X162742036Y-101295984D01*
X162706540Y-101297007D01*
X162666044Y-101297478D01*
X162630563Y-101297171D01*
X162604261Y-101296165D01*
X162592126Y-101294795D01*
X162528938Y-101273459D01*
X162478199Y-101243412D01*
X162436700Y-101202082D01*
X162401234Y-101146897D01*
X162396632Y-101138046D01*
X162390061Y-101122745D01*
X162378340Y-101092825D01*
X162361968Y-101049649D01*
X162341446Y-100994578D01*
X162317273Y-100928976D01*
X162289949Y-100854203D01*
X162259974Y-100771622D01*
X162227848Y-100682596D01*
X162194069Y-100588487D01*
X162159615Y-100491993D01*
X162125012Y-100395170D01*
X162091772Y-100302816D01*
X162060369Y-100216205D01*
X162031274Y-100136609D01*
X162004961Y-100065301D01*
X161981902Y-100003556D01*
X161962569Y-99952647D01*
X161947435Y-99913846D01*
X161936973Y-99888427D01*
X161931656Y-99877663D01*
X161931546Y-99877545D01*
X161919850Y-99868375D01*
X161911085Y-99872454D01*
X161905121Y-99879982D01*
X161902890Y-99884973D01*
X161900941Y-99894229D01*
X161899255Y-99908800D01*
X161897814Y-99929735D01*
X161896602Y-99958083D01*
X161895598Y-99994892D01*
X161894786Y-100041213D01*
X161894148Y-100098094D01*
X161893665Y-100166585D01*
X161893319Y-100247735D01*
X161893093Y-100342592D01*
X161892968Y-100452207D01*
X161892927Y-100577628D01*
X161892927Y-100589775D01*
X161892927Y-101283117D01*
X161646994Y-101283117D01*
X161401062Y-101283117D01*
X161403334Y-100403821D01*
X161405606Y-99524525D01*
X161425093Y-99482149D01*
X161457533Y-99429502D01*
X161502305Y-99386605D01*
X161560192Y-99352925D01*
X161631978Y-99327929D01*
X161661843Y-99320854D01*
X161718570Y-99312583D01*
X161782708Y-99309251D01*
X161847329Y-99310844D01*
G37*
G04 #@! TD.AperFunction*
D12*
X135500000Y-60650000D03*
D13*
X162920000Y-82050000D03*
X165460000Y-82050000D03*
X168000000Y-82050000D03*
D14*
X170540000Y-82050000D03*
D13*
X173080000Y-82050000D03*
D15*
X112298466Y-100908502D03*
X114971486Y-99546531D03*
X112701534Y-95091498D03*
X110028514Y-96453469D03*
D12*
X59500000Y-85500000D03*
D16*
X165400000Y-89300000D03*
X173500000Y-93700000D03*
X170500000Y-93700000D03*
X166500000Y-93700000D03*
D17*
X160380000Y-46630000D03*
D18*
X175620000Y-46630000D03*
D12*
X135500000Y-99000000D03*
D13*
X175620000Y-49030000D03*
X175620000Y-51570000D03*
D14*
X175620000Y-54110000D03*
X175620000Y-56650000D03*
D13*
X175620000Y-59190000D03*
X175620000Y-61730000D03*
X175620000Y-64270000D03*
X175620000Y-66810000D03*
X175620000Y-69350000D03*
X175620000Y-71890000D03*
X175620000Y-74430000D03*
X175620000Y-76970000D03*
X160380000Y-76970000D03*
X160380000Y-74430000D03*
X160380000Y-71890000D03*
X160380000Y-69350000D03*
X160380000Y-66810000D03*
X160380000Y-64270000D03*
X160380000Y-61730000D03*
X160380000Y-59190000D03*
X160380000Y-56650000D03*
X160380000Y-54110000D03*
D14*
X160380000Y-51570000D03*
D13*
X160380000Y-49030000D03*
D12*
X59500000Y-66500000D03*
D19*
X152500000Y-55875000D03*
X162000000Y-63000000D03*
X162000000Y-65500000D03*
X152500000Y-74875000D03*
X162000000Y-68100000D03*
X152500000Y-93875000D03*
X152500000Y-113575000D03*
X162000000Y-70600000D03*
X42920000Y-54460000D03*
X42915000Y-73470000D03*
X42915000Y-92460000D03*
X42940000Y-81000000D03*
X61910000Y-92470000D03*
X61900000Y-73480000D03*
X61900000Y-81724500D03*
X61900000Y-54450000D03*
X80910000Y-47460000D03*
X80920000Y-85460000D03*
X80920000Y-66460000D03*
X80930497Y-80830497D03*
X99910000Y-63450000D03*
X99898695Y-74498695D03*
X99910000Y-82450000D03*
X99900000Y-44460000D03*
X99900883Y-90200839D03*
X118900201Y-91999799D03*
X118920000Y-85450000D03*
X118910000Y-47460000D03*
X118920000Y-66460000D03*
X118920000Y-76074500D03*
X137900000Y-78824500D03*
X137910000Y-87770000D03*
X137910000Y-49760000D03*
X137920000Y-68760000D03*
X137910000Y-94599500D03*
X168814530Y-53416720D03*
X99106250Y-53525000D03*
X166406250Y-57925000D03*
X167206250Y-60525000D03*
X99175500Y-54825000D03*
D20*
X152500000Y-62043112D02*
X152500000Y-55875000D01*
X153456888Y-63000000D02*
X161931250Y-63000000D01*
X152500000Y-62043112D02*
G75*
G03*
X153456888Y-63000000I956900J12D01*
G01*
X153594235Y-65500000D02*
X162000000Y-65500000D01*
X152500000Y-74875000D02*
X152500000Y-66594235D01*
X153594235Y-65500000D02*
G75*
G03*
X152500000Y-66594235I-35J-1094200D01*
G01*
X152950000Y-74105240D02*
X152950000Y-69139993D01*
X152739067Y-75661237D02*
X153045643Y-75354661D01*
X153989993Y-68100000D02*
X162000000Y-68100000D01*
X153225000Y-74921655D02*
X153225000Y-74769149D01*
X152500000Y-93875000D02*
X152500000Y-76238397D01*
X153989993Y-68100000D02*
G75*
G03*
X152950000Y-69139993I7J-1040000D01*
G01*
X153045673Y-75354691D02*
G75*
G03*
X153225000Y-74921655I-433073J432991D01*
G01*
X153225022Y-74769149D02*
G75*
G03*
X153087500Y-74437195I-469522J-51D01*
G01*
X152949985Y-74105240D02*
G75*
G03*
X153087500Y-74437195I469515J40D01*
G01*
X152739074Y-75661244D02*
G75*
G03*
X152500000Y-76238397I577126J-577156D01*
G01*
X153400000Y-73918844D02*
X153400000Y-71698321D01*
X152500000Y-113575000D02*
X152500000Y-95238398D01*
X153189067Y-75847633D02*
X153435931Y-75600768D01*
X152950000Y-93105240D02*
X152950000Y-76424793D01*
X153225000Y-93915879D02*
X153225000Y-93769149D01*
X154498321Y-70600000D02*
X162000000Y-70600000D01*
X153675000Y-75023608D02*
X153675000Y-74582753D01*
X152739067Y-94661236D02*
X153041558Y-94358746D01*
X153435922Y-75600759D02*
G75*
G03*
X153675000Y-75023608I-577122J577159D01*
G01*
X153225022Y-93769149D02*
G75*
G03*
X153087500Y-93437195I-469522J-51D01*
G01*
X152739075Y-94661244D02*
G75*
G03*
X152500000Y-95238398I577125J-577156D01*
G01*
X153041567Y-94358755D02*
G75*
G03*
X153225000Y-93915879I-442867J442855D01*
G01*
X153399982Y-73918844D02*
G75*
G03*
X153537500Y-74250799I469518J44D01*
G01*
X154498321Y-70600000D02*
G75*
G03*
X153400000Y-71698321I-21J-1098300D01*
G01*
X153189076Y-75847642D02*
G75*
G03*
X152950000Y-76424793I577124J-577158D01*
G01*
X152949985Y-93105240D02*
G75*
G03*
X153087500Y-93437195I469515J40D01*
G01*
X153675019Y-74582753D02*
G75*
G03*
X153537500Y-74250799I-469519J-47D01*
G01*
X42915000Y-73470000D02*
X42915000Y-54465000D01*
X42940000Y-81000000D02*
X42940000Y-92480000D01*
X42940000Y-81000000D02*
X42940000Y-73495000D01*
X61900000Y-81724500D02*
X61910000Y-81734500D01*
D21*
X61900000Y-73480000D02*
X61900000Y-81724500D01*
D20*
X61890000Y-54460000D02*
X61890000Y-73470000D01*
X61910000Y-81734500D02*
X61910000Y-92470000D01*
D21*
X80924740Y-66464740D02*
X80920000Y-66460000D01*
D20*
X80924740Y-80836254D02*
X80924740Y-85455260D01*
X80910000Y-47460000D02*
X80910000Y-66450000D01*
X80930497Y-80830497D02*
X80924740Y-80824740D01*
X80924740Y-80824740D02*
X80924740Y-66464740D01*
D21*
X80924740Y-85455260D02*
X80920000Y-85460000D01*
X80910000Y-66450000D02*
X80920000Y-66460000D01*
D20*
X80930497Y-80830497D02*
X80924740Y-80836254D01*
D21*
X99910000Y-74487390D02*
X99898695Y-74498695D01*
D20*
X99910000Y-74510000D02*
X99898695Y-74498695D01*
X99910000Y-82450000D02*
X99910000Y-74510000D01*
X99910000Y-90191722D02*
X99910000Y-82450000D01*
X99900000Y-44460000D02*
X99900000Y-63440000D01*
D21*
X99910000Y-63450000D02*
X99910000Y-74487390D01*
X99900000Y-63440000D02*
X99910000Y-63450000D01*
D20*
X118920000Y-76074500D02*
X118920000Y-85450000D01*
X118900201Y-91999799D02*
X118919021Y-91980979D01*
X118920000Y-76074500D02*
X118920000Y-66460000D01*
X118919021Y-91980979D02*
X118919021Y-85450979D01*
D21*
X118920000Y-47470000D02*
X118910000Y-47460000D01*
D20*
X118920000Y-66460000D02*
X118920000Y-47470000D01*
X137910000Y-49760000D02*
X137910000Y-68750000D01*
X137920000Y-78804500D02*
X137900000Y-78824500D01*
X137920000Y-68760000D02*
X137920000Y-78804500D01*
X137910000Y-94599500D02*
X137910000Y-87770000D01*
X137900000Y-87760000D02*
X137900000Y-78824500D01*
X98735000Y-82742246D02*
X98736460Y-82803858D01*
X98760141Y-89728325D02*
X98727185Y-89851355D01*
X98829825Y-81870293D02*
X98768172Y-81977044D01*
X99055256Y-93295632D02*
X99206500Y-93422543D01*
X98725883Y-89915039D02*
X98725883Y-92494718D01*
X98867941Y-89572079D02*
X98823818Y-89618018D01*
D22*
X175620000Y-54110000D02*
X175620000Y-56650000D01*
D20*
X98909980Y-73823856D02*
X98865847Y-73869841D01*
X98829629Y-92973402D02*
X98928347Y-93144386D01*
X99206500Y-93422543D02*
X99377483Y-93521264D01*
X99010000Y-89229119D02*
X99008709Y-89292802D01*
X98829976Y-83029593D02*
X98872500Y-83074201D01*
X98450500Y-54818842D02*
X98450500Y-54878231D01*
X98767913Y-63923069D02*
X98829102Y-64029059D01*
X99000000Y-62510915D02*
X98998604Y-62570288D01*
X98723695Y-74782947D02*
X98725033Y-74847118D01*
X99106250Y-53525000D02*
X99106250Y-53824999D01*
X98865847Y-73869841D02*
X98821705Y-73915819D01*
X169045317Y-75495021D02*
X170300932Y-76750636D01*
X106861952Y-93625000D02*
X106942193Y-93626536D01*
X98976623Y-83225528D02*
X99008522Y-83344546D01*
X98928347Y-93144386D02*
X99055256Y-93295632D01*
X99856165Y-93625000D02*
X106861952Y-93625000D01*
X99008539Y-81555456D02*
X98976639Y-81674478D01*
X98727814Y-92593436D02*
X98762101Y-92787873D01*
X98975102Y-64223326D02*
X99006772Y-64341546D01*
X98975739Y-89415827D02*
X98912050Y-89526126D01*
X170540000Y-77327796D02*
X170540000Y-82050000D01*
X98826513Y-62873777D02*
X98767139Y-62976612D01*
X98689567Y-55455391D02*
X98760932Y-55526756D01*
X98913911Y-64117332D02*
X98975102Y-64223326D01*
X98915010Y-83118820D02*
X98976623Y-83225528D01*
X98915024Y-81781191D02*
X98872500Y-81825799D01*
X98735000Y-82157753D02*
X98735000Y-82742246D01*
X99000000Y-56103916D02*
X99000000Y-62510915D01*
X98735000Y-63743660D02*
X98736244Y-63804853D01*
X98758240Y-74971088D02*
X98822406Y-75082238D01*
X107381300Y-93808401D02*
X107439112Y-93864067D01*
X106942193Y-93626536D02*
X107099593Y-93657837D01*
X98767139Y-62976612D02*
X98736403Y-63091310D01*
X168814530Y-53416720D02*
X168806250Y-53425000D01*
X98821705Y-73915819D02*
X98757982Y-74026194D01*
X98975228Y-75286106D02*
X99008438Y-75410010D01*
X98757982Y-74026194D02*
X98725000Y-74149302D01*
X98727185Y-89851355D02*
X98725883Y-89915039D01*
X99006772Y-64341546D02*
X99008000Y-64402741D01*
X99006676Y-73590378D02*
X98973698Y-73713483D01*
X99010000Y-83406155D02*
X99010000Y-89229119D01*
X99757447Y-93623084D02*
X99856165Y-93625000D01*
X98872500Y-81825799D02*
X98829825Y-81870293D01*
X98762101Y-92787873D02*
X98829629Y-92973402D01*
X99008000Y-73526655D02*
X99006676Y-73590378D01*
X98967867Y-62684988D02*
X98908493Y-62787825D01*
X107099593Y-93657837D02*
X107247862Y-93719245D01*
X99008000Y-64402741D02*
X99008000Y-73526655D01*
X99563011Y-93588795D02*
X99757447Y-93623084D01*
X98768360Y-82922880D02*
X98829976Y-83029593D01*
X98912050Y-89526126D02*
X98867941Y-89572079D01*
X99008709Y-89292802D02*
X98975739Y-89415827D01*
X107247862Y-93719245D02*
X107381300Y-93808401D01*
X98735000Y-63150682D02*
X98735000Y-63743660D01*
X98725883Y-92494718D02*
X98727814Y-92593436D01*
X98829102Y-64029059D02*
X98871500Y-64073201D01*
X98871500Y-64073201D02*
X98913911Y-64117332D01*
X98736244Y-63804853D02*
X98767913Y-63923069D01*
X98736252Y-82096115D02*
X98735000Y-82157753D01*
X98723695Y-74213027D02*
X98723695Y-74782947D01*
X98872500Y-83074201D02*
X98915010Y-83118820D01*
X168806250Y-74917861D02*
X168806250Y-53425000D01*
X107439112Y-93864067D02*
X110028514Y-96453469D01*
X98725000Y-74149302D02*
X98723695Y-74213027D01*
X98725033Y-74847118D02*
X98758240Y-74971088D01*
X99377483Y-93521264D02*
X99563011Y-93588795D01*
X98911085Y-75175016D02*
X98975228Y-75286106D01*
X99010000Y-75474149D02*
X99010000Y-81493844D01*
X98768172Y-81977044D02*
X98736252Y-82096115D01*
X98866847Y-75128548D02*
X98911085Y-75175016D01*
X98867500Y-62830799D02*
X98826513Y-62873777D01*
X98998604Y-62570288D02*
X98967867Y-62684988D01*
X98822406Y-75082238D02*
X98866847Y-75128548D01*
X98973698Y-73713483D02*
X98909980Y-73823856D01*
X99106250Y-53824999D02*
X98689567Y-54241682D01*
X98823818Y-89618018D02*
X98760141Y-89728325D01*
X98976639Y-81674478D02*
X98915024Y-81781191D01*
X98736460Y-82803858D02*
X98768360Y-82922880D01*
X99010000Y-81493844D02*
X99008539Y-81555456D01*
X98908493Y-62787825D02*
X98867500Y-62830799D01*
X98736403Y-63091310D02*
X98735000Y-63150682D01*
X99008438Y-75410010D02*
X99010000Y-75474149D01*
X99008522Y-83344546D02*
X99010000Y-83406155D01*
X98450470Y-54878231D02*
G75*
G03*
X98689567Y-55455391I816230J31D01*
G01*
X168806284Y-74917861D02*
G75*
G03*
X169045317Y-75495021I816216J-39D01*
G01*
X170540010Y-77327796D02*
G75*
G03*
X170300932Y-76750636I-816210J-4D01*
G01*
X98689552Y-54241667D02*
G75*
G03*
X98450500Y-54818842I577148J-577133D01*
G01*
X98999996Y-56103916D02*
G75*
G03*
X98760932Y-55526756I-816196J16D01*
G01*
X162920000Y-78749342D02*
X162920000Y-82050000D01*
X163159067Y-78172182D02*
X166167182Y-75164067D01*
X166406250Y-74586907D02*
X166406250Y-57925000D01*
X166167183Y-75164068D02*
G75*
G03*
X166406250Y-74586907I-577183J577168D01*
G01*
X163159052Y-78172167D02*
G75*
G03*
X162920000Y-78749342I577148J-577133D01*
G01*
X165699067Y-76732182D02*
X166967182Y-75464067D01*
X167206250Y-74886907D02*
X167206250Y-60525000D01*
X165460000Y-77309342D02*
X165460000Y-82050000D01*
X165699052Y-76732167D02*
G75*
G03*
X165460000Y-77309342I577148J-577133D01*
G01*
X166967183Y-75464068D02*
G75*
G03*
X167206250Y-74886907I-577183J577168D01*
G01*
X161364512Y-55665487D02*
X160380000Y-56650000D01*
X167089463Y-55325000D02*
X162186521Y-55325000D01*
X168006250Y-56241787D02*
X168006250Y-81843750D01*
X167800000Y-82050000D02*
X168006250Y-81843750D01*
X162186521Y-55325016D02*
G75*
G03*
X161364512Y-55665487I-21J-1162484D01*
G01*
X168006300Y-56241787D02*
G75*
G03*
X167089463Y-55325000I-916800J-13D01*
G01*
X99185000Y-82555850D02*
X99185000Y-82344149D01*
X111034731Y-93424695D02*
X112701534Y-95091498D01*
X99460000Y-83219759D02*
X99460000Y-89415515D01*
X99185000Y-63337078D02*
X99185000Y-63557264D01*
X99951799Y-93175000D02*
X110431914Y-93175000D01*
X99175883Y-92399084D02*
X99175883Y-90101435D01*
X99173695Y-74596551D02*
X99173695Y-74399423D01*
X99458000Y-64216345D02*
X99458000Y-73713051D01*
X99460000Y-75287753D02*
X99460000Y-81680240D01*
X99450000Y-62697311D02*
X99450000Y-55099500D01*
X99175500Y-54825000D02*
X99450000Y-55099500D01*
X99317930Y-89758464D02*
G75*
G03*
X99460000Y-89415515I-342930J342964D01*
G01*
X99315814Y-74056204D02*
G75*
G03*
X99458000Y-73713051I-343114J343204D01*
G01*
X99322489Y-82012184D02*
G75*
G03*
X99460000Y-81680240I-331989J331984D01*
G01*
X111034722Y-93424704D02*
G75*
G03*
X110431914Y-93175000I-602822J-602796D01*
G01*
X99317924Y-89758458D02*
G75*
G03*
X99175883Y-90101435I342976J-342942D01*
G01*
X99184978Y-82555850D02*
G75*
G03*
X99322500Y-82887805I469522J50D01*
G01*
X99460015Y-83219759D02*
G75*
G03*
X99322500Y-82887805I-469515J-41D01*
G01*
X99317507Y-63017202D02*
G75*
G03*
X99185000Y-63337078I319893J-319898D01*
G01*
X99460019Y-75287753D02*
G75*
G03*
X99316847Y-74942152I-488819J-47D01*
G01*
X99175900Y-92399084D02*
G75*
G03*
X99951799Y-93175000I775900J-16D01*
G01*
X99173715Y-74596551D02*
G75*
G03*
X99316847Y-74942152I488685J-49D01*
G01*
X99315843Y-74056233D02*
G75*
G03*
X99173695Y-74399423I343157J-343167D01*
G01*
X99317498Y-63017193D02*
G75*
G03*
X99450000Y-62697311I-319898J319893D01*
G01*
X99185014Y-63557264D02*
G75*
G03*
X99321501Y-63886804I465986J-36D01*
G01*
X99457979Y-64216345D02*
G75*
G03*
X99321499Y-63886806I-465979J45D01*
G01*
X99322487Y-82012182D02*
G75*
G03*
X99185000Y-82344149I331913J-331918D01*
G01*
X169606250Y-51257541D02*
X169606250Y-74586907D01*
X175601250Y-49030000D02*
X175620000Y-49030000D01*
X172840932Y-78159682D02*
X169845317Y-75164067D01*
X174750405Y-49880844D02*
X175601250Y-49030000D01*
X173080000Y-78736842D02*
X173080000Y-82050000D01*
X173919539Y-50225000D02*
X170638791Y-50225000D01*
X173079978Y-78736842D02*
G75*
G03*
X172840932Y-78159682I-816178J42D01*
G01*
X173919539Y-50225033D02*
G75*
G03*
X174750404Y-49880843I-39J1175033D01*
G01*
X170638791Y-50224950D02*
G75*
G03*
X169606250Y-51257541I9J-1032550D01*
G01*
X169606252Y-74586907D02*
G75*
G03*
X169845318Y-75164066I816248J7D01*
G01*
G04 #@! TA.AperFunction,Conductor*
G36*
X161831703Y-67745826D02*
G01*
X161995565Y-67903404D01*
X162041351Y-67947435D01*
X162191230Y-68091566D01*
X162194818Y-68099770D01*
X162191553Y-68108109D01*
X162191230Y-68108432D01*
X161831703Y-68454173D01*
X161823364Y-68457438D01*
X161818190Y-68456118D01*
X161755993Y-68423735D01*
X161755464Y-68423442D01*
X161696077Y-68388512D01*
X161695762Y-68388319D01*
X161643187Y-68355116D01*
X161594437Y-68324310D01*
X161594427Y-68324303D01*
X161594359Y-68324261D01*
X161594277Y-68324214D01*
X161594170Y-68324149D01*
X161546556Y-68296594D01*
X161546554Y-68296593D01*
X161546352Y-68296476D01*
X161546150Y-68296379D01*
X161546144Y-68296376D01*
X161496339Y-68272505D01*
X161496326Y-68272499D01*
X161496064Y-68272374D01*
X161495780Y-68272273D01*
X161495773Y-68272270D01*
X161464230Y-68261047D01*
X161440389Y-68252564D01*
X161440079Y-68252492D01*
X161440069Y-68252489D01*
X161376523Y-68237728D01*
X161376524Y-68237728D01*
X161376222Y-68237658D01*
X161375912Y-68237619D01*
X161375909Y-68237619D01*
X161300717Y-68228297D01*
X161300700Y-68228295D01*
X161300461Y-68228266D01*
X161300211Y-68228256D01*
X161300199Y-68228256D01*
X161221278Y-68225407D01*
X161213134Y-68221684D01*
X161210000Y-68213715D01*
X161210000Y-67986284D01*
X161213427Y-67978011D01*
X161221276Y-67974592D01*
X161300461Y-67971733D01*
X161376222Y-67962341D01*
X161440389Y-67947435D01*
X161496064Y-67927625D01*
X161546352Y-67903523D01*
X161594359Y-67875738D01*
X161643187Y-67844883D01*
X161695841Y-67811629D01*
X161696032Y-67811513D01*
X161755479Y-67776547D01*
X161755978Y-67776270D01*
X161818190Y-67743880D01*
X161827111Y-67743100D01*
X161831703Y-67745826D01*
G37*
G04 #@! TD.AperFunction*
G04 #@! TA.AperFunction,Conductor*
G36*
X167214360Y-60333446D02*
G01*
X167214683Y-60333769D01*
X167560423Y-60693296D01*
X167563688Y-60701635D01*
X167562368Y-60706809D01*
X167529985Y-60769005D01*
X167529692Y-60769534D01*
X167494762Y-60828921D01*
X167494569Y-60829236D01*
X167461366Y-60881812D01*
X167430560Y-60930561D01*
X167430542Y-60930590D01*
X167430511Y-60930640D01*
X167430470Y-60930710D01*
X167430399Y-60930829D01*
X167402844Y-60978442D01*
X167402837Y-60978455D01*
X167402726Y-60978647D01*
X167402634Y-60978838D01*
X167402626Y-60978854D01*
X167378755Y-61028659D01*
X167378746Y-61028678D01*
X167378624Y-61028935D01*
X167378525Y-61029211D01*
X167378520Y-61029225D01*
X167358925Y-61084298D01*
X167358814Y-61084610D01*
X167358743Y-61084914D01*
X167358739Y-61084929D01*
X167343978Y-61148475D01*
X167343908Y-61148777D01*
X167343870Y-61149082D01*
X167343869Y-61149089D01*
X167334547Y-61224281D01*
X167334545Y-61224300D01*
X167334516Y-61224538D01*
X167334507Y-61224785D01*
X167334506Y-61224799D01*
X167331657Y-61303722D01*
X167327934Y-61311866D01*
X167319965Y-61315000D01*
X167092535Y-61315000D01*
X167084262Y-61311573D01*
X167080843Y-61303722D01*
X167077992Y-61224799D01*
X167077983Y-61224538D01*
X167068591Y-61148777D01*
X167053685Y-61084610D01*
X167033875Y-61028935D01*
X167009773Y-60978647D01*
X166981988Y-60930640D01*
X166951133Y-60881812D01*
X166917898Y-60829186D01*
X166917736Y-60828921D01*
X166882806Y-60769534D01*
X166882513Y-60769005D01*
X166850131Y-60706809D01*
X166849350Y-60697888D01*
X166852074Y-60693297D01*
X167197817Y-60333768D01*
X167206021Y-60330181D01*
X167214360Y-60333446D01*
G37*
G04 #@! TD.AperFunction*
G04 #@! TA.AperFunction,Conductor*
G36*
X163042143Y-80563427D02*
G01*
X163045554Y-80571116D01*
X163053737Y-80735128D01*
X163053797Y-80735481D01*
X163053798Y-80735483D01*
X163078509Y-80879065D01*
X163078511Y-80879071D01*
X163117163Y-80998622D01*
X163167535Y-81100573D01*
X163167724Y-81100861D01*
X163167729Y-81100869D01*
X163227342Y-81191528D01*
X163227351Y-81191540D01*
X163227467Y-81191717D01*
X163227597Y-81191885D01*
X163227604Y-81191895D01*
X163294802Y-81278847D01*
X163294880Y-81278945D01*
X163367282Y-81368634D01*
X163367490Y-81368900D01*
X163442805Y-81467919D01*
X163443253Y-81468549D01*
X163519358Y-81583656D01*
X163519884Y-81584533D01*
X163590923Y-81715563D01*
X163591853Y-81724469D01*
X163589070Y-81729249D01*
X162928433Y-82416230D01*
X162920229Y-82419818D01*
X162911890Y-82416553D01*
X162911567Y-82416230D01*
X162543258Y-82033235D01*
X162250928Y-81729248D01*
X162247664Y-81720910D01*
X162249075Y-81715566D01*
X162320123Y-81584516D01*
X162320630Y-81583672D01*
X162396760Y-81468527D01*
X162397177Y-81467941D01*
X162472525Y-81368877D01*
X162472716Y-81368634D01*
X162545197Y-81278847D01*
X162545273Y-81278750D01*
X162612394Y-81191895D01*
X162612532Y-81191717D01*
X162672464Y-81100573D01*
X162722836Y-80998622D01*
X162761488Y-80879071D01*
X162786262Y-80735128D01*
X162794445Y-80571116D01*
X162798279Y-80563025D01*
X162806130Y-80560000D01*
X163033870Y-80560000D01*
X163042143Y-80563427D01*
G37*
G04 #@! TD.AperFunction*
G04 #@! TA.AperFunction,Conductor*
G36*
X152621072Y-74088427D02*
G01*
X152624499Y-74096700D01*
X152624499Y-74100407D01*
X152624485Y-74100442D01*
X152624490Y-74183561D01*
X152637085Y-74246860D01*
X152637221Y-74247701D01*
X152637619Y-74250909D01*
X152637658Y-74251222D01*
X152637724Y-74251508D01*
X152637725Y-74251511D01*
X152639679Y-74259922D01*
X152639757Y-74260286D01*
X152655048Y-74337135D01*
X152714977Y-74481800D01*
X152801972Y-74611994D01*
X152825463Y-74635485D01*
X152827568Y-74638355D01*
X152856118Y-74693190D01*
X152856899Y-74702111D01*
X152854173Y-74706703D01*
X152508432Y-75066230D01*
X152500228Y-75069818D01*
X152491889Y-75066553D01*
X152491566Y-75066230D01*
X152145826Y-74706703D01*
X152142561Y-74698364D01*
X152143881Y-74693190D01*
X152176270Y-74630978D01*
X152176547Y-74630479D01*
X152211513Y-74571032D01*
X152211629Y-74570841D01*
X152244883Y-74518187D01*
X152275738Y-74469359D01*
X152275793Y-74469263D01*
X152275850Y-74469170D01*
X152296164Y-74434065D01*
X152303523Y-74421352D01*
X152327625Y-74371064D01*
X152347435Y-74315389D01*
X152362341Y-74251222D01*
X152371733Y-74175461D01*
X152373459Y-74127661D01*
X152374593Y-74096278D01*
X152378316Y-74088134D01*
X152386285Y-74085000D01*
X152612799Y-74085000D01*
X152621072Y-74088427D01*
G37*
G04 #@! TD.AperFunction*
G04 #@! TA.AperFunction,Conductor*
G36*
X119112330Y-76074499D02*
G01*
X119112330Y-76074500D01*
X119274173Y-76242796D01*
X119277438Y-76251135D01*
X119276118Y-76256309D01*
X119243735Y-76318505D01*
X119243442Y-76319034D01*
X119208512Y-76378421D01*
X119208319Y-76378736D01*
X119175116Y-76431312D01*
X119144310Y-76480061D01*
X119144292Y-76480090D01*
X119144261Y-76480140D01*
X119144220Y-76480210D01*
X119144149Y-76480329D01*
X119116594Y-76527942D01*
X119116587Y-76527955D01*
X119116476Y-76528147D01*
X119116384Y-76528338D01*
X119116376Y-76528354D01*
X119092505Y-76578159D01*
X119092496Y-76578178D01*
X119092374Y-76578435D01*
X119092275Y-76578711D01*
X119092270Y-76578725D01*
X119072675Y-76633798D01*
X119072564Y-76634110D01*
X119072493Y-76634414D01*
X119072489Y-76634429D01*
X119057728Y-76697975D01*
X119057658Y-76698277D01*
X119057620Y-76698582D01*
X119057619Y-76698589D01*
X119048297Y-76773781D01*
X119048295Y-76773800D01*
X119048266Y-76774038D01*
X119048257Y-76774285D01*
X119048256Y-76774299D01*
X119045407Y-76853222D01*
X119041684Y-76861366D01*
X119033715Y-76864500D01*
X118806285Y-76864500D01*
X118798012Y-76861073D01*
X118794593Y-76853222D01*
X118791742Y-76774299D01*
X118791733Y-76774038D01*
X118782341Y-76698277D01*
X118767435Y-76634110D01*
X118747625Y-76578435D01*
X118723523Y-76528147D01*
X118695738Y-76480140D01*
X118664883Y-76431312D01*
X118631648Y-76378686D01*
X118631486Y-76378421D01*
X118596556Y-76319034D01*
X118596263Y-76318505D01*
X118563881Y-76256309D01*
X118563100Y-76247388D01*
X118565824Y-76242797D01*
X118727669Y-76074500D01*
X118920000Y-75874500D01*
X119112330Y-76074499D01*
G37*
G04 #@! TD.AperFunction*
G04 #@! TA.AperFunction,Conductor*
G36*
X99157092Y-53340872D02*
G01*
X99157750Y-53342027D01*
X99385272Y-53800150D01*
X99385883Y-53809084D01*
X99382899Y-53813791D01*
X99325772Y-53868677D01*
X99325401Y-53869019D01*
X99268944Y-53918763D01*
X99268567Y-53919081D01*
X99216817Y-53960938D01*
X99216508Y-53961179D01*
X99167354Y-53998283D01*
X99118844Y-54033634D01*
X99069186Y-54070134D01*
X99069077Y-54070218D01*
X99016419Y-54110809D01*
X99016242Y-54110952D01*
X98958584Y-54158686D01*
X98958412Y-54158836D01*
X98893721Y-54216792D01*
X98893568Y-54216938D01*
X98828142Y-54280161D01*
X98819812Y-54283445D01*
X98811739Y-54280020D01*
X98650959Y-54119240D01*
X98647532Y-54110967D01*
X98650551Y-54103123D01*
X98689467Y-54060050D01*
X98689468Y-54060048D01*
X98689718Y-54059772D01*
X98723639Y-54011232D01*
X98746342Y-53964750D01*
X98759313Y-53919320D01*
X98764037Y-53873938D01*
X98762000Y-53827597D01*
X98754687Y-53779292D01*
X98743584Y-53728019D01*
X98743549Y-53727869D01*
X98730175Y-53672771D01*
X98717844Y-53620572D01*
X98719277Y-53611732D01*
X98722872Y-53608061D01*
X99140914Y-53337409D01*
X99149720Y-53335790D01*
X99157092Y-53340872D01*
G37*
G04 #@! TD.AperFunction*
G04 #@! TA.AperFunction,Conductor*
G36*
X166414360Y-57733446D02*
G01*
X166414683Y-57733769D01*
X166760423Y-58093296D01*
X166763688Y-58101635D01*
X166762368Y-58106809D01*
X166729985Y-58169005D01*
X166729692Y-58169534D01*
X166694762Y-58228921D01*
X166694569Y-58229236D01*
X166661366Y-58281812D01*
X166630560Y-58330561D01*
X166630542Y-58330590D01*
X166630511Y-58330640D01*
X166630470Y-58330710D01*
X166630399Y-58330829D01*
X166602844Y-58378442D01*
X166602837Y-58378455D01*
X166602726Y-58378647D01*
X166602634Y-58378838D01*
X166602626Y-58378854D01*
X166578755Y-58428659D01*
X166578746Y-58428678D01*
X166578624Y-58428935D01*
X166578525Y-58429211D01*
X166578520Y-58429225D01*
X166558925Y-58484298D01*
X166558814Y-58484610D01*
X166558743Y-58484914D01*
X166558739Y-58484929D01*
X166543978Y-58548475D01*
X166543908Y-58548777D01*
X166543870Y-58549082D01*
X166543869Y-58549089D01*
X166534547Y-58624281D01*
X166534545Y-58624300D01*
X166534516Y-58624538D01*
X166534507Y-58624785D01*
X166534506Y-58624799D01*
X166531657Y-58703722D01*
X166527934Y-58711866D01*
X166519965Y-58715000D01*
X166292535Y-58715000D01*
X166284262Y-58711573D01*
X166280843Y-58703722D01*
X166277992Y-58624799D01*
X166277983Y-58624538D01*
X166268591Y-58548777D01*
X166253685Y-58484610D01*
X166233875Y-58428935D01*
X166209773Y-58378647D01*
X166181988Y-58330640D01*
X166151133Y-58281812D01*
X166117898Y-58229186D01*
X166117736Y-58228921D01*
X166082806Y-58169534D01*
X166082513Y-58169005D01*
X166050131Y-58106809D01*
X166049350Y-58097888D01*
X166052074Y-58093297D01*
X166397817Y-57733768D01*
X166406021Y-57730181D01*
X166414360Y-57733446D01*
G37*
G04 #@! TD.AperFunction*
G04 #@! TA.AperFunction,Conductor*
G36*
X81111107Y-66456462D02*
G01*
X81111107Y-66456463D01*
X81276171Y-66624034D01*
X81279536Y-66632333D01*
X81278280Y-66637519D01*
X81246279Y-66700891D01*
X81245996Y-66701417D01*
X81211516Y-66761819D01*
X81211328Y-66762137D01*
X81178501Y-66815653D01*
X81147994Y-66865303D01*
X81147887Y-66865489D01*
X81120617Y-66913882D01*
X81120604Y-66913906D01*
X81120510Y-66914074D01*
X81120426Y-66914252D01*
X81120414Y-66914277D01*
X81096784Y-66964837D01*
X81096780Y-66964846D01*
X81096657Y-66965110D01*
X81096563Y-66965378D01*
X81096559Y-66965390D01*
X81077151Y-67021241D01*
X81077146Y-67021258D01*
X81077044Y-67021552D01*
X81076973Y-67021864D01*
X81076970Y-67021875D01*
X81062350Y-67086238D01*
X81062281Y-67086543D01*
X81062246Y-67086829D01*
X81062243Y-67086848D01*
X81053004Y-67162988D01*
X81053002Y-67163005D01*
X81052976Y-67163225D01*
X81052968Y-67163445D01*
X81052967Y-67163461D01*
X81050139Y-67243453D01*
X81046422Y-67251600D01*
X81038446Y-67254740D01*
X80811027Y-67254740D01*
X80802754Y-67251313D01*
X80799335Y-67243459D01*
X80799335Y-67243453D01*
X80796489Y-67164077D01*
X80787125Y-67088121D01*
X80772231Y-67023777D01*
X80752391Y-66967952D01*
X80728186Y-66917553D01*
X80700202Y-66869485D01*
X80669020Y-66820656D01*
X80635320Y-66768123D01*
X80635139Y-66767832D01*
X80629395Y-66758272D01*
X80599528Y-66708561D01*
X80599262Y-66708092D01*
X80566080Y-66646068D01*
X80565200Y-66637158D01*
X80567864Y-66632545D01*
X80570236Y-66630020D01*
X80917599Y-66260015D01*
X81111107Y-66456462D01*
G37*
G04 #@! TD.AperFunction*
G04 #@! TA.AperFunction,Conductor*
G36*
X175628110Y-53743446D02*
G01*
X175628433Y-53743769D01*
X176289118Y-54430800D01*
X176292383Y-54439139D01*
X176291013Y-54444407D01*
X176222894Y-54572400D01*
X176222479Y-54573118D01*
X176151020Y-54687095D01*
X176150695Y-54687585D01*
X176081191Y-54786973D01*
X176015350Y-54878027D01*
X176015258Y-54878161D01*
X175955152Y-54966668D01*
X175955141Y-54966685D01*
X175955026Y-54966855D01*
X175954919Y-54967041D01*
X175954916Y-54967047D01*
X175902065Y-55059520D01*
X175902056Y-55059537D01*
X175901900Y-55059811D01*
X175901772Y-55060108D01*
X175901768Y-55060118D01*
X175857803Y-55162897D01*
X175857800Y-55162904D01*
X175857653Y-55163249D01*
X175857550Y-55163613D01*
X175857549Y-55163619D01*
X175824064Y-55283171D01*
X175824061Y-55283184D01*
X175823966Y-55283524D01*
X175823913Y-55283872D01*
X175823911Y-55283886D01*
X175809543Y-55379999D01*
X175809543Y-55380003D01*
X175802521Y-55426989D01*
X175795000Y-55600000D01*
X175445000Y-55600000D01*
X175437478Y-55426989D01*
X175416033Y-55283524D01*
X175382346Y-55163249D01*
X175338099Y-55059811D01*
X175284973Y-54966855D01*
X175224649Y-54878027D01*
X175224543Y-54877878D01*
X175158808Y-54786973D01*
X175089303Y-54687585D01*
X175088978Y-54687095D01*
X175017519Y-54573118D01*
X175017104Y-54572400D01*
X174948986Y-54444407D01*
X174948124Y-54435494D01*
X174950878Y-54430803D01*
X175611567Y-53743768D01*
X175619771Y-53740181D01*
X175628110Y-53743446D01*
G37*
G04 #@! TD.AperFunction*
G04 #@! TA.AperFunction,Conductor*
G36*
X138031982Y-67963427D02*
G01*
X138035401Y-67971282D01*
X138038235Y-68050906D01*
X138047572Y-68127097D01*
X138062458Y-68191654D01*
X138082339Y-68247660D01*
X138082474Y-68247941D01*
X138082478Y-68247950D01*
X138106559Y-68297983D01*
X138106568Y-68298001D01*
X138106662Y-68298195D01*
X138106773Y-68298385D01*
X138106776Y-68298390D01*
X138134808Y-68346233D01*
X138134817Y-68346248D01*
X138134873Y-68346343D01*
X138134947Y-68346457D01*
X138166418Y-68395186D01*
X138200660Y-68447675D01*
X138200829Y-68447942D01*
X138237150Y-68507039D01*
X138237431Y-68507521D01*
X138271482Y-68569352D01*
X138272471Y-68578252D01*
X138269866Y-68582893D01*
X138110046Y-68757623D01*
X138110046Y-68757624D01*
X137924998Y-68959937D01*
X137561724Y-68600600D01*
X137558252Y-68592346D01*
X137559436Y-68587153D01*
X137591017Y-68522459D01*
X137591253Y-68522005D01*
X137625273Y-68460397D01*
X137625443Y-68460101D01*
X137632746Y-68447805D01*
X137657820Y-68405583D01*
X137687925Y-68355031D01*
X137687955Y-68354975D01*
X137688037Y-68354831D01*
X137710386Y-68313964D01*
X137715061Y-68305417D01*
X137738623Y-68253557D01*
X137758003Y-68196269D01*
X137772597Y-68130369D01*
X137781798Y-68052673D01*
X137784609Y-67971296D01*
X137788320Y-67963146D01*
X137796303Y-67960000D01*
X138023709Y-67960000D01*
X138031982Y-67963427D01*
G37*
G04 #@! TD.AperFunction*
G04 #@! TA.AperFunction,Conductor*
G36*
X161831703Y-65145826D02*
G01*
X161995565Y-65303404D01*
X162041351Y-65347435D01*
X162191230Y-65491566D01*
X162194818Y-65499770D01*
X162191553Y-65508109D01*
X162191230Y-65508432D01*
X161831703Y-65854173D01*
X161823364Y-65857438D01*
X161818190Y-65856118D01*
X161755993Y-65823735D01*
X161755464Y-65823442D01*
X161696077Y-65788512D01*
X161695762Y-65788319D01*
X161643187Y-65755116D01*
X161594437Y-65724310D01*
X161594427Y-65724303D01*
X161594359Y-65724261D01*
X161594277Y-65724214D01*
X161594170Y-65724149D01*
X161546556Y-65696594D01*
X161546554Y-65696593D01*
X161546352Y-65696476D01*
X161546150Y-65696379D01*
X161546144Y-65696376D01*
X161496339Y-65672505D01*
X161496326Y-65672499D01*
X161496064Y-65672374D01*
X161495780Y-65672273D01*
X161495773Y-65672270D01*
X161464230Y-65661047D01*
X161440389Y-65652564D01*
X161440079Y-65652492D01*
X161440069Y-65652489D01*
X161376523Y-65637728D01*
X161376524Y-65637728D01*
X161376222Y-65637658D01*
X161375912Y-65637619D01*
X161375909Y-65637619D01*
X161300717Y-65628297D01*
X161300700Y-65628295D01*
X161300461Y-65628266D01*
X161300211Y-65628256D01*
X161300199Y-65628256D01*
X161221278Y-65625407D01*
X161213134Y-65621684D01*
X161210000Y-65613715D01*
X161210000Y-65386284D01*
X161213427Y-65378011D01*
X161221276Y-65374592D01*
X161300461Y-65371733D01*
X161376222Y-65362341D01*
X161440389Y-65347435D01*
X161496064Y-65327625D01*
X161546352Y-65303523D01*
X161594359Y-65275738D01*
X161643187Y-65244883D01*
X161695841Y-65211629D01*
X161696032Y-65211513D01*
X161755479Y-65176547D01*
X161755978Y-65176270D01*
X161818190Y-65143880D01*
X161827111Y-65143100D01*
X161831703Y-65145826D01*
G37*
G04 #@! TD.AperFunction*
G04 #@! TA.AperFunction,Conductor*
G36*
X152621072Y-93088427D02*
G01*
X152624499Y-93096700D01*
X152624499Y-93100407D01*
X152624485Y-93100442D01*
X152624490Y-93183561D01*
X152637085Y-93246860D01*
X152637221Y-93247701D01*
X152637619Y-93250909D01*
X152637658Y-93251222D01*
X152637724Y-93251508D01*
X152637725Y-93251511D01*
X152639679Y-93259922D01*
X152639757Y-93260286D01*
X152655048Y-93337135D01*
X152714977Y-93481800D01*
X152801972Y-93611994D01*
X152825463Y-93635485D01*
X152827568Y-93638355D01*
X152856118Y-93693190D01*
X152856899Y-93702111D01*
X152854173Y-93706703D01*
X152508432Y-94066230D01*
X152500228Y-94069818D01*
X152491889Y-94066553D01*
X152491566Y-94066230D01*
X152145826Y-93706703D01*
X152142561Y-93698364D01*
X152143881Y-93693190D01*
X152176270Y-93630978D01*
X152176547Y-93630479D01*
X152211513Y-93571032D01*
X152211629Y-93570841D01*
X152244883Y-93518187D01*
X152275738Y-93469359D01*
X152275793Y-93469263D01*
X152275850Y-93469170D01*
X152296164Y-93434065D01*
X152303523Y-93421352D01*
X152327625Y-93371064D01*
X152347435Y-93315389D01*
X152362341Y-93251222D01*
X152371733Y-93175461D01*
X152373459Y-93127661D01*
X152374593Y-93096278D01*
X152378316Y-93088134D01*
X152386285Y-93085000D01*
X152612799Y-93085000D01*
X152621072Y-93088427D01*
G37*
G04 #@! TD.AperFunction*
G04 #@! TA.AperFunction,Conductor*
G36*
X100021982Y-62653427D02*
G01*
X100025401Y-62661282D01*
X100028235Y-62740906D01*
X100037572Y-62817097D01*
X100052458Y-62881654D01*
X100072339Y-62937660D01*
X100072474Y-62937941D01*
X100072478Y-62937950D01*
X100096559Y-62987983D01*
X100096568Y-62988001D01*
X100096662Y-62988195D01*
X100096773Y-62988385D01*
X100096776Y-62988390D01*
X100124808Y-63036233D01*
X100124817Y-63036248D01*
X100124873Y-63036343D01*
X100124947Y-63036457D01*
X100156418Y-63085186D01*
X100190660Y-63137675D01*
X100190829Y-63137942D01*
X100227150Y-63197039D01*
X100227431Y-63197521D01*
X100261482Y-63259352D01*
X100262471Y-63268252D01*
X100259866Y-63272893D01*
X100100046Y-63447623D01*
X100100046Y-63447624D01*
X99914998Y-63649937D01*
X99551724Y-63290600D01*
X99548252Y-63282346D01*
X99549437Y-63277152D01*
X99578690Y-63217227D01*
X99580920Y-63214101D01*
X99584116Y-63210906D01*
X99584117Y-63210903D01*
X99585741Y-63209280D01*
X99585752Y-63209262D01*
X99601836Y-63193180D01*
X99686965Y-63065777D01*
X99745603Y-62924214D01*
X99775499Y-62773932D01*
X99775500Y-62697319D01*
X99775500Y-62661700D01*
X99778928Y-62653427D01*
X99787201Y-62650000D01*
X100013709Y-62650000D01*
X100021982Y-62653427D01*
G37*
G04 #@! TD.AperFunction*
G04 #@! TA.AperFunction,Conductor*
G36*
X161831688Y-62645811D02*
G01*
X162191230Y-62991567D01*
X162194818Y-62999771D01*
X162191553Y-63008110D01*
X162191230Y-63008433D01*
X161831688Y-63354188D01*
X161823349Y-63357453D01*
X161818199Y-63356145D01*
X161754042Y-63322928D01*
X161753560Y-63322664D01*
X161692389Y-63287262D01*
X161692117Y-63287100D01*
X161637819Y-63253675D01*
X161587488Y-63222921D01*
X161587484Y-63222918D01*
X161587370Y-63222849D01*
X161587239Y-63222776D01*
X161587170Y-63222736D01*
X161537948Y-63195367D01*
X161537941Y-63195363D01*
X161537737Y-63195250D01*
X161485761Y-63171432D01*
X161485479Y-63171336D01*
X161485468Y-63171332D01*
X161428579Y-63152046D01*
X161428573Y-63152044D01*
X161428283Y-63151946D01*
X161427975Y-63151878D01*
X161362428Y-63137406D01*
X161362414Y-63137403D01*
X161362144Y-63137344D01*
X161361868Y-63137311D01*
X161361853Y-63137309D01*
X161284434Y-63128207D01*
X161284430Y-63128206D01*
X161284186Y-63128178D01*
X161283943Y-63128169D01*
X161283934Y-63128169D01*
X161202550Y-63125386D01*
X161194399Y-63121679D01*
X161191250Y-63113693D01*
X161191250Y-62886306D01*
X161194677Y-62878033D01*
X161202548Y-62874613D01*
X161284186Y-62871821D01*
X161362144Y-62862655D01*
X161428283Y-62848053D01*
X161485761Y-62828567D01*
X161537737Y-62804749D01*
X161587370Y-62777150D01*
X161637819Y-62746324D01*
X161692117Y-62712899D01*
X161692343Y-62712762D01*
X161753565Y-62677331D01*
X161754042Y-62677070D01*
X161818201Y-62643853D01*
X161827121Y-62643093D01*
X161831688Y-62645811D01*
G37*
G04 #@! TD.AperFunction*
G04 #@! TA.AperFunction,Conductor*
G36*
X100096458Y-74498694D02*
G01*
X100096459Y-74498694D01*
X100096459Y-74498695D01*
X100257474Y-74656958D01*
X100260972Y-74665201D01*
X100259803Y-74670400D01*
X100228352Y-74735368D01*
X100228083Y-74735890D01*
X100194218Y-74797725D01*
X100194037Y-74798043D01*
X100161774Y-74852811D01*
X100131771Y-74903586D01*
X100131663Y-74903779D01*
X100104824Y-74953222D01*
X100104813Y-74953242D01*
X100104724Y-74953408D01*
X100104646Y-74953579D01*
X100104634Y-74953605D01*
X100081352Y-75005214D01*
X100081345Y-75005230D01*
X100081237Y-75005471D01*
X100081154Y-75005716D01*
X100081148Y-75005733D01*
X100062011Y-75062686D01*
X100061916Y-75062969D01*
X100061853Y-75063252D01*
X100061851Y-75063262D01*
X100047429Y-75128806D01*
X100047366Y-75129094D01*
X100047333Y-75129373D01*
X100047331Y-75129386D01*
X100038220Y-75206795D01*
X100038218Y-75206811D01*
X100038192Y-75207039D01*
X100038183Y-75207276D01*
X100038183Y-75207288D01*
X100035388Y-75288701D01*
X100031679Y-75296852D01*
X100023695Y-75300000D01*
X99797219Y-75300000D01*
X99788946Y-75296573D01*
X99785519Y-75288301D01*
X99785513Y-75223641D01*
X99785512Y-75223641D01*
X99776939Y-75169534D01*
X99776898Y-75169239D01*
X99772436Y-75132777D01*
X99768289Y-75114778D01*
X99768144Y-75114033D01*
X99765455Y-75097059D01*
X99761320Y-75084338D01*
X99761062Y-75083407D01*
X99757551Y-75068164D01*
X99739962Y-75018601D01*
X99739861Y-75018304D01*
X99725845Y-74975175D01*
X99692174Y-74909100D01*
X99667655Y-74860983D01*
X99592322Y-74757300D01*
X99576791Y-74741769D01*
X99574832Y-74739170D01*
X99572723Y-74735368D01*
X99547814Y-74690452D01*
X99546800Y-74681557D01*
X99549387Y-74676914D01*
X99711364Y-74498695D01*
X99893064Y-74298775D01*
X100096458Y-74498694D01*
G37*
G04 #@! TD.AperFunction*
G04 #@! TA.AperFunction,Conductor*
G36*
X138100045Y-87767624D02*
G01*
X138100046Y-87767624D01*
X138264173Y-87938296D01*
X138267438Y-87946635D01*
X138266118Y-87951809D01*
X138233735Y-88014005D01*
X138233442Y-88014534D01*
X138198512Y-88073921D01*
X138198319Y-88074236D01*
X138165116Y-88126812D01*
X138134310Y-88175561D01*
X138134292Y-88175590D01*
X138134261Y-88175640D01*
X138134220Y-88175710D01*
X138134149Y-88175829D01*
X138106594Y-88223442D01*
X138106587Y-88223455D01*
X138106476Y-88223647D01*
X138106384Y-88223838D01*
X138106376Y-88223854D01*
X138082505Y-88273659D01*
X138082496Y-88273678D01*
X138082374Y-88273935D01*
X138082275Y-88274211D01*
X138082270Y-88274225D01*
X138062675Y-88329298D01*
X138062564Y-88329610D01*
X138062493Y-88329914D01*
X138062489Y-88329929D01*
X138047728Y-88393475D01*
X138047658Y-88393777D01*
X138047620Y-88394082D01*
X138047619Y-88394089D01*
X138038297Y-88469281D01*
X138038295Y-88469300D01*
X138038266Y-88469538D01*
X138038257Y-88469785D01*
X138038256Y-88469799D01*
X138035407Y-88548722D01*
X138031684Y-88556866D01*
X138023715Y-88560000D01*
X137796285Y-88560000D01*
X137788012Y-88556573D01*
X137784593Y-88548722D01*
X137781742Y-88469799D01*
X137781733Y-88469538D01*
X137772341Y-88393777D01*
X137757435Y-88329610D01*
X137737625Y-88273935D01*
X137713523Y-88223647D01*
X137685738Y-88175640D01*
X137654883Y-88126812D01*
X137621648Y-88074186D01*
X137621486Y-88073921D01*
X137586556Y-88014534D01*
X137586263Y-88014005D01*
X137553881Y-87951809D01*
X137553100Y-87942888D01*
X137555826Y-87938296D01*
X137611739Y-87880151D01*
X137910000Y-87570000D01*
X138100045Y-87767624D01*
G37*
G04 #@! TD.AperFunction*
G04 #@! TA.AperFunction,Conductor*
G36*
X162003234Y-55216758D02*
G01*
X162008155Y-55224239D01*
X162008249Y-55224804D01*
X162039962Y-55449457D01*
X162037725Y-55458128D01*
X162030897Y-55462517D01*
X161814173Y-55510318D01*
X161638602Y-55587010D01*
X161506376Y-55688081D01*
X161409079Y-55811376D01*
X161338320Y-55954709D01*
X161285762Y-56115706D01*
X161285692Y-56115921D01*
X161285641Y-56116129D01*
X161285641Y-56116131D01*
X161242794Y-56292839D01*
X161242768Y-56292956D01*
X161201245Y-56483191D01*
X161201188Y-56483437D01*
X161152663Y-56684765D01*
X161152484Y-56685425D01*
X161090932Y-56887999D01*
X161085248Y-56894919D01*
X161079966Y-56896296D01*
X160128816Y-56914891D01*
X160120477Y-56911626D01*
X160116889Y-56903422D01*
X160117031Y-56901366D01*
X160273885Y-55915415D01*
X160278568Y-55907785D01*
X160283160Y-55905779D01*
X160496212Y-55863551D01*
X160678669Y-55803570D01*
X160833014Y-55731347D01*
X160969726Y-55650805D01*
X161099285Y-55565869D01*
X161231888Y-55480643D01*
X161232459Y-55480300D01*
X161378362Y-55398789D01*
X161379373Y-55398287D01*
X161549232Y-55324201D01*
X161550449Y-55323750D01*
X161754954Y-55260861D01*
X161756181Y-55260556D01*
X161994466Y-55214948D01*
X162003234Y-55216758D01*
G37*
G04 #@! TD.AperFunction*
G04 #@! TA.AperFunction,Conductor*
G36*
X100102330Y-82449999D02*
G01*
X100102330Y-82450000D01*
X100264173Y-82618296D01*
X100267438Y-82626635D01*
X100266118Y-82631809D01*
X100233735Y-82694005D01*
X100233442Y-82694534D01*
X100198512Y-82753921D01*
X100198319Y-82754236D01*
X100165116Y-82806812D01*
X100134310Y-82855561D01*
X100134292Y-82855590D01*
X100134261Y-82855640D01*
X100134220Y-82855710D01*
X100134149Y-82855829D01*
X100106594Y-82903442D01*
X100106587Y-82903455D01*
X100106476Y-82903647D01*
X100106384Y-82903838D01*
X100106376Y-82903854D01*
X100082505Y-82953659D01*
X100082496Y-82953678D01*
X100082374Y-82953935D01*
X100082275Y-82954211D01*
X100082270Y-82954225D01*
X100070302Y-82987863D01*
X100062564Y-83009610D01*
X100062493Y-83009914D01*
X100062489Y-83009929D01*
X100049755Y-83064749D01*
X100047658Y-83073777D01*
X100047620Y-83074082D01*
X100047619Y-83074089D01*
X100038297Y-83149281D01*
X100038295Y-83149300D01*
X100038266Y-83149538D01*
X100038257Y-83149785D01*
X100038256Y-83149799D01*
X100035407Y-83228722D01*
X100031684Y-83236866D01*
X100023715Y-83240000D01*
X99797201Y-83240000D01*
X99788928Y-83236573D01*
X99785501Y-83228303D01*
X99785500Y-83224594D01*
X99785514Y-83224557D01*
X99785514Y-83219731D01*
X99785515Y-83219731D01*
X99785509Y-83141438D01*
X99772908Y-83078113D01*
X99772777Y-83077295D01*
X99772341Y-83073777D01*
X99770320Y-83065077D01*
X99770256Y-83064783D01*
X99754951Y-82987863D01*
X99695023Y-82843199D01*
X99608026Y-82713005D01*
X99590460Y-82695439D01*
X99590456Y-82695433D01*
X99584534Y-82689512D01*
X99582431Y-82686645D01*
X99553881Y-82631809D01*
X99553100Y-82622888D01*
X99555824Y-82618297D01*
X99717669Y-82450000D01*
X99910000Y-82250000D01*
X100102330Y-82449999D01*
G37*
G04 #@! TD.AperFunction*
G04 #@! TA.AperFunction,Conductor*
G36*
X43061998Y-91693427D02*
G01*
X43065417Y-91701267D01*
X43068333Y-91780076D01*
X43068334Y-91780090D01*
X43068343Y-91780329D01*
X43068372Y-91780563D01*
X43068374Y-91780581D01*
X43077829Y-91855582D01*
X43077831Y-91855596D01*
X43077869Y-91855893D01*
X43077937Y-91856184D01*
X43077939Y-91856195D01*
X43092746Y-91919548D01*
X43092749Y-91919560D01*
X43092822Y-91919870D01*
X43112446Y-91975439D01*
X43112562Y-91975687D01*
X43135903Y-92025607D01*
X43135909Y-92025620D01*
X43135984Y-92025779D01*
X43136077Y-92025948D01*
X43136080Y-92025953D01*
X43162681Y-92074070D01*
X43162769Y-92074222D01*
X43191780Y-92123489D01*
X43222400Y-92176997D01*
X43222639Y-92177436D01*
X43254002Y-92238119D01*
X43254309Y-92238761D01*
X43282524Y-92302593D01*
X43282735Y-92311545D01*
X43279690Y-92315983D01*
X42910523Y-92651363D01*
X42902096Y-92654390D01*
X42893996Y-92650570D01*
X42893695Y-92650226D01*
X42572983Y-92268216D01*
X42570288Y-92259676D01*
X42571959Y-92254594D01*
X42606416Y-92198219D01*
X42606710Y-92197764D01*
X42643884Y-92143539D01*
X42644043Y-92143315D01*
X42679193Y-92095180D01*
X42711656Y-92050339D01*
X42740755Y-92005997D01*
X42765898Y-91959246D01*
X42786488Y-91907178D01*
X42801931Y-91846886D01*
X42811633Y-91775462D01*
X42814557Y-91701238D01*
X42818307Y-91693108D01*
X42826248Y-91690000D01*
X43053725Y-91690000D01*
X43061998Y-91693427D01*
G37*
G04 #@! TD.AperFunction*
G04 #@! TA.AperFunction,Conductor*
G36*
X80918109Y-47268446D02*
G01*
X80918432Y-47268769D01*
X81264173Y-47628296D01*
X81267438Y-47636635D01*
X81266118Y-47641809D01*
X81233735Y-47704005D01*
X81233442Y-47704534D01*
X81198512Y-47763921D01*
X81198319Y-47764236D01*
X81165116Y-47816812D01*
X81134310Y-47865561D01*
X81134292Y-47865590D01*
X81134261Y-47865640D01*
X81134220Y-47865710D01*
X81134149Y-47865829D01*
X81106594Y-47913442D01*
X81106587Y-47913455D01*
X81106476Y-47913647D01*
X81106384Y-47913838D01*
X81106376Y-47913854D01*
X81082505Y-47963659D01*
X81082496Y-47963678D01*
X81082374Y-47963935D01*
X81082275Y-47964211D01*
X81082270Y-47964225D01*
X81062675Y-48019298D01*
X81062564Y-48019610D01*
X81062493Y-48019914D01*
X81062489Y-48019929D01*
X81047728Y-48083475D01*
X81047658Y-48083777D01*
X81047620Y-48084082D01*
X81047619Y-48084089D01*
X81038297Y-48159281D01*
X81038295Y-48159300D01*
X81038266Y-48159538D01*
X81038257Y-48159785D01*
X81038256Y-48159799D01*
X81035407Y-48238722D01*
X81031684Y-48246866D01*
X81023715Y-48250000D01*
X80796285Y-48250000D01*
X80788012Y-48246573D01*
X80784593Y-48238722D01*
X80781742Y-48159799D01*
X80781733Y-48159538D01*
X80772341Y-48083777D01*
X80757435Y-48019610D01*
X80737625Y-47963935D01*
X80713523Y-47913647D01*
X80685738Y-47865640D01*
X80654883Y-47816812D01*
X80621648Y-47764186D01*
X80621486Y-47763921D01*
X80586556Y-47704534D01*
X80586263Y-47704005D01*
X80553881Y-47641809D01*
X80553100Y-47632888D01*
X80555824Y-47628297D01*
X80901568Y-47268768D01*
X80909770Y-47265181D01*
X80918109Y-47268446D01*
G37*
G04 #@! TD.AperFunction*
G04 #@! TA.AperFunction,Conductor*
G36*
X81120193Y-80830496D02*
G01*
X81120193Y-80830497D01*
X81272564Y-80993628D01*
X81282190Y-81003933D01*
X81285333Y-81012318D01*
X81283943Y-81017463D01*
X81250594Y-81079444D01*
X81250308Y-81079945D01*
X81214576Y-81139152D01*
X81214398Y-81139439D01*
X81180592Y-81191966D01*
X81165607Y-81215379D01*
X81149417Y-81240675D01*
X81149395Y-81240710D01*
X81149340Y-81240797D01*
X81149281Y-81240897D01*
X81149222Y-81240995D01*
X81121429Y-81288676D01*
X81121421Y-81288690D01*
X81121312Y-81288878D01*
X81121217Y-81289074D01*
X81121212Y-81289085D01*
X81097223Y-81339014D01*
X81097217Y-81339027D01*
X81097085Y-81339303D01*
X81096980Y-81339596D01*
X81096978Y-81339603D01*
X81077347Y-81394849D01*
X81077343Y-81394862D01*
X81077237Y-81395161D01*
X81077165Y-81395472D01*
X81077161Y-81395486D01*
X81062721Y-81457923D01*
X81062346Y-81459545D01*
X81052987Y-81535545D01*
X81052978Y-81535779D01*
X81052977Y-81535799D01*
X81050144Y-81614973D01*
X81046423Y-81623118D01*
X81038451Y-81626254D01*
X80811035Y-81626254D01*
X80802762Y-81622827D01*
X80799342Y-81614966D01*
X80796545Y-81535545D01*
X80796509Y-81534514D01*
X80787224Y-81457636D01*
X80772493Y-81392469D01*
X80752924Y-81335862D01*
X80729126Y-81284667D01*
X80701708Y-81235732D01*
X80701597Y-81235547D01*
X80671278Y-81185908D01*
X80638539Y-81132200D01*
X80638352Y-81131882D01*
X80603963Y-81071251D01*
X80603682Y-81070725D01*
X80573253Y-81010070D01*
X80571765Y-81007104D01*
X80571119Y-80998175D01*
X80573909Y-80993629D01*
X80735418Y-80830497D01*
X80933406Y-80630519D01*
X81120193Y-80830496D01*
G37*
G04 #@! TD.AperFunction*
G04 #@! TA.AperFunction,Conductor*
G36*
X173202143Y-80563427D02*
G01*
X173205554Y-80571116D01*
X173213737Y-80735128D01*
X173213797Y-80735481D01*
X173213798Y-80735483D01*
X173238509Y-80879065D01*
X173238511Y-80879071D01*
X173277163Y-80998622D01*
X173327535Y-81100573D01*
X173327724Y-81100861D01*
X173327729Y-81100869D01*
X173387342Y-81191528D01*
X173387351Y-81191540D01*
X173387467Y-81191717D01*
X173387597Y-81191885D01*
X173387604Y-81191895D01*
X173454802Y-81278847D01*
X173454880Y-81278945D01*
X173527282Y-81368634D01*
X173527490Y-81368900D01*
X173602805Y-81467919D01*
X173603253Y-81468549D01*
X173679358Y-81583656D01*
X173679884Y-81584533D01*
X173750923Y-81715563D01*
X173751853Y-81724469D01*
X173749070Y-81729249D01*
X173088433Y-82416230D01*
X173080229Y-82419818D01*
X173071890Y-82416553D01*
X173071567Y-82416230D01*
X172703258Y-82033235D01*
X172410928Y-81729248D01*
X172407664Y-81720910D01*
X172409075Y-81715566D01*
X172480123Y-81584516D01*
X172480630Y-81583672D01*
X172556760Y-81468527D01*
X172557177Y-81467941D01*
X172632525Y-81368877D01*
X172632716Y-81368634D01*
X172705197Y-81278847D01*
X172705273Y-81278750D01*
X172772394Y-81191895D01*
X172772532Y-81191717D01*
X172832464Y-81100573D01*
X172882836Y-80998622D01*
X172921488Y-80879071D01*
X172946262Y-80735128D01*
X172954445Y-80571116D01*
X172958279Y-80563025D01*
X172966130Y-80560000D01*
X173193870Y-80560000D01*
X173202143Y-80563427D01*
G37*
G04 #@! TD.AperFunction*
G04 #@! TA.AperFunction,Conductor*
G36*
X100033962Y-73700817D02*
G01*
X100037382Y-73708694D01*
X100039690Y-73776897D01*
X100040143Y-73790284D01*
X100040169Y-73790512D01*
X100040171Y-73790533D01*
X100048787Y-73864811D01*
X100049183Y-73868223D01*
X100049241Y-73868492D01*
X100049244Y-73868508D01*
X100063466Y-73934074D01*
X100063469Y-73934087D01*
X100063534Y-73934384D01*
X100063628Y-73934668D01*
X100063632Y-73934682D01*
X100082516Y-73991661D01*
X100082519Y-73991670D01*
X100082610Y-73991943D01*
X100082728Y-73992210D01*
X100082732Y-73992218D01*
X100102198Y-74035933D01*
X100105824Y-74044076D01*
X100105929Y-74044271D01*
X100132590Y-74093961D01*
X100132690Y-74094135D01*
X100162323Y-74144774D01*
X100194345Y-74199534D01*
X100194518Y-74199840D01*
X100228212Y-74261646D01*
X100228473Y-74262155D01*
X100259810Y-74326991D01*
X100260325Y-74335931D01*
X100257478Y-74340426D01*
X100096459Y-74498694D01*
X99893064Y-74698615D01*
X99711363Y-74498694D01*
X99711364Y-74498694D01*
X99549386Y-74320474D01*
X99546357Y-74312047D01*
X99547806Y-74306941D01*
X99574730Y-74258319D01*
X99576682Y-74255728D01*
X99582461Y-74249950D01*
X99582463Y-74249945D01*
X99583699Y-74248710D01*
X99583843Y-74248510D01*
X99591076Y-74241280D01*
X99666106Y-74138037D01*
X99724061Y-74024328D01*
X99742886Y-73966411D01*
X99742923Y-73966303D01*
X99755925Y-73929176D01*
X99757980Y-73920128D01*
X99758256Y-73919125D01*
X99763514Y-73902952D01*
X99767218Y-73879576D01*
X99767348Y-73878902D01*
X99770615Y-73864529D01*
X99773821Y-73837959D01*
X99773864Y-73837648D01*
X99783493Y-73776899D01*
X99783495Y-73742893D01*
X99783500Y-73742865D01*
X99783500Y-73713017D01*
X99783501Y-73709087D01*
X99786930Y-73700815D01*
X99795201Y-73697390D01*
X100025689Y-73697390D01*
X100033962Y-73700817D01*
G37*
G04 #@! TD.AperFunction*
G04 #@! TA.AperFunction,Conductor*
G36*
X168128379Y-80547177D02*
G01*
X168131792Y-80554881D01*
X168139908Y-80721459D01*
X168139963Y-80721792D01*
X168139965Y-80721802D01*
X168164396Y-80867309D01*
X168164398Y-80867318D01*
X168164464Y-80867710D01*
X168164583Y-80868087D01*
X168164585Y-80868096D01*
X168202785Y-80989357D01*
X168202787Y-80989361D01*
X168202788Y-80989364D01*
X168252750Y-81093284D01*
X168312221Y-81186331D01*
X168312356Y-81186511D01*
X168312361Y-81186518D01*
X168379072Y-81275369D01*
X168379153Y-81275473D01*
X168451056Y-81367112D01*
X168451255Y-81367372D01*
X168526171Y-81468567D01*
X168526600Y-81469188D01*
X168602337Y-81586634D01*
X168602841Y-81587495D01*
X168673676Y-81721123D01*
X168674523Y-81730038D01*
X168671705Y-81734782D01*
X168005406Y-82416287D01*
X167997172Y-82419807D01*
X167988861Y-82416474D01*
X167988540Y-82416148D01*
X167333595Y-81723722D01*
X167330400Y-81715357D01*
X167331847Y-81710036D01*
X167404507Y-81578206D01*
X167405004Y-81577389D01*
X167482293Y-81461494D01*
X167482717Y-81460900D01*
X167558838Y-81361005D01*
X167558979Y-81360824D01*
X167631919Y-81270114D01*
X167699412Y-81182022D01*
X167759311Y-81089819D01*
X167809530Y-80986698D01*
X167847984Y-80865851D01*
X167872585Y-80720470D01*
X167880704Y-80554876D01*
X167884532Y-80546782D01*
X167892390Y-80543750D01*
X168120106Y-80543750D01*
X168128379Y-80547177D01*
G37*
G04 #@! TD.AperFunction*
G04 #@! TA.AperFunction,Conductor*
G36*
X138110045Y-68757624D02*
G01*
X138110046Y-68757624D01*
X138274173Y-68928296D01*
X138277438Y-68936635D01*
X138276118Y-68941809D01*
X138243735Y-69004005D01*
X138243442Y-69004534D01*
X138208512Y-69063921D01*
X138208319Y-69064236D01*
X138175116Y-69116812D01*
X138144310Y-69165561D01*
X138144292Y-69165590D01*
X138144261Y-69165640D01*
X138144220Y-69165710D01*
X138144149Y-69165829D01*
X138116594Y-69213442D01*
X138116587Y-69213455D01*
X138116476Y-69213647D01*
X138116384Y-69213838D01*
X138116376Y-69213854D01*
X138092505Y-69263659D01*
X138092496Y-69263678D01*
X138092374Y-69263935D01*
X138092275Y-69264211D01*
X138092270Y-69264225D01*
X138072675Y-69319298D01*
X138072564Y-69319610D01*
X138072493Y-69319914D01*
X138072489Y-69319929D01*
X138057728Y-69383475D01*
X138057658Y-69383777D01*
X138057620Y-69384082D01*
X138057619Y-69384089D01*
X138048297Y-69459281D01*
X138048295Y-69459300D01*
X138048266Y-69459538D01*
X138048257Y-69459785D01*
X138048256Y-69459799D01*
X138045407Y-69538722D01*
X138041684Y-69546866D01*
X138033715Y-69550000D01*
X137806285Y-69550000D01*
X137798012Y-69546573D01*
X137794593Y-69538722D01*
X137791742Y-69459799D01*
X137791733Y-69459538D01*
X137782341Y-69383777D01*
X137767435Y-69319610D01*
X137747625Y-69263935D01*
X137723523Y-69213647D01*
X137695738Y-69165640D01*
X137664883Y-69116812D01*
X137631648Y-69064186D01*
X137631486Y-69063921D01*
X137596556Y-69004534D01*
X137596263Y-69004005D01*
X137563881Y-68941809D01*
X137563100Y-68932888D01*
X137565826Y-68928296D01*
X137621739Y-68870151D01*
X137920000Y-68560000D01*
X138110045Y-68757624D01*
G37*
G04 #@! TD.AperFunction*
G04 #@! TA.AperFunction,Conductor*
G36*
X175802521Y-55333010D02*
G01*
X175809543Y-55379994D01*
X175809543Y-55379999D01*
X175823911Y-55476112D01*
X175823913Y-55476123D01*
X175823966Y-55476475D01*
X175824062Y-55476818D01*
X175824064Y-55476827D01*
X175857549Y-55596379D01*
X175857653Y-55596750D01*
X175901900Y-55700188D01*
X175902060Y-55700468D01*
X175902065Y-55700478D01*
X175939567Y-55766095D01*
X175955026Y-55793144D01*
X175955148Y-55793324D01*
X175955152Y-55793330D01*
X176015350Y-55881972D01*
X176015456Y-55882121D01*
X176081191Y-55973026D01*
X176150695Y-56072413D01*
X176151020Y-56072903D01*
X176222479Y-56186880D01*
X176222894Y-56187598D01*
X176291013Y-56315592D01*
X176291875Y-56324505D01*
X176289118Y-56329199D01*
X175628433Y-57016230D01*
X175620229Y-57019818D01*
X175611890Y-57016553D01*
X175611567Y-57016230D01*
X174950881Y-56329199D01*
X174947616Y-56320860D01*
X174948985Y-56315594D01*
X175017111Y-56187585D01*
X175017512Y-56186891D01*
X175088996Y-56072874D01*
X175089283Y-56072441D01*
X175158808Y-55973026D01*
X175224649Y-55881972D01*
X175224741Y-55881838D01*
X175260389Y-55829343D01*
X175284973Y-55793144D01*
X175338099Y-55700188D01*
X175382346Y-55596750D01*
X175416033Y-55476475D01*
X175430454Y-55379999D01*
X175437478Y-55333010D01*
X175445000Y-55160000D01*
X175795000Y-55160000D01*
X175802521Y-55333010D01*
G37*
G04 #@! TD.AperFunction*
G04 #@! TA.AperFunction,Conductor*
G36*
X138097065Y-78829422D02*
G01*
X138097065Y-78829423D01*
X138213403Y-78950400D01*
X138254173Y-78992796D01*
X138257438Y-79001135D01*
X138256118Y-79006309D01*
X138223735Y-79068505D01*
X138223442Y-79069034D01*
X138188512Y-79128421D01*
X138188319Y-79128736D01*
X138155116Y-79181312D01*
X138124310Y-79230061D01*
X138124292Y-79230090D01*
X138124261Y-79230140D01*
X138124220Y-79230210D01*
X138124149Y-79230329D01*
X138096594Y-79277942D01*
X138096587Y-79277955D01*
X138096476Y-79278147D01*
X138096384Y-79278338D01*
X138096376Y-79278354D01*
X138072505Y-79328159D01*
X138072496Y-79328178D01*
X138072374Y-79328435D01*
X138072275Y-79328711D01*
X138072270Y-79328725D01*
X138052675Y-79383798D01*
X138052564Y-79384110D01*
X138052493Y-79384414D01*
X138052489Y-79384429D01*
X138037728Y-79447975D01*
X138037658Y-79448277D01*
X138037620Y-79448582D01*
X138037619Y-79448589D01*
X138028297Y-79523781D01*
X138028295Y-79523800D01*
X138028266Y-79524038D01*
X138028257Y-79524285D01*
X138028256Y-79524299D01*
X138025407Y-79603222D01*
X138021684Y-79611366D01*
X138013715Y-79614500D01*
X137786285Y-79614500D01*
X137778012Y-79611073D01*
X137774593Y-79603222D01*
X137771742Y-79524299D01*
X137771733Y-79524038D01*
X137762341Y-79448277D01*
X137747435Y-79384110D01*
X137727625Y-79328435D01*
X137703523Y-79278147D01*
X137675738Y-79230140D01*
X137644883Y-79181312D01*
X137611648Y-79128686D01*
X137611486Y-79128421D01*
X137576556Y-79069034D01*
X137576263Y-79068505D01*
X137543881Y-79006309D01*
X137543100Y-78997388D01*
X137545826Y-78992796D01*
X137632289Y-78902884D01*
X137900000Y-78624500D01*
X138097065Y-78829422D01*
G37*
G04 #@! TD.AperFunction*
G04 #@! TA.AperFunction,Conductor*
G36*
X81031982Y-65663427D02*
G01*
X81035401Y-65671282D01*
X81038235Y-65750906D01*
X81047572Y-65827097D01*
X81062458Y-65891654D01*
X81082339Y-65947660D01*
X81082474Y-65947941D01*
X81082478Y-65947950D01*
X81106559Y-65997983D01*
X81106568Y-65998001D01*
X81106662Y-65998195D01*
X81106773Y-65998385D01*
X81106776Y-65998390D01*
X81134808Y-66046233D01*
X81134817Y-66046248D01*
X81134873Y-66046343D01*
X81134947Y-66046457D01*
X81166418Y-66095186D01*
X81200660Y-66147675D01*
X81200829Y-66147942D01*
X81237150Y-66207039D01*
X81237431Y-66207521D01*
X81271482Y-66269352D01*
X81272471Y-66278252D01*
X81269866Y-66282893D01*
X81111108Y-66456462D01*
X81111108Y-66456463D01*
X80924998Y-66659937D01*
X80726489Y-66463580D01*
X80726490Y-66463580D01*
X80726489Y-66463579D01*
X80726490Y-66463579D01*
X80561724Y-66300600D01*
X80558252Y-66292346D01*
X80559436Y-66287153D01*
X80591017Y-66222459D01*
X80591253Y-66222005D01*
X80625273Y-66160397D01*
X80625443Y-66160101D01*
X80632746Y-66147805D01*
X80657820Y-66105583D01*
X80687925Y-66055031D01*
X80687955Y-66054975D01*
X80688037Y-66054831D01*
X80710386Y-66013964D01*
X80715061Y-66005417D01*
X80738623Y-65953557D01*
X80758003Y-65896269D01*
X80772597Y-65830369D01*
X80781798Y-65752673D01*
X80784609Y-65671296D01*
X80788320Y-65663146D01*
X80796303Y-65660000D01*
X81023709Y-65660000D01*
X81031982Y-65663427D01*
G37*
G04 #@! TD.AperFunction*
G04 #@! TA.AperFunction,Conductor*
G36*
X119041988Y-84663427D02*
G01*
X119045407Y-84671278D01*
X119048256Y-84750199D01*
X119048256Y-84750211D01*
X119048266Y-84750461D01*
X119048295Y-84750700D01*
X119048297Y-84750717D01*
X119057619Y-84825909D01*
X119057658Y-84826222D01*
X119057728Y-84826523D01*
X119072489Y-84890069D01*
X119072492Y-84890079D01*
X119072564Y-84890389D01*
X119092374Y-84946064D01*
X119092499Y-84946326D01*
X119092505Y-84946339D01*
X119116376Y-84996144D01*
X119116476Y-84996352D01*
X119144261Y-85044359D01*
X119175116Y-85093187D01*
X119208338Y-85145793D01*
X119208512Y-85146077D01*
X119243442Y-85205464D01*
X119243735Y-85205993D01*
X119276118Y-85268190D01*
X119276899Y-85277111D01*
X119274173Y-85281703D01*
X119112099Y-85450239D01*
X119112099Y-85450240D01*
X118920000Y-85650000D01*
X118727436Y-85449758D01*
X118727437Y-85449758D01*
X118565826Y-85281703D01*
X118562561Y-85273364D01*
X118563881Y-85268190D01*
X118596263Y-85205993D01*
X118596547Y-85205479D01*
X118631513Y-85146032D01*
X118631629Y-85145841D01*
X118664883Y-85093187D01*
X118695738Y-85044359D01*
X118695793Y-85044263D01*
X118695850Y-85044170D01*
X118716164Y-85009065D01*
X118723523Y-84996352D01*
X118747625Y-84946064D01*
X118767435Y-84890389D01*
X118782341Y-84826222D01*
X118791733Y-84750461D01*
X118794592Y-84671278D01*
X118798316Y-84663134D01*
X118806285Y-84660000D01*
X119033715Y-84660000D01*
X119041988Y-84663427D01*
G37*
G04 #@! TD.AperFunction*
G04 #@! TA.AperFunction,Conductor*
G36*
X100031988Y-81663427D02*
G01*
X100035407Y-81671278D01*
X100038256Y-81750199D01*
X100038256Y-81750211D01*
X100038266Y-81750461D01*
X100038295Y-81750700D01*
X100038297Y-81750717D01*
X100047200Y-81822526D01*
X100047658Y-81826222D01*
X100047728Y-81826523D01*
X100062489Y-81890069D01*
X100062492Y-81890079D01*
X100062564Y-81890389D01*
X100082374Y-81946064D01*
X100082499Y-81946326D01*
X100082505Y-81946339D01*
X100106376Y-81996144D01*
X100106476Y-81996352D01*
X100134261Y-82044359D01*
X100165116Y-82093187D01*
X100198338Y-82145793D01*
X100198512Y-82146077D01*
X100233442Y-82205464D01*
X100233735Y-82205993D01*
X100266118Y-82268190D01*
X100266899Y-82277111D01*
X100264173Y-82281703D01*
X100102330Y-82449999D01*
X100102330Y-82450000D01*
X99910000Y-82650000D01*
X99717668Y-82449999D01*
X99717669Y-82449999D01*
X99555826Y-82281703D01*
X99552561Y-82273364D01*
X99553881Y-82268190D01*
X99582433Y-82213348D01*
X99584524Y-82210497D01*
X99589116Y-82205906D01*
X99589118Y-82205901D01*
X99590426Y-82204594D01*
X99590477Y-82204522D01*
X99608015Y-82186986D01*
X99695010Y-82056793D01*
X99754937Y-81912132D01*
X99770163Y-81835609D01*
X99770208Y-81835400D01*
X99772341Y-81826222D01*
X99772806Y-81822467D01*
X99772926Y-81821724D01*
X99785495Y-81758559D01*
X99785497Y-81709877D01*
X99785500Y-81709863D01*
X99785500Y-81680212D01*
X99785501Y-81671699D01*
X99788929Y-81663426D01*
X99797201Y-81660000D01*
X100023715Y-81660000D01*
X100031988Y-81663427D01*
G37*
G04 #@! TD.AperFunction*
G04 #@! TA.AperFunction,Conductor*
G36*
X43113207Y-73463888D02*
G01*
X43113208Y-73463888D01*
X43278878Y-73616164D01*
X43282650Y-73624285D01*
X43281656Y-73629518D01*
X43251855Y-73696750D01*
X43251601Y-73697287D01*
X43219331Y-73761134D01*
X43219151Y-73761476D01*
X43188225Y-73817941D01*
X43159303Y-73870202D01*
X43159213Y-73870373D01*
X43133196Y-73921183D01*
X43133189Y-73921197D01*
X43133107Y-73921358D01*
X43133038Y-73921518D01*
X43133030Y-73921536D01*
X43110373Y-73974423D01*
X43110368Y-73974435D01*
X43110264Y-73974679D01*
X43110183Y-73974928D01*
X43110177Y-73974947D01*
X43091494Y-74033152D01*
X43091490Y-74033166D01*
X43091404Y-74033435D01*
X43091343Y-74033721D01*
X43091342Y-74033727D01*
X43077211Y-74100621D01*
X43077208Y-74100634D01*
X43077154Y-74100894D01*
X43077124Y-74101155D01*
X43077122Y-74101170D01*
X43068169Y-74180088D01*
X43068167Y-74180112D01*
X43068143Y-74180326D01*
X43068135Y-74180543D01*
X43068135Y-74180554D01*
X43065376Y-74263688D01*
X43061676Y-74271843D01*
X43053682Y-74275000D01*
X42826288Y-74275000D01*
X42818015Y-74271573D01*
X42814596Y-74263719D01*
X42811770Y-74184925D01*
X42811761Y-74184667D01*
X42802378Y-74108933D01*
X42787355Y-74044777D01*
X42767193Y-73989180D01*
X42742395Y-73939121D01*
X42713462Y-73891580D01*
X42680896Y-73843538D01*
X42663176Y-73817941D01*
X42645268Y-73792072D01*
X42645121Y-73791855D01*
X42607020Y-73734089D01*
X42606744Y-73733650D01*
X42570726Y-73673395D01*
X42569423Y-73664536D01*
X42571850Y-73659819D01*
X42728208Y-73475760D01*
X42902678Y-73270380D01*
X43113207Y-73463888D01*
G37*
G04 #@! TD.AperFunction*
G04 #@! TA.AperFunction,Conductor*
G36*
X100031972Y-89405149D02*
G01*
X100035391Y-89413016D01*
X100038207Y-89494201D01*
X100038236Y-89494451D01*
X100038237Y-89494454D01*
X100047391Y-89571440D01*
X100047393Y-89571456D01*
X100047426Y-89571727D01*
X100047487Y-89572001D01*
X100047488Y-89572007D01*
X100061110Y-89633256D01*
X100062049Y-89637475D01*
X100062150Y-89637773D01*
X100062152Y-89637779D01*
X100081375Y-89694347D01*
X100081378Y-89694356D01*
X100081469Y-89694622D01*
X100081592Y-89694891D01*
X100104982Y-89746129D01*
X100104991Y-89746147D01*
X100105081Y-89746344D01*
X100105191Y-89746545D01*
X100105193Y-89746548D01*
X100132276Y-89795817D01*
X100132392Y-89796016D01*
X100162450Y-89846218D01*
X100194902Y-89900568D01*
X100195085Y-89900886D01*
X100229158Y-89962247D01*
X100229432Y-89962771D01*
X100261069Y-90027212D01*
X100261638Y-90036148D01*
X100258812Y-90040668D01*
X99904947Y-90392211D01*
X99896662Y-90395611D01*
X99888401Y-90392157D01*
X99888085Y-90391826D01*
X99550634Y-90024486D01*
X99547562Y-90016076D01*
X99548989Y-90010953D01*
X99576330Y-89961068D01*
X99578307Y-89958431D01*
X99584568Y-89952171D01*
X99584568Y-89952170D01*
X99585937Y-89950802D01*
X99585977Y-89950744D01*
X99593189Y-89943535D01*
X99668183Y-89840325D01*
X99726107Y-89726654D01*
X99744812Y-89669092D01*
X99744869Y-89668925D01*
X99757533Y-89633256D01*
X99760055Y-89622325D01*
X99760318Y-89621377D01*
X99765536Y-89605321D01*
X99768893Y-89584129D01*
X99769027Y-89583438D01*
X99772420Y-89568736D01*
X99776138Y-89538425D01*
X99776174Y-89538166D01*
X99785498Y-89479314D01*
X99785498Y-89445148D01*
X99785500Y-89445143D01*
X99785500Y-89413422D01*
X99788927Y-89405149D01*
X99797200Y-89401722D01*
X100023699Y-89401722D01*
X100031972Y-89405149D01*
G37*
G04 #@! TD.AperFunction*
G04 #@! TA.AperFunction,Conductor*
G36*
X119041988Y-65673427D02*
G01*
X119045407Y-65681278D01*
X119048256Y-65760199D01*
X119048256Y-65760211D01*
X119048266Y-65760461D01*
X119048295Y-65760700D01*
X119048297Y-65760717D01*
X119057619Y-65835909D01*
X119057658Y-65836222D01*
X119057728Y-65836523D01*
X119072489Y-65900069D01*
X119072492Y-65900079D01*
X119072564Y-65900389D01*
X119092374Y-65956064D01*
X119092499Y-65956326D01*
X119092505Y-65956339D01*
X119116376Y-66006144D01*
X119116476Y-66006352D01*
X119144261Y-66054359D01*
X119175116Y-66103187D01*
X119208338Y-66155793D01*
X119208512Y-66156077D01*
X119243442Y-66215464D01*
X119243735Y-66215993D01*
X119276118Y-66278190D01*
X119276899Y-66287111D01*
X119274173Y-66291703D01*
X119112330Y-66459999D01*
X119112330Y-66460000D01*
X118920000Y-66660000D01*
X118727668Y-66459999D01*
X118727669Y-66459999D01*
X118565826Y-66291703D01*
X118562561Y-66283364D01*
X118563881Y-66278190D01*
X118596263Y-66215993D01*
X118596547Y-66215479D01*
X118631513Y-66156032D01*
X118631629Y-66155841D01*
X118664883Y-66103187D01*
X118695738Y-66054359D01*
X118695793Y-66054263D01*
X118695850Y-66054170D01*
X118716164Y-66019065D01*
X118723523Y-66006352D01*
X118747625Y-65956064D01*
X118767435Y-65900389D01*
X118782341Y-65836222D01*
X118791733Y-65760461D01*
X118794592Y-65681278D01*
X118798316Y-65673134D01*
X118806285Y-65670000D01*
X119033715Y-65670000D01*
X119041988Y-65673427D01*
G37*
G04 #@! TD.AperFunction*
G04 #@! TA.AperFunction,Conductor*
G36*
X42930533Y-54268564D02*
G01*
X42930829Y-54268867D01*
X43272021Y-54632772D01*
X43275179Y-54641150D01*
X43273798Y-54646299D01*
X43240576Y-54708304D01*
X43240289Y-54708809D01*
X43204653Y-54768055D01*
X43204483Y-54768327D01*
X43170753Y-54820865D01*
X43151853Y-54850443D01*
X43139622Y-54869585D01*
X43139609Y-54869605D01*
X43139553Y-54869694D01*
X43139486Y-54869807D01*
X43139435Y-54869893D01*
X43111682Y-54917549D01*
X43111673Y-54917564D01*
X43111557Y-54917765D01*
X43111455Y-54917976D01*
X43111452Y-54917983D01*
X43088787Y-54965175D01*
X43087348Y-54968171D01*
X43087246Y-54968457D01*
X43087241Y-54968470D01*
X43067617Y-55023688D01*
X43067505Y-55024004D01*
X43067434Y-55024308D01*
X43067430Y-55024324D01*
X43052680Y-55088062D01*
X43052678Y-55088071D01*
X43052612Y-55088358D01*
X43052575Y-55088651D01*
X43052574Y-55088662D01*
X43043282Y-55164058D01*
X43043280Y-55164077D01*
X43043250Y-55164325D01*
X43043240Y-55164591D01*
X43043240Y-55164597D01*
X43040404Y-55243719D01*
X43036683Y-55251864D01*
X43028712Y-55255000D01*
X42801294Y-55255000D01*
X42793021Y-55251573D01*
X42789601Y-55243713D01*
X42786805Y-55164597D01*
X42786764Y-55163428D01*
X42777465Y-55086696D01*
X42762710Y-55021660D01*
X42743108Y-54965175D01*
X42719269Y-54914099D01*
X42691801Y-54865285D01*
X42691749Y-54865201D01*
X42691695Y-54865108D01*
X42661314Y-54815592D01*
X42628498Y-54762007D01*
X42628311Y-54761690D01*
X42593869Y-54701256D01*
X42593586Y-54700730D01*
X42561603Y-54637286D01*
X42560939Y-54628356D01*
X42563719Y-54623806D01*
X42913989Y-54268676D01*
X42922236Y-54265194D01*
X42930533Y-54268564D01*
G37*
G04 #@! TD.AperFunction*
G04 #@! TA.AperFunction,Conductor*
G36*
X118913320Y-47268304D02*
G01*
X118913651Y-47268619D01*
X118914077Y-47269040D01*
X119268275Y-47619399D01*
X119271747Y-47627652D01*
X119270561Y-47632849D01*
X119238998Y-47697504D01*
X119238726Y-47698027D01*
X119204737Y-47759579D01*
X119204555Y-47759897D01*
X119172178Y-47814416D01*
X119172179Y-47814416D01*
X119142074Y-47864968D01*
X119142043Y-47865023D01*
X119141962Y-47865168D01*
X119115042Y-47914390D01*
X119115031Y-47914411D01*
X119114938Y-47914582D01*
X119114853Y-47914767D01*
X119114848Y-47914779D01*
X119091500Y-47966167D01*
X119091493Y-47966183D01*
X119091376Y-47966442D01*
X119091286Y-47966706D01*
X119091278Y-47966728D01*
X119072098Y-48023427D01*
X119072095Y-48023435D01*
X119071996Y-48023730D01*
X119071930Y-48024026D01*
X119071926Y-48024042D01*
X119057466Y-48089339D01*
X119057402Y-48089630D01*
X119057368Y-48089913D01*
X119057367Y-48089922D01*
X119048228Y-48167093D01*
X119048226Y-48167107D01*
X119048201Y-48167326D01*
X119048193Y-48167541D01*
X119048192Y-48167562D01*
X119045390Y-48248704D01*
X119041680Y-48256854D01*
X119033697Y-48260000D01*
X118806291Y-48260000D01*
X118798018Y-48256573D01*
X118794598Y-48248716D01*
X118794598Y-48248704D01*
X118791764Y-48169093D01*
X118782427Y-48092902D01*
X118767541Y-48028345D01*
X118747660Y-47972339D01*
X118723337Y-47921804D01*
X118695126Y-47873656D01*
X118663581Y-47824813D01*
X118629332Y-47772314D01*
X118629169Y-47772056D01*
X118592848Y-47712959D01*
X118592567Y-47712477D01*
X118584609Y-47698027D01*
X118558516Y-47650646D01*
X118557528Y-47641747D01*
X118560132Y-47637107D01*
X118896791Y-47269039D01*
X118904902Y-47265249D01*
X118913320Y-47268304D01*
G37*
G04 #@! TD.AperFunction*
G04 #@! TA.AperFunction,Conductor*
G36*
X81046719Y-84668687D02*
G01*
X81050139Y-84676547D01*
X81052967Y-84756537D01*
X81052968Y-84756551D01*
X81052976Y-84756774D01*
X81053002Y-84756995D01*
X81053004Y-84757010D01*
X81062243Y-84833150D01*
X81062245Y-84833166D01*
X81062281Y-84833456D01*
X81062349Y-84833758D01*
X81062350Y-84833760D01*
X81076538Y-84896222D01*
X81077044Y-84898447D01*
X81077147Y-84898745D01*
X81077151Y-84898757D01*
X81095565Y-84951747D01*
X81096657Y-84954889D01*
X81096783Y-84955158D01*
X81096784Y-84955161D01*
X81120414Y-85005721D01*
X81120421Y-85005735D01*
X81120510Y-85005925D01*
X81120610Y-85006103D01*
X81120617Y-85006116D01*
X81147994Y-85054696D01*
X81148111Y-85054891D01*
X81178501Y-85104346D01*
X81211328Y-85157862D01*
X81211516Y-85158180D01*
X81245996Y-85218581D01*
X81246279Y-85219107D01*
X81273962Y-85273930D01*
X81278280Y-85282480D01*
X81278950Y-85291410D01*
X81276171Y-85295965D01*
X80926136Y-85651317D01*
X80917889Y-85654806D01*
X80909590Y-85651441D01*
X80909271Y-85651114D01*
X80810921Y-85546353D01*
X80567866Y-85287456D01*
X80564703Y-85279080D01*
X80566078Y-85273935D01*
X80599287Y-85211860D01*
X80599517Y-85211455D01*
X80635153Y-85152143D01*
X80635303Y-85151901D01*
X80669020Y-85099343D01*
X80700202Y-85050514D01*
X80728186Y-85002446D01*
X80752391Y-84952047D01*
X80772231Y-84896222D01*
X80787125Y-84831878D01*
X80796489Y-84755922D01*
X80799335Y-84676539D01*
X80803056Y-84668396D01*
X80811027Y-84665260D01*
X81038446Y-84665260D01*
X81046719Y-84668687D01*
G37*
G04 #@! TD.AperFunction*
G04 #@! TA.AperFunction,Conductor*
G36*
X62031988Y-91683427D02*
G01*
X62035407Y-91691278D01*
X62038256Y-91770199D01*
X62038256Y-91770211D01*
X62038266Y-91770461D01*
X62038295Y-91770700D01*
X62038297Y-91770717D01*
X62047619Y-91845909D01*
X62047658Y-91846222D01*
X62047728Y-91846523D01*
X62062489Y-91910069D01*
X62062492Y-91910079D01*
X62062564Y-91910389D01*
X62082374Y-91966064D01*
X62082499Y-91966326D01*
X62082505Y-91966339D01*
X62106376Y-92016144D01*
X62106476Y-92016352D01*
X62134261Y-92064359D01*
X62165116Y-92113187D01*
X62198338Y-92165793D01*
X62198512Y-92166077D01*
X62233442Y-92225464D01*
X62233735Y-92225993D01*
X62266118Y-92288190D01*
X62266899Y-92297111D01*
X62264173Y-92301703D01*
X61918433Y-92661230D01*
X61910229Y-92664818D01*
X61901890Y-92661553D01*
X61901567Y-92661230D01*
X61555826Y-92301703D01*
X61552561Y-92293364D01*
X61553881Y-92288190D01*
X61586263Y-92225993D01*
X61586547Y-92225479D01*
X61621513Y-92166032D01*
X61621629Y-92165841D01*
X61654883Y-92113187D01*
X61685738Y-92064359D01*
X61685793Y-92064263D01*
X61685850Y-92064170D01*
X61706164Y-92029065D01*
X61713523Y-92016352D01*
X61737625Y-91966064D01*
X61757435Y-91910389D01*
X61772341Y-91846222D01*
X61781733Y-91770461D01*
X61784592Y-91691278D01*
X61788316Y-91683134D01*
X61796285Y-91680000D01*
X62023715Y-91680000D01*
X62031988Y-91683427D01*
G37*
G04 #@! TD.AperFunction*
G04 #@! TA.AperFunction,Conductor*
G36*
X61912894Y-54258709D02*
G01*
X61913209Y-54259040D01*
X62249866Y-54627106D01*
X62252921Y-54635524D01*
X62251482Y-54640647D01*
X62217431Y-54702477D01*
X62217150Y-54702959D01*
X62180829Y-54762056D01*
X62180660Y-54762323D01*
X62153201Y-54804416D01*
X62146418Y-54814813D01*
X62114873Y-54863656D01*
X62114828Y-54863732D01*
X62114808Y-54863765D01*
X62086776Y-54911608D01*
X62086767Y-54911623D01*
X62086662Y-54911804D01*
X62086573Y-54911987D01*
X62086559Y-54912015D01*
X62062478Y-54962048D01*
X62062471Y-54962064D01*
X62062339Y-54962339D01*
X62062234Y-54962633D01*
X62062233Y-54962637D01*
X62042572Y-55018022D01*
X62042568Y-55018032D01*
X62042458Y-55018345D01*
X62042382Y-55018674D01*
X62042381Y-55018678D01*
X62028394Y-55079339D01*
X62027572Y-55082902D01*
X62027535Y-55083197D01*
X62027535Y-55083202D01*
X62018265Y-55158847D01*
X62018235Y-55159093D01*
X62018226Y-55159324D01*
X62018226Y-55159334D01*
X62015402Y-55238716D01*
X62011683Y-55246862D01*
X62003709Y-55250000D01*
X61776303Y-55250000D01*
X61768030Y-55246573D01*
X61764610Y-55238704D01*
X61761859Y-55159093D01*
X61761798Y-55157326D01*
X61752597Y-55079630D01*
X61738003Y-55013730D01*
X61720618Y-54962339D01*
X61718720Y-54956728D01*
X61718718Y-54956723D01*
X61718623Y-54956442D01*
X61695061Y-54904582D01*
X61667925Y-54854968D01*
X61667824Y-54854796D01*
X61637820Y-54804416D01*
X61605443Y-54749897D01*
X61605261Y-54749579D01*
X61599707Y-54739522D01*
X61571262Y-54688009D01*
X61571009Y-54687523D01*
X61539437Y-54622848D01*
X61538888Y-54613911D01*
X61541721Y-54609402D01*
X61896348Y-54258618D01*
X61904640Y-54255237D01*
X61912894Y-54258709D01*
G37*
G04 #@! TD.AperFunction*
G04 #@! TA.AperFunction,Conductor*
G36*
X138021982Y-86973427D02*
G01*
X138025401Y-86981282D01*
X138028235Y-87060906D01*
X138037572Y-87137097D01*
X138052458Y-87201654D01*
X138072339Y-87257660D01*
X138072474Y-87257941D01*
X138072478Y-87257950D01*
X138096559Y-87307983D01*
X138096568Y-87308001D01*
X138096662Y-87308195D01*
X138096773Y-87308385D01*
X138096776Y-87308390D01*
X138124808Y-87356233D01*
X138124817Y-87356248D01*
X138124873Y-87356343D01*
X138124947Y-87356457D01*
X138156418Y-87405186D01*
X138190660Y-87457675D01*
X138190829Y-87457942D01*
X138227150Y-87517039D01*
X138227431Y-87517521D01*
X138261482Y-87579352D01*
X138262471Y-87588252D01*
X138259866Y-87592893D01*
X138100046Y-87767623D01*
X138100046Y-87767624D01*
X137914998Y-87969937D01*
X137551724Y-87610600D01*
X137548252Y-87602346D01*
X137549436Y-87597153D01*
X137581017Y-87532459D01*
X137581253Y-87532005D01*
X137615273Y-87470397D01*
X137615443Y-87470101D01*
X137622746Y-87457805D01*
X137647820Y-87415583D01*
X137677925Y-87365031D01*
X137677955Y-87364975D01*
X137678037Y-87364831D01*
X137700386Y-87323964D01*
X137705061Y-87315417D01*
X137728623Y-87263557D01*
X137748003Y-87206269D01*
X137762597Y-87140369D01*
X137771798Y-87062673D01*
X137774609Y-86981296D01*
X137778320Y-86973146D01*
X137786303Y-86970000D01*
X138013709Y-86970000D01*
X138021982Y-86973427D01*
G37*
G04 #@! TD.AperFunction*
G04 #@! TA.AperFunction,Conductor*
G36*
X99908110Y-44268446D02*
G01*
X99908433Y-44268769D01*
X100254173Y-44628296D01*
X100257438Y-44636635D01*
X100256118Y-44641809D01*
X100223735Y-44704005D01*
X100223442Y-44704534D01*
X100188512Y-44763921D01*
X100188319Y-44764236D01*
X100155116Y-44816812D01*
X100124310Y-44865561D01*
X100124292Y-44865590D01*
X100124261Y-44865640D01*
X100124220Y-44865710D01*
X100124149Y-44865829D01*
X100096594Y-44913442D01*
X100096587Y-44913455D01*
X100096476Y-44913647D01*
X100096384Y-44913838D01*
X100096376Y-44913854D01*
X100072505Y-44963659D01*
X100072496Y-44963678D01*
X100072374Y-44963935D01*
X100072275Y-44964211D01*
X100072270Y-44964225D01*
X100052675Y-45019298D01*
X100052564Y-45019610D01*
X100052493Y-45019914D01*
X100052489Y-45019929D01*
X100037728Y-45083475D01*
X100037658Y-45083777D01*
X100037620Y-45084082D01*
X100037619Y-45084089D01*
X100028297Y-45159281D01*
X100028295Y-45159300D01*
X100028266Y-45159538D01*
X100028257Y-45159785D01*
X100028256Y-45159799D01*
X100025407Y-45238722D01*
X100021684Y-45246866D01*
X100013715Y-45250000D01*
X99786285Y-45250000D01*
X99778012Y-45246573D01*
X99774593Y-45238722D01*
X99771742Y-45159799D01*
X99771733Y-45159538D01*
X99762341Y-45083777D01*
X99747435Y-45019610D01*
X99727625Y-44963935D01*
X99703523Y-44913647D01*
X99675738Y-44865640D01*
X99644883Y-44816812D01*
X99611648Y-44764186D01*
X99611486Y-44763921D01*
X99576556Y-44704534D01*
X99576263Y-44704005D01*
X99543881Y-44641809D01*
X99543100Y-44632888D01*
X99545824Y-44628297D01*
X99891567Y-44268768D01*
X99899771Y-44265181D01*
X99908110Y-44268446D01*
G37*
G04 #@! TD.AperFunction*
G04 #@! TA.AperFunction,Conductor*
G36*
X43061988Y-80213427D02*
G01*
X43065407Y-80221278D01*
X43068256Y-80300199D01*
X43068256Y-80300211D01*
X43068266Y-80300461D01*
X43068295Y-80300700D01*
X43068297Y-80300717D01*
X43077619Y-80375909D01*
X43077658Y-80376222D01*
X43077728Y-80376523D01*
X43092489Y-80440069D01*
X43092492Y-80440079D01*
X43092564Y-80440389D01*
X43112374Y-80496064D01*
X43112499Y-80496326D01*
X43112505Y-80496339D01*
X43136376Y-80546144D01*
X43136476Y-80546352D01*
X43164261Y-80594359D01*
X43195116Y-80643187D01*
X43228338Y-80695793D01*
X43228512Y-80696077D01*
X43263442Y-80755464D01*
X43263735Y-80755993D01*
X43296118Y-80818190D01*
X43296899Y-80827111D01*
X43294173Y-80831703D01*
X43132330Y-80999999D01*
X43132330Y-81000000D01*
X42940000Y-81200000D01*
X42747668Y-80999999D01*
X42747669Y-80999999D01*
X42585826Y-80831703D01*
X42582561Y-80823364D01*
X42583881Y-80818190D01*
X42616263Y-80755993D01*
X42616547Y-80755479D01*
X42651513Y-80696032D01*
X42651629Y-80695841D01*
X42684883Y-80643187D01*
X42715738Y-80594359D01*
X42715793Y-80594263D01*
X42715850Y-80594170D01*
X42736164Y-80559065D01*
X42743523Y-80546352D01*
X42767625Y-80496064D01*
X42787435Y-80440389D01*
X42802341Y-80376222D01*
X42811733Y-80300461D01*
X42814592Y-80221278D01*
X42818316Y-80213134D01*
X42826285Y-80210000D01*
X43053715Y-80210000D01*
X43061988Y-80213427D01*
G37*
G04 #@! TD.AperFunction*
G04 #@! TA.AperFunction,Conductor*
G36*
X119041988Y-75287927D02*
G01*
X119045407Y-75295778D01*
X119048256Y-75374699D01*
X119048256Y-75374711D01*
X119048266Y-75374961D01*
X119048295Y-75375200D01*
X119048297Y-75375217D01*
X119057619Y-75450409D01*
X119057658Y-75450722D01*
X119057728Y-75451023D01*
X119072489Y-75514569D01*
X119072492Y-75514579D01*
X119072564Y-75514889D01*
X119092374Y-75570564D01*
X119092499Y-75570826D01*
X119092505Y-75570839D01*
X119116376Y-75620644D01*
X119116476Y-75620852D01*
X119144261Y-75668859D01*
X119175116Y-75717687D01*
X119208338Y-75770293D01*
X119208512Y-75770577D01*
X119243442Y-75829964D01*
X119243735Y-75830493D01*
X119276118Y-75892690D01*
X119276899Y-75901611D01*
X119274173Y-75906203D01*
X119112330Y-76074499D01*
X119112330Y-76074500D01*
X118920000Y-76274500D01*
X118727668Y-76074499D01*
X118727669Y-76074499D01*
X118565826Y-75906203D01*
X118562561Y-75897864D01*
X118563881Y-75892690D01*
X118596263Y-75830493D01*
X118596547Y-75829979D01*
X118631513Y-75770532D01*
X118631629Y-75770341D01*
X118664883Y-75717687D01*
X118695738Y-75668859D01*
X118695793Y-75668763D01*
X118695850Y-75668670D01*
X118716164Y-75633565D01*
X118723523Y-75620852D01*
X118747625Y-75570564D01*
X118767435Y-75514889D01*
X118782341Y-75450722D01*
X118791733Y-75374961D01*
X118794592Y-75295778D01*
X118798316Y-75287634D01*
X118806285Y-75284500D01*
X119033715Y-75284500D01*
X119041988Y-75287927D01*
G37*
G04 #@! TD.AperFunction*
G04 #@! TA.AperFunction,Conductor*
G36*
X43036988Y-72683427D02*
G01*
X43040407Y-72691278D01*
X43043256Y-72770199D01*
X43043256Y-72770211D01*
X43043266Y-72770461D01*
X43043295Y-72770700D01*
X43043297Y-72770717D01*
X43052619Y-72845909D01*
X43052658Y-72846222D01*
X43052728Y-72846523D01*
X43067489Y-72910069D01*
X43067492Y-72910079D01*
X43067564Y-72910389D01*
X43087374Y-72966064D01*
X43087499Y-72966326D01*
X43087505Y-72966339D01*
X43111376Y-73016144D01*
X43111476Y-73016352D01*
X43139261Y-73064359D01*
X43170116Y-73113187D01*
X43203338Y-73165793D01*
X43203512Y-73166077D01*
X43238442Y-73225464D01*
X43238735Y-73225993D01*
X43271118Y-73288190D01*
X43271899Y-73297111D01*
X43269173Y-73301703D01*
X43113207Y-73463887D01*
X43113208Y-73463888D01*
X42915000Y-73670000D01*
X42728207Y-73475759D01*
X42728208Y-73475759D01*
X42560826Y-73301703D01*
X42557561Y-73293364D01*
X42558881Y-73288190D01*
X42591263Y-73225993D01*
X42591547Y-73225479D01*
X42626513Y-73166032D01*
X42626629Y-73165841D01*
X42659883Y-73113187D01*
X42690738Y-73064359D01*
X42690793Y-73064263D01*
X42690850Y-73064170D01*
X42711164Y-73029065D01*
X42718523Y-73016352D01*
X42742625Y-72966064D01*
X42762435Y-72910389D01*
X42777341Y-72846222D01*
X42786733Y-72770461D01*
X42789592Y-72691278D01*
X42793316Y-72683134D01*
X42801285Y-72680000D01*
X43028715Y-72680000D01*
X43036988Y-72683427D01*
G37*
G04 #@! TD.AperFunction*
G04 #@! TA.AperFunction,Conductor*
G36*
X170662143Y-80563427D02*
G01*
X170665554Y-80571116D01*
X170673737Y-80735128D01*
X170673797Y-80735481D01*
X170673798Y-80735483D01*
X170698509Y-80879065D01*
X170698511Y-80879071D01*
X170737163Y-80998622D01*
X170787535Y-81100573D01*
X170787724Y-81100861D01*
X170787729Y-81100869D01*
X170847342Y-81191528D01*
X170847351Y-81191540D01*
X170847467Y-81191717D01*
X170847597Y-81191885D01*
X170847604Y-81191895D01*
X170914802Y-81278847D01*
X170914880Y-81278945D01*
X170987282Y-81368634D01*
X170987490Y-81368900D01*
X171062805Y-81467919D01*
X171063253Y-81468549D01*
X171139358Y-81583656D01*
X171139884Y-81584533D01*
X171210923Y-81715563D01*
X171211853Y-81724469D01*
X171209070Y-81729249D01*
X170548433Y-82416230D01*
X170540229Y-82419818D01*
X170531890Y-82416553D01*
X170531567Y-82416230D01*
X170163258Y-82033235D01*
X169870928Y-81729248D01*
X169867664Y-81720910D01*
X169869075Y-81715566D01*
X169940123Y-81584516D01*
X169940630Y-81583672D01*
X170016760Y-81468527D01*
X170017177Y-81467941D01*
X170092525Y-81368877D01*
X170092716Y-81368634D01*
X170165197Y-81278847D01*
X170165273Y-81278750D01*
X170232394Y-81191895D01*
X170232532Y-81191717D01*
X170292464Y-81100573D01*
X170342836Y-80998622D01*
X170381488Y-80879071D01*
X170406262Y-80735128D01*
X170414445Y-80571116D01*
X170418279Y-80563025D01*
X170426130Y-80560000D01*
X170653870Y-80560000D01*
X170662143Y-80563427D01*
G37*
G04 #@! TD.AperFunction*
G04 #@! TA.AperFunction,Conductor*
G36*
X119040975Y-91194406D02*
G01*
X119044396Y-91202291D01*
X119047057Y-91282574D01*
X119047157Y-91285575D01*
X119047181Y-91285794D01*
X119047183Y-91285809D01*
X119055522Y-91359263D01*
X119056168Y-91364954D01*
X119056224Y-91365220D01*
X119056226Y-91365230D01*
X119070392Y-91432075D01*
X119070394Y-91432084D01*
X119070454Y-91432365D01*
X119070542Y-91432639D01*
X119070546Y-91432652D01*
X119085829Y-91479959D01*
X119089415Y-91491060D01*
X119112454Y-91544287D01*
X119112552Y-91544477D01*
X119112558Y-91544488D01*
X119138971Y-91595298D01*
X119139071Y-91595478D01*
X119168366Y-91647342D01*
X119199945Y-91703498D01*
X119200118Y-91703816D01*
X119233270Y-91767288D01*
X119233523Y-91767804D01*
X119264323Y-91834566D01*
X119264677Y-91843514D01*
X119261750Y-91847956D01*
X118899831Y-92191215D01*
X118891471Y-92194422D01*
X118883291Y-92190777D01*
X118882983Y-92190439D01*
X118554123Y-91815372D01*
X118551245Y-91806893D01*
X118552783Y-91801817D01*
X118588282Y-91740245D01*
X118588511Y-91739867D01*
X118626112Y-91680862D01*
X118626245Y-91680660D01*
X118648574Y-91647342D01*
X118661360Y-91628262D01*
X118693518Y-91579368D01*
X118722118Y-91531056D01*
X118746653Y-91480261D01*
X118766617Y-91423921D01*
X118781504Y-91358969D01*
X118790807Y-91282343D01*
X118793623Y-91202268D01*
X118797340Y-91194120D01*
X118805317Y-91190979D01*
X119032702Y-91190979D01*
X119040975Y-91194406D01*
G37*
G04 #@! TD.AperFunction*
G04 #@! TA.AperFunction,Conductor*
G36*
X138031988Y-93812927D02*
G01*
X138035407Y-93820778D01*
X138038256Y-93899699D01*
X138038256Y-93899711D01*
X138038266Y-93899961D01*
X138038295Y-93900200D01*
X138038297Y-93900217D01*
X138047619Y-93975409D01*
X138047658Y-93975722D01*
X138047728Y-93976023D01*
X138062489Y-94039569D01*
X138062492Y-94039579D01*
X138062564Y-94039889D01*
X138082374Y-94095564D01*
X138082499Y-94095826D01*
X138082505Y-94095839D01*
X138106376Y-94145644D01*
X138106476Y-94145852D01*
X138134261Y-94193859D01*
X138165116Y-94242687D01*
X138198338Y-94295293D01*
X138198512Y-94295577D01*
X138233442Y-94354964D01*
X138233735Y-94355493D01*
X138266118Y-94417690D01*
X138266899Y-94426611D01*
X138264173Y-94431203D01*
X137918433Y-94790730D01*
X137910229Y-94794318D01*
X137901890Y-94791053D01*
X137901567Y-94790730D01*
X137555826Y-94431203D01*
X137552561Y-94422864D01*
X137553881Y-94417690D01*
X137586263Y-94355493D01*
X137586547Y-94354979D01*
X137621513Y-94295532D01*
X137621629Y-94295341D01*
X137654883Y-94242687D01*
X137685738Y-94193859D01*
X137685793Y-94193763D01*
X137685850Y-94193670D01*
X137706164Y-94158565D01*
X137713523Y-94145852D01*
X137737625Y-94095564D01*
X137757435Y-94039889D01*
X137772341Y-93975722D01*
X137781733Y-93899961D01*
X137784592Y-93820778D01*
X137788316Y-93812634D01*
X137796285Y-93809500D01*
X138023715Y-93809500D01*
X138031988Y-93812927D01*
G37*
G04 #@! TD.AperFunction*
G04 #@! TA.AperFunction,Conductor*
G36*
X119112330Y-66459999D02*
G01*
X119112330Y-66460000D01*
X119274173Y-66628296D01*
X119277438Y-66636635D01*
X119276118Y-66641809D01*
X119243735Y-66704005D01*
X119243442Y-66704534D01*
X119208512Y-66763921D01*
X119208319Y-66764236D01*
X119175116Y-66816812D01*
X119144310Y-66865561D01*
X119144292Y-66865590D01*
X119144261Y-66865640D01*
X119144220Y-66865710D01*
X119144149Y-66865829D01*
X119116594Y-66913442D01*
X119116587Y-66913455D01*
X119116476Y-66913647D01*
X119116384Y-66913838D01*
X119116376Y-66913854D01*
X119092505Y-66963659D01*
X119092496Y-66963678D01*
X119092374Y-66963935D01*
X119092275Y-66964211D01*
X119092270Y-66964225D01*
X119072675Y-67019298D01*
X119072564Y-67019610D01*
X119072493Y-67019914D01*
X119072489Y-67019929D01*
X119057728Y-67083475D01*
X119057658Y-67083777D01*
X119057620Y-67084082D01*
X119057619Y-67084089D01*
X119048297Y-67159281D01*
X119048295Y-67159300D01*
X119048266Y-67159538D01*
X119048257Y-67159785D01*
X119048256Y-67159799D01*
X119045407Y-67238722D01*
X119041684Y-67246866D01*
X119033715Y-67250000D01*
X118806285Y-67250000D01*
X118798012Y-67246573D01*
X118794593Y-67238722D01*
X118791742Y-67159799D01*
X118791733Y-67159538D01*
X118782341Y-67083777D01*
X118767435Y-67019610D01*
X118747625Y-66963935D01*
X118723523Y-66913647D01*
X118695738Y-66865640D01*
X118664883Y-66816812D01*
X118631648Y-66764186D01*
X118631486Y-66763921D01*
X118596556Y-66704534D01*
X118596263Y-66704005D01*
X118563881Y-66641809D01*
X118563100Y-66632888D01*
X118565824Y-66628297D01*
X118727669Y-66460000D01*
X118920000Y-66260000D01*
X119112330Y-66459999D01*
G37*
G04 #@! TD.AperFunction*
G04 #@! TA.AperFunction,Conductor*
G36*
X99053670Y-54682664D02*
G01*
X99565880Y-54822376D01*
X99572959Y-54827859D01*
X99574500Y-54833663D01*
X99574500Y-55507800D01*
X99571073Y-55516073D01*
X99562800Y-55519500D01*
X99336031Y-55519500D01*
X99327758Y-55516073D01*
X99324351Y-55508489D01*
X99323576Y-55495356D01*
X99321455Y-55459383D01*
X99311090Y-55408876D01*
X99294308Y-55366704D01*
X99271513Y-55331596D01*
X99243107Y-55302277D01*
X99209787Y-55277694D01*
X99209785Y-55277692D01*
X99209494Y-55277478D01*
X99209186Y-55277305D01*
X99209178Y-55277300D01*
X99171278Y-55256035D01*
X99171273Y-55256032D01*
X99171078Y-55255923D01*
X99170864Y-55255825D01*
X99128389Y-55236399D01*
X99128369Y-55236390D01*
X99128261Y-55236341D01*
X99081446Y-55217458D01*
X99063380Y-55210485D01*
X99038651Y-55200940D01*
X99032167Y-55194764D01*
X99031165Y-55189843D01*
X99032603Y-55097648D01*
X99038899Y-54693770D01*
X99042455Y-54685552D01*
X99050780Y-54682254D01*
X99053670Y-54682664D01*
G37*
G04 #@! TD.AperFunction*
G04 #@! TA.AperFunction,Conductor*
G36*
X109212988Y-95460418D02*
G01*
X109278463Y-95519949D01*
X109316494Y-95554528D01*
X109418884Y-95628101D01*
X109419233Y-95628286D01*
X109419238Y-95628289D01*
X109437456Y-95637943D01*
X109514747Y-95678902D01*
X109606925Y-95712198D01*
X109698262Y-95733260D01*
X109791601Y-95747355D01*
X109791601Y-95747356D01*
X109791743Y-95747375D01*
X109882281Y-95758808D01*
X109889664Y-95759740D01*
X109889929Y-95759777D01*
X109995325Y-95775678D01*
X109995967Y-95775794D01*
X110111597Y-95800445D01*
X110112503Y-95800677D01*
X110233657Y-95837018D01*
X110240597Y-95842678D01*
X110241994Y-95847996D01*
X110258085Y-96671113D01*
X110254820Y-96679452D01*
X110246616Y-96683040D01*
X110246158Y-96683040D01*
X109423041Y-96666949D01*
X109414837Y-96663361D01*
X109412063Y-96658612D01*
X109375724Y-96537463D01*
X109375488Y-96536542D01*
X109350839Y-96420922D01*
X109350723Y-96420280D01*
X109334822Y-96314884D01*
X109334785Y-96314613D01*
X109322401Y-96216556D01*
X109322381Y-96216417D01*
X109308336Y-96123424D01*
X109308305Y-96123217D01*
X109287243Y-96031880D01*
X109253947Y-95939702D01*
X109203146Y-95843839D01*
X109129573Y-95741449D01*
X109072704Y-95678902D01*
X109035463Y-95637943D01*
X109032433Y-95629516D01*
X109035846Y-95621800D01*
X109196845Y-95460801D01*
X109205117Y-95457375D01*
X109212988Y-95460418D01*
G37*
G04 #@! TD.AperFunction*
G04 #@! TA.AperFunction,Conductor*
G36*
X111886008Y-94098447D02*
G01*
X111951483Y-94157978D01*
X111989514Y-94192557D01*
X112091904Y-94266130D01*
X112092253Y-94266315D01*
X112092258Y-94266318D01*
X112110476Y-94275972D01*
X112187767Y-94316931D01*
X112279945Y-94350227D01*
X112371282Y-94371289D01*
X112464621Y-94385384D01*
X112464621Y-94385385D01*
X112464763Y-94385404D01*
X112555301Y-94396837D01*
X112562684Y-94397769D01*
X112562949Y-94397806D01*
X112668345Y-94413707D01*
X112668987Y-94413823D01*
X112784617Y-94438474D01*
X112785523Y-94438706D01*
X112906677Y-94475047D01*
X112913617Y-94480707D01*
X112915014Y-94486025D01*
X112931105Y-95309142D01*
X112927840Y-95317481D01*
X112919636Y-95321069D01*
X112919178Y-95321069D01*
X112096061Y-95304978D01*
X112087857Y-95301390D01*
X112085083Y-95296641D01*
X112048744Y-95175492D01*
X112048508Y-95174571D01*
X112023859Y-95058951D01*
X112023743Y-95058309D01*
X112007842Y-94952913D01*
X112007805Y-94952642D01*
X111995421Y-94854585D01*
X111995401Y-94854446D01*
X111981356Y-94761453D01*
X111981325Y-94761246D01*
X111960263Y-94669909D01*
X111926967Y-94577731D01*
X111876166Y-94481868D01*
X111802593Y-94379478D01*
X111745724Y-94316931D01*
X111708483Y-94275972D01*
X111705453Y-94267545D01*
X111708866Y-94259829D01*
X111869865Y-94098830D01*
X111878137Y-94095404D01*
X111886008Y-94098447D01*
G37*
G04 #@! TD.AperFunction*
G04 #@! TA.AperFunction,Conductor*
G36*
X138041964Y-78027927D02*
G01*
X138045384Y-78035802D01*
X138048061Y-78114555D01*
X138048182Y-78118086D01*
X138048209Y-78118326D01*
X138048210Y-78118327D01*
X138056508Y-78189705D01*
X138057306Y-78196564D01*
X138057360Y-78196814D01*
X138057363Y-78196831D01*
X138071675Y-78262871D01*
X138071739Y-78263165D01*
X138071829Y-78263437D01*
X138071832Y-78263449D01*
X138090763Y-78320865D01*
X138090769Y-78320881D01*
X138090849Y-78321123D01*
X138090959Y-78321374D01*
X138090960Y-78321375D01*
X138113915Y-78373475D01*
X138113920Y-78373487D01*
X138114001Y-78373669D01*
X138114091Y-78373841D01*
X138114098Y-78373854D01*
X138140564Y-78424035D01*
X138140661Y-78424208D01*
X138169904Y-78475453D01*
X138201296Y-78530993D01*
X138201482Y-78531336D01*
X138234237Y-78594094D01*
X138234503Y-78594636D01*
X138264759Y-78660703D01*
X138265088Y-78669652D01*
X138262139Y-78674096D01*
X138097065Y-78829423D01*
X137890013Y-79024250D01*
X137712181Y-78819806D01*
X137712182Y-78819806D01*
X137554659Y-78638711D01*
X137551816Y-78630220D01*
X137553381Y-78625140D01*
X137588616Y-78564711D01*
X137588866Y-78564303D01*
X137626350Y-78506345D01*
X137626434Y-78506218D01*
X137661600Y-78454676D01*
X137693824Y-78406673D01*
X137722539Y-78359237D01*
X137747217Y-78309337D01*
X137767330Y-78253943D01*
X137782350Y-78190026D01*
X137791749Y-78114555D01*
X137794592Y-78035778D01*
X137798316Y-78027634D01*
X137806285Y-78024500D01*
X138033691Y-78024500D01*
X138041964Y-78027927D01*
G37*
G04 #@! TD.AperFunction*
G04 #@! TA.AperFunction,Conductor*
G36*
X168826617Y-53225376D02*
G01*
X168826934Y-53225706D01*
X169165137Y-53592350D01*
X169168227Y-53600755D01*
X169166808Y-53605887D01*
X169133042Y-53667772D01*
X169132759Y-53668262D01*
X169096665Y-53727423D01*
X169096492Y-53727697D01*
X169062437Y-53780186D01*
X169031081Y-53828911D01*
X169031061Y-53828942D01*
X169031010Y-53829023D01*
X169030947Y-53829130D01*
X169030945Y-53829134D01*
X169002987Y-53876946D01*
X169002975Y-53876968D01*
X169002873Y-53877143D01*
X169002783Y-53877329D01*
X169002774Y-53877347D01*
X168978725Y-53927350D01*
X168978718Y-53927366D01*
X168978590Y-53927633D01*
X168978486Y-53927925D01*
X168978483Y-53927933D01*
X168958835Y-53983258D01*
X168958829Y-53983278D01*
X168958723Y-53983577D01*
X168958651Y-53983886D01*
X168958647Y-53983902D01*
X168943905Y-54047757D01*
X168943902Y-54047768D01*
X168943835Y-54048063D01*
X168934490Y-54124175D01*
X168934482Y-54124396D01*
X168934481Y-54124410D01*
X168931652Y-54203717D01*
X168927932Y-54211863D01*
X168919959Y-54215000D01*
X168692550Y-54215000D01*
X168684277Y-54211573D01*
X168680857Y-54203707D01*
X168678087Y-54124175D01*
X168678036Y-54122704D01*
X168668801Y-54045339D01*
X168654150Y-53979735D01*
X168634692Y-53922723D01*
X168611033Y-53871132D01*
X168583781Y-53821793D01*
X168583679Y-53821621D01*
X168553543Y-53771535D01*
X168527142Y-53727547D01*
X168521006Y-53717324D01*
X168520834Y-53717026D01*
X168493339Y-53667772D01*
X168486679Y-53655841D01*
X168486406Y-53655321D01*
X168454699Y-53591083D01*
X168454112Y-53582150D01*
X168456927Y-53577625D01*
X168810073Y-53225354D01*
X168818348Y-53221939D01*
X168826617Y-53225376D01*
G37*
G04 #@! TD.AperFunction*
G04 #@! TA.AperFunction,Conductor*
G36*
X81046724Y-80038167D02*
G01*
X81050144Y-80046021D01*
X81052977Y-80125193D01*
X81052978Y-80125212D01*
X81052987Y-80125448D01*
X81062346Y-80201448D01*
X81062416Y-80201751D01*
X81062417Y-80201756D01*
X81077161Y-80265506D01*
X81077163Y-80265515D01*
X81077237Y-80265832D01*
X81077344Y-80266134D01*
X81077347Y-80266143D01*
X81078304Y-80268835D01*
X81097085Y-80321690D01*
X81097220Y-80321972D01*
X81097223Y-80321978D01*
X81121212Y-80371907D01*
X81121312Y-80372115D01*
X81149340Y-80420195D01*
X81149340Y-80420196D01*
X81180592Y-80469027D01*
X81214398Y-80521553D01*
X81214577Y-80521840D01*
X81250308Y-80581047D01*
X81250594Y-80581548D01*
X81283943Y-80643530D01*
X81284845Y-80652440D01*
X81282190Y-80657060D01*
X81120193Y-80830496D01*
X81120193Y-80830497D01*
X80933406Y-81030475D01*
X80735417Y-80830496D01*
X80735418Y-80830496D01*
X80573910Y-80667365D01*
X80570524Y-80659074D01*
X80571765Y-80653890D01*
X80603691Y-80590249D01*
X80603953Y-80589759D01*
X80638371Y-80529077D01*
X80638519Y-80528824D01*
X80671278Y-80475085D01*
X80701708Y-80425261D01*
X80701819Y-80425067D01*
X80721601Y-80389755D01*
X80729126Y-80376326D01*
X80752924Y-80325131D01*
X80772493Y-80268524D01*
X80787224Y-80203357D01*
X80796509Y-80126479D01*
X80799342Y-80046026D01*
X80803058Y-80037881D01*
X80811035Y-80034740D01*
X81038451Y-80034740D01*
X81046724Y-80038167D01*
G37*
G04 #@! TD.AperFunction*
G04 #@! TA.AperFunction,Conductor*
G36*
X100100045Y-63447624D02*
G01*
X100100046Y-63447624D01*
X100264177Y-63618300D01*
X100267442Y-63626639D01*
X100266125Y-63631807D01*
X100233853Y-63693887D01*
X100233568Y-63694402D01*
X100198847Y-63753697D01*
X100198664Y-63754000D01*
X100165674Y-63806620D01*
X100135088Y-63855488D01*
X100134972Y-63855685D01*
X100107700Y-63903354D01*
X100107583Y-63903559D01*
X100107494Y-63903745D01*
X100107484Y-63903766D01*
X100083877Y-63953653D01*
X100083871Y-63953667D01*
X100083752Y-63953919D01*
X100083660Y-63954180D01*
X100083653Y-63954198D01*
X100064291Y-64009356D01*
X100064186Y-64009656D01*
X100064117Y-64009956D01*
X100064115Y-64009964D01*
X100049540Y-64073579D01*
X100049537Y-64073591D01*
X100049477Y-64073857D01*
X100049443Y-64074128D01*
X100049442Y-64074139D01*
X100040247Y-64149367D01*
X100040245Y-64149380D01*
X100040218Y-64149609D01*
X100040209Y-64149843D01*
X100040209Y-64149852D01*
X100037402Y-64228716D01*
X100033683Y-64236862D01*
X100025709Y-64240000D01*
X99795200Y-64240000D01*
X99786927Y-64236573D01*
X99783500Y-64228300D01*
X99783500Y-64186925D01*
X99783481Y-64186714D01*
X99783482Y-64179950D01*
X99783486Y-64138414D01*
X99753078Y-63985482D01*
X99693415Y-63841423D01*
X99693414Y-63841421D01*
X99693413Y-63841419D01*
X99606792Y-63711773D01*
X99589816Y-63694797D01*
X99589810Y-63694788D01*
X99584428Y-63689406D01*
X99582321Y-63686531D01*
X99553872Y-63631805D01*
X99553098Y-63622885D01*
X99555819Y-63618302D01*
X99910000Y-63250000D01*
X100100045Y-63447624D01*
G37*
G04 #@! TD.AperFunction*
G04 #@! TA.AperFunction,Conductor*
G36*
X137918110Y-49568446D02*
G01*
X137918433Y-49568769D01*
X138264173Y-49928296D01*
X138267438Y-49936635D01*
X138266118Y-49941809D01*
X138233735Y-50004005D01*
X138233442Y-50004534D01*
X138198512Y-50063921D01*
X138198319Y-50064236D01*
X138165116Y-50116812D01*
X138134310Y-50165561D01*
X138134292Y-50165590D01*
X138134261Y-50165640D01*
X138134220Y-50165710D01*
X138134149Y-50165829D01*
X138106594Y-50213442D01*
X138106587Y-50213455D01*
X138106476Y-50213647D01*
X138106384Y-50213838D01*
X138106376Y-50213854D01*
X138082505Y-50263659D01*
X138082496Y-50263678D01*
X138082374Y-50263935D01*
X138082275Y-50264211D01*
X138082270Y-50264225D01*
X138062675Y-50319298D01*
X138062564Y-50319610D01*
X138062493Y-50319914D01*
X138062489Y-50319929D01*
X138047728Y-50383475D01*
X138047658Y-50383777D01*
X138047620Y-50384082D01*
X138047619Y-50384089D01*
X138038297Y-50459281D01*
X138038295Y-50459300D01*
X138038266Y-50459538D01*
X138038257Y-50459785D01*
X138038256Y-50459799D01*
X138035407Y-50538722D01*
X138031684Y-50546866D01*
X138023715Y-50550000D01*
X137796285Y-50550000D01*
X137788012Y-50546573D01*
X137784593Y-50538722D01*
X137781742Y-50459799D01*
X137781733Y-50459538D01*
X137772341Y-50383777D01*
X137757435Y-50319610D01*
X137737625Y-50263935D01*
X137713523Y-50213647D01*
X137685738Y-50165640D01*
X137654883Y-50116812D01*
X137621648Y-50064186D01*
X137621486Y-50063921D01*
X137586556Y-50004534D01*
X137586263Y-50004005D01*
X137553881Y-49941809D01*
X137553100Y-49932888D01*
X137555824Y-49928297D01*
X137901567Y-49568768D01*
X137909771Y-49565181D01*
X137918110Y-49568446D01*
G37*
G04 #@! TD.AperFunction*
G04 #@! TA.AperFunction,Conductor*
G36*
X62094669Y-81722065D02*
G01*
X62094669Y-81722066D01*
X62094669Y-81722067D01*
X62190023Y-81816387D01*
X62258275Y-81883899D01*
X62261747Y-81892152D01*
X62260561Y-81897349D01*
X62228998Y-81962004D01*
X62228726Y-81962527D01*
X62194737Y-82024079D01*
X62194555Y-82024397D01*
X62162178Y-82078916D01*
X62162179Y-82078916D01*
X62132074Y-82129468D01*
X62132043Y-82129523D01*
X62131962Y-82129668D01*
X62105042Y-82178890D01*
X62105031Y-82178911D01*
X62104938Y-82179082D01*
X62104853Y-82179267D01*
X62104848Y-82179279D01*
X62081500Y-82230667D01*
X62081493Y-82230683D01*
X62081376Y-82230942D01*
X62081286Y-82231206D01*
X62081278Y-82231228D01*
X62062098Y-82287927D01*
X62062095Y-82287935D01*
X62061996Y-82288230D01*
X62061930Y-82288526D01*
X62061926Y-82288542D01*
X62047466Y-82353839D01*
X62047402Y-82354130D01*
X62047368Y-82354413D01*
X62047367Y-82354422D01*
X62038228Y-82431593D01*
X62038226Y-82431607D01*
X62038201Y-82431826D01*
X62038193Y-82432041D01*
X62038192Y-82432062D01*
X62035390Y-82513204D01*
X62031680Y-82521354D01*
X62023697Y-82524500D01*
X61796291Y-82524500D01*
X61788018Y-82521073D01*
X61784598Y-82513216D01*
X61784598Y-82513204D01*
X61781764Y-82433593D01*
X61772427Y-82357402D01*
X61757541Y-82292845D01*
X61737660Y-82236839D01*
X61713337Y-82186304D01*
X61685126Y-82138156D01*
X61653581Y-82089313D01*
X61619332Y-82036814D01*
X61619169Y-82036556D01*
X61582848Y-81977459D01*
X61582567Y-81976977D01*
X61574609Y-81962527D01*
X61548516Y-81915146D01*
X61547528Y-81906247D01*
X61550133Y-81901606D01*
X61566330Y-81883898D01*
X61895002Y-81524563D01*
X62094669Y-81722065D01*
G37*
G04 #@! TD.AperFunction*
G04 #@! TA.AperFunction,Conductor*
G36*
X165582143Y-80563427D02*
G01*
X165585554Y-80571116D01*
X165593737Y-80735128D01*
X165593797Y-80735481D01*
X165593798Y-80735483D01*
X165618509Y-80879065D01*
X165618511Y-80879071D01*
X165657163Y-80998622D01*
X165707535Y-81100573D01*
X165707724Y-81100861D01*
X165707729Y-81100869D01*
X165767342Y-81191528D01*
X165767351Y-81191540D01*
X165767467Y-81191717D01*
X165767597Y-81191885D01*
X165767604Y-81191895D01*
X165834802Y-81278847D01*
X165834880Y-81278945D01*
X165907282Y-81368634D01*
X165907490Y-81368900D01*
X165982805Y-81467919D01*
X165983253Y-81468549D01*
X166059358Y-81583656D01*
X166059884Y-81584533D01*
X166130923Y-81715563D01*
X166131853Y-81724469D01*
X166129070Y-81729249D01*
X165468433Y-82416230D01*
X165460229Y-82419818D01*
X165451890Y-82416553D01*
X165451567Y-82416230D01*
X165083258Y-82033235D01*
X164790928Y-81729248D01*
X164787664Y-81720910D01*
X164789075Y-81715566D01*
X164860123Y-81584516D01*
X164860630Y-81583672D01*
X164936760Y-81468527D01*
X164937177Y-81467941D01*
X165012525Y-81368877D01*
X165012716Y-81368634D01*
X165085197Y-81278847D01*
X165085273Y-81278750D01*
X165152394Y-81191895D01*
X165152532Y-81191717D01*
X165212464Y-81100573D01*
X165262836Y-80998622D01*
X165301488Y-80879071D01*
X165326262Y-80735128D01*
X165334445Y-80571116D01*
X165338279Y-80563025D01*
X165346130Y-80560000D01*
X165573870Y-80560000D01*
X165582143Y-80563427D01*
G37*
G04 #@! TD.AperFunction*
G04 #@! TA.AperFunction,Conductor*
G36*
X62023982Y-80937927D02*
G01*
X62027401Y-80945783D01*
X62030218Y-81024890D01*
X62039477Y-81100642D01*
X62054186Y-81164843D01*
X62054291Y-81165142D01*
X62073653Y-81220300D01*
X62073657Y-81220311D01*
X62073752Y-81220580D01*
X62073874Y-81220838D01*
X62073877Y-81220845D01*
X62097484Y-81270732D01*
X62097489Y-81270743D01*
X62097583Y-81270940D01*
X62097700Y-81271144D01*
X62125088Y-81319011D01*
X62125209Y-81319210D01*
X62155674Y-81367879D01*
X62188664Y-81420498D01*
X62188847Y-81420801D01*
X62223568Y-81480096D01*
X62223853Y-81480612D01*
X62256125Y-81542693D01*
X62256900Y-81551614D01*
X62254177Y-81556199D01*
X62094670Y-81722066D01*
X62094670Y-81722067D01*
X61900000Y-81924500D01*
X61545821Y-81556198D01*
X61542556Y-81547859D01*
X61543871Y-81542697D01*
X61576163Y-81480577D01*
X61576410Y-81480131D01*
X61611171Y-81420766D01*
X61611317Y-81420525D01*
X61644325Y-81367879D01*
X61674911Y-81319011D01*
X61675027Y-81318814D01*
X61694661Y-81284493D01*
X61702416Y-81270940D01*
X61726247Y-81220580D01*
X61745813Y-81164843D01*
X61760522Y-81100642D01*
X61769781Y-81024890D01*
X61772598Y-80945783D01*
X61776318Y-80937638D01*
X61784291Y-80934500D01*
X62015709Y-80934500D01*
X62023982Y-80937927D01*
G37*
G04 #@! TD.AperFunction*
G04 #@! TA.AperFunction,Conductor*
G36*
X62090045Y-73477624D02*
G01*
X62090046Y-73477624D01*
X62254177Y-73648300D01*
X62257442Y-73656639D01*
X62256125Y-73661807D01*
X62223853Y-73723887D01*
X62223568Y-73724402D01*
X62188847Y-73783697D01*
X62188664Y-73784000D01*
X62155674Y-73836620D01*
X62125088Y-73885488D01*
X62124972Y-73885685D01*
X62097700Y-73933354D01*
X62097583Y-73933559D01*
X62097494Y-73933745D01*
X62097484Y-73933766D01*
X62073877Y-73983653D01*
X62073871Y-73983667D01*
X62073752Y-73983919D01*
X62073660Y-73984180D01*
X62073653Y-73984198D01*
X62054291Y-74039356D01*
X62054186Y-74039656D01*
X62054117Y-74039956D01*
X62054115Y-74039964D01*
X62039540Y-74103579D01*
X62039537Y-74103591D01*
X62039477Y-74103857D01*
X62039443Y-74104128D01*
X62039442Y-74104139D01*
X62030247Y-74179367D01*
X62030245Y-74179380D01*
X62030218Y-74179609D01*
X62030209Y-74179843D01*
X62030209Y-74179852D01*
X62027402Y-74258716D01*
X62023683Y-74266862D01*
X62015709Y-74270000D01*
X61784291Y-74270000D01*
X61776018Y-74266573D01*
X61772598Y-74258716D01*
X61769781Y-74179609D01*
X61760522Y-74103857D01*
X61745813Y-74039656D01*
X61726247Y-73983919D01*
X61702416Y-73933559D01*
X61674911Y-73885488D01*
X61674790Y-73885289D01*
X61644325Y-73836620D01*
X61611334Y-73784000D01*
X61611151Y-73783697D01*
X61576430Y-73724402D01*
X61576145Y-73723886D01*
X61543874Y-73661806D01*
X61543099Y-73652885D01*
X61545822Y-73648300D01*
X61597150Y-73594923D01*
X61900000Y-73280000D01*
X62090045Y-73477624D01*
G37*
G04 #@! TD.AperFunction*
G04 #@! TA.AperFunction,Conductor*
G36*
X119254312Y-85598867D02*
G01*
X119273752Y-85619184D01*
X119276995Y-85627531D01*
X119275663Y-85632700D01*
X119243114Y-85694861D01*
X119242822Y-85695385D01*
X119207772Y-85754710D01*
X119207582Y-85755021D01*
X119174260Y-85807614D01*
X119143337Y-85856441D01*
X119115815Y-85903935D01*
X119115511Y-85904459D01*
X119115418Y-85904651D01*
X119115411Y-85904666D01*
X119091526Y-85954480D01*
X119091519Y-85954496D01*
X119091388Y-85954770D01*
X119091284Y-85955059D01*
X119091279Y-85955074D01*
X119071684Y-86010157D01*
X119071678Y-86010174D01*
X119071572Y-86010475D01*
X119071500Y-86010781D01*
X119071496Y-86010798D01*
X119056740Y-86074370D01*
X119056669Y-86074677D01*
X119056632Y-86074973D01*
X119056629Y-86074992D01*
X119047338Y-86150038D01*
X119047284Y-86150477D01*
X119047274Y-86150728D01*
X119047274Y-86150740D01*
X119044428Y-86229701D01*
X119040706Y-86237845D01*
X119032736Y-86240979D01*
X118805307Y-86240979D01*
X118797034Y-86237552D01*
X118793615Y-86229699D01*
X118790760Y-86150299D01*
X118781386Y-86074347D01*
X118766509Y-86010010D01*
X118746738Y-85954176D01*
X118722686Y-85903732D01*
X118694963Y-85855568D01*
X118694846Y-85855379D01*
X118664178Y-85806570D01*
X118664177Y-85806569D01*
X118631018Y-85753745D01*
X118630856Y-85753478D01*
X118596024Y-85693889D01*
X118595733Y-85693361D01*
X118563426Y-85630916D01*
X118562668Y-85621994D01*
X118565402Y-85617412D01*
X118920500Y-85250001D01*
X119254312Y-85598867D01*
G37*
G04 #@! TD.AperFunction*
G04 #@! TA.AperFunction,Conductor*
G36*
X161831703Y-70245826D02*
G01*
X162191230Y-70591567D01*
X162194818Y-70599771D01*
X162191553Y-70608110D01*
X162191230Y-70608433D01*
X161831703Y-70954173D01*
X161823364Y-70957438D01*
X161818190Y-70956118D01*
X161755993Y-70923735D01*
X161755464Y-70923442D01*
X161696077Y-70888512D01*
X161695762Y-70888319D01*
X161643187Y-70855116D01*
X161594437Y-70824310D01*
X161594427Y-70824303D01*
X161594359Y-70824261D01*
X161594277Y-70824214D01*
X161594170Y-70824149D01*
X161546556Y-70796594D01*
X161546554Y-70796593D01*
X161546352Y-70796476D01*
X161546150Y-70796379D01*
X161546144Y-70796376D01*
X161496339Y-70772505D01*
X161496326Y-70772499D01*
X161496064Y-70772374D01*
X161495780Y-70772273D01*
X161495773Y-70772270D01*
X161464230Y-70761047D01*
X161440389Y-70752564D01*
X161440079Y-70752492D01*
X161440069Y-70752489D01*
X161376523Y-70737728D01*
X161376524Y-70737728D01*
X161376222Y-70737658D01*
X161375912Y-70737619D01*
X161375909Y-70737619D01*
X161300717Y-70728297D01*
X161300700Y-70728295D01*
X161300461Y-70728266D01*
X161300211Y-70728256D01*
X161300199Y-70728256D01*
X161221278Y-70725407D01*
X161213134Y-70721684D01*
X161210000Y-70713715D01*
X161210000Y-70486284D01*
X161213427Y-70478011D01*
X161221276Y-70474592D01*
X161300461Y-70471733D01*
X161376222Y-70462341D01*
X161440389Y-70447435D01*
X161496064Y-70427625D01*
X161546352Y-70403523D01*
X161594359Y-70375738D01*
X161643187Y-70344883D01*
X161695841Y-70311629D01*
X161696032Y-70311513D01*
X161755479Y-70276547D01*
X161755978Y-70276270D01*
X161818190Y-70243880D01*
X161827111Y-70243100D01*
X161831703Y-70245826D01*
G37*
G04 #@! TD.AperFunction*
G04 #@! TA.AperFunction,Conductor*
G36*
X152508110Y-55683446D02*
G01*
X152508433Y-55683769D01*
X152854173Y-56043296D01*
X152857438Y-56051635D01*
X152856118Y-56056809D01*
X152823735Y-56119005D01*
X152823442Y-56119534D01*
X152788512Y-56178921D01*
X152788319Y-56179236D01*
X152755116Y-56231812D01*
X152724310Y-56280561D01*
X152724292Y-56280590D01*
X152724261Y-56280640D01*
X152724220Y-56280710D01*
X152724149Y-56280829D01*
X152696594Y-56328442D01*
X152696587Y-56328455D01*
X152696476Y-56328647D01*
X152696384Y-56328838D01*
X152696376Y-56328854D01*
X152672505Y-56378659D01*
X152672496Y-56378678D01*
X152672374Y-56378935D01*
X152672275Y-56379211D01*
X152672270Y-56379225D01*
X152652675Y-56434298D01*
X152652564Y-56434610D01*
X152652493Y-56434914D01*
X152652489Y-56434929D01*
X152637728Y-56498475D01*
X152637658Y-56498777D01*
X152637620Y-56499082D01*
X152637619Y-56499089D01*
X152628297Y-56574281D01*
X152628295Y-56574300D01*
X152628266Y-56574538D01*
X152628257Y-56574785D01*
X152628256Y-56574799D01*
X152625407Y-56653722D01*
X152621684Y-56661866D01*
X152613715Y-56665000D01*
X152386285Y-56665000D01*
X152378012Y-56661573D01*
X152374593Y-56653722D01*
X152371742Y-56574799D01*
X152371733Y-56574538D01*
X152362341Y-56498777D01*
X152347435Y-56434610D01*
X152327625Y-56378935D01*
X152303523Y-56328647D01*
X152275738Y-56280640D01*
X152244883Y-56231812D01*
X152211648Y-56179186D01*
X152211486Y-56178921D01*
X152176556Y-56119534D01*
X152176263Y-56119005D01*
X152143881Y-56056809D01*
X152143100Y-56047888D01*
X152145824Y-56043297D01*
X152491567Y-55683768D01*
X152499771Y-55680181D01*
X152508110Y-55683446D01*
G37*
G04 #@! TD.AperFunction*
G04 #@! TA.AperFunction,Conductor*
G36*
X62011982Y-72683427D02*
G01*
X62015401Y-72691282D01*
X62018235Y-72770906D01*
X62027572Y-72847097D01*
X62042458Y-72911654D01*
X62062339Y-72967660D01*
X62062474Y-72967941D01*
X62062478Y-72967950D01*
X62086559Y-73017983D01*
X62086568Y-73018001D01*
X62086662Y-73018195D01*
X62086773Y-73018385D01*
X62086776Y-73018390D01*
X62114808Y-73066233D01*
X62114817Y-73066248D01*
X62114873Y-73066343D01*
X62114947Y-73066457D01*
X62146418Y-73115186D01*
X62180660Y-73167675D01*
X62180829Y-73167942D01*
X62217150Y-73227039D01*
X62217431Y-73227521D01*
X62251482Y-73289352D01*
X62252471Y-73298252D01*
X62249866Y-73302893D01*
X62090046Y-73477623D01*
X62090046Y-73477624D01*
X61904998Y-73679937D01*
X61541724Y-73320600D01*
X61538252Y-73312346D01*
X61539436Y-73307153D01*
X61571017Y-73242459D01*
X61571253Y-73242005D01*
X61605273Y-73180397D01*
X61605443Y-73180101D01*
X61612746Y-73167805D01*
X61637820Y-73125583D01*
X61667925Y-73075031D01*
X61667955Y-73074975D01*
X61668037Y-73074831D01*
X61690386Y-73033964D01*
X61695061Y-73025417D01*
X61718623Y-72973557D01*
X61738003Y-72916269D01*
X61752597Y-72850369D01*
X61761798Y-72772673D01*
X61764609Y-72691296D01*
X61768320Y-72683146D01*
X61776303Y-72680000D01*
X62003709Y-72680000D01*
X62011982Y-72683427D01*
G37*
G04 #@! TD.AperFunction*
G04 #@! TA.AperFunction,Conductor*
G36*
X152621988Y-112788427D02*
G01*
X152625407Y-112796278D01*
X152628256Y-112875199D01*
X152628256Y-112875211D01*
X152628266Y-112875461D01*
X152628295Y-112875700D01*
X152628297Y-112875717D01*
X152637619Y-112950909D01*
X152637658Y-112951222D01*
X152637728Y-112951523D01*
X152652489Y-113015069D01*
X152652492Y-113015079D01*
X152652564Y-113015389D01*
X152672374Y-113071064D01*
X152672499Y-113071326D01*
X152672505Y-113071339D01*
X152696376Y-113121144D01*
X152696476Y-113121352D01*
X152724261Y-113169359D01*
X152755116Y-113218187D01*
X152788338Y-113270793D01*
X152788512Y-113271077D01*
X152823442Y-113330464D01*
X152823735Y-113330993D01*
X152856118Y-113393190D01*
X152856899Y-113402111D01*
X152854173Y-113406703D01*
X152508432Y-113766230D01*
X152500228Y-113769818D01*
X152491889Y-113766553D01*
X152491566Y-113766230D01*
X152145826Y-113406703D01*
X152142561Y-113398364D01*
X152143881Y-113393190D01*
X152176263Y-113330993D01*
X152176547Y-113330479D01*
X152211513Y-113271032D01*
X152211629Y-113270841D01*
X152244883Y-113218187D01*
X152275738Y-113169359D01*
X152275793Y-113169263D01*
X152275850Y-113169170D01*
X152296164Y-113134065D01*
X152303523Y-113121352D01*
X152327625Y-113071064D01*
X152347435Y-113015389D01*
X152362341Y-112951222D01*
X152371733Y-112875461D01*
X152374592Y-112796278D01*
X152378316Y-112788134D01*
X152386285Y-112785000D01*
X152613715Y-112785000D01*
X152621988Y-112788427D01*
G37*
G04 #@! TD.AperFunction*
G04 #@! TA.AperFunction,Conductor*
G36*
X175884329Y-48772980D02*
G01*
X175887772Y-48781246D01*
X175887626Y-48783112D01*
X175731233Y-49763802D01*
X175726546Y-49771432D01*
X175721893Y-49773448D01*
X175526342Y-49811129D01*
X175526327Y-49811132D01*
X175526076Y-49811181D01*
X175525819Y-49811256D01*
X175525808Y-49811259D01*
X175356515Y-49860895D01*
X175356505Y-49860898D01*
X175356237Y-49860977D01*
X175355977Y-49861080D01*
X175355967Y-49861084D01*
X175211368Y-49918684D01*
X175211355Y-49918689D01*
X175211156Y-49918769D01*
X175210967Y-49918861D01*
X175210954Y-49918867D01*
X175081562Y-49982043D01*
X175081363Y-49982147D01*
X174958184Y-50048285D01*
X174832015Y-50114840D01*
X174831496Y-50115098D01*
X174693410Y-50179417D01*
X174692574Y-50179768D01*
X174533117Y-50239488D01*
X174532136Y-50239806D01*
X174341912Y-50292495D01*
X174340944Y-50292720D01*
X174122019Y-50333749D01*
X174113256Y-50331905D01*
X174108364Y-50324404D01*
X174108290Y-50323964D01*
X174103627Y-50292495D01*
X174075008Y-50099375D01*
X174077185Y-50090692D01*
X174083951Y-50086262D01*
X174278545Y-50041394D01*
X174435260Y-49969685D01*
X174551650Y-49875683D01*
X174635795Y-49761506D01*
X174695775Y-49629273D01*
X174739668Y-49481103D01*
X174775556Y-49319116D01*
X174811485Y-49145580D01*
X174811553Y-49145276D01*
X174855538Y-48962548D01*
X174855747Y-48961796D01*
X174913399Y-48779591D01*
X174919162Y-48772738D01*
X174924529Y-48771422D01*
X175876050Y-48769569D01*
X175884329Y-48772980D01*
G37*
G04 #@! TD.AperFunction*
G04 #@! TA.AperFunction,Conductor*
G36*
X43132330Y-80999999D02*
G01*
X43132330Y-81000000D01*
X43294173Y-81168296D01*
X43297438Y-81176635D01*
X43296118Y-81181809D01*
X43263735Y-81244005D01*
X43263442Y-81244534D01*
X43228512Y-81303921D01*
X43228319Y-81304236D01*
X43195116Y-81356812D01*
X43164310Y-81405561D01*
X43164292Y-81405590D01*
X43164261Y-81405640D01*
X43164220Y-81405710D01*
X43164149Y-81405829D01*
X43136594Y-81453442D01*
X43136587Y-81453455D01*
X43136476Y-81453647D01*
X43136384Y-81453838D01*
X43136376Y-81453854D01*
X43112505Y-81503659D01*
X43112496Y-81503678D01*
X43112374Y-81503935D01*
X43112275Y-81504211D01*
X43112270Y-81504225D01*
X43092675Y-81559298D01*
X43092564Y-81559610D01*
X43092493Y-81559914D01*
X43092489Y-81559929D01*
X43077728Y-81623475D01*
X43077658Y-81623777D01*
X43077620Y-81624082D01*
X43077619Y-81624089D01*
X43068297Y-81699281D01*
X43068295Y-81699300D01*
X43068266Y-81699538D01*
X43068257Y-81699785D01*
X43068256Y-81699799D01*
X43065407Y-81778722D01*
X43061684Y-81786866D01*
X43053715Y-81790000D01*
X42826285Y-81790000D01*
X42818012Y-81786573D01*
X42814593Y-81778722D01*
X42811742Y-81699799D01*
X42811733Y-81699538D01*
X42802341Y-81623777D01*
X42787435Y-81559610D01*
X42767625Y-81503935D01*
X42743523Y-81453647D01*
X42715738Y-81405640D01*
X42684883Y-81356812D01*
X42651648Y-81304186D01*
X42651486Y-81303921D01*
X42616556Y-81244534D01*
X42616263Y-81244005D01*
X42583881Y-81181809D01*
X42583100Y-81172888D01*
X42585824Y-81168297D01*
X42747669Y-81000000D01*
X42940000Y-80800000D01*
X43132330Y-80999999D01*
G37*
G04 #@! TD.AperFunction*
M02*
