G04 #@! TF.GenerationSoftware,KiCad,Pcbnew,7.0.2*
G04 #@! TF.CreationDate,2023-04-26T23:45:06+03:00*
G04 #@! TF.ProjectId,mriya-left,6d726979-612d-46c6-9566-742e6b696361,0.9*
G04 #@! TF.SameCoordinates,Original*
G04 #@! TF.FileFunction,Paste,Bot*
G04 #@! TF.FilePolarity,Positive*
%FSLAX46Y46*%
G04 Gerber Fmt 4.6, Leading zero omitted, Abs format (unit mm)*
G04 Created by KiCad (PCBNEW 7.0.2) date 2023-04-26 23:45:06*
%MOMM*%
%LPD*%
G01*
G04 APERTURE LIST*
G04 Aperture macros list*
%AMRoundRect*
0 Rectangle with rounded corners*
0 $1 Rounding radius*
0 $2 $3 $4 $5 $6 $7 $8 $9 X,Y pos of 4 corners*
0 Add a 4 corners polygon primitive as box body*
4,1,4,$2,$3,$4,$5,$6,$7,$8,$9,$2,$3,0*
0 Add four circle primitives for the rounded corners*
1,1,$1+$1,$2,$3*
1,1,$1+$1,$4,$5*
1,1,$1+$1,$6,$7*
1,1,$1+$1,$8,$9*
0 Add four rect primitives between the rounded corners*
20,1,$1+$1,$2,$3,$4,$5,0*
20,1,$1+$1,$4,$5,$6,$7,0*
20,1,$1+$1,$6,$7,$8,$9,0*
20,1,$1+$1,$8,$9,$2,$3,0*%
G04 Aperture macros list end*
%ADD10RoundRect,0.200000X1.075000X1.050000X-1.075000X1.050000X-1.075000X-1.050000X1.075000X-1.050000X0*%
%ADD11RoundRect,0.200000X0.300000X-0.500000X0.300000X0.500000X-0.300000X0.500000X-0.300000X-0.500000X0*%
%ADD12RoundRect,0.120000X-0.380000X-0.280000X0.380000X-0.280000X0.380000X0.280000X-0.380000X0.280000X0*%
%ADD13RoundRect,0.120000X-0.280000X-0.680000X0.280000X-0.680000X0.280000X0.680000X-0.280000X0.680000X0*%
G04 APERTURE END LIST*
D10*
X118915000Y-47460000D03*
X131842000Y-44920000D03*
X99915000Y-82460000D03*
X112842000Y-79920000D03*
X80915000Y-66460000D03*
X93842000Y-63920000D03*
X42915000Y-73460000D03*
X55842000Y-70920000D03*
X137915000Y-107460000D03*
X150842000Y-104920000D03*
X80915000Y-85460000D03*
X93842000Y-82920000D03*
X137915000Y-49760000D03*
X150842000Y-47220000D03*
X61915000Y-54460000D03*
X74842000Y-51920000D03*
X137915000Y-68760000D03*
X150842000Y-66220000D03*
X118915000Y-66460000D03*
X131842000Y-63920000D03*
X42915000Y-92460000D03*
X55842000Y-89920000D03*
X159315000Y-110460000D03*
X172242000Y-107920000D03*
X80915000Y-47460000D03*
X93842000Y-44920000D03*
X61915000Y-92460000D03*
X74842000Y-89920000D03*
X118915000Y-105160000D03*
X131842000Y-102620000D03*
X42915000Y-54460000D03*
X55842000Y-51920000D03*
X99915000Y-44460000D03*
X112842000Y-41920000D03*
X137915000Y-87760000D03*
X150842000Y-85220000D03*
X99915000Y-63460000D03*
X112842000Y-60920000D03*
X61915000Y-73460000D03*
X74842000Y-70920000D03*
X118915000Y-85460000D03*
X131842000Y-82920000D03*
D11*
X57500000Y-98575000D03*
X57500000Y-95025000D03*
X76500000Y-60575000D03*
X76500000Y-57025000D03*
X133500000Y-91575000D03*
X133500000Y-88025000D03*
X57500000Y-60575000D03*
X57500000Y-57025000D03*
X95500000Y-91575000D03*
X95500000Y-88025000D03*
X152500000Y-55875000D03*
X152500000Y-52325000D03*
D12*
X164350000Y-44300000D03*
X164350000Y-46500000D03*
X171650000Y-44300000D03*
X171650000Y-46500000D03*
D13*
X165750000Y-47200000D03*
X168750000Y-47200000D03*
X170250000Y-47200000D03*
D11*
X152500000Y-113575000D03*
X152500000Y-110025000D03*
X95500000Y-53575000D03*
X95500000Y-50025000D03*
X173900000Y-116575000D03*
X173900000Y-113025000D03*
X133500000Y-72575000D03*
X133500000Y-69025000D03*
X114500000Y-88575000D03*
X114500000Y-85025000D03*
X133500000Y-53575000D03*
X133500000Y-50025000D03*
X114500000Y-69575000D03*
X114500000Y-66025000D03*
X76500000Y-79575000D03*
X76500000Y-76025000D03*
X114500000Y-50575000D03*
X114500000Y-47025000D03*
X57500000Y-79575000D03*
X57500000Y-76025000D03*
X76500000Y-98575000D03*
X76500000Y-95025000D03*
X133500000Y-111275000D03*
X133500000Y-107725000D03*
X152500000Y-74875000D03*
X152500000Y-71325000D03*
X152500000Y-93875000D03*
X152500000Y-90325000D03*
X95500000Y-72575000D03*
X95500000Y-69025000D03*
M02*
