M48
; DRILL file {KiCad 7.0.2} date Wed Apr 26 23:45:28 2023
; FORMAT={-:-/ absolute / inch / decimal}
; #@! TF.CreationDate,2023-04-26T23:45:28+03:00
; #@! TF.GenerationSoftware,Kicad,Pcbnew,7.0.2
; #@! TF.FileFunction,NonPlated,1,2,NPTH
FMAT,2
INCH
; #@! TA.AperFunction,NonPlated,NPTH,ComponentDrill
T1C0.0315
; #@! TA.AperFunction,NonPlated,NPTH,ComponentDrill
T2C0.0512
; #@! TA.AperFunction,NonPlated,NPTH,ComponentDrill
T3C0.0748
; #@! TA.AperFunction,NonPlated,NPTH,ComponentDrill
T4C0.0787
; #@! TA.AperFunction,NonPlated,NPTH,ComponentDrill
T5C0.1181
; #@! TA.AperFunction,NonPlated,NPTH,ComponentDrill
T6C0.1417
; #@! TA.AperFunction,NonPlated,NPTH,ComponentDrill
T7C0.1614
%
G90
G05
T1
X6.5551Y-1.7874
X6.6732Y-1.7874
T2
X6.6181Y-3.6024
X6.8937Y-3.6024
T3
X1.7685Y-2.2441
X1.7685Y-2.9921
X1.7685Y-3.7402
X2.1685Y-2.2441
X2.1685Y-2.9921
X2.1685Y-3.7402
X2.5165Y-2.2441
X2.5165Y-2.9921
X2.5165Y-3.7402
X2.9165Y-2.2441
X2.9165Y-2.9921
X2.9165Y-3.7402
X3.2646Y-1.9685
X3.2646Y-2.7165
X3.2646Y-3.4646
X3.6646Y-1.9685
X3.6646Y-2.7165
X3.6646Y-3.4646
X4.0126Y-1.8504
X4.0126Y-2.5984
X4.0126Y-3.3465
X4.4126Y-1.8504
X4.4126Y-2.5984
X4.4126Y-3.3465
X4.7606Y-1.9685
X4.7606Y-2.7165
X4.7606Y-3.4646
X4.7606Y-4.2402
X5.1606Y-1.9685
X5.1606Y-2.7165
X5.1606Y-3.4646
X5.1606Y-4.2402
X5.5087Y-2.0591
X5.5087Y-2.8071
X5.5087Y-3.5551
X5.5087Y-4.3307
X5.9087Y-2.0591
X5.9087Y-2.8071
X5.9087Y-3.5551
X5.9087Y-4.3307
X6.3512Y-4.4488
X6.7512Y-4.4488
T4
X6.1772Y-1.8228
X6.1772Y-3.9488
X6.9173Y-3.9488
T5
X1.8185Y-2.1441
X1.8185Y-2.8921
X1.8185Y-3.6402
X2.0685Y-2.0441
X2.0685Y-2.7921
X2.0685Y-3.5402
X2.5665Y-2.1441
X2.5665Y-2.8921
X2.5665Y-3.6402
X2.8165Y-2.0441
X2.8165Y-2.7921
X2.8165Y-3.5402
X3.3146Y-1.8685
X3.3146Y-2.6165
X3.3146Y-3.3646
X3.5646Y-1.7685
X3.5646Y-2.5165
X3.5646Y-3.2646
X4.0626Y-1.7504
X4.0626Y-2.4984
X4.0626Y-3.2465
X4.3126Y-1.6504
X4.3126Y-2.3984
X4.3126Y-3.1465
X4.8106Y-1.8685
X4.8106Y-2.6165
X4.8106Y-3.3646
X4.8106Y-4.1402
X5.0606Y-1.7685
X5.0606Y-2.5165
X5.0606Y-3.2646
X5.0606Y-4.0402
X5.5587Y-1.9591
X5.5587Y-2.7071
X5.5587Y-3.4551
X5.5587Y-4.2307
X5.8087Y-1.8591
X5.8087Y-2.6071
X5.8087Y-3.3551
X5.8087Y-4.1307
X6.4012Y-4.3488
X6.6512Y-4.2488
T6
X2.3425Y-2.6181
X2.3425Y-3.3661
X5.3346Y-2.3878
X5.3346Y-3.8976
T7
X1.9685Y-2.2441
X1.9685Y-2.9921
X1.9685Y-3.7402
X2.7165Y-2.2441
X2.7165Y-2.9921
X2.7165Y-3.7402
X3.4646Y-1.9685
X3.4646Y-2.7165
X3.4646Y-3.4646
X4.2126Y-1.8504
X4.2126Y-2.5984
X4.2126Y-3.3465
X4.9606Y-1.9685
X4.9606Y-2.7165
X4.9606Y-3.4646
X4.9606Y-4.2402
X5.7087Y-2.0591
X5.7087Y-2.8071
X5.7087Y-3.5551
X5.7087Y-4.3307
X6.5512Y-4.4488
T0
M30
