G04 #@! TF.GenerationSoftware,KiCad,Pcbnew,7.0.2*
G04 #@! TF.CreationDate,2023-04-26T23:45:07+03:00*
G04 #@! TF.ProjectId,mriya-left,6d726979-612d-46c6-9566-742e6b696361,0.9*
G04 #@! TF.SameCoordinates,Original*
G04 #@! TF.FileFunction,Profile,NP*
%FSLAX46Y46*%
G04 Gerber Fmt 4.6, Leading zero omitted, Abs format (unit mm)*
G04 Created by KiCad (PCBNEW 7.0.2) date 2023-04-26 23:45:07*
%MOMM*%
%LPD*%
G01*
G04 APERTURE LIST*
G04 #@! TA.AperFunction,Profile*
%ADD10C,0.100000*%
G04 #@! TD*
G04 APERTURE END LIST*
D10*
X40900000Y-49000000D02*
X40900000Y-103000000D01*
X107555692Y-98094730D02*
G75*
G03*
X105772309Y-97000000I-1783392J-905270D01*
G01*
X119414214Y-41000000D02*
X134585786Y-41000000D01*
X85828427Y-97000000D02*
X105772309Y-97000000D01*
X118707100Y-40707114D02*
G75*
G03*
X119414214Y-41000000I707100J707114D01*
G01*
X135292900Y-41292886D02*
G75*
G03*
X134585786Y-41000000I-707100J-707114D01*
G01*
X155414214Y-122000000D02*
X176900000Y-122000000D01*
X116292900Y-38292886D02*
G75*
G03*
X115585786Y-38000000I-707100J-707114D01*
G01*
X78707107Y-41292893D02*
X72585786Y-47414214D01*
X79414214Y-41000000D02*
X94585786Y-41000000D01*
X135292893Y-41292893D02*
X137007107Y-43007107D01*
X116722115Y-116152656D02*
G75*
G03*
X117613846Y-116700000I891685J452656D01*
G01*
X154707100Y-121707114D02*
G75*
G03*
X155414214Y-122000000I707100J707114D01*
G01*
X177900000Y-121000000D02*
X177900000Y-45300000D01*
X136414214Y-119000000D02*
X151585786Y-119000000D01*
X41900000Y-48000000D02*
X71171573Y-48000000D01*
X133992879Y-116992907D02*
G75*
G03*
X133285786Y-116700000I-707079J-706993D01*
G01*
X77585786Y-103999961D02*
G75*
G03*
X78292893Y-103707107I14J1000061D01*
G01*
X98414214Y-38000000D02*
X115585786Y-38000000D01*
X41900000Y-48000000D02*
G75*
G03*
X40900000Y-49000000I0J-1000000D01*
G01*
X98414214Y-38000039D02*
G75*
G03*
X97707107Y-38292893I-14J-1000061D01*
G01*
X135707107Y-118707107D02*
X133992893Y-116992893D01*
X137007121Y-43007093D02*
G75*
G03*
X137714214Y-43300000I707079J706993D01*
G01*
X41900000Y-104000000D02*
X77585786Y-104000000D01*
X116722151Y-116152637D02*
X107555699Y-98094726D01*
X137714214Y-43300000D02*
X175900000Y-43300000D01*
X71171573Y-47999980D02*
G75*
G03*
X72585785Y-47414213I27J1999980D01*
G01*
X154707107Y-121707107D02*
X152292893Y-119292893D01*
X116292893Y-38292893D02*
X118707107Y-40707107D01*
X133285786Y-116700000D02*
X117613846Y-116700000D01*
X135707100Y-118707114D02*
G75*
G03*
X136414214Y-119000000I707100J707114D01*
G01*
X97707107Y-38292893D02*
X95292893Y-40707107D01*
X177900000Y-45300000D02*
G75*
G03*
X175900000Y-43300000I-2000000J0D01*
G01*
X85828427Y-96999978D02*
G75*
G03*
X84414214Y-97585786I73J-2000122D01*
G01*
X94585786Y-40999961D02*
G75*
G03*
X95292893Y-40707107I14J1000061D01*
G01*
X79414214Y-41000010D02*
G75*
G03*
X78707107Y-41292893I-14J-999990D01*
G01*
X176900000Y-122000000D02*
G75*
G03*
X177900000Y-121000000I0J1000000D01*
G01*
X78292893Y-103707107D02*
X84414214Y-97585786D01*
X40900000Y-103000000D02*
G75*
G03*
X41900000Y-104000000I1000000J0D01*
G01*
X152292900Y-119292886D02*
G75*
G03*
X151585786Y-119000000I-707100J-707114D01*
G01*
M02*
