G04 #@! TF.GenerationSoftware,KiCad,Pcbnew,7.0.2*
G04 #@! TF.CreationDate,2023-04-26T23:45:07+03:00*
G04 #@! TF.ProjectId,mriya-left,6d726979-612d-46c6-9566-742e6b696361,0.9*
G04 #@! TF.SameCoordinates,Original*
G04 #@! TF.FileFunction,Soldermask,Bot*
G04 #@! TF.FilePolarity,Negative*
%FSLAX46Y46*%
G04 Gerber Fmt 4.6, Leading zero omitted, Abs format (unit mm)*
G04 Created by KiCad (PCBNEW 7.0.2) date 2023-04-26 23:45:07*
%MOMM*%
%LPD*%
G01*
G04 APERTURE LIST*
G04 Aperture macros list*
%AMRoundRect*
0 Rectangle with rounded corners*
0 $1 Rounding radius*
0 $2 $3 $4 $5 $6 $7 $8 $9 X,Y pos of 4 corners*
0 Add a 4 corners polygon primitive as box body*
4,1,4,$2,$3,$4,$5,$6,$7,$8,$9,$2,$3,0*
0 Add four circle primitives for the rounded corners*
1,1,$1+$1,$2,$3*
1,1,$1+$1,$4,$5*
1,1,$1+$1,$6,$7*
1,1,$1+$1,$8,$9*
0 Add four rect primitives between the rounded corners*
20,1,$1+$1,$2,$3,$4,$5,0*
20,1,$1+$1,$4,$5,$6,$7,0*
20,1,$1+$1,$6,$7,$8,$9,0*
20,1,$1+$1,$8,$9,$2,$3,0*%
G04 Aperture macros list end*
%ADD10C,1.900000*%
%ADD11C,3.000000*%
%ADD12C,4.100000*%
%ADD13RoundRect,0.200000X1.075000X1.050000X-1.075000X1.050000X-1.075000X-1.050000X1.075000X-1.050000X0*%
%ADD14C,2.000000*%
%ADD15C,3.800000*%
%ADD16C,1.500000*%
%ADD17RoundRect,0.375000X-0.375000X-0.375000X0.375000X-0.375000X0.375000X0.375000X-0.375000X0.375000X0*%
%ADD18C,1.300000*%
%ADD19O,2.200000X1.400000*%
%ADD20O,1.200000X1.200000*%
%ADD21RoundRect,0.300000X-0.300000X-0.300000X0.300000X-0.300000X0.300000X0.300000X-0.300000X0.300000X0*%
%ADD22RoundRect,0.200000X0.300000X-0.500000X0.300000X0.500000X-0.300000X0.500000X-0.300000X-0.500000X0*%
%ADD23RoundRect,0.120000X-0.380000X-0.280000X0.380000X-0.280000X0.380000X0.280000X-0.380000X0.280000X0*%
%ADD24C,0.800000*%
%ADD25RoundRect,0.120000X-0.280000X-0.680000X0.280000X-0.680000X0.280000X0.680000X-0.280000X0.680000X0*%
G04 APERTURE END LIST*
D10*
X120920000Y-50000000D03*
D11*
X122190000Y-47460000D03*
D12*
X126000000Y-50000000D03*
D11*
X128540000Y-44920000D03*
D10*
X131080000Y-50000000D03*
D13*
X118915000Y-47460000D03*
X131842000Y-44920000D03*
D14*
X156900000Y-46300000D03*
D10*
X101920000Y-85000000D03*
D11*
X103190000Y-82460000D03*
D12*
X107000000Y-85000000D03*
D11*
X109540000Y-79920000D03*
D10*
X112080000Y-85000000D03*
D13*
X99915000Y-82460000D03*
X112842000Y-79920000D03*
D15*
X135500000Y-60650000D03*
D10*
X82920000Y-69000000D03*
D11*
X84190000Y-66460000D03*
D12*
X88000000Y-69000000D03*
D11*
X90540000Y-63920000D03*
D10*
X93080000Y-69000000D03*
D13*
X80915000Y-66460000D03*
X93842000Y-63920000D03*
D16*
X162920000Y-82050000D03*
X165460000Y-82050000D03*
X168000000Y-82050000D03*
D17*
X170540000Y-82050000D03*
D16*
X173080000Y-82050000D03*
D18*
X112298466Y-100908502D03*
X114971486Y-99546531D03*
X112701534Y-95091498D03*
X110028514Y-96453469D03*
D10*
X44920000Y-76000000D03*
D11*
X46190000Y-73460000D03*
D12*
X50000000Y-76000000D03*
D11*
X52540000Y-70920000D03*
D10*
X55080000Y-76000000D03*
D13*
X42915000Y-73460000D03*
X55842000Y-70920000D03*
D10*
X139920000Y-110000000D03*
D11*
X141190000Y-107460000D03*
D12*
X145000000Y-110000000D03*
D11*
X147540000Y-104920000D03*
D10*
X150080000Y-110000000D03*
D13*
X137915000Y-107460000D03*
X150842000Y-104920000D03*
D10*
X82920000Y-88000000D03*
D11*
X84190000Y-85460000D03*
D12*
X88000000Y-88000000D03*
D11*
X90540000Y-82920000D03*
D10*
X93080000Y-88000000D03*
D13*
X80915000Y-85460000D03*
X93842000Y-82920000D03*
D14*
X156900000Y-100300000D03*
D15*
X59500000Y-85500000D03*
D10*
X139920000Y-52300000D03*
D11*
X141190000Y-49760000D03*
D12*
X145000000Y-52300000D03*
D11*
X147540000Y-47220000D03*
D10*
X150080000Y-52300000D03*
D13*
X137915000Y-49760000D03*
X150842000Y-47220000D03*
D10*
X63920000Y-57000000D03*
D11*
X65190000Y-54460000D03*
D12*
X69000000Y-57000000D03*
D11*
X71540000Y-51920000D03*
D10*
X74080000Y-57000000D03*
D13*
X61915000Y-54460000D03*
X74842000Y-51920000D03*
D14*
X175700000Y-100300000D03*
D10*
X139920000Y-71300000D03*
D11*
X141190000Y-68760000D03*
D12*
X145000000Y-71300000D03*
D11*
X147540000Y-66220000D03*
D10*
X150080000Y-71300000D03*
D13*
X137915000Y-68760000D03*
X150842000Y-66220000D03*
D18*
X175100000Y-91500000D03*
X168100000Y-91500000D03*
D19*
X165400000Y-89300000D03*
X173500000Y-93700000D03*
X170500000Y-93700000D03*
X166500000Y-93700000D03*
D10*
X120920000Y-69000000D03*
D11*
X122190000Y-66460000D03*
D12*
X126000000Y-69000000D03*
D11*
X128540000Y-63920000D03*
D10*
X131080000Y-69000000D03*
D13*
X118915000Y-66460000D03*
X131842000Y-63920000D03*
D20*
X160380000Y-46630000D03*
D21*
X175620000Y-46630000D03*
D10*
X44920000Y-95000000D03*
D11*
X46190000Y-92460000D03*
D12*
X50000000Y-95000000D03*
D11*
X52540000Y-89920000D03*
D10*
X55080000Y-95000000D03*
D13*
X42915000Y-92460000D03*
X55842000Y-89920000D03*
D15*
X135500000Y-99000000D03*
D10*
X161320000Y-113000000D03*
D11*
X162590000Y-110460000D03*
D12*
X166400000Y-113000000D03*
D11*
X168940000Y-107920000D03*
D10*
X171480000Y-113000000D03*
D13*
X159315000Y-110460000D03*
X172242000Y-107920000D03*
D10*
X82920000Y-50000000D03*
D11*
X84190000Y-47460000D03*
D12*
X88000000Y-50000000D03*
D11*
X90540000Y-44920000D03*
D10*
X93080000Y-50000000D03*
D13*
X80915000Y-47460000D03*
X93842000Y-44920000D03*
D10*
X63920000Y-95000000D03*
D11*
X65190000Y-92460000D03*
D12*
X69000000Y-95000000D03*
D11*
X71540000Y-89920000D03*
D10*
X74080000Y-95000000D03*
D13*
X61915000Y-92460000D03*
X74842000Y-89920000D03*
D10*
X120920000Y-107700000D03*
D11*
X122190000Y-105160000D03*
D12*
X126000000Y-107700000D03*
D11*
X128540000Y-102620000D03*
D10*
X131080000Y-107700000D03*
D13*
X118915000Y-105160000D03*
X131842000Y-102620000D03*
D10*
X44920000Y-57000000D03*
D11*
X46190000Y-54460000D03*
D12*
X50000000Y-57000000D03*
D11*
X52540000Y-51920000D03*
D10*
X55080000Y-57000000D03*
D13*
X42915000Y-54460000D03*
X55842000Y-51920000D03*
D10*
X101920000Y-47000000D03*
D11*
X103190000Y-44460000D03*
D12*
X107000000Y-47000000D03*
D11*
X109540000Y-41920000D03*
D10*
X112080000Y-47000000D03*
D13*
X99915000Y-44460000D03*
X112842000Y-41920000D03*
D16*
X175620000Y-49030000D03*
X175620000Y-51570000D03*
D17*
X175620000Y-54110000D03*
X175620000Y-56650000D03*
D16*
X175620000Y-59190000D03*
X175620000Y-61730000D03*
X175620000Y-64270000D03*
X175620000Y-66810000D03*
X175620000Y-69350000D03*
X175620000Y-71890000D03*
X175620000Y-74430000D03*
X175620000Y-76970000D03*
X160380000Y-76970000D03*
X160380000Y-74430000D03*
X160380000Y-71890000D03*
X160380000Y-69350000D03*
X160380000Y-66810000D03*
X160380000Y-64270000D03*
X160380000Y-61730000D03*
X160380000Y-59190000D03*
X160380000Y-56650000D03*
X160380000Y-54110000D03*
D17*
X160380000Y-51570000D03*
D16*
X160380000Y-49030000D03*
D10*
X139920000Y-90300000D03*
D11*
X141190000Y-87760000D03*
D12*
X145000000Y-90300000D03*
D11*
X147540000Y-85220000D03*
D10*
X150080000Y-90300000D03*
D13*
X137915000Y-87760000D03*
X150842000Y-85220000D03*
D10*
X101920000Y-66000000D03*
D11*
X103190000Y-63460000D03*
D12*
X107000000Y-66000000D03*
D11*
X109540000Y-60920000D03*
D10*
X112080000Y-66000000D03*
D13*
X99915000Y-63460000D03*
X112842000Y-60920000D03*
D10*
X63920000Y-76000000D03*
D11*
X65190000Y-73460000D03*
D12*
X69000000Y-76000000D03*
D11*
X71540000Y-70920000D03*
D10*
X74080000Y-76000000D03*
D13*
X61915000Y-73460000D03*
X74842000Y-70920000D03*
D10*
X120920000Y-88000000D03*
D11*
X122190000Y-85460000D03*
D12*
X126000000Y-88000000D03*
D11*
X128540000Y-82920000D03*
D10*
X131080000Y-88000000D03*
D13*
X118915000Y-85460000D03*
X131842000Y-82920000D03*
D15*
X59500000Y-66500000D03*
D22*
X57500000Y-98575000D03*
X57500000Y-95025000D03*
X76500000Y-60575000D03*
X76500000Y-57025000D03*
X133500000Y-91575000D03*
X133500000Y-88025000D03*
X57500000Y-60575000D03*
X57500000Y-57025000D03*
X95500000Y-91575000D03*
X95500000Y-88025000D03*
X152500000Y-55875000D03*
X152500000Y-52325000D03*
D23*
X164350000Y-44300000D03*
X164350000Y-46500000D03*
D24*
X166500000Y-45400000D03*
X169500000Y-45400000D03*
D23*
X171650000Y-44300000D03*
X171650000Y-46500000D03*
D25*
X165750000Y-47200000D03*
X168750000Y-47200000D03*
X170250000Y-47200000D03*
D22*
X152500000Y-113575000D03*
X152500000Y-110025000D03*
X95500000Y-53575000D03*
X95500000Y-50025000D03*
X173900000Y-116575000D03*
X173900000Y-113025000D03*
X133500000Y-72575000D03*
X133500000Y-69025000D03*
X114500000Y-88575000D03*
X114500000Y-85025000D03*
X133500000Y-53575000D03*
X133500000Y-50025000D03*
X114500000Y-69575000D03*
X114500000Y-66025000D03*
X76500000Y-79575000D03*
X76500000Y-76025000D03*
X114500000Y-50575000D03*
X114500000Y-47025000D03*
X57500000Y-79575000D03*
X57500000Y-76025000D03*
X76500000Y-98575000D03*
X76500000Y-95025000D03*
X133500000Y-111275000D03*
X133500000Y-107725000D03*
X152500000Y-74875000D03*
X152500000Y-71325000D03*
X152500000Y-93875000D03*
X152500000Y-90325000D03*
X95500000Y-72575000D03*
X95500000Y-69025000D03*
M02*
