M48
; DRILL file {KiCad 7.0.2} date Wed Apr 26 23:45:28 2023
; FORMAT={-:-/ absolute / inch / decimal}
; #@! TF.CreationDate,2023-04-26T23:45:28+03:00
; #@! TF.GenerationSoftware,Kicad,Pcbnew,7.0.2
; #@! TF.FileFunction,Plated,1,2,PTH
FMAT,2
INCH
; #@! TA.AperFunction,Plated,PTH,ViaDrill
T1C0.0157
; #@! TA.AperFunction,Plated,PTH,ComponentDrill
T2C0.0236
; #@! TA.AperFunction,Plated,PTH,ComponentDrill
T3C0.0315
; #@! TA.AperFunction,Plated,PTH,ComponentDrill
T4C0.0320
; #@! TA.AperFunction,Plated,PTH,ComponentDrill
T5C0.0339
; #@! TA.AperFunction,Plated,PTH,ComponentDrill
T6C0.0354
%
G90
G05
T1
X1.6896Y-2.8925
X1.6896Y-3.6402
X1.6898Y-2.1441
X1.6906Y-3.189
X2.437Y-2.1437
X2.437Y-2.8929
X2.437Y-3.2175
X2.4374Y-3.6406
X3.1854Y-1.8685
X3.1858Y-2.6165
X3.1858Y-3.3646
X3.1862Y-3.1823
X3.9018Y-2.1073
X3.9045Y-2.1585
X3.933Y-2.933
X3.9331Y-1.7504
X3.9331Y-3.5512
X3.9335Y-2.498
X3.9335Y-3.2461
X4.6811Y-3.622
X4.6815Y-1.8685
X4.6819Y-2.6165
X4.6819Y-2.9951
X4.6819Y-3.3642
X5.4291Y-3.1033
X5.4295Y-1.9591
X5.4295Y-3.4555
X5.4295Y-3.7244
X5.4299Y-2.7071
X6.0039Y-2.1998
X6.0039Y-2.9478
X6.0039Y-3.6959
X6.0039Y-4.4715
X6.378Y-2.4803
X6.378Y-2.5787
X6.378Y-2.6811
X6.378Y-2.7795
X6.5514Y-2.2805
X6.5829Y-2.3829
X6.6462Y-2.103
T2
X6.3142Y-1.8358
X6.9142Y-1.8358
T4
X6.3142Y-1.9303
X6.3142Y-2.0303
X6.3142Y-2.1303
X6.3142Y-2.2303
X6.3142Y-2.4303
X6.3142Y-2.6303
X6.3142Y-2.7303
X6.3142Y-2.9303
X6.3142Y-3.0303
X6.4142Y-3.2303
X6.5142Y-3.2303
X6.6142Y-3.2303
X6.7142Y-3.2303
X6.8142Y-3.2303
X6.9142Y-1.9303
X6.9142Y-2.0303
X6.9142Y-2.1303
X6.9142Y-2.2303
X6.9142Y-2.3303
X6.9142Y-2.4303
X6.9142Y-2.5303
X6.9142Y-2.6303
X6.9142Y-2.7303
X6.9142Y-2.8303
X6.9142Y-2.9303
X6.9142Y-3.0303
T5
X6.3142Y-2.3303
X6.3142Y-2.5303
X6.3142Y-2.8303
T6
X4.3318Y-3.7974
X4.4212Y-3.9728
X4.4371Y-3.7438
X4.5264Y-3.9192
T3
X6.5256Y-3.5157G85X6.498Y-3.5157
G05
X6.5689Y-3.689G85X6.5413Y-3.689
G05
X6.7264Y-3.689G85X6.6988Y-3.689
G05
X6.8445Y-3.689G85X6.8169Y-3.689
G05
T0
M30
