G04 #@! TF.GenerationSoftware,KiCad,Pcbnew,7.0.2*
G04 #@! TF.CreationDate,2023-04-26T23:36:07+03:00*
G04 #@! TF.ProjectId,mriya-bottom-plate,6d726979-612d-4626-9f74-746f6d2d706c,0.9*
G04 #@! TF.SameCoordinates,Original*
G04 #@! TF.FileFunction,Profile,NP*
%FSLAX46Y46*%
G04 Gerber Fmt 4.6, Leading zero omitted, Abs format (unit mm)*
G04 Created by KiCad (PCBNEW 7.0.2) date 2023-04-26 23:36:08*
%MOMM*%
%LPD*%
G01*
G04 APERTURE LIST*
G04 #@! TA.AperFunction,Profile*
%ADD10C,0.100000*%
G04 #@! TD*
G04 APERTURE END LIST*
D10*
X164714214Y-124300000D02*
X186200000Y-124300000D01*
X186200000Y-124300000D02*
G75*
G03*
X187200000Y-123300000I0J1000000D01*
G01*
X143292879Y-119292907D02*
G75*
G03*
X142585786Y-119000000I-707079J-706993D01*
G01*
X146307100Y-45307114D02*
G75*
G03*
X147014214Y-45600000I707100J707114D01*
G01*
X126022151Y-118452637D02*
X116855699Y-100394726D01*
X50200000Y-51300000D02*
X50200000Y-105300000D01*
X95128427Y-99300020D02*
G75*
G03*
X93714215Y-99885787I-27J-1999980D01*
G01*
X145714214Y-121300000D02*
X160885786Y-121300000D01*
X116855692Y-100394730D02*
G75*
G03*
X115072309Y-99300000I-1783392J-905270D01*
G01*
X125592900Y-40592886D02*
G75*
G03*
X124885786Y-40300000I-707100J-707114D01*
G01*
X88007107Y-43592893D02*
X81885786Y-49714214D01*
X51200000Y-50300000D02*
X80471573Y-50300000D01*
X187200000Y-47600000D02*
G75*
G03*
X185200000Y-45600000I-2000000J0D01*
G01*
X126022163Y-118452631D02*
G75*
G03*
X126913846Y-119000000I891637J452531D01*
G01*
X164007100Y-124007114D02*
G75*
G03*
X164714214Y-124300000I707100J707114D01*
G01*
X107714214Y-40300039D02*
G75*
G03*
X107007107Y-40592893I-14J-1000061D01*
G01*
X187200001Y-47800000D02*
G75*
G03*
X187200001Y-47800000I-1J0D01*
G01*
X51200000Y-106300000D02*
X86885786Y-106300000D01*
X144592900Y-43592886D02*
G75*
G03*
X143885786Y-43300000I-707100J-707114D01*
G01*
X88714214Y-43300039D02*
G75*
G03*
X88007107Y-43592893I-14J-1000061D01*
G01*
X103885786Y-43299961D02*
G75*
G03*
X104592893Y-43007107I14J1000061D01*
G01*
X145007107Y-121007107D02*
X143292893Y-119292893D01*
X185200001Y-45600000D02*
G75*
G03*
X185200001Y-45600000I-1J0D01*
G01*
X128714214Y-43300000D02*
X143885786Y-43300000D01*
X51200000Y-50300000D02*
G75*
G03*
X50200000Y-51300000I0J-1000000D01*
G01*
X88714214Y-43300000D02*
X103885786Y-43300000D01*
X128007100Y-43007114D02*
G75*
G03*
X128714214Y-43300000I707100J707114D01*
G01*
X142585786Y-119000000D02*
X126913846Y-119000000D01*
X125592893Y-40592893D02*
X128007107Y-43007107D01*
X145007100Y-121007114D02*
G75*
G03*
X145714214Y-121300000I707100J707114D01*
G01*
X87592893Y-106007107D02*
X93714214Y-99885786D01*
X107714214Y-40300000D02*
X124885786Y-40300000D01*
X187200001Y-47800000D02*
G75*
G03*
X187200001Y-47800000I-1J0D01*
G01*
X50200000Y-105300000D02*
G75*
G03*
X51200000Y-106300000I1000000J0D01*
G01*
X80471573Y-50300022D02*
G75*
G03*
X81885786Y-49714214I-73J2000122D01*
G01*
X161592900Y-121592886D02*
G75*
G03*
X160885786Y-121300000I-707100J-707114D01*
G01*
X144592893Y-43592893D02*
X146307107Y-45307107D01*
X164007107Y-124007107D02*
X161592893Y-121592893D01*
X187200000Y-123300000D02*
X187200000Y-47600000D01*
X107007107Y-40592893D02*
X104592893Y-43007107D01*
X95128427Y-99300000D02*
X115072309Y-99300000D01*
X86885786Y-106299961D02*
G75*
G03*
X87592893Y-106007107I14J1000061D01*
G01*
X147014214Y-45600000D02*
X185200000Y-45600000D01*
M02*
