%TF.GenerationSoftware,KiCad,Pcbnew,9.0.7*%
%TF.CreationDate,2026-02-08T19:21:18+03:00*%
%TF.ProjectId,mriya-bottom-plate,6d726979-612d-4626-9f74-746f6d2d706c,1.1.3*%
%TF.SameCoordinates,Original*%
%TF.FileFunction,Soldermask,Bot*%
%TF.FilePolarity,Negative*%
%FSLAX46Y46*%
G04 Gerber Fmt 4.6, Leading zero omitted, Abs format (unit mm)*
G04 Created by KiCad (PCBNEW 9.0.7) date 2026-02-08 19:21:18*
%MOMM*%
%LPD*%
G01*
G04 APERTURE LIST*
%ADD10C,0.000000*%
%ADD11C,3.400000*%
G04 APERTURE END LIST*
D10*
%TO.C,G\u002A\u002A\u002A*%
G36*
X93139077Y-69802424D02*
G01*
X93484979Y-69842282D01*
X93859527Y-69919354D01*
X94245804Y-70032268D01*
X94393210Y-70094394D01*
X94561781Y-70217443D01*
X94646500Y-70361117D01*
X94642180Y-70514374D01*
X94543633Y-70666173D01*
X94517010Y-70689264D01*
X94406331Y-70733198D01*
X94251987Y-70724995D01*
X94041312Y-70662682D01*
X93761641Y-70544285D01*
X93630217Y-70484680D01*
X93281319Y-70340964D01*
X93005831Y-70253258D01*
X92797634Y-70219884D01*
X92650612Y-70239161D01*
X92619628Y-70249778D01*
X92467701Y-70262333D01*
X92367165Y-70209487D01*
X92329023Y-70114324D01*
X92364276Y-69999931D01*
X92483925Y-69889392D01*
X92600885Y-69839841D01*
X92838740Y-69801153D01*
X93139077Y-69802424D01*
G37*
G36*
X85630556Y-74842626D02*
G01*
X85620689Y-74975817D01*
X85595248Y-75063255D01*
X85547155Y-75130788D01*
X85469328Y-75204267D01*
X85375194Y-75278860D01*
X85242576Y-75335967D01*
X85065889Y-75350691D01*
X85022520Y-75349399D01*
X84890655Y-75330670D01*
X84736744Y-75286210D01*
X84552121Y-75211616D01*
X84328119Y-75102484D01*
X84056072Y-74954412D01*
X83727312Y-74762997D01*
X83333174Y-74523834D01*
X82864990Y-74232522D01*
X82835970Y-74214316D01*
X82534002Y-74025582D01*
X82262679Y-73857246D01*
X82032820Y-73715923D01*
X81855241Y-73608229D01*
X81740761Y-73540779D01*
X81700197Y-73520190D01*
X81717738Y-73563357D01*
X81770974Y-73679732D01*
X81851342Y-73850329D01*
X81950148Y-74056492D01*
X82043536Y-74260148D01*
X82181230Y-74620455D01*
X82258713Y-74924852D01*
X82262129Y-74945396D01*
X82288730Y-75132178D01*
X82291215Y-75263379D01*
X82266450Y-75377997D01*
X82211303Y-75515027D01*
X82189996Y-75560892D01*
X82079244Y-75730060D01*
X81940312Y-75829310D01*
X81877630Y-75853658D01*
X81672051Y-75888279D01*
X81424874Y-75868623D01*
X81130544Y-75792648D01*
X80783507Y-75658313D01*
X80378209Y-75463577D01*
X79909095Y-75206396D01*
X79370611Y-74884731D01*
X79149594Y-74747926D01*
X78619602Y-74414660D01*
X78176905Y-74127762D01*
X77820703Y-73886637D01*
X77550197Y-73690688D01*
X77364591Y-73539320D01*
X77263085Y-73431937D01*
X77244882Y-73367944D01*
X77309182Y-73346746D01*
X77310736Y-73346835D01*
X77379538Y-73375181D01*
X77517570Y-73448535D01*
X77710337Y-73558631D01*
X77943348Y-73697205D01*
X78202106Y-73855989D01*
X78388570Y-73971570D01*
X78981553Y-74331638D01*
X79529055Y-74652387D01*
X80025909Y-74931138D01*
X80466946Y-75165212D01*
X80846999Y-75351932D01*
X81160900Y-75488620D01*
X81403482Y-75572596D01*
X81569575Y-75601184D01*
X81661647Y-75579512D01*
X81767755Y-75496620D01*
X81775768Y-75484410D01*
X81811045Y-75361935D01*
X81784047Y-75204008D01*
X81691675Y-75005083D01*
X81530832Y-74759614D01*
X81298419Y-74462056D01*
X80991337Y-74106863D01*
X80768464Y-73859538D01*
X80594744Y-73665723D01*
X80469437Y-73517164D01*
X80384700Y-73397672D01*
X80332691Y-73291059D01*
X80305568Y-73181136D01*
X80295489Y-73051714D01*
X80294611Y-72886605D01*
X80295092Y-72669619D01*
X80294943Y-72574824D01*
X80299018Y-72431028D01*
X80602142Y-72431028D01*
X80633286Y-72572128D01*
X80735799Y-72675766D01*
X80803117Y-72712344D01*
X80951352Y-72792209D01*
X81156231Y-72902216D01*
X81400357Y-73033024D01*
X81666333Y-73175294D01*
X81910289Y-73307421D01*
X82265831Y-73503984D01*
X82649085Y-73719352D01*
X83027789Y-73935370D01*
X83369686Y-74133883D01*
X83418108Y-74162261D01*
X83709107Y-74330187D01*
X83986443Y-74486122D01*
X84232050Y-74620179D01*
X84427864Y-74722469D01*
X84555818Y-74783104D01*
X84752783Y-74857516D01*
X84909964Y-74894737D01*
X84991577Y-74877447D01*
X84997653Y-74803357D01*
X84928220Y-74670176D01*
X84783308Y-74475614D01*
X84562944Y-74217381D01*
X84354384Y-73988582D01*
X83832728Y-73467730D01*
X83307086Y-73013047D01*
X82789183Y-72634218D01*
X82290744Y-72340923D01*
X82187412Y-72289545D01*
X81926071Y-72169433D01*
X81665411Y-72061439D01*
X81427566Y-71973935D01*
X81234670Y-71915294D01*
X81108857Y-71893886D01*
X80990998Y-71911755D01*
X80836797Y-71992831D01*
X80713911Y-72120393D01*
X80632355Y-72273454D01*
X80602142Y-72431028D01*
X80299018Y-72431028D01*
X80304818Y-72226343D01*
X80334833Y-71955032D01*
X80389161Y-71743150D01*
X80471976Y-71572956D01*
X80587449Y-71426711D01*
X80616427Y-71397013D01*
X80792755Y-71254514D01*
X80998057Y-71161645D01*
X81267284Y-71101697D01*
X81449581Y-71082965D01*
X81849134Y-71105044D01*
X82279693Y-71210992D01*
X82746573Y-71402357D01*
X83255091Y-71680687D01*
X83353590Y-71741629D01*
X83805467Y-72050741D01*
X84235034Y-72391078D01*
X84628129Y-72748999D01*
X84970588Y-73110863D01*
X85248250Y-73463029D01*
X85446951Y-73791856D01*
X85504204Y-73910031D01*
X85572918Y-74072954D01*
X85611170Y-74217797D01*
X85627855Y-74383961D01*
X85631871Y-74610849D01*
X85631931Y-74637830D01*
X85630820Y-74803357D01*
X85630556Y-74842626D01*
G37*
G36*
X136811558Y-75879096D02*
G01*
X136703807Y-76562051D01*
X136515664Y-77210095D01*
X136247634Y-77814272D01*
X135900219Y-78365624D01*
X135728073Y-78584463D01*
X135248279Y-79082273D01*
X134699555Y-79509331D01*
X134084831Y-79864098D01*
X133407038Y-80145037D01*
X132669106Y-80350609D01*
X131873964Y-80479277D01*
X131661618Y-80492571D01*
X131358533Y-80494886D01*
X131007604Y-80485784D01*
X130635666Y-80466672D01*
X130269550Y-80438956D01*
X129936092Y-80404043D01*
X129662124Y-80363339D01*
X128970370Y-80213387D01*
X128068428Y-79956402D01*
X127131758Y-79626361D01*
X126172372Y-79228671D01*
X125202284Y-78768745D01*
X124233507Y-78251990D01*
X123278055Y-77683817D01*
X122347942Y-77069637D01*
X122324927Y-77053584D01*
X121960212Y-76790111D01*
X121538338Y-76470855D01*
X121074175Y-76107756D01*
X120582593Y-75712751D01*
X120078463Y-75297779D01*
X119576656Y-74874779D01*
X119092041Y-74455689D01*
X118954910Y-74336803D01*
X118808346Y-74213338D01*
X118703449Y-74129273D01*
X118656798Y-74098225D01*
X118613482Y-74120726D01*
X118503053Y-74189423D01*
X118343753Y-74293243D01*
X118153154Y-74420929D01*
X117986797Y-74529679D01*
X117780810Y-74654085D01*
X117604602Y-74749595D01*
X117484026Y-74801506D01*
X117462006Y-74807878D01*
X117270526Y-74842182D01*
X117128084Y-74833221D01*
X117044851Y-74791202D01*
X117030998Y-74726329D01*
X117096699Y-74648808D01*
X117252124Y-74568843D01*
X117254291Y-74568011D01*
X117411834Y-74495358D01*
X117607663Y-74388164D01*
X117816269Y-74262438D01*
X118012138Y-74134187D01*
X118169760Y-74019419D01*
X118263622Y-73934144D01*
X118295980Y-73878813D01*
X118283658Y-73769808D01*
X118247155Y-73726666D01*
X118145081Y-73619578D01*
X118053140Y-73526303D01*
X119374359Y-73526303D01*
X119407685Y-73572613D01*
X119507517Y-73676176D01*
X119663932Y-73827186D01*
X119866937Y-74016599D01*
X120106533Y-74235368D01*
X120372727Y-74474450D01*
X120655521Y-74724798D01*
X120944920Y-74977368D01*
X121230928Y-75223115D01*
X121503550Y-75452993D01*
X122566232Y-76297753D01*
X123655077Y-77078828D01*
X124741974Y-77773893D01*
X125823296Y-78381056D01*
X126895417Y-78898427D01*
X127954711Y-79324116D01*
X128997553Y-79656232D01*
X130020315Y-79892886D01*
X130223657Y-79921953D01*
X130512723Y-79948509D01*
X130848280Y-79969036D01*
X131205964Y-79982863D01*
X131561413Y-79989318D01*
X131890262Y-79987728D01*
X132168147Y-79977422D01*
X132370705Y-79957727D01*
X132502296Y-79935356D01*
X133148546Y-79774850D01*
X133762333Y-79539310D01*
X134333262Y-79235858D01*
X134850933Y-78871615D01*
X135304951Y-78453703D01*
X135684917Y-77989244D01*
X135980434Y-77485358D01*
X136088149Y-77238607D01*
X136274934Y-76653118D01*
X136394057Y-76018040D01*
X136443699Y-75351648D01*
X136422043Y-74672218D01*
X136327271Y-73998028D01*
X136186040Y-73425875D01*
X135919256Y-72673484D01*
X135567569Y-71929324D01*
X135139267Y-71204726D01*
X134642635Y-70511018D01*
X134085961Y-69859529D01*
X133477531Y-69261587D01*
X132825633Y-68728523D01*
X132138554Y-68271664D01*
X131969271Y-68174440D01*
X131423739Y-67894070D01*
X130855795Y-67646478D01*
X130296461Y-67444420D01*
X129776762Y-67300649D01*
X129699563Y-67285110D01*
X129398536Y-67246325D01*
X129039632Y-67224272D01*
X128654028Y-67218918D01*
X128272899Y-67230233D01*
X127927419Y-67258186D01*
X127648766Y-67302747D01*
X127320347Y-67385032D01*
X126742706Y-67572220D01*
X126163575Y-67816454D01*
X125574692Y-68122597D01*
X124967796Y-68495507D01*
X124334624Y-68940046D01*
X123666917Y-69461075D01*
X122956410Y-70063455D01*
X122910312Y-70104199D01*
X122725346Y-70271454D01*
X122497209Y-70482131D01*
X122234189Y-70728217D01*
X121944575Y-71001698D01*
X121636657Y-71294562D01*
X121318724Y-71598795D01*
X120999065Y-71906384D01*
X120685969Y-72209315D01*
X120387726Y-72499576D01*
X120112624Y-72769152D01*
X119868953Y-73010031D01*
X119665002Y-73214198D01*
X119509060Y-73373642D01*
X119409416Y-73480348D01*
X119374359Y-73526303D01*
X118053140Y-73526303D01*
X117986801Y-73459002D01*
X117780851Y-73253452D01*
X117535769Y-73011442D01*
X117260091Y-72741485D01*
X116962356Y-72452096D01*
X116476834Y-71978348D01*
X115535235Y-71037562D01*
X114621937Y-70093745D01*
X113726079Y-69134746D01*
X112836800Y-68148412D01*
X111943238Y-67122589D01*
X111034531Y-66045126D01*
X110099818Y-64903869D01*
X109128238Y-63686665D01*
X109057635Y-63598023D01*
X108907014Y-63414932D01*
X108783918Y-63273604D01*
X108699527Y-63186597D01*
X108665024Y-63166468D01*
X108665616Y-63200652D01*
X108700419Y-63328696D01*
X108776579Y-63539781D01*
X108892182Y-63829579D01*
X109045313Y-64193761D01*
X109234057Y-64627997D01*
X109456501Y-65127958D01*
X109710729Y-65689316D01*
X109994826Y-66307742D01*
X110306879Y-66978905D01*
X110644971Y-67698478D01*
X111007189Y-68462130D01*
X111299628Y-69077362D01*
X111612906Y-69740761D01*
X111900193Y-70355028D01*
X112168554Y-70935942D01*
X112425054Y-71499282D01*
X112676757Y-72060828D01*
X112930726Y-72636358D01*
X113194027Y-73241651D01*
X113473724Y-73892487D01*
X113776881Y-74604644D01*
X114110562Y-75393901D01*
X114189387Y-75581232D01*
X114378814Y-76036393D01*
X114530538Y-76410895D01*
X114646995Y-76712623D01*
X114730620Y-76949461D01*
X114783848Y-77129291D01*
X114809115Y-77260000D01*
X114808857Y-77349469D01*
X114785510Y-77405584D01*
X114741508Y-77436228D01*
X114727412Y-77439473D01*
X114627887Y-77422140D01*
X114503153Y-77362923D01*
X114490737Y-77354881D01*
X114369845Y-77258458D01*
X114193269Y-77096769D01*
X113969745Y-76878890D01*
X113708010Y-76613895D01*
X113416800Y-76310859D01*
X113104851Y-75978857D01*
X112780900Y-75626963D01*
X112453683Y-75264254D01*
X112131936Y-74899803D01*
X111930345Y-74668775D01*
X111348711Y-74002590D01*
X110824676Y-73403164D01*
X110352154Y-72863751D01*
X109925060Y-72377603D01*
X109537311Y-71937971D01*
X109182820Y-71538109D01*
X108855504Y-71171267D01*
X108549277Y-70830699D01*
X108258055Y-70509656D01*
X107975752Y-70201391D01*
X107696285Y-69899156D01*
X107413568Y-69596203D01*
X107121516Y-69285784D01*
X106814045Y-68961152D01*
X106485069Y-68615559D01*
X106128505Y-68242257D01*
X106008892Y-68117114D01*
X105709670Y-67803479D01*
X105434632Y-67514382D01*
X105191306Y-67257787D01*
X104987219Y-67041657D01*
X104829898Y-66873956D01*
X104726870Y-66762650D01*
X104685663Y-66715700D01*
X104670220Y-66696259D01*
X104629756Y-66685080D01*
X104629295Y-66686601D01*
X104651394Y-66745001D01*
X104714888Y-66875279D01*
X104812685Y-67063732D01*
X104937692Y-67296658D01*
X105082816Y-67560355D01*
X105355967Y-68059629D01*
X105737167Y-68787133D01*
X106114771Y-69545730D01*
X106493795Y-70346342D01*
X106879250Y-71199895D01*
X107276151Y-72117311D01*
X107689510Y-73109513D01*
X108124341Y-74187425D01*
X108385969Y-74847548D01*
X108647589Y-75513920D01*
X108874385Y-76099477D01*
X109068610Y-76610303D01*
X109232514Y-77052481D01*
X109368348Y-77432097D01*
X109478364Y-77755235D01*
X109564813Y-78027978D01*
X109629946Y-78256411D01*
X109676744Y-78444558D01*
X109750620Y-78833738D01*
X109779382Y-79162395D01*
X109763737Y-79424399D01*
X109704394Y-79613623D01*
X109602061Y-79723938D01*
X109457446Y-79749216D01*
X109399211Y-79738519D01*
X109346717Y-79692648D01*
X109344138Y-79584024D01*
X109360318Y-79281774D01*
X109335295Y-78949779D01*
X109256357Y-78605416D01*
X109232845Y-78526441D01*
X109105359Y-78134570D01*
X108939102Y-77667850D01*
X108739067Y-77138220D01*
X108510250Y-76557620D01*
X108257645Y-75937990D01*
X107986247Y-75291271D01*
X107701051Y-74629402D01*
X107407051Y-73964323D01*
X107109242Y-73307975D01*
X106812619Y-72672298D01*
X106522176Y-72069231D01*
X106472014Y-71967231D01*
X106261986Y-71547815D01*
X106050067Y-71138327D01*
X105831582Y-70731132D01*
X105601852Y-70318594D01*
X105356202Y-69893078D01*
X105089955Y-69446949D01*
X104798433Y-68972572D01*
X104476960Y-68462311D01*
X104120858Y-67908532D01*
X103725452Y-67303599D01*
X103286063Y-66639876D01*
X102798016Y-65909729D01*
X102256634Y-65105523D01*
X101979652Y-64693129D01*
X101707999Y-64282610D01*
X101488151Y-63942088D01*
X101316460Y-63665486D01*
X101189275Y-63446727D01*
X101102947Y-63279733D01*
X101053827Y-63158428D01*
X101038264Y-63076734D01*
X101065196Y-62939433D01*
X101168923Y-62777625D01*
X101326079Y-62671074D01*
X101338897Y-62666378D01*
X101442895Y-62643575D01*
X101549643Y-62653196D01*
X101665956Y-62701467D01*
X101798646Y-62794613D01*
X101954527Y-62938858D01*
X102140413Y-63140428D01*
X102363116Y-63405549D01*
X102629450Y-63740444D01*
X102946228Y-64151340D01*
X103134917Y-64390903D01*
X103394595Y-64701938D01*
X103701466Y-65051756D01*
X104062106Y-65447684D01*
X104483094Y-65897051D01*
X104971006Y-66407184D01*
X105021109Y-66459151D01*
X106058416Y-67539306D01*
X107032486Y-68562357D01*
X107953025Y-69538915D01*
X108829738Y-70479591D01*
X109672332Y-71394996D01*
X110490512Y-72295740D01*
X111293984Y-73192433D01*
X112092455Y-74095687D01*
X112895630Y-75016113D01*
X113713215Y-75964320D01*
X113854002Y-76125526D01*
X113985002Y-76269297D01*
X114080198Y-76366737D01*
X114125289Y-76402633D01*
X114129053Y-76402697D01*
X114139215Y-76401242D01*
X114143528Y-76390852D01*
X114138618Y-76363217D01*
X114121109Y-76310026D01*
X114087625Y-76222968D01*
X114034789Y-76093735D01*
X113959227Y-75914014D01*
X113857564Y-75675497D01*
X113726422Y-75369873D01*
X113562427Y-74988832D01*
X113362203Y-74524063D01*
X113134819Y-73997795D01*
X112895319Y-73447396D01*
X112661459Y-72914715D01*
X112429105Y-72390772D01*
X112194121Y-71866590D01*
X111952374Y-71333189D01*
X111699729Y-70781589D01*
X111432049Y-70202812D01*
X111145201Y-69587880D01*
X110835050Y-68927812D01*
X110497461Y-68213630D01*
X110128298Y-67436354D01*
X109723428Y-66587007D01*
X109278714Y-65656608D01*
X109164235Y-65417343D01*
X108830805Y-64720153D01*
X108537367Y-64105773D01*
X108281371Y-63568491D01*
X108060266Y-63102595D01*
X107871502Y-62702372D01*
X107712531Y-62362110D01*
X107580801Y-62076096D01*
X107473764Y-61838618D01*
X107388869Y-61643963D01*
X107323566Y-61486419D01*
X107275306Y-61360274D01*
X107241538Y-61259814D01*
X107219713Y-61179328D01*
X107207280Y-61113103D01*
X107201691Y-61055426D01*
X107200394Y-61000586D01*
X107201505Y-60964786D01*
X107241294Y-60826177D01*
X107354534Y-60701298D01*
X107445730Y-60636071D01*
X107564026Y-60588491D01*
X107691328Y-60583413D01*
X107833022Y-60625236D01*
X107994490Y-60718357D01*
X108181119Y-60867173D01*
X108398292Y-61076082D01*
X108651393Y-61349481D01*
X108945808Y-61691767D01*
X109286920Y-62107338D01*
X109680114Y-62600592D01*
X110114229Y-63149404D01*
X110685326Y-63866276D01*
X111218351Y-64528251D01*
X111725884Y-65150364D01*
X112220505Y-65747651D01*
X112714793Y-66335149D01*
X113221327Y-66927893D01*
X113752688Y-67540921D01*
X114321453Y-68189267D01*
X114940204Y-68887969D01*
X115252240Y-69237175D01*
X115643169Y-69670083D01*
X116039980Y-70104941D01*
X116436594Y-70535384D01*
X116826932Y-70955045D01*
X117204915Y-71357559D01*
X117564463Y-71736560D01*
X117899498Y-72085682D01*
X118203941Y-72398558D01*
X118471713Y-72668823D01*
X118696733Y-72890111D01*
X118872924Y-73056055D01*
X118994207Y-73160290D01*
X119054501Y-73196450D01*
X119083711Y-73177572D01*
X119179655Y-73095775D01*
X119333671Y-72955756D01*
X119538251Y-72764605D01*
X119785893Y-72529413D01*
X120069089Y-72257269D01*
X120380336Y-71955264D01*
X120712127Y-71630488D01*
X121188086Y-71165081D01*
X121771289Y-70603525D01*
X122300456Y-70106024D01*
X122783045Y-69666641D01*
X123226517Y-69279439D01*
X123638330Y-68938480D01*
X124025945Y-68637826D01*
X124396822Y-68371541D01*
X124758419Y-68133686D01*
X125118196Y-67918325D01*
X125483613Y-67719519D01*
X125862130Y-67531331D01*
X126369169Y-67306359D01*
X127043472Y-67066272D01*
X127696872Y-66908612D01*
X128340001Y-66833704D01*
X128983494Y-66841872D01*
X129637984Y-66933441D01*
X130314104Y-67108735D01*
X131022487Y-67368080D01*
X131773767Y-67711800D01*
X132288664Y-67982799D01*
X132771552Y-68275634D01*
X133216404Y-68593760D01*
X133652118Y-68957946D01*
X134107590Y-69388955D01*
X134213237Y-69495100D01*
X134828636Y-70176374D01*
X135360548Y-70887153D01*
X135823156Y-71648086D01*
X136230644Y-72479822D01*
X136428599Y-72977320D01*
X136647440Y-73710342D01*
X136783878Y-74444284D01*
X136838416Y-75170187D01*
X136831541Y-75351648D01*
X136811558Y-75879096D01*
G37*
G36*
X105131136Y-88280193D02*
G01*
X105084973Y-88460430D01*
X104994538Y-88664132D01*
X104821931Y-88936603D01*
X104588213Y-89159737D01*
X104287638Y-89327762D01*
X103906842Y-89450342D01*
X103470498Y-89516500D01*
X102944947Y-89515091D01*
X102367060Y-89440541D01*
X101742748Y-89295014D01*
X101077920Y-89080671D01*
X100378485Y-88799674D01*
X99650352Y-88454185D01*
X98899432Y-88046367D01*
X98131633Y-87578382D01*
X97352864Y-87052392D01*
X97348885Y-87049571D01*
X96560397Y-86458349D01*
X95745566Y-85783631D01*
X94900736Y-85022254D01*
X94022246Y-84171053D01*
X93605439Y-83747645D01*
X92822044Y-82911474D01*
X92092169Y-82072515D01*
X91396440Y-81207143D01*
X90715485Y-80291734D01*
X90029930Y-79302663D01*
X90013781Y-79278658D01*
X89833380Y-79015671D01*
X89662633Y-78775476D01*
X89629282Y-78730474D01*
X90918343Y-78730474D01*
X90923817Y-78752093D01*
X90973501Y-78855678D01*
X91069439Y-79026663D01*
X91204900Y-79254196D01*
X91373151Y-79527425D01*
X91567462Y-79835499D01*
X91781102Y-80167565D01*
X92007338Y-80512771D01*
X92239439Y-80860265D01*
X92994451Y-81931416D01*
X93899436Y-83094691D01*
X94835891Y-84170934D01*
X95809252Y-85165990D01*
X96824956Y-86085705D01*
X97888436Y-86935925D01*
X98412104Y-87312846D01*
X99136732Y-87784164D01*
X99861588Y-88200013D01*
X100575384Y-88554900D01*
X101266832Y-88843330D01*
X101924643Y-89059807D01*
X102537526Y-89198837D01*
X102563135Y-89203086D01*
X103042367Y-89260197D01*
X103460604Y-89261017D01*
X103839682Y-89204091D01*
X104201436Y-89087965D01*
X104334130Y-89015682D01*
X104517813Y-88869802D01*
X104678781Y-88697242D01*
X104782397Y-88531198D01*
X104829856Y-88360917D01*
X104855707Y-88092119D01*
X104846634Y-87788746D01*
X104803942Y-87483068D01*
X104728933Y-87207361D01*
X104611580Y-86923433D01*
X104342135Y-86422341D01*
X103987324Y-85899215D01*
X103552627Y-85361827D01*
X103043527Y-84817947D01*
X102281834Y-84110973D01*
X101419874Y-83413640D01*
X100472813Y-82737826D01*
X99447749Y-82087338D01*
X98351782Y-81465979D01*
X97192012Y-80877556D01*
X95975538Y-80325874D01*
X94709460Y-79814737D01*
X93400877Y-79347951D01*
X92056888Y-78929321D01*
X91910166Y-78887003D01*
X91581230Y-78793865D01*
X91332988Y-78727512D01*
X91154472Y-78686027D01*
X91034716Y-78667496D01*
X90962753Y-78670004D01*
X90927618Y-78691635D01*
X90918343Y-78730474D01*
X89629282Y-78730474D01*
X89512831Y-78573341D01*
X89395266Y-78424537D01*
X89321231Y-78344332D01*
X89281835Y-78316100D01*
X89143309Y-78251049D01*
X88935294Y-78186682D01*
X88651683Y-78121696D01*
X88286367Y-78054788D01*
X87833240Y-77984653D01*
X87286193Y-77909989D01*
X87156797Y-77893398D01*
X86675077Y-77835913D01*
X86215882Y-77789123D01*
X85761692Y-77752103D01*
X85294989Y-77723928D01*
X84798254Y-77703673D01*
X84253967Y-77690413D01*
X83644609Y-77683223D01*
X82952663Y-77681178D01*
X82782133Y-77681287D01*
X82255464Y-77682831D01*
X81811752Y-77686979D01*
X81437643Y-77694772D01*
X81119785Y-77707249D01*
X80844825Y-77725450D01*
X80599410Y-77750416D01*
X80370188Y-77783186D01*
X80143807Y-77824800D01*
X79906913Y-77876299D01*
X79646154Y-77938722D01*
X79375070Y-78017733D01*
X79064811Y-78150032D01*
X78835352Y-78304893D01*
X78693030Y-78477730D01*
X78644181Y-78663956D01*
X78643591Y-78687786D01*
X78619978Y-78785203D01*
X78574446Y-78801784D01*
X78524295Y-78728250D01*
X78499958Y-78643874D01*
X78509909Y-78446399D01*
X78615849Y-78261358D01*
X78815172Y-78090275D01*
X79105270Y-77934678D01*
X79483535Y-77796089D01*
X79947359Y-77676035D01*
X80494137Y-77576041D01*
X80607394Y-77560861D01*
X80909333Y-77531697D01*
X81287438Y-77506153D01*
X81725512Y-77484656D01*
X82207354Y-77467636D01*
X82716766Y-77455520D01*
X83237547Y-77448737D01*
X83753498Y-77447716D01*
X84248420Y-77452884D01*
X84706114Y-77464670D01*
X84903954Y-77472429D01*
X85695498Y-77517413D01*
X86525690Y-77584396D01*
X87359901Y-77669928D01*
X88163504Y-77770557D01*
X88901874Y-77882831D01*
X89020552Y-77888946D01*
X89064694Y-77850608D01*
X89064331Y-77847122D01*
X89035090Y-77773999D01*
X88965812Y-77635211D01*
X88866080Y-77449256D01*
X88745480Y-77234629D01*
X88699112Y-77153297D01*
X88435246Y-76671602D01*
X88171746Y-76160733D01*
X87913495Y-75632335D01*
X87665376Y-75098054D01*
X87432274Y-74569538D01*
X87219070Y-74058431D01*
X87030649Y-73576380D01*
X86871894Y-73135030D01*
X86747689Y-72746028D01*
X86662917Y-72421021D01*
X86622462Y-72171653D01*
X86617828Y-71962914D01*
X86660419Y-71714631D01*
X86761315Y-71544125D01*
X86919440Y-71454001D01*
X87036534Y-71430012D01*
X87170254Y-71439250D01*
X87287210Y-71512526D01*
X87418087Y-71662681D01*
X87463990Y-71716394D01*
X87610467Y-71861882D01*
X87824794Y-72055011D01*
X88098149Y-72288456D01*
X88421711Y-72554892D01*
X88786659Y-72846996D01*
X89184173Y-73157443D01*
X89605432Y-73478909D01*
X89845009Y-73656757D01*
X90285102Y-73965478D01*
X90665120Y-74205942D01*
X90983518Y-74377470D01*
X91238754Y-74479382D01*
X91429283Y-74511000D01*
X91553563Y-74471644D01*
X91610048Y-74360637D01*
X91603524Y-74294677D01*
X91552270Y-74139440D01*
X91458512Y-73923756D01*
X91329695Y-73661184D01*
X91173263Y-73365284D01*
X90996659Y-73049616D01*
X90807329Y-72727739D01*
X90612718Y-72413213D01*
X90420268Y-72119598D01*
X90237426Y-71860454D01*
X90180962Y-71782622D01*
X90051065Y-71592566D01*
X89945111Y-71422828D01*
X89881854Y-71302820D01*
X89867368Y-71265272D01*
X89831267Y-71044172D01*
X89876566Y-70852896D01*
X89988101Y-70705487D01*
X90150708Y-70615990D01*
X90349225Y-70598447D01*
X90568488Y-70666902D01*
X90619116Y-70700199D01*
X90755566Y-70829357D01*
X90923822Y-71026115D01*
X91114361Y-71275864D01*
X91317661Y-71563993D01*
X91524200Y-71875894D01*
X91724453Y-72196956D01*
X91908900Y-72512571D01*
X92068016Y-72808128D01*
X92192279Y-73069019D01*
X92272167Y-73280633D01*
X92278258Y-73299122D01*
X92311210Y-73369696D01*
X92367819Y-73456142D01*
X92455027Y-73566109D01*
X92579775Y-73707249D01*
X92749003Y-73887214D01*
X92969652Y-74113653D01*
X93248664Y-74394219D01*
X93592979Y-74736561D01*
X93745433Y-74887382D01*
X94221786Y-75355079D01*
X94637224Y-75756717D01*
X94997636Y-76097730D01*
X95308911Y-76383556D01*
X95576939Y-76619627D01*
X95807610Y-76811380D01*
X96006811Y-76964250D01*
X96023665Y-76976377D01*
X96196452Y-77088549D01*
X96402915Y-77206875D01*
X96619316Y-77319515D01*
X96821921Y-77414631D01*
X96986992Y-77480383D01*
X97090794Y-77504931D01*
X97115808Y-77500942D01*
X97220919Y-77450271D01*
X97341304Y-77359993D01*
X97394468Y-77310632D01*
X97465194Y-77221085D01*
X97492521Y-77116619D01*
X97492201Y-76954948D01*
X97482089Y-76845760D01*
X97424065Y-76561543D01*
X97325016Y-76238912D01*
X97195093Y-75908561D01*
X97044450Y-75601184D01*
X96990297Y-75506451D01*
X96897649Y-75354635D01*
X96777911Y-75168373D01*
X96626536Y-74941009D01*
X96438975Y-74665888D01*
X96210678Y-74336354D01*
X95937098Y-73945750D01*
X95613687Y-73487422D01*
X95235895Y-72954712D01*
X95150119Y-72833806D01*
X94940877Y-72536213D01*
X94781946Y-72304212D01*
X94666617Y-72126573D01*
X94588179Y-71992068D01*
X94539924Y-71889468D01*
X94515142Y-71807543D01*
X94507122Y-71735065D01*
X94511898Y-71619719D01*
X94556207Y-71503921D01*
X94664729Y-71388144D01*
X94785407Y-71299419D01*
X94975052Y-71239963D01*
X95168266Y-71279305D01*
X95370206Y-71417663D01*
X95437937Y-71489190D01*
X95561852Y-71638386D01*
X95720274Y-71840705D01*
X95901222Y-72079860D01*
X96092712Y-72339566D01*
X96282761Y-72603536D01*
X96459386Y-72855485D01*
X96610604Y-73079127D01*
X96724434Y-73258177D01*
X96812807Y-73385556D01*
X96959200Y-73525741D01*
X97155783Y-73638977D01*
X97427427Y-73742394D01*
X97552688Y-73778983D01*
X97908535Y-73841610D01*
X98267164Y-73852019D01*
X98598844Y-73810708D01*
X98873845Y-73718175D01*
X98910809Y-73699132D01*
X99098319Y-73575217D01*
X99244804Y-73418374D01*
X99356053Y-73215293D01*
X99437858Y-72952669D01*
X99496006Y-72617192D01*
X99536288Y-72195557D01*
X99550033Y-72016819D01*
X99582160Y-71709401D01*
X99622629Y-71477263D01*
X99675949Y-71303565D01*
X99746628Y-71171463D01*
X99839175Y-71064119D01*
X99841661Y-71061755D01*
X100021261Y-70956485D01*
X100232269Y-70932744D01*
X100443538Y-70994138D01*
X100461993Y-71004001D01*
X100716213Y-71174143D01*
X101013940Y-71429944D01*
X101352529Y-71768475D01*
X101729330Y-72186807D01*
X102141696Y-72682012D01*
X102586981Y-73251162D01*
X103062536Y-73891326D01*
X103088127Y-73926535D01*
X103268488Y-74172259D01*
X103430242Y-74388600D01*
X103563443Y-74562546D01*
X103658148Y-74681086D01*
X103704413Y-74731208D01*
X103719401Y-74738019D01*
X103724081Y-74728094D01*
X103708288Y-74690004D01*
X103667183Y-74615747D01*
X103595926Y-74497321D01*
X103489678Y-74326725D01*
X103343601Y-74095956D01*
X103152855Y-73797013D01*
X102912601Y-73421894D01*
X102683458Y-73062274D01*
X102443955Y-72677971D01*
X102255165Y-72360927D01*
X102113684Y-72102638D01*
X102016112Y-71894604D01*
X101959047Y-71728321D01*
X101939086Y-71595290D01*
X101952827Y-71487006D01*
X101996868Y-71394969D01*
X102067807Y-71310676D01*
X102158609Y-71240268D01*
X102287095Y-71210365D01*
X102444129Y-71252302D01*
X102648363Y-71367917D01*
X102693694Y-71400230D01*
X102877068Y-71571739D01*
X103083454Y-71816616D01*
X103303272Y-72118856D01*
X103526941Y-72462454D01*
X103744883Y-72831404D01*
X103947516Y-73209700D01*
X104125263Y-73581338D01*
X104268542Y-73930312D01*
X104367774Y-74240616D01*
X104419648Y-74498275D01*
X104439376Y-74788288D01*
X104414210Y-75037593D01*
X104348248Y-75234896D01*
X104245585Y-75368903D01*
X104110319Y-75428319D01*
X103946546Y-75401850D01*
X103877776Y-75366860D01*
X103759884Y-75278821D01*
X103622933Y-75142285D01*
X103458704Y-74947954D01*
X103258978Y-74686531D01*
X103015534Y-74348718D01*
X102831072Y-74089571D01*
X102470380Y-73595346D01*
X102147121Y-73171814D01*
X101852600Y-72808070D01*
X101578119Y-72493209D01*
X101314983Y-72216327D01*
X101224520Y-72126651D01*
X100957772Y-71877551D01*
X100725643Y-71684503D01*
X100535465Y-71552776D01*
X100394574Y-71487641D01*
X100310303Y-71494368D01*
X100307711Y-71496813D01*
X100273061Y-71575558D01*
X100239801Y-71722269D01*
X100214802Y-71907240D01*
X100187702Y-72151706D01*
X100099182Y-72663734D01*
X99972502Y-73089704D01*
X99803142Y-73435927D01*
X99586581Y-73708713D01*
X99318297Y-73914374D01*
X98993771Y-74059219D01*
X98608481Y-74149561D01*
X98558803Y-74156901D01*
X98188904Y-74179506D01*
X97830302Y-74136415D01*
X97443688Y-74023369D01*
X97286018Y-73968138D01*
X97173494Y-73932012D01*
X97130572Y-73922843D01*
X97133430Y-73931369D01*
X97165924Y-74007950D01*
X97226972Y-74145580D01*
X97306941Y-74322436D01*
X97489223Y-74752320D01*
X97651761Y-75194506D01*
X97787939Y-75627262D01*
X97892151Y-76031065D01*
X97958790Y-76386393D01*
X97982248Y-76673726D01*
X97981084Y-76756199D01*
X97940129Y-77123222D01*
X97841263Y-77409792D01*
X97685372Y-77615054D01*
X97473340Y-77738154D01*
X97206054Y-77778236D01*
X96884398Y-77734445D01*
X96854906Y-77726964D01*
X96642804Y-77660303D01*
X96426754Y-77567395D01*
X96199879Y-77442762D01*
X95955306Y-77280927D01*
X95686160Y-77076413D01*
X95385567Y-76823740D01*
X95046652Y-76517432D01*
X94662541Y-76152011D01*
X94226360Y-75721998D01*
X93731233Y-75221917D01*
X93605361Y-75093672D01*
X93283635Y-74766457D01*
X93023206Y-74503179D01*
X92817613Y-74298055D01*
X92660391Y-74145300D01*
X92545077Y-74039131D01*
X92465209Y-73973765D01*
X92414323Y-73943419D01*
X92385955Y-73942307D01*
X92373643Y-73964648D01*
X92370924Y-74004658D01*
X92353726Y-74206950D01*
X92254412Y-74508447D01*
X92071004Y-74760902D01*
X92011695Y-74818594D01*
X91900294Y-74904666D01*
X91785529Y-74941874D01*
X91620475Y-74949902D01*
X91457171Y-74935906D01*
X91242115Y-74881055D01*
X90997848Y-74781152D01*
X90718476Y-74632458D01*
X90398105Y-74431233D01*
X90030842Y-74173737D01*
X89610792Y-73856230D01*
X89132062Y-73474973D01*
X88588757Y-73026226D01*
X88559240Y-73001527D01*
X88328366Y-72809997D01*
X88124647Y-72643814D01*
X87960411Y-72512828D01*
X87847987Y-72426888D01*
X87799704Y-72395844D01*
X87791121Y-72396936D01*
X87762130Y-72444461D01*
X87779714Y-72518322D01*
X87829686Y-72669655D01*
X87905936Y-72882041D01*
X88002346Y-73139599D01*
X88112800Y-73426447D01*
X88231182Y-73726704D01*
X88351374Y-74024488D01*
X88467261Y-74303918D01*
X88572725Y-74549113D01*
X88592378Y-74593511D01*
X88773263Y-74988036D01*
X88973227Y-75402447D01*
X89186097Y-75825687D01*
X89405700Y-76246703D01*
X89625863Y-76654437D01*
X89840414Y-77037836D01*
X90043178Y-77385845D01*
X90227983Y-77687407D01*
X90388657Y-77931469D01*
X90519025Y-78106974D01*
X90612916Y-78202869D01*
X90709536Y-78251571D01*
X90881637Y-78316715D01*
X91102551Y-78388317D01*
X91347535Y-78457792D01*
X91386806Y-78468162D01*
X93110724Y-78970188D01*
X94766895Y-79545857D01*
X96355246Y-80195136D01*
X97875701Y-80917993D01*
X99328185Y-81714393D01*
X100712623Y-82584305D01*
X101309292Y-82998845D01*
X102135682Y-83627817D01*
X102866906Y-84256474D01*
X103501987Y-84883826D01*
X104039946Y-85508880D01*
X104479803Y-86130644D01*
X104820581Y-86748127D01*
X104895887Y-86911665D01*
X105017484Y-87211633D01*
X105094418Y-87474705D01*
X105134703Y-87732034D01*
X105146351Y-88014775D01*
X105145994Y-88067961D01*
X105144303Y-88092119D01*
X105131136Y-88280193D01*
G37*
%TD*%
D11*
%TO.C,MH4*%
X135500000Y-98650000D03*
%TD*%
%TO.C,MH3*%
X59500000Y-86650000D03*
%TD*%
%TO.C,MH2*%
X59500000Y-67650000D03*
%TD*%
%TO.C,MH1*%
X135500000Y-60650000D03*
%TD*%
M02*
