%TF.GenerationSoftware,KiCad,Pcbnew,9.0.7*%
%TF.CreationDate,2026-02-08T19:38:27+03:00*%
%TF.ProjectId,mriya-pcb-1.1.3,6d726979-612d-4706-9362-2d312e312e33,1.1.3*%
%TF.SameCoordinates,Original*%
%TF.FileFunction,Paste,Bot*%
%TF.FilePolarity,Positive*%
%FSLAX46Y46*%
G04 Gerber Fmt 4.6, Leading zero omitted, Abs format (unit mm)*
G04 Created by KiCad (PCBNEW 9.0.7) date 2026-02-08 19:38:27*
%MOMM*%
%LPD*%
G01*
G04 APERTURE LIST*
G04 Aperture macros list*
%AMRoundRect*
0 Rectangle with rounded corners*
0 $1 Rounding radius*
0 $2 $3 $4 $5 $6 $7 $8 $9 X,Y pos of 4 corners*
0 Add a 4 corners polygon primitive as box body*
4,1,4,$2,$3,$4,$5,$6,$7,$8,$9,$2,$3,0*
0 Add four circle primitives for the rounded corners*
1,1,$1+$1,$2,$3*
1,1,$1+$1,$4,$5*
1,1,$1+$1,$6,$7*
1,1,$1+$1,$8,$9*
0 Add four rect primitives between the rounded corners*
20,1,$1+$1,$2,$3,$4,$5,0*
20,1,$1+$1,$4,$5,$6,$7,0*
20,1,$1+$1,$6,$7,$8,$9,0*
20,1,$1+$1,$8,$9,$2,$3,0*%
G04 Aperture macros list end*
%ADD10RoundRect,0.400000X0.875000X0.850000X-0.875000X0.850000X-0.875000X-0.850000X0.875000X-0.850000X0*%
%ADD11RoundRect,0.300000X-0.300000X-0.300000X0.300000X-0.300000X0.300000X0.300000X-0.300000X0.300000X0*%
%ADD12C,1.250000*%
G04 APERTURE END LIST*
D10*
%TO.C,SW25*%
X237915000Y-42960000D03*
X250842000Y-40420000D03*
%TD*%
%TO.C,SW18*%
X137915000Y-87760000D03*
X150842000Y-85220000D03*
%TD*%
%TO.C,SW20*%
X137915000Y-106760000D03*
X150842000Y-104220000D03*
%TD*%
%TO.C,SW5*%
X118915000Y-47460000D03*
X131842000Y-44920000D03*
%TD*%
%TO.C,SW12*%
X137915000Y-68760000D03*
X150842000Y-66220000D03*
%TD*%
%TO.C,SW28*%
X294915000Y-75760000D03*
X307842000Y-73220000D03*
%TD*%
%TO.C,SW7*%
X42915000Y-75760000D03*
X55842000Y-73220000D03*
%TD*%
%TO.C,SW36*%
X256915000Y-84460000D03*
X269842000Y-81920000D03*
%TD*%
%TO.C,SW29*%
X275915000Y-73460000D03*
X288842000Y-70920000D03*
%TD*%
%TO.C,SW9*%
X80915000Y-65460000D03*
X93842000Y-62920000D03*
%TD*%
%TO.C,SW19*%
X118915000Y-104460000D03*
X131842000Y-101920000D03*
%TD*%
%TO.C,SW3*%
X80915000Y-46460000D03*
X93842000Y-43920000D03*
%TD*%
%TO.C,SW27*%
X199915000Y-49760000D03*
X212842000Y-47220000D03*
%TD*%
%TO.C,SW11*%
X118915000Y-66460000D03*
X131842000Y-63920000D03*
%TD*%
%TO.C,SW38*%
X218915000Y-85460000D03*
X231842000Y-82920000D03*
%TD*%
%TO.C,SW37*%
X237915000Y-80960000D03*
X250842000Y-78420000D03*
%TD*%
%TO.C,SW26*%
X218915000Y-47460000D03*
X231842000Y-44920000D03*
%TD*%
%TO.C,SW41*%
X199915000Y-106760000D03*
X212842000Y-104220000D03*
%TD*%
%TO.C,SW31*%
X237915000Y-61960000D03*
X250842000Y-59420000D03*
%TD*%
%TO.C,SW1*%
X42915000Y-56760000D03*
X55842000Y-54220000D03*
%TD*%
%TO.C,SW4*%
X99915000Y-42960000D03*
X112842000Y-40420000D03*
%TD*%
%TO.C,SW40*%
X218915000Y-104460000D03*
X231842000Y-101920000D03*
%TD*%
%TO.C,SW2*%
X61915000Y-54460000D03*
X74842000Y-51920000D03*
%TD*%
%TO.C,SW13*%
X42915000Y-94760000D03*
X55842000Y-92220000D03*
%TD*%
%TO.C,SW35*%
X275915000Y-92460000D03*
X288842000Y-89920000D03*
%TD*%
%TO.C,SW10*%
X99915000Y-61960000D03*
X112842000Y-59420000D03*
%TD*%
%TO.C,SW21*%
X156915000Y-109060000D03*
X169842000Y-106520000D03*
%TD*%
%TO.C,SW22*%
X294915000Y-56760000D03*
X307842000Y-54220000D03*
%TD*%
%TO.C,SW6*%
X137915000Y-49760000D03*
X150842000Y-47220000D03*
%TD*%
%TO.C,SW34*%
X294915000Y-94760000D03*
X307842000Y-92220000D03*
%TD*%
%TO.C,SW42*%
X180915000Y-109060000D03*
X193842000Y-106520000D03*
%TD*%
%TO.C,SW8*%
X61915000Y-73460000D03*
X74842000Y-70920000D03*
%TD*%
%TO.C,SW30*%
X256915000Y-65460000D03*
X269842000Y-62920000D03*
%TD*%
%TO.C,SW15*%
X80915000Y-84460000D03*
X93842000Y-81920000D03*
%TD*%
%TO.C,SW17*%
X118915000Y-85460000D03*
X131842000Y-82920000D03*
%TD*%
%TO.C,SW23*%
X275915000Y-54460000D03*
X288842000Y-51920000D03*
%TD*%
%TO.C,SW32*%
X218915000Y-66460000D03*
X231842000Y-63920000D03*
%TD*%
%TO.C,SW14*%
X61915000Y-92460000D03*
X74842000Y-89920000D03*
%TD*%
%TO.C,SW24*%
X256915000Y-46460000D03*
X269842000Y-43920000D03*
%TD*%
%TO.C,SW39*%
X199915000Y-87760000D03*
X212842000Y-85220000D03*
%TD*%
%TO.C,SW16*%
X99915000Y-80960000D03*
X112842000Y-78420000D03*
%TD*%
%TO.C,SW33*%
X199915000Y-68760000D03*
X212842000Y-66220000D03*
%TD*%
D11*
%TO.C,D35*%
X281300000Y-99000000D03*
D12*
X284700000Y-99000000D03*
%TD*%
D11*
%TO.C,D36*%
X262300000Y-91000000D03*
D12*
X265700000Y-91000000D03*
%TD*%
D11*
%TO.C,D24*%
X262300000Y-53000000D03*
D12*
X265700000Y-53000000D03*
%TD*%
D11*
%TO.C,D27*%
X205300000Y-56300000D03*
D12*
X208700000Y-56300000D03*
%TD*%
D11*
%TO.C,D5*%
X124300000Y-54000000D03*
D12*
X127700000Y-54000000D03*
%TD*%
D11*
%TO.C,D20*%
X143300000Y-113300000D03*
D12*
X146700000Y-113300000D03*
%TD*%
D11*
%TO.C,D42*%
X186300000Y-115600000D03*
D12*
X189700000Y-115600000D03*
%TD*%
D11*
%TO.C,D19*%
X124300000Y-111000000D03*
D12*
X127700000Y-111000000D03*
%TD*%
D11*
%TO.C,D34*%
X300300000Y-101300000D03*
D12*
X303700000Y-101300000D03*
%TD*%
D11*
%TO.C,D14*%
X67300000Y-99000000D03*
D12*
X70700000Y-99000000D03*
%TD*%
D11*
%TO.C,D15*%
X86300000Y-91000000D03*
D12*
X89700000Y-91000000D03*
%TD*%
D11*
%TO.C,D39*%
X205300000Y-94300000D03*
D12*
X208700000Y-94300000D03*
%TD*%
D11*
%TO.C,D40*%
X224300000Y-111000000D03*
D12*
X227700000Y-111000000D03*
%TD*%
D11*
%TO.C,D4*%
X105300000Y-49500000D03*
D12*
X108700000Y-49500000D03*
%TD*%
D11*
%TO.C,D18*%
X143300000Y-94300000D03*
D12*
X146700000Y-94300000D03*
%TD*%
D11*
%TO.C,D9*%
X86300000Y-72000000D03*
D12*
X89700000Y-72000000D03*
%TD*%
D11*
%TO.C,D10*%
X105300000Y-68500000D03*
D12*
X108700000Y-68500000D03*
%TD*%
D11*
%TO.C,D32*%
X224300000Y-73000000D03*
D12*
X227700000Y-73000000D03*
%TD*%
D11*
%TO.C,D28*%
X300300000Y-82300000D03*
D12*
X303700000Y-82300000D03*
%TD*%
D11*
%TO.C,D30*%
X262300000Y-72000000D03*
D12*
X265700000Y-72000000D03*
%TD*%
D11*
%TO.C,D16*%
X105300000Y-87500000D03*
D12*
X108700000Y-87500000D03*
%TD*%
D11*
%TO.C,D8*%
X67300000Y-80000000D03*
D12*
X70700000Y-80000000D03*
%TD*%
D11*
%TO.C,D11*%
X124300000Y-73000000D03*
D12*
X127700000Y-73000000D03*
%TD*%
D11*
%TO.C,D38*%
X224300000Y-92000000D03*
D12*
X227700000Y-92000000D03*
%TD*%
D11*
%TO.C,D29*%
X281300000Y-80000000D03*
D12*
X284700000Y-80000000D03*
%TD*%
D11*
%TO.C,D31*%
X243300000Y-68500000D03*
D12*
X246700000Y-68500000D03*
%TD*%
D11*
%TO.C,D41*%
X205300000Y-113300000D03*
D12*
X208700000Y-113300000D03*
%TD*%
D11*
%TO.C,D7*%
X48300000Y-82300000D03*
D12*
X51700000Y-82300000D03*
%TD*%
D11*
%TO.C,D23*%
X281300000Y-61000000D03*
D12*
X284700000Y-61000000D03*
%TD*%
D11*
%TO.C,D1*%
X48300000Y-63300000D03*
D12*
X51700000Y-63300000D03*
%TD*%
D11*
%TO.C,D22*%
X300300000Y-63300000D03*
D12*
X303700000Y-63300000D03*
%TD*%
D11*
%TO.C,D17*%
X124300000Y-92000000D03*
D12*
X127700000Y-92000000D03*
%TD*%
D11*
%TO.C,D37*%
X243300000Y-87500000D03*
D12*
X246700000Y-87500000D03*
%TD*%
D11*
%TO.C,D26*%
X224300000Y-54000000D03*
D12*
X227700000Y-54000000D03*
%TD*%
D11*
%TO.C,D25*%
X243300000Y-49500000D03*
D12*
X246700000Y-49500000D03*
%TD*%
D11*
%TO.C,D2*%
X67300000Y-61000000D03*
D12*
X70700000Y-61000000D03*
%TD*%
D11*
%TO.C,D3*%
X86300000Y-53000000D03*
D12*
X89700000Y-53000000D03*
%TD*%
D11*
%TO.C,D21*%
X162300000Y-115600000D03*
D12*
X165700000Y-115600000D03*
%TD*%
D11*
%TO.C,D12*%
X143300000Y-75300000D03*
D12*
X146700000Y-75300000D03*
%TD*%
D11*
%TO.C,D13*%
X48300000Y-101300000D03*
D12*
X51700000Y-101300000D03*
%TD*%
D11*
%TO.C,D33*%
X205300000Y-75300000D03*
D12*
X208700000Y-75300000D03*
%TD*%
D11*
%TO.C,D6*%
X143300000Y-56300000D03*
D12*
X146700000Y-56300000D03*
%TD*%
M02*
