M48
; DRILL file {KiCad 9.0.7} date 2026-02-08T19:38:23+0300
; FORMAT={-:-/ absolute / metric / decimal}
; #@! TF.CreationDate,2026-02-08T19:38:23+03:00
; #@! TF.GenerationSoftware,Kicad,Pcbnew,9.0.7
; #@! TF.FileFunction,Plated,1,2,PTH
FMAT,2
METRIC
; #@! TA.AperFunction,Plated,PTH,ViaDrill
T1C0.400
; #@! TA.AperFunction,Plated,PTH,ComponentDrill
T2C0.500
; #@! TA.AperFunction,Plated,PTH,ComponentDrill
T3C0.813
; #@! TA.AperFunction,Plated,PTH,ComponentDrill
T4C0.860
; #@! TA.AperFunction,Plated,PTH,ComponentDrill
T5C0.900
%
G90
G05
T1
X42.915Y-56.76
X42.915Y-75.76
X42.915Y-83.95
X42.915Y-94.76
X61.915Y-54.46
X61.915Y-73.46
X61.915Y-82.374
X61.915Y-92.46
X80.915Y-46.46
X80.915Y-65.46
X80.915Y-79.1
X80.915Y-84.46
X98.74Y-52.633
X99.12Y-51.601
X99.914Y-72.05
X99.915Y-42.96
X99.915Y-61.96
X99.915Y-80.96
X99.915Y-89.45
X118.915Y-47.46
X118.915Y-66.46
X118.915Y-76.725
X118.915Y-85.46
X118.915Y-93.925
X137.915Y-49.76
X137.915Y-68.76
X137.915Y-79.475
X137.915Y-87.76
X137.915Y-96.225
X152.0Y-57.15
X152.0Y-76.2
X152.0Y-95.5
X152.0Y-114.5
X158.0Y-62.2
X158.0Y-64.7
X158.0Y-67.3
X158.0Y-69.8
X162.0Y-57.12
X163.0Y-59.66
X165.0Y-52.04
X186.0Y-58.39
X187.0Y-60.93
X189.0Y-52.04
X198.963Y-114.5
X199.15Y-57.2
X199.45Y-95.5
X199.706Y-115.425
X199.915Y-49.76
X199.915Y-68.76
X199.915Y-79.5
X199.915Y-87.76
X218.915Y-47.46
X218.915Y-66.46
X218.915Y-76.95
X218.915Y-85.46
X218.915Y-93.924
X237.898Y-72.717
X237.915Y-42.96
X237.915Y-61.96
X237.915Y-80.96
X237.919Y-89.737
X255.7Y-55.9
X256.106Y-54.924
X256.915Y-46.46
X256.915Y-65.46
X256.915Y-74.85
X256.915Y-84.46
X275.915Y-54.46
X275.915Y-73.46
X275.915Y-92.46
X275.926Y-79.305
X294.915Y-56.76
X294.915Y-75.76
X294.915Y-81.924
X294.915Y-94.76
T2
X164.9Y-87.76
X164.9Y-92.84
X187.1Y-87.76
X187.1Y-92.84
T3
X156.38Y-48.23
X156.38Y-50.77
X156.38Y-53.31
X156.38Y-55.85
X156.38Y-60.93
X156.38Y-66.01
X156.38Y-68.55
X156.38Y-73.63
X156.38Y-76.17
X158.92Y-81.25
X161.46Y-81.25
X164.0Y-81.25
X166.54Y-81.25
X168.9Y-87.76
X168.9Y-90.3
X168.9Y-92.84
X169.08Y-81.25
X171.62Y-48.23
X171.62Y-50.77
X171.62Y-53.31
X171.62Y-55.85
X171.62Y-58.39
X171.62Y-60.93
X171.62Y-63.47
X171.62Y-66.01
X171.62Y-68.55
X171.62Y-71.09
X171.62Y-73.63
X171.62Y-76.17
X180.38Y-48.23
X180.38Y-50.77
X180.38Y-53.31
X180.38Y-55.85
X180.38Y-60.93
X180.38Y-66.01
X180.38Y-68.55
X180.38Y-73.63
X180.38Y-76.17
X182.92Y-81.25
X183.1Y-87.76
X183.1Y-90.3
X183.1Y-92.84
X185.46Y-81.25
X188.0Y-81.25
X190.54Y-81.25
X193.08Y-81.25
X195.62Y-48.23
X195.62Y-50.77
X195.62Y-53.31
X195.62Y-55.85
X195.62Y-58.39
X195.62Y-60.93
X195.62Y-63.47
X195.62Y-66.01
X195.62Y-68.55
X195.62Y-71.09
X195.62Y-73.63
X195.62Y-76.17
T4
X156.38Y-58.39
X156.38Y-63.47
X156.38Y-71.09
X180.38Y-58.39
X180.38Y-63.47
X180.38Y-71.09
T5
X109.551Y-96.285
X112.051Y-100.615
X112.149Y-94.785
X114.649Y-99.115
X237.351Y-99.115
X239.851Y-94.785
X239.949Y-100.615
X242.449Y-96.285
M30
