M48
; DRILL file {KiCad 9.0.7} date 2026-02-08T19:38:23+0300
; FORMAT={-:-/ absolute / metric / decimal}
; #@! TF.CreationDate,2026-02-08T19:38:23+03:00
; #@! TF.GenerationSoftware,Kicad,Pcbnew,9.0.7
; #@! TF.FileFunction,NonPlated,1,2,NPTH
FMAT,2
METRIC
; #@! TA.AperFunction,NonPlated,NPTH,ComponentDrill
T1C0.500
; #@! TA.AperFunction,NonPlated,NPTH,ComponentDrill
T2C0.900
; #@! TA.AperFunction,NonPlated,NPTH,ComponentDrill
T3C1.900
; #@! TA.AperFunction,NonPlated,NPTH,ComponentDrill
T4C2.000
; #@! TA.AperFunction,NonPlated,NPTH,ComponentDrill
T5C3.000
; #@! TA.AperFunction,NonPlated,NPTH,ComponentDrill
T6C3.400
; #@! TA.AperFunction,NonPlated,NPTH,ComponentDrill
T7C4.100
%
G90
G05
T1
X58.75Y-106.9
X59.5Y-106.9
X60.25Y-106.9
X64.25Y-47.4
X65.0Y-47.4
X65.75Y-47.4
X107.0Y-29.0
X107.0Y-29.8
X107.0Y-30.6
X107.0Y-31.4
X107.0Y-32.2
X107.0Y-33.0
X107.0Y-33.8
X145.0Y-123.3
X145.0Y-124.1
X145.0Y-124.9
X145.0Y-125.7
X145.0Y-126.5
X145.0Y-127.3
X145.0Y-128.1
X163.25Y-42.7
X163.25Y-121.2
X164.0Y-42.7
X164.0Y-121.2
X164.75Y-42.7
X164.75Y-121.2
X187.25Y-42.7
X187.25Y-121.2
X188.0Y-42.7
X188.0Y-121.2
X188.75Y-42.7
X188.75Y-121.2
X207.0Y-123.3
X207.0Y-124.1
X207.0Y-124.9
X207.0Y-125.7
X207.0Y-126.5
X207.0Y-127.3
X207.0Y-128.1
X245.0Y-29.0
X245.0Y-29.8
X245.0Y-30.6
X245.0Y-31.4
X245.0Y-32.2
X245.0Y-33.0
X245.0Y-33.8
X286.25Y-47.4
X287.0Y-47.4
X287.75Y-47.4
X291.75Y-106.9
X292.5Y-106.9
X293.25Y-106.9
T2
X158.22Y-125.7
X160.76Y-125.7
X163.3Y-125.7
X165.84Y-125.7
X168.38Y-125.7
X170.92Y-125.7
X173.46Y-125.7
X176.0Y-125.7
X178.54Y-125.7
X181.08Y-125.7
X183.62Y-125.7
X186.16Y-125.7
X188.7Y-125.7
X191.24Y-125.7
X193.78Y-125.7
T3
X44.92Y-59.3
X44.92Y-78.3
X44.92Y-97.3
X55.08Y-59.3
X55.08Y-78.3
X55.08Y-97.3
X63.92Y-57.0
X63.92Y-76.0
X63.92Y-95.0
X74.08Y-57.0
X74.08Y-76.0
X74.08Y-95.0
X82.92Y-49.0
X82.92Y-68.0
X82.92Y-87.0
X93.08Y-49.0
X93.08Y-68.0
X93.08Y-87.0
X101.92Y-45.5
X101.92Y-64.5
X101.92Y-83.5
X112.08Y-45.5
X112.08Y-64.5
X112.08Y-83.5
X120.92Y-50.0
X120.92Y-69.0
X120.92Y-88.0
X120.92Y-107.0
X131.08Y-50.0
X131.08Y-69.0
X131.08Y-88.0
X131.08Y-107.0
X139.92Y-52.3
X139.92Y-71.3
X139.92Y-90.3
X139.92Y-109.3
X150.08Y-52.3
X150.08Y-71.3
X150.08Y-90.3
X150.08Y-109.3
X158.92Y-111.6
X169.08Y-111.6
X182.92Y-111.6
X193.08Y-111.6
X201.92Y-52.3
X201.92Y-71.3
X201.92Y-90.3
X201.92Y-109.3
X212.08Y-52.3
X212.08Y-71.3
X212.08Y-90.3
X212.08Y-109.3
X220.92Y-50.0
X220.92Y-69.0
X220.92Y-88.0
X220.92Y-107.0
X231.08Y-50.0
X231.08Y-69.0
X231.08Y-88.0
X231.08Y-107.0
X239.92Y-45.5
X239.92Y-64.5
X239.92Y-83.5
X250.08Y-45.5
X250.08Y-64.5
X250.08Y-83.5
X258.92Y-49.0
X258.92Y-68.0
X258.92Y-87.0
X269.08Y-49.0
X269.08Y-68.0
X269.08Y-87.0
X277.92Y-57.0
X277.92Y-76.0
X277.92Y-95.0
X288.08Y-57.0
X288.08Y-76.0
X288.08Y-95.0
X296.92Y-59.3
X296.92Y-78.3
X296.92Y-97.3
X307.08Y-59.3
X307.08Y-78.3
X307.08Y-97.3
T4
X45.8Y-33.4
X45.8Y-123.7
X157.8Y-98.7
X170.3Y-98.7
X181.7Y-98.7
X194.2Y-98.7
X306.2Y-33.4
X306.2Y-123.7
T5
X46.19Y-56.76
X46.19Y-75.76
X46.19Y-94.76
X52.54Y-54.22
X52.54Y-73.22
X52.54Y-92.22
X65.19Y-54.46
X65.19Y-73.46
X65.19Y-92.46
X71.54Y-51.92
X71.54Y-70.92
X71.54Y-89.92
X84.19Y-46.46
X84.19Y-65.46
X84.19Y-84.46
X90.54Y-43.92
X90.54Y-62.92
X90.54Y-81.92
X103.19Y-42.96
X103.19Y-61.96
X103.19Y-80.96
X109.54Y-40.42
X109.54Y-59.42
X109.54Y-78.42
X122.19Y-47.46
X122.19Y-66.46
X122.19Y-85.46
X122.19Y-104.46
X128.54Y-44.92
X128.54Y-63.92
X128.54Y-82.92
X128.54Y-101.92
X141.19Y-49.76
X141.19Y-68.76
X141.19Y-87.76
X141.19Y-106.76
X147.54Y-47.22
X147.54Y-66.22
X147.54Y-85.22
X147.54Y-104.22
X160.19Y-109.06
X166.54Y-106.52
X184.19Y-109.06
X190.54Y-106.52
X203.19Y-49.76
X203.19Y-68.76
X203.19Y-87.76
X203.19Y-106.76
X209.54Y-47.22
X209.54Y-66.22
X209.54Y-85.22
X209.54Y-104.22
X222.19Y-47.46
X222.19Y-66.46
X222.19Y-85.46
X222.19Y-104.46
X228.54Y-44.92
X228.54Y-63.92
X228.54Y-82.92
X228.54Y-101.92
X241.19Y-42.96
X241.19Y-61.96
X241.19Y-80.96
X247.54Y-40.42
X247.54Y-59.42
X247.54Y-78.42
X260.19Y-46.46
X260.19Y-65.46
X260.19Y-84.46
X266.54Y-43.92
X266.54Y-62.92
X266.54Y-81.92
X279.19Y-54.46
X279.19Y-73.46
X279.19Y-92.46
X285.54Y-51.92
X285.54Y-70.92
X285.54Y-89.92
X298.19Y-56.76
X298.19Y-75.76
X298.19Y-94.76
X304.54Y-54.22
X304.54Y-73.22
X304.54Y-92.22
T6
X59.5Y-67.65
X59.5Y-86.65
X135.5Y-60.65
X135.5Y-98.65
X216.5Y-60.65
X216.5Y-98.65
X292.5Y-67.65
X292.5Y-86.65
T7
X50.0Y-59.3
X50.0Y-78.3
X50.0Y-97.3
X69.0Y-57.0
X69.0Y-76.0
X69.0Y-95.0
X88.0Y-49.0
X88.0Y-68.0
X88.0Y-87.0
X107.0Y-45.5
X107.0Y-64.5
X107.0Y-83.5
X126.0Y-50.0
X126.0Y-69.0
X126.0Y-88.0
X126.0Y-107.0
X145.0Y-52.3
X145.0Y-71.3
X145.0Y-90.3
X145.0Y-109.3
X164.0Y-111.6
X188.0Y-111.6
X207.0Y-52.3
X207.0Y-71.3
X207.0Y-90.3
X207.0Y-109.3
X226.0Y-50.0
X226.0Y-69.0
X226.0Y-88.0
X226.0Y-107.0
X245.0Y-45.5
X245.0Y-64.5
X245.0Y-83.5
X264.0Y-49.0
X264.0Y-68.0
X264.0Y-87.0
X283.0Y-57.0
X283.0Y-76.0
X283.0Y-95.0
X302.0Y-59.3
X302.0Y-78.3
X302.0Y-97.3
T6
X162.7Y-98.7G85X165.3Y-98.7
G05
X186.7Y-98.7G85X189.3Y-98.7
G05
M30
