%TF.GenerationSoftware,KiCad,Pcbnew,9.0.7*%
%TF.CreationDate,2026-02-08T19:38:27+03:00*%
%TF.ProjectId,mriya-pcb-1.1.3,6d726979-612d-4706-9362-2d312e312e33,1.1.3*%
%TF.SameCoordinates,Original*%
%TF.FileFunction,Soldermask,Bot*%
%TF.FilePolarity,Negative*%
%FSLAX46Y46*%
G04 Gerber Fmt 4.6, Leading zero omitted, Abs format (unit mm)*
G04 Created by KiCad (PCBNEW 9.0.7) date 2026-02-08 19:38:27*
%MOMM*%
%LPD*%
G01*
G04 APERTURE LIST*
G04 Aperture macros list*
%AMRoundRect*
0 Rectangle with rounded corners*
0 $1 Rounding radius*
0 $2 $3 $4 $5 $6 $7 $8 $9 X,Y pos of 4 corners*
0 Add a 4 corners polygon primitive as box body*
4,1,4,$2,$3,$4,$5,$6,$7,$8,$9,$2,$3,0*
0 Add four circle primitives for the rounded corners*
1,1,$1+$1,$2,$3*
1,1,$1+$1,$4,$5*
1,1,$1+$1,$6,$7*
1,1,$1+$1,$8,$9*
0 Add four rect primitives between the rounded corners*
20,1,$1+$1,$2,$3,$4,$5,0*
20,1,$1+$1,$4,$5,$6,$7,0*
20,1,$1+$1,$6,$7,$8,$9,0*
20,1,$1+$1,$8,$9,$2,$3,0*%
G04 Aperture macros list end*
%ADD10C,0.000000*%
%ADD11C,0.500000*%
%ADD12C,3.400000*%
%ADD13C,1.300000*%
%ADD14RoundRect,0.325000X-0.325000X-0.325000X0.325000X-0.325000X0.325000X0.325000X-0.325000X0.325000X0*%
%ADD15C,1.900000*%
%ADD16C,3.000000*%
%ADD17C,4.100000*%
%ADD18RoundRect,0.400000X0.875000X0.850000X-0.875000X0.850000X-0.875000X-0.850000X0.875000X-0.850000X0*%
%ADD19C,2.000000*%
%ADD20RoundRect,0.300000X-0.300000X0.300000X-0.300000X-0.300000X0.300000X-0.300000X0.300000X0.300000X0*%
%ADD21C,1.200000*%
%ADD22O,6.000000X3.400000*%
%ADD23RoundRect,0.300000X0.300000X-0.300000X0.300000X0.300000X-0.300000X0.300000X-0.300000X-0.300000X0*%
%ADD24C,0.900000*%
%ADD25RoundRect,0.300000X-0.300000X-0.300000X0.300000X-0.300000X0.300000X0.300000X-0.300000X0.300000X0*%
%ADD26C,1.250000*%
G04 APERTURE END LIST*
D10*
%TO.C,Bird_Logo_B.Mask_Right*%
G36*
X248994687Y-93191673D02*
G01*
X248993517Y-93195488D01*
X248991633Y-93201401D01*
X248989138Y-93209096D01*
X248986135Y-93218257D01*
X248982724Y-93228571D01*
X248979781Y-93237410D01*
X248958848Y-93303611D01*
X248940559Y-93368908D01*
X248924917Y-93433287D01*
X248911921Y-93496731D01*
X248901574Y-93559226D01*
X248893875Y-93620755D01*
X248888827Y-93681304D01*
X248886429Y-93740856D01*
X248886684Y-93799396D01*
X248889591Y-93856910D01*
X248895152Y-93913381D01*
X248903368Y-93968794D01*
X248914240Y-94023133D01*
X248926806Y-94072948D01*
X248940543Y-94118165D01*
X248956254Y-94162300D01*
X248973844Y-94205183D01*
X248993214Y-94246643D01*
X249014267Y-94286509D01*
X249036905Y-94324611D01*
X249061031Y-94360778D01*
X249086547Y-94394839D01*
X249113356Y-94426624D01*
X249141361Y-94455962D01*
X249150654Y-94464895D01*
X249160754Y-94474395D01*
X249146898Y-94482441D01*
X249138483Y-94487488D01*
X249128390Y-94493794D01*
X249117272Y-94500932D01*
X249105783Y-94508473D01*
X249094574Y-94515989D01*
X249084299Y-94523052D01*
X249076026Y-94528932D01*
X249036268Y-94559597D01*
X248997991Y-94592686D01*
X248961254Y-94628120D01*
X248926114Y-94665822D01*
X248892630Y-94705713D01*
X248860859Y-94747715D01*
X248830860Y-94791751D01*
X248802691Y-94837742D01*
X248776411Y-94885610D01*
X248752077Y-94935278D01*
X248729747Y-94986668D01*
X248724151Y-95000621D01*
X248716588Y-95020406D01*
X248709142Y-95041024D01*
X248701991Y-95061923D01*
X248695310Y-95082553D01*
X248689278Y-95102364D01*
X248684071Y-95120805D01*
X248679867Y-95137326D01*
X248679012Y-95141007D01*
X248677574Y-95147088D01*
X248676258Y-95152205D01*
X248675256Y-95155637D01*
X248674898Y-95156561D01*
X248674237Y-95156084D01*
X248673273Y-95153273D01*
X248672158Y-95148637D01*
X248671455Y-95145050D01*
X248655112Y-95048127D01*
X248641473Y-94952150D01*
X248630537Y-94857123D01*
X248622306Y-94763048D01*
X248616778Y-94669931D01*
X248613954Y-94577774D01*
X248613835Y-94486580D01*
X248616419Y-94396354D01*
X248621708Y-94307099D01*
X248629701Y-94218818D01*
X248640399Y-94131515D01*
X248646166Y-94092086D01*
X248658431Y-94019398D01*
X248672723Y-93947523D01*
X248688992Y-93876614D01*
X248707186Y-93806821D01*
X248727251Y-93738296D01*
X248749137Y-93671189D01*
X248772791Y-93605652D01*
X248798161Y-93541835D01*
X248825196Y-93479890D01*
X248853842Y-93419968D01*
X248884049Y-93362219D01*
X248915765Y-93306796D01*
X248917402Y-93304067D01*
X248923421Y-93294215D01*
X248930444Y-93282973D01*
X248937847Y-93271322D01*
X248945008Y-93260247D01*
X248950104Y-93252518D01*
X248955337Y-93244764D01*
X248961025Y-93236492D01*
X248966938Y-93228023D01*
X248972841Y-93219679D01*
X248978502Y-93211782D01*
X248983690Y-93204654D01*
X248988171Y-93198618D01*
X248991712Y-93193995D01*
X248994083Y-93191108D01*
X248995043Y-93190270D01*
X248994687Y-93191673D01*
G37*
G36*
X247339276Y-90843740D02*
G01*
X247378495Y-90844781D01*
X247416221Y-90846393D01*
X247435971Y-90847514D01*
X247520622Y-90854028D01*
X247604139Y-90862968D01*
X247686474Y-90874316D01*
X247767576Y-90888058D01*
X247847395Y-90904177D01*
X247925882Y-90922658D01*
X248002987Y-90943484D01*
X248078661Y-90966641D01*
X248152853Y-90992111D01*
X248225513Y-91019879D01*
X248296593Y-91049930D01*
X248366043Y-91082247D01*
X248433811Y-91116814D01*
X248499850Y-91153616D01*
X248564109Y-91192636D01*
X248608633Y-91221685D01*
X248618470Y-91228308D01*
X248627366Y-91234333D01*
X248635599Y-91239962D01*
X248643451Y-91245397D01*
X248651202Y-91250840D01*
X248659131Y-91256494D01*
X248667519Y-91262559D01*
X248676647Y-91269240D01*
X248686795Y-91276736D01*
X248698242Y-91285252D01*
X248711270Y-91294988D01*
X248726159Y-91306146D01*
X248735251Y-91312970D01*
X248791036Y-91354521D01*
X248845153Y-91394153D01*
X248897884Y-91432059D01*
X248949514Y-91468434D01*
X249000326Y-91503472D01*
X249050604Y-91537368D01*
X249100631Y-91570317D01*
X249150690Y-91602511D01*
X249201065Y-91634147D01*
X249226618Y-91649913D01*
X249285579Y-91685499D01*
X249344070Y-91719650D01*
X249401950Y-91752293D01*
X249459077Y-91783357D01*
X249515307Y-91812772D01*
X249570499Y-91840465D01*
X249624510Y-91866365D01*
X249677197Y-91890401D01*
X249728419Y-91912502D01*
X249778032Y-91932597D01*
X249825895Y-91950613D01*
X249830215Y-91952167D01*
X249841815Y-91956254D01*
X249853597Y-91960278D01*
X249865238Y-91964141D01*
X249876415Y-91967743D01*
X249886803Y-91970985D01*
X249896079Y-91973768D01*
X249903920Y-91975992D01*
X249910001Y-91977559D01*
X249913999Y-91978368D01*
X249915574Y-91978343D01*
X249916529Y-91976978D01*
X249918782Y-91973656D01*
X249922037Y-91968814D01*
X249925998Y-91962892D01*
X249927889Y-91960057D01*
X249948799Y-91930271D01*
X249972035Y-91900075D01*
X249997181Y-91869933D01*
X250023823Y-91840312D01*
X250051545Y-91811678D01*
X250079932Y-91784496D01*
X250101460Y-91765300D01*
X250119679Y-91750151D01*
X250139509Y-91734693D01*
X250160289Y-91719395D01*
X250181360Y-91704724D01*
X250202062Y-91691150D01*
X250221736Y-91679141D01*
X250227338Y-91675915D01*
X250265042Y-91656024D01*
X250302980Y-91638993D01*
X250341141Y-91624824D01*
X250379515Y-91613517D01*
X250418093Y-91605075D01*
X250456863Y-91599499D01*
X250495818Y-91596790D01*
X250534945Y-91596950D01*
X250574237Y-91599980D01*
X250613682Y-91605882D01*
X250647482Y-91613197D01*
X250686392Y-91624200D01*
X250725309Y-91637989D01*
X250764253Y-91654577D01*
X250803245Y-91673975D01*
X250842306Y-91696193D01*
X250881459Y-91721245D01*
X250920722Y-91749140D01*
X250960118Y-91779892D01*
X250978924Y-91795538D01*
X251000295Y-91813669D01*
X250976766Y-91814660D01*
X250938451Y-91817651D01*
X250900596Y-91823342D01*
X250863405Y-91831672D01*
X250827082Y-91842579D01*
X250791834Y-91856001D01*
X250757864Y-91871878D01*
X250725872Y-91889845D01*
X250694510Y-91910724D01*
X250664890Y-91933882D01*
X250637033Y-91959294D01*
X250610957Y-91986934D01*
X250586681Y-92016777D01*
X250564224Y-92048799D01*
X250543607Y-92082973D01*
X250524847Y-92119275D01*
X250507964Y-92157679D01*
X250493606Y-92196306D01*
X250483732Y-92227272D01*
X250475004Y-92258963D01*
X250467364Y-92291703D01*
X250460749Y-92325817D01*
X250455099Y-92361626D01*
X250450353Y-92399456D01*
X250446450Y-92439629D01*
X250445326Y-92453599D01*
X250443162Y-92478040D01*
X250440541Y-92500262D01*
X250437359Y-92520902D01*
X250433511Y-92540599D01*
X250428889Y-92559991D01*
X250425739Y-92571609D01*
X250416202Y-92601974D01*
X250404907Y-92631660D01*
X250391776Y-92660764D01*
X250376729Y-92689382D01*
X250359689Y-92717609D01*
X250340575Y-92745541D01*
X250319308Y-92773274D01*
X250295810Y-92800904D01*
X250270002Y-92828527D01*
X250241805Y-92856238D01*
X250211139Y-92884134D01*
X250177926Y-92912310D01*
X250142087Y-92940862D01*
X250103542Y-92969886D01*
X250088489Y-92980828D01*
X250078526Y-92987963D01*
X250067987Y-92995424D01*
X250056699Y-93003327D01*
X250044493Y-93011790D01*
X250031196Y-93020929D01*
X250016639Y-93030859D01*
X250000651Y-93041698D01*
X249983059Y-93053561D01*
X249963694Y-93066565D01*
X249942384Y-93080826D01*
X249918959Y-93096461D01*
X249900719Y-93108613D01*
X249875562Y-93125383D01*
X249852602Y-93140739D01*
X249831620Y-93154831D01*
X249812398Y-93167811D01*
X249794720Y-93179831D01*
X249778366Y-93191042D01*
X249763120Y-93201595D01*
X249748763Y-93211643D01*
X249735078Y-93221335D01*
X249721846Y-93230824D01*
X249708850Y-93240262D01*
X249695872Y-93249799D01*
X249682694Y-93259587D01*
X249671764Y-93267773D01*
X249621721Y-93306479D01*
X249574463Y-93345322D01*
X249529896Y-93384405D01*
X249487928Y-93423832D01*
X249448465Y-93463704D01*
X249411415Y-93504126D01*
X249376684Y-93545201D01*
X249344179Y-93587030D01*
X249313808Y-93629719D01*
X249285477Y-93673369D01*
X249259094Y-93718085D01*
X249249038Y-93736342D01*
X249223174Y-93787236D01*
X249199605Y-93839860D01*
X249178328Y-93894214D01*
X249159345Y-93950303D01*
X249142652Y-94008128D01*
X249128251Y-94067691D01*
X249116139Y-94128996D01*
X249113707Y-94143165D01*
X249108422Y-94174820D01*
X249106767Y-94165468D01*
X249103914Y-94148161D01*
X249101023Y-94128352D01*
X249098131Y-94106414D01*
X249095279Y-94082722D01*
X249092507Y-94057650D01*
X249089855Y-94031572D01*
X249087362Y-94004862D01*
X249085069Y-93977894D01*
X249083014Y-93951042D01*
X249081360Y-93926619D01*
X249079032Y-93883851D01*
X249077335Y-93839558D01*
X249076269Y-93794352D01*
X249075837Y-93748846D01*
X249076038Y-93703652D01*
X249076874Y-93659383D01*
X249078348Y-93616653D01*
X249080459Y-93576073D01*
X249080627Y-93573381D01*
X249086383Y-93498688D01*
X249094068Y-93426118D01*
X249103685Y-93355657D01*
X249115237Y-93287288D01*
X249128729Y-93220997D01*
X249144164Y-93156767D01*
X249161546Y-93094584D01*
X249180879Y-93034431D01*
X249202166Y-92976294D01*
X249225410Y-92920156D01*
X249247637Y-92872090D01*
X249251933Y-92863242D01*
X249255779Y-92855293D01*
X249259007Y-92848595D01*
X249261445Y-92843501D01*
X249262927Y-92840361D01*
X249263309Y-92839495D01*
X249261970Y-92839264D01*
X249258344Y-92838924D01*
X249253017Y-92838523D01*
X249247841Y-92838188D01*
X249181158Y-92832868D01*
X249114055Y-92824999D01*
X249046856Y-92814651D01*
X248979887Y-92801899D01*
X248913473Y-92786812D01*
X248847940Y-92769463D01*
X248783613Y-92749924D01*
X248720816Y-92728267D01*
X248680575Y-92712930D01*
X248621670Y-92688265D01*
X248564927Y-92661801D01*
X248510361Y-92633551D01*
X248457990Y-92603528D01*
X248407829Y-92571745D01*
X248359897Y-92538215D01*
X248314210Y-92502951D01*
X248270784Y-92465967D01*
X248229636Y-92427274D01*
X248190783Y-92386886D01*
X248154242Y-92344815D01*
X248120030Y-92301076D01*
X248088163Y-92255680D01*
X248087021Y-92253957D01*
X248075331Y-92236017D01*
X248064890Y-92219384D01*
X248055264Y-92203307D01*
X248046018Y-92187037D01*
X248036719Y-92169823D01*
X248026931Y-92150914D01*
X248023737Y-92144604D01*
X248012759Y-92122352D01*
X248002633Y-92100782D01*
X247993195Y-92079469D01*
X247984283Y-92057989D01*
X247975732Y-92035914D01*
X247967380Y-92012820D01*
X247959063Y-91988280D01*
X247950617Y-91961870D01*
X247941880Y-91933162D01*
X247939513Y-91925180D01*
X247918215Y-91857662D01*
X247894527Y-91791381D01*
X247868502Y-91726441D01*
X247840193Y-91662948D01*
X247809653Y-91601005D01*
X247776934Y-91540717D01*
X247742090Y-91482189D01*
X247705173Y-91425526D01*
X247666236Y-91370831D01*
X247646857Y-91345324D01*
X247604625Y-91293166D01*
X247560493Y-91243084D01*
X247514524Y-91195131D01*
X247466778Y-91149361D01*
X247417319Y-91105827D01*
X247366209Y-91064585D01*
X247313508Y-91025687D01*
X247259281Y-90989188D01*
X247203588Y-90955142D01*
X247187167Y-90945732D01*
X247164974Y-90933544D01*
X247141715Y-90921403D01*
X247117919Y-90909557D01*
X247094115Y-90898255D01*
X247070833Y-90887746D01*
X247048602Y-90878277D01*
X247027952Y-90870098D01*
X247019064Y-90866814D01*
X247012263Y-90864335D01*
X247006585Y-90862208D01*
X247002502Y-90860613D01*
X247000487Y-90859733D01*
X247000359Y-90859625D01*
X247002012Y-90859234D01*
X247006128Y-90858614D01*
X247012307Y-90857810D01*
X247020148Y-90856869D01*
X247029251Y-90855835D01*
X247039214Y-90854755D01*
X247049638Y-90853675D01*
X247060120Y-90852639D01*
X247068345Y-90851868D01*
X247102881Y-90849100D01*
X247139707Y-90846856D01*
X247178282Y-90845145D01*
X247218068Y-90843971D01*
X247258522Y-90843341D01*
X247299105Y-90843262D01*
X247339276Y-90843740D01*
G37*
%TO.C,Bird_Logo_B.Mask_Left*%
G36*
X103005917Y-93191108D02*
G01*
X103008288Y-93193995D01*
X103011829Y-93198618D01*
X103016310Y-93204654D01*
X103021498Y-93211782D01*
X103027159Y-93219679D01*
X103033062Y-93228023D01*
X103038975Y-93236492D01*
X103044663Y-93244764D01*
X103049896Y-93252518D01*
X103054992Y-93260247D01*
X103062153Y-93271322D01*
X103069556Y-93282973D01*
X103076579Y-93294215D01*
X103082598Y-93304067D01*
X103084235Y-93306796D01*
X103115951Y-93362219D01*
X103146158Y-93419968D01*
X103174804Y-93479890D01*
X103201839Y-93541835D01*
X103227209Y-93605652D01*
X103250863Y-93671189D01*
X103272749Y-93738296D01*
X103292814Y-93806821D01*
X103311008Y-93876614D01*
X103327277Y-93947523D01*
X103341569Y-94019398D01*
X103353834Y-94092086D01*
X103359601Y-94131515D01*
X103370299Y-94218818D01*
X103378292Y-94307099D01*
X103383581Y-94396354D01*
X103386165Y-94486580D01*
X103386046Y-94577774D01*
X103383222Y-94669931D01*
X103377694Y-94763048D01*
X103369463Y-94857123D01*
X103358527Y-94952150D01*
X103344888Y-95048127D01*
X103328545Y-95145050D01*
X103327842Y-95148637D01*
X103326727Y-95153273D01*
X103325763Y-95156084D01*
X103325102Y-95156561D01*
X103324744Y-95155637D01*
X103323742Y-95152205D01*
X103322426Y-95147088D01*
X103320988Y-95141007D01*
X103320133Y-95137326D01*
X103315929Y-95120805D01*
X103310722Y-95102364D01*
X103304690Y-95082553D01*
X103298009Y-95061923D01*
X103290858Y-95041024D01*
X103283412Y-95020406D01*
X103275849Y-95000621D01*
X103270253Y-94986668D01*
X103247923Y-94935278D01*
X103223589Y-94885610D01*
X103197309Y-94837742D01*
X103169140Y-94791751D01*
X103139141Y-94747715D01*
X103107370Y-94705713D01*
X103073886Y-94665822D01*
X103038746Y-94628120D01*
X103002009Y-94592686D01*
X102963732Y-94559597D01*
X102923974Y-94528932D01*
X102915701Y-94523052D01*
X102905426Y-94515989D01*
X102894217Y-94508473D01*
X102882728Y-94500932D01*
X102871610Y-94493794D01*
X102861517Y-94487488D01*
X102853102Y-94482441D01*
X102839246Y-94474395D01*
X102849346Y-94464895D01*
X102858639Y-94455962D01*
X102886644Y-94426624D01*
X102913453Y-94394839D01*
X102938969Y-94360778D01*
X102963095Y-94324611D01*
X102985733Y-94286509D01*
X103006786Y-94246643D01*
X103026156Y-94205183D01*
X103043746Y-94162300D01*
X103059457Y-94118165D01*
X103073194Y-94072948D01*
X103085760Y-94023133D01*
X103096632Y-93968794D01*
X103104848Y-93913381D01*
X103110409Y-93856910D01*
X103113316Y-93799396D01*
X103113571Y-93740856D01*
X103111173Y-93681304D01*
X103106125Y-93620755D01*
X103098426Y-93559226D01*
X103088079Y-93496731D01*
X103075083Y-93433287D01*
X103059441Y-93368908D01*
X103041152Y-93303611D01*
X103020219Y-93237410D01*
X103017276Y-93228571D01*
X103013865Y-93218257D01*
X103010862Y-93209096D01*
X103008367Y-93201401D01*
X103006483Y-93195488D01*
X103005313Y-93191673D01*
X103004957Y-93190270D01*
X103005917Y-93191108D01*
G37*
G36*
X104741478Y-90843341D02*
G01*
X104781932Y-90843971D01*
X104821718Y-90845145D01*
X104860293Y-90846856D01*
X104897119Y-90849100D01*
X104931655Y-90851868D01*
X104939880Y-90852639D01*
X104950362Y-90853675D01*
X104960786Y-90854755D01*
X104970749Y-90855835D01*
X104979852Y-90856869D01*
X104987693Y-90857810D01*
X104993872Y-90858614D01*
X104997988Y-90859234D01*
X104999641Y-90859625D01*
X104999513Y-90859733D01*
X104997498Y-90860613D01*
X104993415Y-90862208D01*
X104987737Y-90864335D01*
X104980936Y-90866814D01*
X104972048Y-90870098D01*
X104951398Y-90878277D01*
X104929167Y-90887746D01*
X104905885Y-90898255D01*
X104882081Y-90909557D01*
X104858285Y-90921403D01*
X104835026Y-90933544D01*
X104812833Y-90945732D01*
X104796412Y-90955142D01*
X104740719Y-90989188D01*
X104686492Y-91025687D01*
X104633791Y-91064585D01*
X104582681Y-91105827D01*
X104533222Y-91149361D01*
X104485476Y-91195131D01*
X104439507Y-91243084D01*
X104395375Y-91293166D01*
X104353143Y-91345324D01*
X104333764Y-91370831D01*
X104294827Y-91425526D01*
X104257910Y-91482189D01*
X104223066Y-91540717D01*
X104190347Y-91601005D01*
X104159807Y-91662948D01*
X104131498Y-91726441D01*
X104105473Y-91791381D01*
X104081785Y-91857662D01*
X104060487Y-91925180D01*
X104058120Y-91933162D01*
X104049383Y-91961870D01*
X104040937Y-91988280D01*
X104032620Y-92012820D01*
X104024268Y-92035914D01*
X104015717Y-92057989D01*
X104006805Y-92079469D01*
X103997367Y-92100782D01*
X103987241Y-92122352D01*
X103976263Y-92144604D01*
X103973069Y-92150914D01*
X103963281Y-92169823D01*
X103953982Y-92187037D01*
X103944736Y-92203307D01*
X103935110Y-92219384D01*
X103924669Y-92236017D01*
X103912979Y-92253957D01*
X103911837Y-92255680D01*
X103879970Y-92301076D01*
X103845758Y-92344815D01*
X103809217Y-92386886D01*
X103770364Y-92427274D01*
X103729216Y-92465967D01*
X103685790Y-92502951D01*
X103640103Y-92538215D01*
X103592171Y-92571745D01*
X103542010Y-92603528D01*
X103489639Y-92633551D01*
X103435073Y-92661801D01*
X103378330Y-92688265D01*
X103319425Y-92712930D01*
X103279184Y-92728267D01*
X103216387Y-92749924D01*
X103152060Y-92769463D01*
X103086527Y-92786812D01*
X103020113Y-92801899D01*
X102953144Y-92814651D01*
X102885945Y-92824999D01*
X102818842Y-92832868D01*
X102752159Y-92838188D01*
X102746983Y-92838523D01*
X102741656Y-92838924D01*
X102738030Y-92839264D01*
X102736691Y-92839495D01*
X102737073Y-92840361D01*
X102738555Y-92843501D01*
X102740993Y-92848595D01*
X102744221Y-92855293D01*
X102748067Y-92863242D01*
X102752363Y-92872090D01*
X102774590Y-92920156D01*
X102797834Y-92976294D01*
X102819121Y-93034431D01*
X102838454Y-93094584D01*
X102855836Y-93156767D01*
X102871271Y-93220997D01*
X102884763Y-93287288D01*
X102896315Y-93355657D01*
X102905932Y-93426118D01*
X102913617Y-93498688D01*
X102919373Y-93573381D01*
X102919541Y-93576073D01*
X102921652Y-93616653D01*
X102923126Y-93659383D01*
X102923962Y-93703652D01*
X102924163Y-93748846D01*
X102923731Y-93794352D01*
X102922665Y-93839558D01*
X102920968Y-93883851D01*
X102918640Y-93926619D01*
X102916986Y-93951042D01*
X102914931Y-93977894D01*
X102912638Y-94004862D01*
X102910145Y-94031572D01*
X102907493Y-94057650D01*
X102904721Y-94082722D01*
X102901869Y-94106414D01*
X102898977Y-94128352D01*
X102896086Y-94148161D01*
X102893233Y-94165468D01*
X102891578Y-94174820D01*
X102886293Y-94143165D01*
X102883861Y-94128996D01*
X102871749Y-94067691D01*
X102857348Y-94008128D01*
X102840655Y-93950303D01*
X102821672Y-93894214D01*
X102800395Y-93839860D01*
X102776826Y-93787236D01*
X102750962Y-93736342D01*
X102740906Y-93718085D01*
X102714523Y-93673369D01*
X102686192Y-93629719D01*
X102655821Y-93587030D01*
X102623316Y-93545201D01*
X102588585Y-93504126D01*
X102551535Y-93463704D01*
X102512072Y-93423832D01*
X102470104Y-93384405D01*
X102425537Y-93345322D01*
X102378279Y-93306479D01*
X102328236Y-93267773D01*
X102317306Y-93259587D01*
X102304128Y-93249799D01*
X102291150Y-93240262D01*
X102278154Y-93230824D01*
X102264922Y-93221335D01*
X102251237Y-93211643D01*
X102236880Y-93201595D01*
X102221634Y-93191042D01*
X102205280Y-93179831D01*
X102187602Y-93167811D01*
X102168380Y-93154831D01*
X102147398Y-93140739D01*
X102124438Y-93125383D01*
X102099281Y-93108613D01*
X102081041Y-93096461D01*
X102057616Y-93080826D01*
X102036306Y-93066565D01*
X102016941Y-93053561D01*
X101999349Y-93041698D01*
X101983361Y-93030859D01*
X101968804Y-93020929D01*
X101955507Y-93011790D01*
X101943301Y-93003327D01*
X101932013Y-92995424D01*
X101921474Y-92987963D01*
X101911511Y-92980828D01*
X101896458Y-92969886D01*
X101857913Y-92940862D01*
X101822074Y-92912310D01*
X101788861Y-92884134D01*
X101758195Y-92856238D01*
X101729998Y-92828527D01*
X101704190Y-92800904D01*
X101680692Y-92773274D01*
X101659425Y-92745541D01*
X101640311Y-92717609D01*
X101623271Y-92689382D01*
X101608224Y-92660764D01*
X101595093Y-92631660D01*
X101583798Y-92601974D01*
X101574261Y-92571609D01*
X101571111Y-92559991D01*
X101566489Y-92540599D01*
X101562641Y-92520902D01*
X101559459Y-92500262D01*
X101556838Y-92478040D01*
X101554674Y-92453599D01*
X101553550Y-92439629D01*
X101549647Y-92399456D01*
X101544901Y-92361626D01*
X101539251Y-92325817D01*
X101532636Y-92291703D01*
X101524996Y-92258963D01*
X101516268Y-92227272D01*
X101506394Y-92196306D01*
X101492036Y-92157679D01*
X101475153Y-92119275D01*
X101456393Y-92082973D01*
X101435776Y-92048799D01*
X101413319Y-92016777D01*
X101389043Y-91986934D01*
X101362967Y-91959294D01*
X101335110Y-91933882D01*
X101305490Y-91910724D01*
X101274128Y-91889845D01*
X101242136Y-91871878D01*
X101208166Y-91856001D01*
X101172918Y-91842579D01*
X101136595Y-91831672D01*
X101099404Y-91823342D01*
X101061549Y-91817651D01*
X101023234Y-91814660D01*
X100999705Y-91813669D01*
X101021076Y-91795538D01*
X101039882Y-91779892D01*
X101079278Y-91749140D01*
X101118541Y-91721245D01*
X101157694Y-91696193D01*
X101196755Y-91673975D01*
X101235747Y-91654577D01*
X101274691Y-91637989D01*
X101313608Y-91624200D01*
X101352518Y-91613197D01*
X101386318Y-91605882D01*
X101425763Y-91599980D01*
X101465055Y-91596950D01*
X101504182Y-91596790D01*
X101543137Y-91599499D01*
X101581907Y-91605075D01*
X101620485Y-91613517D01*
X101658859Y-91624824D01*
X101697020Y-91638993D01*
X101734958Y-91656024D01*
X101772662Y-91675915D01*
X101778264Y-91679141D01*
X101797938Y-91691150D01*
X101818640Y-91704724D01*
X101839711Y-91719395D01*
X101860491Y-91734693D01*
X101880321Y-91750151D01*
X101898540Y-91765300D01*
X101920068Y-91784496D01*
X101948455Y-91811678D01*
X101976177Y-91840312D01*
X102002819Y-91869933D01*
X102027965Y-91900075D01*
X102051201Y-91930271D01*
X102072111Y-91960057D01*
X102074002Y-91962892D01*
X102077963Y-91968814D01*
X102081218Y-91973656D01*
X102083471Y-91976978D01*
X102084426Y-91978343D01*
X102086001Y-91978368D01*
X102089999Y-91977559D01*
X102096080Y-91975992D01*
X102103921Y-91973768D01*
X102113197Y-91970985D01*
X102123585Y-91967743D01*
X102134762Y-91964141D01*
X102146403Y-91960278D01*
X102158185Y-91956254D01*
X102169785Y-91952167D01*
X102174105Y-91950613D01*
X102221968Y-91932597D01*
X102271581Y-91912502D01*
X102322803Y-91890401D01*
X102375490Y-91866365D01*
X102429501Y-91840465D01*
X102484693Y-91812772D01*
X102540923Y-91783357D01*
X102598050Y-91752293D01*
X102655930Y-91719650D01*
X102714421Y-91685499D01*
X102773382Y-91649913D01*
X102798935Y-91634147D01*
X102849310Y-91602511D01*
X102899369Y-91570317D01*
X102949396Y-91537368D01*
X102999674Y-91503472D01*
X103050486Y-91468434D01*
X103102116Y-91432059D01*
X103154847Y-91394153D01*
X103208964Y-91354521D01*
X103264749Y-91312970D01*
X103273841Y-91306146D01*
X103288730Y-91294988D01*
X103301758Y-91285252D01*
X103313205Y-91276736D01*
X103323353Y-91269240D01*
X103332481Y-91262559D01*
X103340869Y-91256494D01*
X103348798Y-91250840D01*
X103356549Y-91245397D01*
X103364401Y-91239962D01*
X103372634Y-91234333D01*
X103381530Y-91228308D01*
X103391367Y-91221685D01*
X103435891Y-91192636D01*
X103500150Y-91153616D01*
X103566189Y-91116814D01*
X103633957Y-91082247D01*
X103703407Y-91049930D01*
X103774487Y-91019879D01*
X103847147Y-90992111D01*
X103921339Y-90966641D01*
X103997013Y-90943484D01*
X104074118Y-90922658D01*
X104152605Y-90904177D01*
X104232424Y-90888058D01*
X104313526Y-90874316D01*
X104395861Y-90862968D01*
X104479378Y-90854028D01*
X104564029Y-90847514D01*
X104583779Y-90846393D01*
X104621505Y-90844781D01*
X104660724Y-90843740D01*
X104700895Y-90843262D01*
X104741478Y-90843341D01*
G37*
%TO.C,MRIYA_Logo_B.Mask*%
G36*
X255159970Y-95300000D02*
G01*
X255159970Y-96194640D01*
X254930475Y-96194640D01*
X254700981Y-96194640D01*
X254700981Y-95300000D01*
X254700981Y-94405360D01*
X254930475Y-94405360D01*
X255159970Y-94405360D01*
X255159970Y-95300000D01*
G37*
G36*
X253288903Y-94825888D02*
G01*
X253297447Y-94840370D01*
X253340680Y-94913537D01*
X253381511Y-94982460D01*
X253419255Y-95045993D01*
X253453225Y-95102991D01*
X253482736Y-95152307D01*
X253507103Y-95192795D01*
X253525640Y-95223310D01*
X253537662Y-95242704D01*
X253542483Y-95249832D01*
X253542892Y-95249642D01*
X253549343Y-95240915D01*
X253562826Y-95220132D01*
X253582660Y-95188413D01*
X253608163Y-95146880D01*
X253638654Y-95096655D01*
X253673452Y-95038858D01*
X253711874Y-94974610D01*
X253753240Y-94905033D01*
X253796867Y-94831249D01*
X254045725Y-94409250D01*
X254291668Y-94407196D01*
X254324248Y-94406955D01*
X254381725Y-94406694D01*
X254432905Y-94406672D01*
X254475936Y-94406877D01*
X254508965Y-94407297D01*
X254530141Y-94407921D01*
X254537611Y-94408737D01*
X254537235Y-94409521D01*
X254530941Y-94420453D01*
X254517321Y-94443493D01*
X254496928Y-94477721D01*
X254470316Y-94522212D01*
X254438039Y-94576047D01*
X254400650Y-94638301D01*
X254358704Y-94708053D01*
X254312754Y-94784380D01*
X254263353Y-94866361D01*
X254211057Y-94953073D01*
X254156417Y-95043594D01*
X253775223Y-95674856D01*
X253775223Y-95934748D01*
X253775223Y-96194640D01*
X253545728Y-96194640D01*
X253316233Y-96194640D01*
X253316233Y-95934799D01*
X253316233Y-95674958D01*
X252961436Y-95088781D01*
X252918367Y-95017636D01*
X252866205Y-94931502D01*
X252816320Y-94849164D01*
X252769354Y-94771678D01*
X252725949Y-94700102D01*
X252686746Y-94635494D01*
X252652388Y-94578911D01*
X252623515Y-94531411D01*
X252600771Y-94494051D01*
X252584796Y-94467889D01*
X252576231Y-94453982D01*
X252545824Y-94405360D01*
X252793337Y-94405360D01*
X253040850Y-94405360D01*
X253288903Y-94825888D01*
G37*
G36*
X252533108Y-95456876D02*
G01*
X252571835Y-95549837D01*
X252609618Y-95640635D01*
X252645996Y-95728163D01*
X252680506Y-95811314D01*
X252712686Y-95888980D01*
X252742074Y-95960053D01*
X252768209Y-96023426D01*
X252790628Y-96077992D01*
X252808869Y-96122643D01*
X252822470Y-96156272D01*
X252830970Y-96177771D01*
X252833906Y-96186032D01*
X252832721Y-96187448D01*
X252822984Y-96189778D01*
X252802605Y-96191497D01*
X252770602Y-96192631D01*
X252725993Y-96193209D01*
X252667796Y-96193259D01*
X252595030Y-96192808D01*
X252356154Y-96190750D01*
X252275505Y-95986539D01*
X252194856Y-95782328D01*
X251818678Y-95782328D01*
X251442500Y-95782328D01*
X251361715Y-95986539D01*
X251280931Y-96190750D01*
X251037431Y-96192807D01*
X251035166Y-96192826D01*
X250967616Y-96193347D01*
X250914023Y-96193595D01*
X250872831Y-96193497D01*
X250842486Y-96192979D01*
X250821434Y-96191969D01*
X250808118Y-96190391D01*
X250800986Y-96188174D01*
X250798482Y-96185242D01*
X250799051Y-96181523D01*
X250804999Y-96166568D01*
X250816854Y-96137568D01*
X250833657Y-96096918D01*
X250854930Y-96045748D01*
X250880198Y-95985189D01*
X250908984Y-95916372D01*
X250940810Y-95840426D01*
X250975200Y-95758482D01*
X251011678Y-95671671D01*
X251049766Y-95581122D01*
X251088988Y-95487966D01*
X251117402Y-95420539D01*
X251561025Y-95420539D01*
X251561815Y-95424007D01*
X251566003Y-95426713D01*
X251575110Y-95428751D01*
X251590655Y-95430215D01*
X251614158Y-95431201D01*
X251647140Y-95431803D01*
X251691121Y-95432115D01*
X251747621Y-95432233D01*
X251818159Y-95432251D01*
X251863952Y-95432184D01*
X251922261Y-95431892D01*
X251974000Y-95431393D01*
X252017371Y-95430719D01*
X252050575Y-95429899D01*
X252071816Y-95428962D01*
X252079296Y-95427939D01*
X252078943Y-95426030D01*
X252074120Y-95411557D01*
X252064249Y-95385280D01*
X252050105Y-95349072D01*
X252032462Y-95304805D01*
X252012093Y-95254351D01*
X251989772Y-95199584D01*
X251966273Y-95142376D01*
X251942370Y-95084600D01*
X251918836Y-95028129D01*
X251896446Y-94974834D01*
X251875974Y-94926590D01*
X251858192Y-94885267D01*
X251843875Y-94852740D01*
X251833797Y-94830881D01*
X251828731Y-94821562D01*
X251813962Y-94806003D01*
X251804653Y-94821562D01*
X251800891Y-94829608D01*
X251791827Y-94850672D01*
X251778417Y-94882581D01*
X251761441Y-94923425D01*
X251741677Y-94971296D01*
X251719905Y-95024282D01*
X251696904Y-95080475D01*
X251673451Y-95137965D01*
X251650327Y-95194842D01*
X251628310Y-95249196D01*
X251608178Y-95299118D01*
X251590711Y-95342698D01*
X251576688Y-95378027D01*
X251566887Y-95403194D01*
X251562088Y-95416290D01*
X251561025Y-95420539D01*
X251117402Y-95420539D01*
X251128867Y-95393333D01*
X251168926Y-95298354D01*
X251208688Y-95204159D01*
X251247677Y-95111879D01*
X251285416Y-95022643D01*
X251321429Y-94937582D01*
X251355237Y-94857826D01*
X251386365Y-94784506D01*
X251414336Y-94718753D01*
X251438674Y-94661695D01*
X251458900Y-94614465D01*
X251474539Y-94578191D01*
X251485114Y-94554005D01*
X251490147Y-94543036D01*
X251502247Y-94522272D01*
X251542671Y-94472149D01*
X251592302Y-94432617D01*
X251648589Y-94405885D01*
X251648957Y-94405762D01*
X251705781Y-94391866D01*
X251770453Y-94384247D01*
X251838513Y-94382800D01*
X251905502Y-94387424D01*
X251966957Y-94398013D01*
X252018419Y-94414466D01*
X252027834Y-94419033D01*
X252061846Y-94442291D01*
X252096472Y-94474608D01*
X252127664Y-94511860D01*
X252151375Y-94549923D01*
X252153983Y-94555487D01*
X252162937Y-94575782D01*
X252176953Y-94608311D01*
X252195570Y-94651968D01*
X252218324Y-94705644D01*
X252244755Y-94768232D01*
X252274400Y-94838624D01*
X252306798Y-94915714D01*
X252341486Y-94998394D01*
X252378001Y-95085556D01*
X252415884Y-95176092D01*
X252454670Y-95268896D01*
X252493899Y-95362860D01*
X252521040Y-95427939D01*
X252533108Y-95456876D01*
G37*
G36*
X256736046Y-94406136D02*
G01*
X256787091Y-94406339D01*
X256829046Y-94406763D01*
X256863057Y-94407432D01*
X256890268Y-94408371D01*
X256911825Y-94409604D01*
X256928870Y-94411158D01*
X256942551Y-94413056D01*
X256954010Y-94415325D01*
X256964394Y-94417988D01*
X256974846Y-94421071D01*
X256976651Y-94421622D01*
X257011731Y-94434534D01*
X257038914Y-94450631D01*
X257065495Y-94474187D01*
X257070246Y-94478854D01*
X257080141Y-94488230D01*
X257088922Y-94496725D01*
X257096659Y-94505253D01*
X257103420Y-94514728D01*
X257109273Y-94526062D01*
X257114286Y-94540169D01*
X257118529Y-94557961D01*
X257122068Y-94580353D01*
X257124974Y-94608257D01*
X257127313Y-94642588D01*
X257129155Y-94684257D01*
X257130568Y-94734178D01*
X257131620Y-94793265D01*
X257132380Y-94862431D01*
X257132916Y-94942589D01*
X257133296Y-95034653D01*
X257133590Y-95139535D01*
X257133864Y-95258149D01*
X257134189Y-95391409D01*
X257136309Y-96194640D01*
X256906639Y-96194640D01*
X256676968Y-96194640D01*
X256676529Y-95523660D01*
X256676519Y-95509095D01*
X256676364Y-95383679D01*
X256676094Y-95273041D01*
X256675697Y-95176477D01*
X256675164Y-95093284D01*
X256674485Y-95022758D01*
X256673651Y-94964194D01*
X256672652Y-94916889D01*
X256671477Y-94880139D01*
X256670118Y-94853240D01*
X256668564Y-94835489D01*
X256666805Y-94826180D01*
X256666722Y-94825945D01*
X256653703Y-94802556D01*
X256635551Y-94783393D01*
X256634884Y-94782901D01*
X256628638Y-94778730D01*
X256621355Y-94775367D01*
X256611422Y-94772723D01*
X256597226Y-94770713D01*
X256577153Y-94769250D01*
X256549589Y-94768247D01*
X256512920Y-94767618D01*
X256465534Y-94767276D01*
X256405815Y-94767134D01*
X256332152Y-94767106D01*
X256266927Y-94767157D01*
X256197328Y-94767483D01*
X256140441Y-94768296D01*
X256094680Y-94769810D01*
X256058455Y-94772236D01*
X256030180Y-94775786D01*
X256008265Y-94780673D01*
X255991124Y-94787108D01*
X255977169Y-94795305D01*
X255964812Y-94805474D01*
X255952464Y-94817828D01*
X255932901Y-94843095D01*
X255918790Y-94873409D01*
X255909571Y-94911274D01*
X255904617Y-94959260D01*
X255903304Y-95019939D01*
X255904055Y-95055497D01*
X255909011Y-95113723D01*
X255919011Y-95159971D01*
X255934565Y-95196205D01*
X255956179Y-95224389D01*
X255969505Y-95236461D01*
X255985936Y-95247480D01*
X256005757Y-95256075D01*
X256030997Y-95262636D01*
X256063683Y-95267552D01*
X256105844Y-95271212D01*
X256159507Y-95274005D01*
X256226701Y-95276321D01*
X256236831Y-95276621D01*
X256291317Y-95278304D01*
X256333015Y-95279893D01*
X256364308Y-95281691D01*
X256387577Y-95283999D01*
X256405205Y-95287120D01*
X256419573Y-95291356D01*
X256433063Y-95297007D01*
X256448057Y-95304377D01*
X256477325Y-95321586D01*
X256500735Y-95343495D01*
X256515432Y-95371037D01*
X256523016Y-95407355D01*
X256525088Y-95455590D01*
X256525043Y-95463998D01*
X256523964Y-95496274D01*
X256520559Y-95519855D01*
X256513614Y-95540398D01*
X256501915Y-95563555D01*
X256493289Y-95577572D01*
X256472908Y-95605962D01*
X256447424Y-95637895D01*
X256420411Y-95668758D01*
X256419539Y-95669703D01*
X256400448Y-95690767D01*
X256372810Y-95721722D01*
X256338175Y-95760811D01*
X256298091Y-95806278D01*
X256254108Y-95856366D01*
X256207774Y-95909319D01*
X256160637Y-95963381D01*
X255959374Y-96194640D01*
X255674459Y-96194640D01*
X255389543Y-96194640D01*
X255675400Y-95908705D01*
X255695909Y-95888176D01*
X255749729Y-95834155D01*
X255799699Y-95783791D01*
X255844794Y-95738130D01*
X255883987Y-95698218D01*
X255916255Y-95665100D01*
X255940572Y-95639823D01*
X255955914Y-95623433D01*
X255961256Y-95616975D01*
X255955367Y-95614882D01*
X255936789Y-95612933D01*
X255908544Y-95611591D01*
X255873737Y-95611064D01*
X255865463Y-95611021D01*
X255787096Y-95606675D01*
X255720286Y-95594678D01*
X255662820Y-95574264D01*
X255612480Y-95544669D01*
X255567052Y-95505126D01*
X255529273Y-95458899D01*
X255491612Y-95391489D01*
X255462284Y-95311074D01*
X255441312Y-95217746D01*
X255428722Y-95111595D01*
X255424540Y-94992711D01*
X255424542Y-94990334D01*
X255428681Y-94885661D01*
X255440502Y-94789837D01*
X255459708Y-94704182D01*
X255486007Y-94630019D01*
X255519102Y-94568669D01*
X255553440Y-94524065D01*
X255595705Y-94485892D01*
X255647206Y-94455188D01*
X255660797Y-94448476D01*
X255676120Y-94441090D01*
X255690746Y-94434713D01*
X255705837Y-94429264D01*
X255722554Y-94424664D01*
X255742057Y-94420833D01*
X255765508Y-94417692D01*
X255794068Y-94415162D01*
X255828898Y-94413163D01*
X255871160Y-94411615D01*
X255922013Y-94410438D01*
X255982619Y-94409555D01*
X256054140Y-94408884D01*
X256137737Y-94408346D01*
X256234569Y-94407862D01*
X256345800Y-94407353D01*
X256418077Y-94407022D01*
X256516927Y-94406595D01*
X256602109Y-94406289D01*
X256674767Y-94406127D01*
X256736046Y-94406136D01*
G37*
G36*
X259505375Y-94393633D02*
G01*
X259557445Y-94401225D01*
X259584859Y-94407719D01*
X259650752Y-94430664D01*
X259703888Y-94461579D01*
X259744985Y-94500954D01*
X259774762Y-94549280D01*
X259792650Y-94588178D01*
X259794736Y-95395299D01*
X259796821Y-96202420D01*
X259571076Y-96202420D01*
X259345330Y-96202420D01*
X259345330Y-95565989D01*
X259345329Y-95554839D01*
X259345291Y-95439713D01*
X259345177Y-95339096D01*
X259344969Y-95252025D01*
X259344652Y-95177536D01*
X259344209Y-95114667D01*
X259343623Y-95062455D01*
X259342877Y-95019936D01*
X259341956Y-94986148D01*
X259340843Y-94960127D01*
X259339521Y-94940911D01*
X259337973Y-94927536D01*
X259336184Y-94919039D01*
X259334136Y-94914458D01*
X259328662Y-94907548D01*
X259320617Y-94903804D01*
X259309880Y-94912221D01*
X259309780Y-94912330D01*
X259304899Y-94922210D01*
X259295296Y-94945542D01*
X259281404Y-94981158D01*
X259263658Y-95027889D01*
X259242492Y-95084566D01*
X259218338Y-95150020D01*
X259191632Y-95223083D01*
X259162806Y-95302585D01*
X259132295Y-95387358D01*
X259100532Y-95476233D01*
X259068906Y-95564807D01*
X259037900Y-95651192D01*
X259008410Y-95732910D01*
X258980896Y-95808712D01*
X258955815Y-95877347D01*
X258933626Y-95937565D01*
X258914788Y-95988116D01*
X258899761Y-96027748D01*
X258889001Y-96055212D01*
X258882969Y-96069257D01*
X258878745Y-96077381D01*
X258846191Y-96128036D01*
X258808098Y-96165974D01*
X258761524Y-96193555D01*
X258703523Y-96213140D01*
X258692384Y-96214397D01*
X258668240Y-96215320D01*
X258635672Y-96215602D01*
X258598500Y-96215170D01*
X258565918Y-96214231D01*
X258533244Y-96212144D01*
X258508534Y-96208442D01*
X258487461Y-96202415D01*
X258465702Y-96193352D01*
X258449922Y-96185239D01*
X258409362Y-96154535D01*
X258373948Y-96111314D01*
X258342434Y-96054168D01*
X258337744Y-96043020D01*
X258327506Y-96016796D01*
X258312906Y-95978244D01*
X258294423Y-95928667D01*
X258272533Y-95869365D01*
X258247717Y-95801640D01*
X258220450Y-95726794D01*
X258191213Y-95646128D01*
X258160483Y-95560944D01*
X258128738Y-95472544D01*
X258101821Y-95397569D01*
X258071494Y-95313482D01*
X258042825Y-95234392D01*
X258016259Y-95161508D01*
X257992240Y-95096038D01*
X257971213Y-95039188D01*
X257953624Y-94992166D01*
X257939917Y-94956180D01*
X257930537Y-94932438D01*
X257925930Y-94922146D01*
X257915350Y-94909106D01*
X257906220Y-94903247D01*
X257905788Y-94903251D01*
X257901406Y-94903997D01*
X257897604Y-94906709D01*
X257894359Y-94912358D01*
X257891646Y-94921914D01*
X257889442Y-94936347D01*
X257887723Y-94956630D01*
X257886466Y-94983733D01*
X257885648Y-95018625D01*
X257885244Y-95062280D01*
X257885231Y-95115666D01*
X257885586Y-95179755D01*
X257886285Y-95255518D01*
X257887304Y-95343925D01*
X257888620Y-95445948D01*
X257890209Y-95562557D01*
X257890765Y-95603800D01*
X257891941Y-95699504D01*
X257892900Y-95790239D01*
X257893637Y-95874828D01*
X257894148Y-95952094D01*
X257894430Y-96020863D01*
X257894479Y-96079956D01*
X257894291Y-96128198D01*
X257893862Y-96164412D01*
X257893189Y-96187422D01*
X257892268Y-96196051D01*
X257891458Y-96196447D01*
X257878972Y-96198007D01*
X257853405Y-96199272D01*
X257816767Y-96200203D01*
X257771073Y-96200760D01*
X257718333Y-96200904D01*
X257660562Y-96200596D01*
X257435468Y-96198530D01*
X257435468Y-95397244D01*
X257435468Y-94595957D01*
X257455618Y-94553170D01*
X257467586Y-94529483D01*
X257492510Y-94491852D01*
X257522430Y-94462981D01*
X257561484Y-94438383D01*
X257589521Y-94425187D01*
X257658197Y-94403945D01*
X257736865Y-94392785D01*
X257824039Y-94391969D01*
X257861975Y-94394896D01*
X257940588Y-94409338D01*
X258008727Y-94434884D01*
X258067053Y-94471911D01*
X258116230Y-94520797D01*
X258156920Y-94581920D01*
X258157091Y-94582241D01*
X258163316Y-94596294D01*
X258174350Y-94623689D01*
X258189732Y-94663196D01*
X258208999Y-94713588D01*
X258231688Y-94773635D01*
X258257338Y-94842108D01*
X258285486Y-94917778D01*
X258315670Y-94999417D01*
X258347427Y-95085795D01*
X258380295Y-95175683D01*
X258383469Y-95184385D01*
X258415998Y-95273208D01*
X258447224Y-95357862D01*
X258476705Y-95437183D01*
X258503999Y-95510008D01*
X258528663Y-95575175D01*
X258550255Y-95631522D01*
X258568333Y-95677885D01*
X258582454Y-95713101D01*
X258592176Y-95736009D01*
X258597057Y-95745445D01*
X258610287Y-95754274D01*
X258627447Y-95752422D01*
X258643625Y-95735244D01*
X258647194Y-95727096D01*
X258655803Y-95705208D01*
X258668874Y-95670955D01*
X258685964Y-95625529D01*
X258706632Y-95570120D01*
X258730434Y-95505919D01*
X258756929Y-95434115D01*
X258785673Y-95355900D01*
X258816225Y-95272463D01*
X258848141Y-95184996D01*
X258875074Y-95111185D01*
X258906540Y-95025264D01*
X258936549Y-94943657D01*
X258964620Y-94867653D01*
X258990274Y-94798542D01*
X259013030Y-94737612D01*
X259032407Y-94686154D01*
X259047927Y-94645456D01*
X259059107Y-94616808D01*
X259065469Y-94601499D01*
X259087112Y-94562277D01*
X259130929Y-94507402D01*
X259185218Y-94460990D01*
X259247410Y-94425097D01*
X259314936Y-94401780D01*
X259333781Y-94398003D01*
X259387184Y-94392036D01*
X259446501Y-94390575D01*
X259505375Y-94393633D01*
G37*
G36*
X96359970Y-95300000D02*
G01*
X96359970Y-96194640D01*
X96130475Y-96194640D01*
X95900981Y-96194640D01*
X95900981Y-95300000D01*
X95900981Y-94405360D01*
X96130475Y-94405360D01*
X96359970Y-94405360D01*
X96359970Y-95300000D01*
G37*
G36*
X94488903Y-94825888D02*
G01*
X94497447Y-94840370D01*
X94540680Y-94913537D01*
X94581511Y-94982460D01*
X94619255Y-95045993D01*
X94653225Y-95102991D01*
X94682736Y-95152307D01*
X94707103Y-95192795D01*
X94725640Y-95223310D01*
X94737662Y-95242704D01*
X94742483Y-95249832D01*
X94742892Y-95249642D01*
X94749343Y-95240915D01*
X94762826Y-95220132D01*
X94782660Y-95188413D01*
X94808163Y-95146880D01*
X94838654Y-95096655D01*
X94873452Y-95038858D01*
X94911874Y-94974610D01*
X94953240Y-94905033D01*
X94996867Y-94831249D01*
X95245725Y-94409250D01*
X95491668Y-94407196D01*
X95524248Y-94406955D01*
X95581725Y-94406694D01*
X95632905Y-94406672D01*
X95675936Y-94406877D01*
X95708965Y-94407297D01*
X95730141Y-94407921D01*
X95737611Y-94408737D01*
X95737235Y-94409521D01*
X95730941Y-94420453D01*
X95717321Y-94443493D01*
X95696928Y-94477721D01*
X95670316Y-94522212D01*
X95638039Y-94576047D01*
X95600650Y-94638301D01*
X95558704Y-94708053D01*
X95512754Y-94784380D01*
X95463353Y-94866361D01*
X95411057Y-94953073D01*
X95356417Y-95043594D01*
X94975223Y-95674856D01*
X94975223Y-95934748D01*
X94975223Y-96194640D01*
X94745728Y-96194640D01*
X94516233Y-96194640D01*
X94516233Y-95934799D01*
X94516233Y-95674958D01*
X94161436Y-95088781D01*
X94118367Y-95017636D01*
X94066205Y-94931502D01*
X94016320Y-94849164D01*
X93969354Y-94771678D01*
X93925949Y-94700102D01*
X93886746Y-94635494D01*
X93852388Y-94578911D01*
X93823515Y-94531411D01*
X93800771Y-94494051D01*
X93784796Y-94467889D01*
X93776231Y-94453982D01*
X93745824Y-94405360D01*
X93993337Y-94405360D01*
X94240850Y-94405360D01*
X94488903Y-94825888D01*
G37*
G36*
X93733108Y-95456876D02*
G01*
X93771835Y-95549837D01*
X93809618Y-95640635D01*
X93845996Y-95728163D01*
X93880506Y-95811314D01*
X93912686Y-95888980D01*
X93942074Y-95960053D01*
X93968209Y-96023426D01*
X93990628Y-96077992D01*
X94008869Y-96122643D01*
X94022470Y-96156272D01*
X94030970Y-96177771D01*
X94033906Y-96186032D01*
X94032721Y-96187448D01*
X94022984Y-96189778D01*
X94002605Y-96191497D01*
X93970602Y-96192631D01*
X93925993Y-96193209D01*
X93867796Y-96193259D01*
X93795030Y-96192808D01*
X93556154Y-96190750D01*
X93475505Y-95986539D01*
X93394856Y-95782328D01*
X93018678Y-95782328D01*
X92642500Y-95782328D01*
X92561715Y-95986539D01*
X92480931Y-96190750D01*
X92237431Y-96192807D01*
X92235166Y-96192826D01*
X92167616Y-96193347D01*
X92114023Y-96193595D01*
X92072831Y-96193497D01*
X92042486Y-96192979D01*
X92021434Y-96191969D01*
X92008118Y-96190391D01*
X92000986Y-96188174D01*
X91998482Y-96185242D01*
X91999051Y-96181523D01*
X92004999Y-96166568D01*
X92016854Y-96137568D01*
X92033657Y-96096918D01*
X92054930Y-96045748D01*
X92080198Y-95985189D01*
X92108984Y-95916372D01*
X92140810Y-95840426D01*
X92175200Y-95758482D01*
X92211678Y-95671671D01*
X92249766Y-95581122D01*
X92288988Y-95487966D01*
X92317402Y-95420539D01*
X92761025Y-95420539D01*
X92761815Y-95424007D01*
X92766003Y-95426713D01*
X92775110Y-95428751D01*
X92790655Y-95430215D01*
X92814158Y-95431201D01*
X92847140Y-95431803D01*
X92891121Y-95432115D01*
X92947621Y-95432233D01*
X93018159Y-95432251D01*
X93063952Y-95432184D01*
X93122261Y-95431892D01*
X93174000Y-95431393D01*
X93217371Y-95430719D01*
X93250575Y-95429899D01*
X93271816Y-95428962D01*
X93279296Y-95427939D01*
X93278943Y-95426030D01*
X93274120Y-95411557D01*
X93264249Y-95385280D01*
X93250105Y-95349072D01*
X93232462Y-95304805D01*
X93212093Y-95254351D01*
X93189772Y-95199584D01*
X93166273Y-95142376D01*
X93142370Y-95084600D01*
X93118836Y-95028129D01*
X93096446Y-94974834D01*
X93075974Y-94926590D01*
X93058192Y-94885267D01*
X93043875Y-94852740D01*
X93033797Y-94830881D01*
X93028731Y-94821562D01*
X93013962Y-94806003D01*
X93004653Y-94821562D01*
X93000891Y-94829608D01*
X92991827Y-94850672D01*
X92978417Y-94882581D01*
X92961441Y-94923425D01*
X92941677Y-94971296D01*
X92919905Y-95024282D01*
X92896904Y-95080475D01*
X92873451Y-95137965D01*
X92850327Y-95194842D01*
X92828310Y-95249196D01*
X92808178Y-95299118D01*
X92790711Y-95342698D01*
X92776688Y-95378027D01*
X92766887Y-95403194D01*
X92762088Y-95416290D01*
X92761025Y-95420539D01*
X92317402Y-95420539D01*
X92328867Y-95393333D01*
X92368926Y-95298354D01*
X92408688Y-95204159D01*
X92447677Y-95111879D01*
X92485416Y-95022643D01*
X92521429Y-94937582D01*
X92555237Y-94857826D01*
X92586365Y-94784506D01*
X92614336Y-94718753D01*
X92638674Y-94661695D01*
X92658900Y-94614465D01*
X92674539Y-94578191D01*
X92685114Y-94554005D01*
X92690147Y-94543036D01*
X92702247Y-94522272D01*
X92742671Y-94472149D01*
X92792302Y-94432617D01*
X92848589Y-94405885D01*
X92848957Y-94405762D01*
X92905781Y-94391866D01*
X92970453Y-94384247D01*
X93038513Y-94382800D01*
X93105502Y-94387424D01*
X93166957Y-94398013D01*
X93218419Y-94414466D01*
X93227834Y-94419033D01*
X93261846Y-94442291D01*
X93296472Y-94474608D01*
X93327664Y-94511860D01*
X93351375Y-94549923D01*
X93353983Y-94555487D01*
X93362937Y-94575782D01*
X93376953Y-94608311D01*
X93395570Y-94651968D01*
X93418324Y-94705644D01*
X93444755Y-94768232D01*
X93474400Y-94838624D01*
X93506798Y-94915714D01*
X93541486Y-94998394D01*
X93578001Y-95085556D01*
X93615884Y-95176092D01*
X93654670Y-95268896D01*
X93693899Y-95362860D01*
X93721040Y-95427939D01*
X93733108Y-95456876D01*
G37*
G36*
X97936046Y-94406136D02*
G01*
X97987091Y-94406339D01*
X98029046Y-94406763D01*
X98063057Y-94407432D01*
X98090268Y-94408371D01*
X98111825Y-94409604D01*
X98128870Y-94411158D01*
X98142551Y-94413056D01*
X98154010Y-94415325D01*
X98164394Y-94417988D01*
X98174846Y-94421071D01*
X98176651Y-94421622D01*
X98211731Y-94434534D01*
X98238914Y-94450631D01*
X98265495Y-94474187D01*
X98270246Y-94478854D01*
X98280141Y-94488230D01*
X98288922Y-94496725D01*
X98296659Y-94505253D01*
X98303420Y-94514728D01*
X98309273Y-94526062D01*
X98314286Y-94540169D01*
X98318529Y-94557961D01*
X98322068Y-94580353D01*
X98324974Y-94608257D01*
X98327313Y-94642588D01*
X98329155Y-94684257D01*
X98330568Y-94734178D01*
X98331620Y-94793265D01*
X98332380Y-94862431D01*
X98332916Y-94942589D01*
X98333296Y-95034653D01*
X98333590Y-95139535D01*
X98333864Y-95258149D01*
X98334189Y-95391409D01*
X98336309Y-96194640D01*
X98106639Y-96194640D01*
X97876968Y-96194640D01*
X97876529Y-95523660D01*
X97876519Y-95509095D01*
X97876364Y-95383679D01*
X97876094Y-95273041D01*
X97875697Y-95176477D01*
X97875164Y-95093284D01*
X97874485Y-95022758D01*
X97873651Y-94964194D01*
X97872652Y-94916889D01*
X97871477Y-94880139D01*
X97870118Y-94853240D01*
X97868564Y-94835489D01*
X97866805Y-94826180D01*
X97866722Y-94825945D01*
X97853703Y-94802556D01*
X97835551Y-94783393D01*
X97834884Y-94782901D01*
X97828638Y-94778730D01*
X97821355Y-94775367D01*
X97811422Y-94772723D01*
X97797226Y-94770713D01*
X97777153Y-94769250D01*
X97749589Y-94768247D01*
X97712920Y-94767618D01*
X97665534Y-94767276D01*
X97605815Y-94767134D01*
X97532152Y-94767106D01*
X97466927Y-94767157D01*
X97397328Y-94767483D01*
X97340441Y-94768296D01*
X97294680Y-94769810D01*
X97258455Y-94772236D01*
X97230180Y-94775786D01*
X97208265Y-94780673D01*
X97191124Y-94787108D01*
X97177169Y-94795305D01*
X97164812Y-94805474D01*
X97152464Y-94817828D01*
X97132901Y-94843095D01*
X97118790Y-94873409D01*
X97109571Y-94911274D01*
X97104617Y-94959260D01*
X97103304Y-95019939D01*
X97104055Y-95055497D01*
X97109011Y-95113723D01*
X97119011Y-95159971D01*
X97134565Y-95196205D01*
X97156179Y-95224389D01*
X97169505Y-95236461D01*
X97185936Y-95247480D01*
X97205757Y-95256075D01*
X97230997Y-95262636D01*
X97263683Y-95267552D01*
X97305844Y-95271212D01*
X97359507Y-95274005D01*
X97426701Y-95276321D01*
X97436831Y-95276621D01*
X97491317Y-95278304D01*
X97533015Y-95279893D01*
X97564308Y-95281691D01*
X97587577Y-95283999D01*
X97605205Y-95287120D01*
X97619573Y-95291356D01*
X97633063Y-95297007D01*
X97648057Y-95304377D01*
X97677325Y-95321586D01*
X97700735Y-95343495D01*
X97715432Y-95371037D01*
X97723016Y-95407355D01*
X97725088Y-95455590D01*
X97725043Y-95463998D01*
X97723964Y-95496274D01*
X97720559Y-95519855D01*
X97713614Y-95540398D01*
X97701915Y-95563555D01*
X97693289Y-95577572D01*
X97672908Y-95605962D01*
X97647424Y-95637895D01*
X97620411Y-95668758D01*
X97619539Y-95669703D01*
X97600448Y-95690767D01*
X97572810Y-95721722D01*
X97538175Y-95760811D01*
X97498091Y-95806278D01*
X97454108Y-95856366D01*
X97407774Y-95909319D01*
X97360637Y-95963381D01*
X97159374Y-96194640D01*
X96874459Y-96194640D01*
X96589543Y-96194640D01*
X96875400Y-95908705D01*
X96895909Y-95888176D01*
X96949729Y-95834155D01*
X96999699Y-95783791D01*
X97044794Y-95738130D01*
X97083987Y-95698218D01*
X97116255Y-95665100D01*
X97140572Y-95639823D01*
X97155914Y-95623433D01*
X97161256Y-95616975D01*
X97155367Y-95614882D01*
X97136789Y-95612933D01*
X97108544Y-95611591D01*
X97073737Y-95611064D01*
X97065463Y-95611021D01*
X96987096Y-95606675D01*
X96920286Y-95594678D01*
X96862820Y-95574264D01*
X96812480Y-95544669D01*
X96767052Y-95505126D01*
X96729273Y-95458899D01*
X96691612Y-95391489D01*
X96662284Y-95311074D01*
X96641312Y-95217746D01*
X96628722Y-95111595D01*
X96624540Y-94992711D01*
X96624542Y-94990334D01*
X96628681Y-94885661D01*
X96640502Y-94789837D01*
X96659708Y-94704182D01*
X96686007Y-94630019D01*
X96719102Y-94568669D01*
X96753440Y-94524065D01*
X96795705Y-94485892D01*
X96847206Y-94455188D01*
X96860797Y-94448476D01*
X96876120Y-94441090D01*
X96890746Y-94434713D01*
X96905837Y-94429264D01*
X96922554Y-94424664D01*
X96942057Y-94420833D01*
X96965508Y-94417692D01*
X96994068Y-94415162D01*
X97028898Y-94413163D01*
X97071160Y-94411615D01*
X97122013Y-94410438D01*
X97182619Y-94409555D01*
X97254140Y-94408884D01*
X97337737Y-94408346D01*
X97434569Y-94407862D01*
X97545800Y-94407353D01*
X97618077Y-94407022D01*
X97716927Y-94406595D01*
X97802109Y-94406289D01*
X97874767Y-94406127D01*
X97936046Y-94406136D01*
G37*
G36*
X100705375Y-94393633D02*
G01*
X100757445Y-94401225D01*
X100784859Y-94407719D01*
X100850752Y-94430664D01*
X100903888Y-94461579D01*
X100944985Y-94500954D01*
X100974762Y-94549280D01*
X100992650Y-94588178D01*
X100994736Y-95395299D01*
X100996821Y-96202420D01*
X100771076Y-96202420D01*
X100545330Y-96202420D01*
X100545330Y-95565989D01*
X100545329Y-95554839D01*
X100545291Y-95439713D01*
X100545177Y-95339096D01*
X100544969Y-95252025D01*
X100544652Y-95177536D01*
X100544209Y-95114667D01*
X100543623Y-95062455D01*
X100542877Y-95019936D01*
X100541956Y-94986148D01*
X100540843Y-94960127D01*
X100539521Y-94940911D01*
X100537973Y-94927536D01*
X100536184Y-94919039D01*
X100534136Y-94914458D01*
X100528662Y-94907548D01*
X100520617Y-94903804D01*
X100509880Y-94912221D01*
X100509780Y-94912330D01*
X100504899Y-94922210D01*
X100495296Y-94945542D01*
X100481404Y-94981158D01*
X100463658Y-95027889D01*
X100442492Y-95084566D01*
X100418338Y-95150020D01*
X100391632Y-95223083D01*
X100362806Y-95302585D01*
X100332295Y-95387358D01*
X100300532Y-95476233D01*
X100268906Y-95564807D01*
X100237900Y-95651192D01*
X100208410Y-95732910D01*
X100180896Y-95808712D01*
X100155815Y-95877347D01*
X100133626Y-95937565D01*
X100114788Y-95988116D01*
X100099761Y-96027748D01*
X100089001Y-96055212D01*
X100082969Y-96069257D01*
X100078745Y-96077381D01*
X100046191Y-96128036D01*
X100008098Y-96165974D01*
X99961524Y-96193555D01*
X99903523Y-96213140D01*
X99892384Y-96214397D01*
X99868240Y-96215320D01*
X99835672Y-96215602D01*
X99798500Y-96215170D01*
X99765918Y-96214231D01*
X99733244Y-96212144D01*
X99708534Y-96208442D01*
X99687461Y-96202415D01*
X99665702Y-96193352D01*
X99649922Y-96185239D01*
X99609362Y-96154535D01*
X99573948Y-96111314D01*
X99542434Y-96054168D01*
X99537744Y-96043020D01*
X99527506Y-96016796D01*
X99512906Y-95978244D01*
X99494423Y-95928667D01*
X99472533Y-95869365D01*
X99447717Y-95801640D01*
X99420450Y-95726794D01*
X99391213Y-95646128D01*
X99360483Y-95560944D01*
X99328738Y-95472544D01*
X99301821Y-95397569D01*
X99271494Y-95313482D01*
X99242825Y-95234392D01*
X99216259Y-95161508D01*
X99192240Y-95096038D01*
X99171213Y-95039188D01*
X99153624Y-94992166D01*
X99139917Y-94956180D01*
X99130537Y-94932438D01*
X99125930Y-94922146D01*
X99115350Y-94909106D01*
X99106220Y-94903247D01*
X99105788Y-94903251D01*
X99101406Y-94903997D01*
X99097604Y-94906709D01*
X99094359Y-94912358D01*
X99091646Y-94921914D01*
X99089442Y-94936347D01*
X99087723Y-94956630D01*
X99086466Y-94983733D01*
X99085648Y-95018625D01*
X99085244Y-95062280D01*
X99085231Y-95115666D01*
X99085586Y-95179755D01*
X99086285Y-95255518D01*
X99087304Y-95343925D01*
X99088620Y-95445948D01*
X99090209Y-95562557D01*
X99090765Y-95603800D01*
X99091941Y-95699504D01*
X99092900Y-95790239D01*
X99093637Y-95874828D01*
X99094148Y-95952094D01*
X99094430Y-96020863D01*
X99094479Y-96079956D01*
X99094291Y-96128198D01*
X99093862Y-96164412D01*
X99093189Y-96187422D01*
X99092268Y-96196051D01*
X99091458Y-96196447D01*
X99078972Y-96198007D01*
X99053405Y-96199272D01*
X99016767Y-96200203D01*
X98971073Y-96200760D01*
X98918333Y-96200904D01*
X98860562Y-96200596D01*
X98635468Y-96198530D01*
X98635468Y-95397244D01*
X98635468Y-94595957D01*
X98655618Y-94553170D01*
X98667586Y-94529483D01*
X98692510Y-94491852D01*
X98722430Y-94462981D01*
X98761484Y-94438383D01*
X98789521Y-94425187D01*
X98858197Y-94403945D01*
X98936865Y-94392785D01*
X99024039Y-94391969D01*
X99061975Y-94394896D01*
X99140588Y-94409338D01*
X99208727Y-94434884D01*
X99267053Y-94471911D01*
X99316230Y-94520797D01*
X99356920Y-94581920D01*
X99357091Y-94582241D01*
X99363316Y-94596294D01*
X99374350Y-94623689D01*
X99389732Y-94663196D01*
X99408999Y-94713588D01*
X99431688Y-94773635D01*
X99457338Y-94842108D01*
X99485486Y-94917778D01*
X99515670Y-94999417D01*
X99547427Y-95085795D01*
X99580295Y-95175683D01*
X99583469Y-95184385D01*
X99615998Y-95273208D01*
X99647224Y-95357862D01*
X99676705Y-95437183D01*
X99703999Y-95510008D01*
X99728663Y-95575175D01*
X99750255Y-95631522D01*
X99768333Y-95677885D01*
X99782454Y-95713101D01*
X99792176Y-95736009D01*
X99797057Y-95745445D01*
X99810287Y-95754274D01*
X99827447Y-95752422D01*
X99843625Y-95735244D01*
X99847194Y-95727096D01*
X99855803Y-95705208D01*
X99868874Y-95670955D01*
X99885964Y-95625529D01*
X99906632Y-95570120D01*
X99930434Y-95505919D01*
X99956929Y-95434115D01*
X99985673Y-95355900D01*
X100016225Y-95272463D01*
X100048141Y-95184996D01*
X100075074Y-95111185D01*
X100106540Y-95025264D01*
X100136549Y-94943657D01*
X100164620Y-94867653D01*
X100190274Y-94798542D01*
X100213030Y-94737612D01*
X100232407Y-94686154D01*
X100247927Y-94645456D01*
X100259107Y-94616808D01*
X100265469Y-94601499D01*
X100287112Y-94562277D01*
X100330929Y-94507402D01*
X100385218Y-94460990D01*
X100447410Y-94425097D01*
X100514936Y-94401780D01*
X100533781Y-94398003D01*
X100587184Y-94392036D01*
X100646501Y-94390575D01*
X100705375Y-94393633D01*
G37*
%TD*%
D11*
%TO.C,MB4*%
X207000000Y-128100000D03*
X207000000Y-127300000D03*
X207000000Y-126500000D03*
X207000000Y-125700000D03*
X207000000Y-124900000D03*
X207000000Y-124100000D03*
X207000000Y-123300000D03*
%TD*%
%TO.C,MB-2mm-7*%
X164750000Y-121200000D03*
X164000000Y-121200000D03*
X163250000Y-121200000D03*
%TD*%
D12*
%TO.C,H7*%
X59500000Y-86650000D03*
%TD*%
D13*
%TO.C,U2*%
X195620000Y-48230000D03*
X195620000Y-50770000D03*
D14*
X195620000Y-53310000D03*
X195620000Y-55850000D03*
D13*
X195620000Y-58390000D03*
X195620000Y-60930000D03*
X195620000Y-63470000D03*
X195620000Y-66010000D03*
X195620000Y-68550000D03*
X195620000Y-71090000D03*
X195620000Y-73630000D03*
X195620000Y-76170000D03*
X180380000Y-76170000D03*
X180380000Y-73630000D03*
X180380000Y-71090000D03*
X180380000Y-68550000D03*
X180380000Y-66010000D03*
X180380000Y-63470000D03*
X180380000Y-60930000D03*
X180380000Y-58390000D03*
X180380000Y-55850000D03*
X180380000Y-53310000D03*
D14*
X180380000Y-50770000D03*
D13*
X180380000Y-48230000D03*
%TD*%
D15*
%TO.C,SW25*%
X239920000Y-45500000D03*
D16*
X241190000Y-42960000D03*
D17*
X245000000Y-45500000D03*
D16*
X247540000Y-40420000D03*
D15*
X250080000Y-45500000D03*
D18*
X237915000Y-42960000D03*
X250842000Y-40420000D03*
%TD*%
D15*
%TO.C,SW18*%
X139920000Y-90300000D03*
D16*
X141190000Y-87760000D03*
D17*
X145000000Y-90300000D03*
D16*
X147540000Y-85220000D03*
D15*
X150080000Y-90300000D03*
D18*
X137915000Y-87760000D03*
X150842000Y-85220000D03*
%TD*%
D15*
%TO.C,SW20*%
X139920000Y-109300000D03*
D16*
X141190000Y-106760000D03*
D17*
X145000000Y-109300000D03*
D16*
X147540000Y-104220000D03*
D15*
X150080000Y-109300000D03*
D18*
X137915000Y-106760000D03*
X150842000Y-104220000D03*
%TD*%
D15*
%TO.C,SW5*%
X120920000Y-50000000D03*
D16*
X122190000Y-47460000D03*
D17*
X126000000Y-50000000D03*
D16*
X128540000Y-44920000D03*
D15*
X131080000Y-50000000D03*
D18*
X118915000Y-47460000D03*
X131842000Y-44920000D03*
%TD*%
D15*
%TO.C,SW12*%
X139920000Y-71300000D03*
D16*
X141190000Y-68760000D03*
D17*
X145000000Y-71300000D03*
D16*
X147540000Y-66220000D03*
D15*
X150080000Y-71300000D03*
D18*
X137915000Y-68760000D03*
X150842000Y-66220000D03*
%TD*%
D12*
%TO.C,H8*%
X292500000Y-86650000D03*
%TD*%
D15*
%TO.C,SW28*%
X296920000Y-78300000D03*
D16*
X298190000Y-75760000D03*
D17*
X302000000Y-78300000D03*
D16*
X304540000Y-73220000D03*
D15*
X307080000Y-78300000D03*
D18*
X294915000Y-75760000D03*
X307842000Y-73220000D03*
%TD*%
D15*
%TO.C,SW7*%
X44920000Y-78300000D03*
D16*
X46190000Y-75760000D03*
D17*
X50000000Y-78300000D03*
D16*
X52540000Y-73220000D03*
D15*
X55080000Y-78300000D03*
D18*
X42915000Y-75760000D03*
X55842000Y-73220000D03*
%TD*%
D11*
%TO.C,MB3*%
X145000000Y-128100000D03*
X145000000Y-127300000D03*
X145000000Y-126500000D03*
X145000000Y-125700000D03*
X145000000Y-124900000D03*
X145000000Y-124100000D03*
X145000000Y-123300000D03*
%TD*%
D19*
%TO.C,H12*%
X306200000Y-123700000D03*
%TD*%
%TO.C,H1*%
X45800000Y-33400000D03*
%TD*%
%TO.C,MH4*%
X194200000Y-98700000D03*
%TD*%
D15*
%TO.C,SW36*%
X258920000Y-87000000D03*
D16*
X260190000Y-84460000D03*
D17*
X264000000Y-87000000D03*
D16*
X266540000Y-81920000D03*
D15*
X269080000Y-87000000D03*
D18*
X256915000Y-84460000D03*
X269842000Y-81920000D03*
%TD*%
D15*
%TO.C,SW29*%
X277920000Y-76000000D03*
D16*
X279190000Y-73460000D03*
D17*
X283000000Y-76000000D03*
D16*
X285540000Y-70920000D03*
D15*
X288080000Y-76000000D03*
D18*
X275915000Y-73460000D03*
X288842000Y-70920000D03*
%TD*%
D15*
%TO.C,SW9*%
X82920000Y-68000000D03*
D16*
X84190000Y-65460000D03*
D17*
X88000000Y-68000000D03*
D16*
X90540000Y-62920000D03*
D15*
X93080000Y-68000000D03*
D18*
X80915000Y-65460000D03*
X93842000Y-62920000D03*
%TD*%
D15*
%TO.C,SW19*%
X120920000Y-107000000D03*
D16*
X122190000Y-104460000D03*
D17*
X126000000Y-107000000D03*
D16*
X128540000Y-101920000D03*
D15*
X131080000Y-107000000D03*
D18*
X118915000Y-104460000D03*
X131842000Y-101920000D03*
%TD*%
D15*
%TO.C,SW3*%
X82920000Y-49000000D03*
D16*
X84190000Y-46460000D03*
D17*
X88000000Y-49000000D03*
D16*
X90540000Y-43920000D03*
D15*
X93080000Y-49000000D03*
D18*
X80915000Y-46460000D03*
X93842000Y-43920000D03*
%TD*%
D15*
%TO.C,SW27*%
X201920000Y-52300000D03*
D16*
X203190000Y-49760000D03*
D17*
X207000000Y-52300000D03*
D16*
X209540000Y-47220000D03*
D15*
X212080000Y-52300000D03*
D18*
X199915000Y-49760000D03*
X212842000Y-47220000D03*
%TD*%
D15*
%TO.C,SW11*%
X120920000Y-69000000D03*
D16*
X122190000Y-66460000D03*
D17*
X126000000Y-69000000D03*
D16*
X128540000Y-63920000D03*
D15*
X131080000Y-69000000D03*
D18*
X118915000Y-66460000D03*
X131842000Y-63920000D03*
%TD*%
D15*
%TO.C,SW38*%
X220920000Y-88000000D03*
D16*
X222190000Y-85460000D03*
D17*
X226000000Y-88000000D03*
D16*
X228540000Y-82920000D03*
D15*
X231080000Y-88000000D03*
D18*
X218915000Y-85460000D03*
X231842000Y-82920000D03*
%TD*%
D12*
%TO.C,H5*%
X59500000Y-67650000D03*
%TD*%
D15*
%TO.C,SW37*%
X239920000Y-83500000D03*
D16*
X241190000Y-80960000D03*
D17*
X245000000Y-83500000D03*
D16*
X247540000Y-78420000D03*
D15*
X250080000Y-83500000D03*
D18*
X237915000Y-80960000D03*
X250842000Y-78420000D03*
%TD*%
D15*
%TO.C,SW26*%
X220920000Y-50000000D03*
D16*
X222190000Y-47460000D03*
D17*
X226000000Y-50000000D03*
D16*
X228540000Y-44920000D03*
D15*
X231080000Y-50000000D03*
D18*
X218915000Y-47460000D03*
X231842000Y-44920000D03*
%TD*%
D15*
%TO.C,SW41*%
X201920000Y-109300000D03*
D16*
X203190000Y-106760000D03*
D17*
X207000000Y-109300000D03*
D16*
X209540000Y-104220000D03*
D15*
X212080000Y-109300000D03*
D18*
X199915000Y-106760000D03*
X212842000Y-104220000D03*
%TD*%
D15*
%TO.C,SW31*%
X239920000Y-64500000D03*
D16*
X241190000Y-61960000D03*
D17*
X245000000Y-64500000D03*
D16*
X247540000Y-59420000D03*
D15*
X250080000Y-64500000D03*
D18*
X237915000Y-61960000D03*
X250842000Y-59420000D03*
%TD*%
D13*
%TO.C,J1*%
X158920000Y-81250000D03*
X161460000Y-81250000D03*
X164000000Y-81250000D03*
D14*
X166540000Y-81250000D03*
D13*
X169080000Y-81250000D03*
%TD*%
%TO.C,U1*%
X171620000Y-48230000D03*
X171620000Y-50770000D03*
D14*
X171620000Y-53310000D03*
X171620000Y-55850000D03*
D13*
X171620000Y-58390000D03*
X171620000Y-60930000D03*
X171620000Y-63470000D03*
X171620000Y-66010000D03*
X171620000Y-68550000D03*
X171620000Y-71090000D03*
X171620000Y-73630000D03*
X171620000Y-76170000D03*
X156380000Y-76170000D03*
X156380000Y-73630000D03*
X156380000Y-71090000D03*
X156380000Y-68550000D03*
X156380000Y-66010000D03*
X156380000Y-63470000D03*
X156380000Y-60930000D03*
X156380000Y-58390000D03*
X156380000Y-55850000D03*
X156380000Y-53310000D03*
D14*
X156380000Y-50770000D03*
D13*
X156380000Y-48230000D03*
%TD*%
D15*
%TO.C,SW1*%
X44920000Y-59300000D03*
D16*
X46190000Y-56760000D03*
D17*
X50000000Y-59300000D03*
D16*
X52540000Y-54220000D03*
D15*
X55080000Y-59300000D03*
D18*
X42915000Y-56760000D03*
X55842000Y-54220000D03*
%TD*%
D15*
%TO.C,SW4*%
X101920000Y-45500000D03*
D16*
X103190000Y-42960000D03*
D17*
X107000000Y-45500000D03*
D16*
X109540000Y-40420000D03*
D15*
X112080000Y-45500000D03*
D18*
X99915000Y-42960000D03*
X112842000Y-40420000D03*
%TD*%
D15*
%TO.C,SW40*%
X220920000Y-107000000D03*
D16*
X222190000Y-104460000D03*
D17*
X226000000Y-107000000D03*
D16*
X228540000Y-101920000D03*
D15*
X231080000Y-107000000D03*
D18*
X218915000Y-104460000D03*
X231842000Y-101920000D03*
%TD*%
D11*
%TO.C,MB-2mm-3*%
X64250000Y-47400000D03*
X65000000Y-47400000D03*
X65750000Y-47400000D03*
%TD*%
D20*
%TO.C,J4*%
X187100000Y-92840000D03*
D21*
X187100000Y-87760000D03*
%TD*%
D13*
%TO.C,J2*%
X182920000Y-81250000D03*
X185460000Y-81250000D03*
X188000000Y-81250000D03*
D14*
X190540000Y-81250000D03*
D13*
X193080000Y-81250000D03*
%TD*%
D12*
%TO.C,H10*%
X216500000Y-98650000D03*
%TD*%
D11*
%TO.C,MB-2mm-5*%
X60250000Y-106900000D03*
X59500000Y-106900000D03*
X58750000Y-106900000D03*
%TD*%
%TO.C,MB-2mm-4*%
X286250000Y-47400000D03*
X287000000Y-47400000D03*
X287750000Y-47400000D03*
%TD*%
D12*
%TO.C,H6*%
X292500000Y-67650000D03*
%TD*%
D22*
%TO.C,OH1*%
X164000000Y-98700000D03*
%TD*%
D15*
%TO.C,SW2*%
X63920000Y-57000000D03*
D16*
X65190000Y-54460000D03*
D17*
X69000000Y-57000000D03*
D16*
X71540000Y-51920000D03*
D15*
X74080000Y-57000000D03*
D18*
X61915000Y-54460000D03*
X74842000Y-51920000D03*
%TD*%
D15*
%TO.C,SW13*%
X44920000Y-97300000D03*
D16*
X46190000Y-94760000D03*
D17*
X50000000Y-97300000D03*
D16*
X52540000Y-92220000D03*
D15*
X55080000Y-97300000D03*
D18*
X42915000Y-94760000D03*
X55842000Y-92220000D03*
%TD*%
D13*
%TO.C,RSW1*%
X112050962Y-100615064D03*
X114649038Y-99115064D03*
X109550962Y-96284936D03*
X112149038Y-94784936D03*
%TD*%
D19*
%TO.C,H11*%
X45800000Y-123700000D03*
%TD*%
D13*
%TO.C,RSW2*%
X237350962Y-99115064D03*
X239949038Y-100615064D03*
X239850962Y-94784936D03*
X242449038Y-96284936D03*
%TD*%
D15*
%TO.C,SW35*%
X277920000Y-95000000D03*
D16*
X279190000Y-92460000D03*
D17*
X283000000Y-95000000D03*
D16*
X285540000Y-89920000D03*
D15*
X288080000Y-95000000D03*
D18*
X275915000Y-92460000D03*
X288842000Y-89920000D03*
%TD*%
D15*
%TO.C,SW10*%
X101920000Y-64500000D03*
D16*
X103190000Y-61960000D03*
D17*
X107000000Y-64500000D03*
D16*
X109540000Y-59420000D03*
D15*
X112080000Y-64500000D03*
D18*
X99915000Y-61960000D03*
X112842000Y-59420000D03*
%TD*%
D15*
%TO.C,SW21*%
X158920000Y-111600000D03*
D16*
X160190000Y-109060000D03*
D17*
X164000000Y-111600000D03*
D16*
X166540000Y-106520000D03*
D15*
X169080000Y-111600000D03*
D18*
X156915000Y-109060000D03*
X169842000Y-106520000D03*
%TD*%
D22*
%TO.C,OH2*%
X188000000Y-98700000D03*
%TD*%
D13*
%TO.C,PSW1*%
X168900000Y-90300000D03*
X168900000Y-87760000D03*
X168900000Y-92840000D03*
%TD*%
D15*
%TO.C,SW22*%
X296920000Y-59300000D03*
D16*
X298190000Y-56760000D03*
D17*
X302000000Y-59300000D03*
D16*
X304540000Y-54220000D03*
D15*
X307080000Y-59300000D03*
D18*
X294915000Y-56760000D03*
X307842000Y-54220000D03*
%TD*%
D15*
%TO.C,SW6*%
X139920000Y-52300000D03*
D16*
X141190000Y-49760000D03*
D17*
X145000000Y-52300000D03*
D16*
X147540000Y-47220000D03*
D15*
X150080000Y-52300000D03*
D18*
X137915000Y-49760000D03*
X150842000Y-47220000D03*
%TD*%
D19*
%TO.C,MH3*%
X181700000Y-98700000D03*
%TD*%
D15*
%TO.C,SW34*%
X296920000Y-97300000D03*
D16*
X298190000Y-94760000D03*
D17*
X302000000Y-97300000D03*
D16*
X304540000Y-92220000D03*
D15*
X307080000Y-97300000D03*
D18*
X294915000Y-94760000D03*
X307842000Y-92220000D03*
%TD*%
D12*
%TO.C,H4*%
X216500000Y-60650000D03*
%TD*%
D19*
%TO.C,MH1*%
X157800000Y-98700000D03*
%TD*%
D15*
%TO.C,SW42*%
X182920000Y-111600000D03*
D16*
X184190000Y-109060000D03*
D17*
X188000000Y-111600000D03*
D16*
X190540000Y-106520000D03*
D15*
X193080000Y-111600000D03*
D18*
X180915000Y-109060000D03*
X193842000Y-106520000D03*
%TD*%
D11*
%TO.C,MB-2mm-2*%
X187250000Y-42700000D03*
X188000000Y-42700000D03*
X188750000Y-42700000D03*
%TD*%
D12*
%TO.C,H9*%
X135500000Y-98650000D03*
%TD*%
D11*
%TO.C,MB-2mm-8*%
X188750000Y-121200000D03*
X188000000Y-121200000D03*
X187250000Y-121200000D03*
%TD*%
%TO.C,MB2*%
X245000000Y-33800000D03*
X245000000Y-33000000D03*
X245000000Y-32200000D03*
X245000000Y-31400000D03*
X245000000Y-30600000D03*
X245000000Y-29800000D03*
X245000000Y-29000000D03*
%TD*%
D15*
%TO.C,SW8*%
X63920000Y-76000000D03*
D16*
X65190000Y-73460000D03*
D17*
X69000000Y-76000000D03*
D16*
X71540000Y-70920000D03*
D15*
X74080000Y-76000000D03*
D18*
X61915000Y-73460000D03*
X74842000Y-70920000D03*
%TD*%
D15*
%TO.C,SW30*%
X258920000Y-68000000D03*
D16*
X260190000Y-65460000D03*
D17*
X264000000Y-68000000D03*
D16*
X266540000Y-62920000D03*
D15*
X269080000Y-68000000D03*
D18*
X256915000Y-65460000D03*
X269842000Y-62920000D03*
%TD*%
D15*
%TO.C,SW15*%
X82920000Y-87000000D03*
D16*
X84190000Y-84460000D03*
D17*
X88000000Y-87000000D03*
D16*
X90540000Y-81920000D03*
D15*
X93080000Y-87000000D03*
D18*
X80915000Y-84460000D03*
X93842000Y-81920000D03*
%TD*%
D15*
%TO.C,SW17*%
X120920000Y-88000000D03*
D16*
X122190000Y-85460000D03*
D17*
X126000000Y-88000000D03*
D16*
X128540000Y-82920000D03*
D15*
X131080000Y-88000000D03*
D18*
X118915000Y-85460000D03*
X131842000Y-82920000D03*
%TD*%
D11*
%TO.C,MB1*%
X107000000Y-33800000D03*
X107000000Y-33000000D03*
X107000000Y-32200000D03*
X107000000Y-31400000D03*
X107000000Y-30600000D03*
X107000000Y-29800000D03*
X107000000Y-29000000D03*
%TD*%
%TO.C,MB-2mm-1*%
X163250000Y-42700000D03*
X164000000Y-42700000D03*
X164750000Y-42700000D03*
%TD*%
D15*
%TO.C,SW23*%
X277920000Y-57000000D03*
D16*
X279190000Y-54460000D03*
D17*
X283000000Y-57000000D03*
D16*
X285540000Y-51920000D03*
D15*
X288080000Y-57000000D03*
D18*
X275915000Y-54460000D03*
X288842000Y-51920000D03*
%TD*%
D15*
%TO.C,SW32*%
X220920000Y-69000000D03*
D16*
X222190000Y-66460000D03*
D17*
X226000000Y-69000000D03*
D16*
X228540000Y-63920000D03*
D15*
X231080000Y-69000000D03*
D18*
X218915000Y-66460000D03*
X231842000Y-63920000D03*
%TD*%
D23*
%TO.C,J3*%
X164900000Y-87760000D03*
D21*
X164900000Y-92840000D03*
%TD*%
D19*
%TO.C,MH2*%
X170300000Y-98700000D03*
%TD*%
D15*
%TO.C,SW14*%
X63920000Y-95000000D03*
D16*
X65190000Y-92460000D03*
D17*
X69000000Y-95000000D03*
D16*
X71540000Y-89920000D03*
D15*
X74080000Y-95000000D03*
D18*
X61915000Y-92460000D03*
X74842000Y-89920000D03*
%TD*%
D11*
%TO.C,MB-2mm-6*%
X293250000Y-106900000D03*
X292500000Y-106900000D03*
X291750000Y-106900000D03*
%TD*%
D13*
%TO.C,PSW2*%
X183100000Y-90300000D03*
X183100000Y-92840000D03*
X183100000Y-87760000D03*
%TD*%
D15*
%TO.C,SW24*%
X258920000Y-49000000D03*
D16*
X260190000Y-46460000D03*
D17*
X264000000Y-49000000D03*
D16*
X266540000Y-43920000D03*
D15*
X269080000Y-49000000D03*
D18*
X256915000Y-46460000D03*
X269842000Y-43920000D03*
%TD*%
D15*
%TO.C,SW39*%
X201920000Y-90300000D03*
D16*
X203190000Y-87760000D03*
D17*
X207000000Y-90300000D03*
D16*
X209540000Y-85220000D03*
D15*
X212080000Y-90300000D03*
D18*
X199915000Y-87760000D03*
X212842000Y-85220000D03*
%TD*%
D24*
%TO.C,H*%
X158220000Y-125700000D03*
X160760000Y-125700000D03*
X163300000Y-125700000D03*
X165840000Y-125700000D03*
X168380000Y-125700000D03*
X170920000Y-125700000D03*
X173460000Y-125700000D03*
X176000000Y-125700000D03*
X178540000Y-125700000D03*
X181080000Y-125700000D03*
X183620000Y-125700000D03*
X186160000Y-125700000D03*
X188700000Y-125700000D03*
X191240000Y-125700000D03*
X193780000Y-125700000D03*
%TD*%
D15*
%TO.C,SW16*%
X101920000Y-83500000D03*
D16*
X103190000Y-80960000D03*
D17*
X107000000Y-83500000D03*
D16*
X109540000Y-78420000D03*
D15*
X112080000Y-83500000D03*
D18*
X99915000Y-80960000D03*
X112842000Y-78420000D03*
%TD*%
D15*
%TO.C,SW33*%
X201920000Y-71300000D03*
D16*
X203190000Y-68760000D03*
D17*
X207000000Y-71300000D03*
D16*
X209540000Y-66220000D03*
D15*
X212080000Y-71300000D03*
D18*
X199915000Y-68760000D03*
X212842000Y-66220000D03*
%TD*%
D19*
%TO.C,H2*%
X306200000Y-33400000D03*
%TD*%
D12*
%TO.C,H3*%
X135500000Y-60650000D03*
%TD*%
D25*
%TO.C,D35*%
X281300000Y-99000000D03*
D26*
X284700000Y-99000000D03*
%TD*%
D25*
%TO.C,D36*%
X262300000Y-91000000D03*
D26*
X265700000Y-91000000D03*
%TD*%
D25*
%TO.C,D24*%
X262300000Y-53000000D03*
D26*
X265700000Y-53000000D03*
%TD*%
D25*
%TO.C,D27*%
X205300000Y-56300000D03*
D26*
X208700000Y-56300000D03*
%TD*%
D25*
%TO.C,D5*%
X124300000Y-54000000D03*
D26*
X127700000Y-54000000D03*
%TD*%
D25*
%TO.C,D20*%
X143300000Y-113300000D03*
D26*
X146700000Y-113300000D03*
%TD*%
D25*
%TO.C,D42*%
X186300000Y-115600000D03*
D26*
X189700000Y-115600000D03*
%TD*%
D25*
%TO.C,D19*%
X124300000Y-111000000D03*
D26*
X127700000Y-111000000D03*
%TD*%
D25*
%TO.C,D34*%
X300300000Y-101300000D03*
D26*
X303700000Y-101300000D03*
%TD*%
D25*
%TO.C,D14*%
X67300000Y-99000000D03*
D26*
X70700000Y-99000000D03*
%TD*%
D25*
%TO.C,D15*%
X86300000Y-91000000D03*
D26*
X89700000Y-91000000D03*
%TD*%
D25*
%TO.C,D39*%
X205300000Y-94300000D03*
D26*
X208700000Y-94300000D03*
%TD*%
D25*
%TO.C,D40*%
X224300000Y-111000000D03*
D26*
X227700000Y-111000000D03*
%TD*%
D25*
%TO.C,D4*%
X105300000Y-49500000D03*
D26*
X108700000Y-49500000D03*
%TD*%
D25*
%TO.C,D18*%
X143300000Y-94300000D03*
D26*
X146700000Y-94300000D03*
%TD*%
D25*
%TO.C,D9*%
X86300000Y-72000000D03*
D26*
X89700000Y-72000000D03*
%TD*%
D25*
%TO.C,D10*%
X105300000Y-68500000D03*
D26*
X108700000Y-68500000D03*
%TD*%
D25*
%TO.C,D32*%
X224300000Y-73000000D03*
D26*
X227700000Y-73000000D03*
%TD*%
D25*
%TO.C,D28*%
X300300000Y-82300000D03*
D26*
X303700000Y-82300000D03*
%TD*%
D25*
%TO.C,D30*%
X262300000Y-72000000D03*
D26*
X265700000Y-72000000D03*
%TD*%
D25*
%TO.C,D16*%
X105300000Y-87500000D03*
D26*
X108700000Y-87500000D03*
%TD*%
D25*
%TO.C,D8*%
X67300000Y-80000000D03*
D26*
X70700000Y-80000000D03*
%TD*%
D25*
%TO.C,D11*%
X124300000Y-73000000D03*
D26*
X127700000Y-73000000D03*
%TD*%
D25*
%TO.C,D38*%
X224300000Y-92000000D03*
D26*
X227700000Y-92000000D03*
%TD*%
D25*
%TO.C,D29*%
X281300000Y-80000000D03*
D26*
X284700000Y-80000000D03*
%TD*%
D25*
%TO.C,D31*%
X243300000Y-68500000D03*
D26*
X246700000Y-68500000D03*
%TD*%
D25*
%TO.C,D41*%
X205300000Y-113300000D03*
D26*
X208700000Y-113300000D03*
%TD*%
D25*
%TO.C,D7*%
X48300000Y-82300000D03*
D26*
X51700000Y-82300000D03*
%TD*%
D25*
%TO.C,D23*%
X281300000Y-61000000D03*
D26*
X284700000Y-61000000D03*
%TD*%
D25*
%TO.C,D1*%
X48300000Y-63300000D03*
D26*
X51700000Y-63300000D03*
%TD*%
D25*
%TO.C,D22*%
X300300000Y-63300000D03*
D26*
X303700000Y-63300000D03*
%TD*%
D25*
%TO.C,D17*%
X124300000Y-92000000D03*
D26*
X127700000Y-92000000D03*
%TD*%
D25*
%TO.C,D37*%
X243300000Y-87500000D03*
D26*
X246700000Y-87500000D03*
%TD*%
D25*
%TO.C,D26*%
X224300000Y-54000000D03*
D26*
X227700000Y-54000000D03*
%TD*%
D25*
%TO.C,D25*%
X243300000Y-49500000D03*
D26*
X246700000Y-49500000D03*
%TD*%
D25*
%TO.C,D2*%
X67300000Y-61000000D03*
D26*
X70700000Y-61000000D03*
%TD*%
D25*
%TO.C,D3*%
X86300000Y-53000000D03*
D26*
X89700000Y-53000000D03*
%TD*%
D25*
%TO.C,D21*%
X162300000Y-115600000D03*
D26*
X165700000Y-115600000D03*
%TD*%
D25*
%TO.C,D12*%
X143300000Y-75300000D03*
D26*
X146700000Y-75300000D03*
%TD*%
D25*
%TO.C,D13*%
X48300000Y-101300000D03*
D26*
X51700000Y-101300000D03*
%TD*%
D25*
%TO.C,D33*%
X205300000Y-75300000D03*
D26*
X208700000Y-75300000D03*
%TD*%
D25*
%TO.C,D6*%
X143300000Y-56300000D03*
D26*
X146700000Y-56300000D03*
%TD*%
M02*
