%TF.GenerationSoftware,KiCad,Pcbnew,9.0.7*%
%TF.CreationDate,2026-02-08T19:38:27+03:00*%
%TF.ProjectId,mriya-pcb-1.1.3,6d726979-612d-4706-9362-2d312e312e33,1.1.3*%
%TF.SameCoordinates,Original*%
%TF.FileFunction,Profile,NP*%
%FSLAX46Y46*%
G04 Gerber Fmt 4.6, Leading zero omitted, Abs format (unit mm)*
G04 Created by KiCad (PCBNEW 9.0.7) date 2026-02-08 19:38:27*
%MOMM*%
%LPD*%
G01*
G04 APERTURE LIST*
%TA.AperFunction,Profile*%
%ADD10C,0.100000*%
%TD*%
G04 APERTURE END LIST*
D10*
X71378680Y-47021320D02*
G75*
G02*
X69257359Y-47899983I-2121380J2121520D01*
G01*
X294214213Y-49614213D02*
X293085786Y-48485786D01*
X161800000Y-120700000D02*
X155428427Y-120700000D01*
X42300000Y-45900000D02*
G75*
G02*
X40800000Y-44400000I0J1500000D01*
G01*
X309700000Y-108400000D02*
G75*
G02*
X311200000Y-109900000I0J-1500000D01*
G01*
X161800000Y-41200000D02*
G75*
G02*
X161800000Y-43200000I0J-1000000D01*
G01*
X58914214Y-48485786D02*
G75*
G02*
X60328427Y-47899978I1414286J-1414314D01*
G01*
X117085787Y-36985787D02*
X120414214Y-40314214D01*
X236328427Y-36400000D02*
X253671573Y-36400000D01*
X214785787Y-42614213D02*
X215914214Y-41485786D01*
X161800000Y-120700000D02*
G75*
G02*
X161800000Y-122700000I0J-1000000D01*
G01*
X290300000Y-106400000D02*
G75*
G02*
X290300000Y-108400000I0J-1000000D01*
G01*
X290300000Y-106400000D02*
X274742641Y-106400000D01*
X217328427Y-40900000D02*
X230171573Y-40900000D01*
X134914213Y-117814213D02*
X133785786Y-116685786D01*
X57300000Y-106400000D02*
X42300000Y-106400000D01*
X57785787Y-49614213D02*
G75*
G02*
X56371573Y-50200022I-1414287J1414313D01*
G01*
X121828427Y-40900000D02*
G75*
G02*
X120414200Y-40314228I-27J2000000D01*
G01*
X79378680Y-105521320D02*
G75*
G02*
X77257359Y-106399983I-2121380J2121520D01*
G01*
X309700000Y-108400000D02*
X294700000Y-108400000D01*
X151471573Y-118400000D02*
G75*
G02*
X152885800Y-118985772I27J-2000000D01*
G01*
X253671573Y-36400000D02*
G75*
G02*
X255085800Y-36985772I27J-2000000D01*
G01*
X121828427Y-40900000D02*
X134671573Y-40900000D01*
X68257359Y-45900000D02*
X67200000Y-45900000D01*
X115671573Y-36400000D02*
G75*
G02*
X117085801Y-36985773I27J-2000000D01*
G01*
X289200000Y-47900000D02*
X291671573Y-47900000D01*
X42300000Y-106400000D02*
G75*
G02*
X40800000Y-104900000I0J1500000D01*
G01*
X199114214Y-118985786D02*
G75*
G02*
X200528427Y-118399978I1414286J-1414314D01*
G01*
X61700000Y-108400000D02*
X106568610Y-108400000D01*
X215914214Y-41485786D02*
G75*
G02*
X217328427Y-40899978I1414286J-1414314D01*
G01*
X166200000Y-43200000D02*
G75*
G02*
X166200000Y-41200000I0J1000000D01*
G01*
X136328427Y-118400000D02*
G75*
G02*
X134914199Y-117814227I-27J2000000D01*
G01*
X311200000Y-29900000D02*
X311200000Y-44400000D01*
X264257359Y-98400000D02*
X247834358Y-98400000D01*
X132371573Y-116100000D02*
G75*
G02*
X133785800Y-116685772I27J-2000000D01*
G01*
X236074130Y-115083790D02*
G75*
G02*
X234332821Y-116100018I-1741330J983790D01*
G01*
X94585786Y-39314214D02*
G75*
G02*
X93171573Y-39900022I-1414286J1414314D01*
G01*
X311200000Y-51700000D02*
X311200000Y-104900000D01*
X71378680Y-47021320D02*
X77914214Y-40485786D01*
X219214213Y-34985787D02*
X213585786Y-40614214D01*
X40800000Y-29900000D02*
G75*
G02*
X42300000Y-28400000I1500000J0D01*
G01*
X200528427Y-118400000D02*
X215671573Y-118400000D01*
X57300000Y-106400000D02*
G75*
G02*
X57300000Y-108400000I0J-1000000D01*
G01*
X219628427Y-116100000D02*
X234332821Y-116100000D01*
X161800000Y-43200000D02*
X138628427Y-43200000D01*
X289200000Y-45900000D02*
X309700000Y-45900000D01*
X117667179Y-116100000D02*
G75*
G02*
X115925842Y-115083806I21J2000100D01*
G01*
X197985787Y-120114213D02*
X199114214Y-118985786D01*
X178700000Y-119200000D02*
X178700000Y-44700000D01*
X61700000Y-106400000D02*
X77257359Y-106400000D01*
X116425477Y-121685718D02*
X110049047Y-110428564D01*
X155428427Y-120700000D02*
G75*
G02*
X154014199Y-120114227I-27J2000000D01*
G01*
X87742641Y-98400000D02*
X104165642Y-98400000D01*
X294700000Y-108400000D02*
G75*
G02*
X294700000Y-106400000I0J1000000D01*
G01*
X42300000Y-128700000D02*
X309700000Y-128700000D01*
X295628427Y-50200000D02*
X309700000Y-50200000D01*
X234914214Y-36985786D02*
G75*
G02*
X236328427Y-36399978I1414286J-1414314D01*
G01*
X40800000Y-51700000D02*
X40800000Y-104900000D01*
X284800000Y-45900000D02*
G75*
G02*
X284800000Y-47900000I0J-1000000D01*
G01*
X284800000Y-45900000D02*
X283742641Y-45900000D01*
X77914214Y-40485786D02*
G75*
G02*
X79328427Y-39899978I1414286J-1414314D01*
G01*
X79328427Y-39900000D02*
X93171573Y-39900000D01*
X217085787Y-117814213D02*
G75*
G02*
X215671573Y-118400022I-1414287J1414313D01*
G01*
X115925870Y-115083790D02*
X107648260Y-100432419D01*
X217085787Y-117814213D02*
X218214214Y-116685786D01*
X154014213Y-120114213D02*
X152885786Y-118985786D01*
X96914213Y-36985787D02*
X94585786Y-39314214D01*
X236074130Y-115083790D02*
X244351740Y-100432419D01*
X190200000Y-122700000D02*
X233834305Y-122700000D01*
X231585787Y-40314213D02*
G75*
G02*
X230171573Y-40900022I-1414287J1414313D01*
G01*
X131371573Y-34400000D02*
G75*
G02*
X132785780Y-34985794I27J-1999900D01*
G01*
X282742641Y-47900000D02*
X284800000Y-47900000D01*
X166200000Y-122700000D02*
G75*
G02*
X166200000Y-120700000I0J1000000D01*
G01*
X282742641Y-47900000D02*
G75*
G02*
X280621300Y-47021340I-41J3000000D01*
G01*
X62800000Y-47900000D02*
X60328427Y-47900000D01*
X98328427Y-36400000D02*
X115671573Y-36400000D01*
X42300000Y-50200000D02*
X56371573Y-50200000D01*
X136328427Y-118400000D02*
X151471573Y-118400000D01*
X311200000Y-127200000D02*
G75*
G02*
X309700000Y-128700000I-1500000J0D01*
G01*
X161800000Y-122700000D02*
X118165695Y-122700000D01*
X241950953Y-110428564D02*
G75*
G02*
X245431390Y-108399991I3480447J-1971436D01*
G01*
X190200000Y-122700000D02*
G75*
G02*
X190200000Y-120700000I0J1000000D01*
G01*
X280621320Y-47021320D02*
X274085786Y-40485786D01*
X118165695Y-122700000D02*
G75*
G02*
X116425480Y-121685716I5J2000000D01*
G01*
X212171573Y-41200000D02*
X190200000Y-41200000D01*
X138628427Y-43200000D02*
G75*
G02*
X137214199Y-42614227I-27J2000000D01*
G01*
X309700000Y-28400000D02*
X42300000Y-28400000D01*
X171800000Y-43200000D02*
X166200000Y-43200000D01*
X67200000Y-47900000D02*
G75*
G02*
X67200000Y-45900000I0J1000000D01*
G01*
X69257359Y-47900000D02*
X67200000Y-47900000D01*
X218214214Y-116685786D02*
G75*
G02*
X219628427Y-116099978I1414286J-1414314D01*
G01*
X96914213Y-36985787D02*
G75*
G02*
X98328427Y-36399978I1414287J-1414313D01*
G01*
X62800000Y-45900000D02*
X42300000Y-45900000D01*
X134671573Y-40900000D02*
G75*
G02*
X136085800Y-41485772I27J-2000000D01*
G01*
X173300000Y-119200000D02*
G75*
G02*
X171800000Y-120700000I-1500000J0D01*
G01*
X311200000Y-104900000D02*
G75*
G02*
X309700000Y-106400000I-1500000J0D01*
G01*
X294700000Y-106400000D02*
X309700000Y-106400000D01*
X171800000Y-43200000D02*
G75*
G02*
X173300000Y-44700000I0J-1500000D01*
G01*
X85621321Y-99278679D02*
G75*
G02*
X87742641Y-98400017I2121379J-2121521D01*
G01*
X61700000Y-108400000D02*
G75*
G02*
X61700000Y-106400000I0J1000000D01*
G01*
X235574523Y-121685718D02*
X241950953Y-110428564D01*
X258828427Y-39900000D02*
G75*
G02*
X257414199Y-39314227I-27J2000000D01*
G01*
X270171573Y-34400000D02*
X220628427Y-34400000D01*
X231585787Y-40314213D02*
X234914214Y-36985786D01*
X244351740Y-100432419D02*
G75*
G02*
X247834358Y-98399999I3482560J-1967481D01*
G01*
X274742641Y-106400000D02*
G75*
G02*
X272621300Y-105521340I-41J3000000D01*
G01*
X132371573Y-116100000D02*
X117667179Y-116100000D01*
X272621320Y-105521320D02*
X266378679Y-99278679D01*
X137214213Y-42614213D02*
X136085786Y-41485786D01*
X190200000Y-43200000D02*
X213371573Y-43200000D01*
X62800000Y-45900000D02*
G75*
G02*
X62800000Y-47900000I0J-1000000D01*
G01*
X281621320Y-45021320D02*
X271585786Y-34985786D01*
X309700000Y-50200000D02*
G75*
G02*
X311200000Y-51700000I0J-1500000D01*
G01*
X185800000Y-41200000D02*
G75*
G02*
X185800000Y-43200000I0J-1000000D01*
G01*
X40800000Y-109900000D02*
G75*
G02*
X42300000Y-108400000I1500000J0D01*
G01*
X166200000Y-120700000D02*
X171800000Y-120700000D01*
X70378680Y-45021320D02*
G75*
G02*
X68257359Y-45899971I-2121280J2121320D01*
G01*
X70378680Y-45021320D02*
X80414214Y-34985786D01*
X264257359Y-98400000D02*
G75*
G02*
X266378699Y-99278659I41J-3000000D01*
G01*
X79378680Y-105521320D02*
X85621321Y-99278679D01*
X270171573Y-34400000D02*
G75*
G02*
X271585800Y-34985772I27J-2000000D01*
G01*
X272671573Y-39900000D02*
G75*
G02*
X274085800Y-40485772I27J-2000000D01*
G01*
X289200000Y-47900000D02*
G75*
G02*
X289200000Y-45900000I0J1000000D01*
G01*
X180200000Y-120700000D02*
G75*
G02*
X178700000Y-119200000I0J1500000D01*
G01*
X190200000Y-120700000D02*
X196571573Y-120700000D01*
X311200000Y-127200000D02*
X311200000Y-109900000D01*
X213585786Y-40614214D02*
G75*
G02*
X212171573Y-41200022I-1414286J1414314D01*
G01*
X139828427Y-41200000D02*
G75*
G02*
X138414221Y-40614207I-27J1999900D01*
G01*
X40800000Y-127200000D02*
X40800000Y-109900000D01*
X295628427Y-50200000D02*
G75*
G02*
X294214199Y-49614227I-27J2000000D01*
G01*
X185800000Y-120700000D02*
G75*
G02*
X185800000Y-122700000I0J-1000000D01*
G01*
X185800000Y-43200000D02*
X180200000Y-43200000D01*
X258828427Y-39900000D02*
X272671573Y-39900000D01*
X42300000Y-128700000D02*
G75*
G02*
X40800000Y-127200000I0J1500000D01*
G01*
X104165642Y-98400000D02*
G75*
G02*
X107648228Y-100432437I-42J-4000000D01*
G01*
X166200000Y-122700000D02*
X185800000Y-122700000D01*
X185800000Y-41200000D02*
X166200000Y-41200000D01*
X132785787Y-34985787D02*
X138414214Y-40614214D01*
X197985787Y-120114213D02*
G75*
G02*
X196571573Y-120700022I-1414287J1414313D01*
G01*
X235574523Y-121685718D02*
G75*
G02*
X233834305Y-122700004I-1740223J985718D01*
G01*
X257414213Y-39314213D02*
X255085786Y-36985786D01*
X80414214Y-34985786D02*
G75*
G02*
X81828427Y-34400019I1414186J-1414214D01*
G01*
X291671573Y-47900000D02*
G75*
G02*
X293085800Y-48485772I27J-2000000D01*
G01*
X57300000Y-108400000D02*
X42300000Y-108400000D01*
X190200000Y-43200000D02*
G75*
G02*
X190200000Y-41200000I0J1000000D01*
G01*
X283742641Y-45900000D02*
G75*
G02*
X281621341Y-45021299I-41J2999800D01*
G01*
X290300000Y-108400000D02*
X245431390Y-108400000D01*
X81828427Y-34400000D02*
X131371573Y-34400000D01*
X40800000Y-51700000D02*
G75*
G02*
X42300000Y-50200000I1500000J0D01*
G01*
X178700000Y-44700000D02*
G75*
G02*
X180200000Y-43200000I1500000J0D01*
G01*
X309700000Y-28400000D02*
G75*
G02*
X311200000Y-29900000I0J-1500000D01*
G01*
X311200000Y-44400000D02*
G75*
G02*
X309700000Y-45900000I-1500000J0D01*
G01*
X40800000Y-29900000D02*
X40800000Y-44400000D01*
X219214213Y-34985787D02*
G75*
G02*
X220628427Y-34400019I1414187J-1414213D01*
G01*
X214785787Y-42614213D02*
G75*
G02*
X213371573Y-43200022I-1414287J1414313D01*
G01*
X173300000Y-119200000D02*
X173300000Y-44700000D01*
X57785787Y-49614213D02*
X58914214Y-48485786D01*
X161800000Y-41200000D02*
X139828427Y-41200000D01*
X106568610Y-108400000D02*
G75*
G02*
X110049039Y-110428568I-10J-4000000D01*
G01*
X185800000Y-120700000D02*
X180200000Y-120700000D01*
M02*
