%TF.GenerationSoftware,KiCad,Pcbnew,9.0.7*%
%TF.CreationDate,2026-02-08T19:30:57+03:00*%
%TF.ProjectId,mriya-mcu-cover-1.1.3,6d726979-612d-46d6-9375-2d636f766572,1.1.3*%
%TF.SameCoordinates,Original*%
%TF.FileFunction,Profile,NP*%
%FSLAX46Y46*%
G04 Gerber Fmt 4.6, Leading zero omitted, Abs format (unit mm)*
G04 Created by KiCad (PCBNEW 9.0.7) date 2026-02-08 19:30:57*
%MOMM*%
%LPD*%
G01*
G04 APERTURE LIST*
%TA.AperFunction,Profile*%
%ADD10C,0.100000*%
%TD*%
G04 APERTURE END LIST*
D10*
X77900000Y-28900000D02*
G75*
G02*
X78900000Y-27900000I1000000J0D01*
G01*
X78900000Y-90500000D02*
G75*
G02*
X77900000Y-89500000I0J1000000D01*
G01*
X111300000Y-29900000D02*
X127500000Y-29900000D01*
X98500000Y-87700000D02*
G75*
G02*
X97700000Y-88500000I-800000J0D01*
G01*
X131100000Y-89500000D02*
X131100000Y-29700000D01*
X129300000Y-27900000D02*
X109500000Y-27900000D01*
X139100000Y-28900000D02*
G75*
G02*
X140100000Y-27900000I1000000J0D01*
G01*
X98700000Y-27900000D02*
G75*
G02*
X100500000Y-29700000I0J-1800000D01*
G01*
X110500000Y-87700000D02*
X110500000Y-80700000D01*
X141100000Y-87700000D02*
X141100000Y-80700000D01*
X79900000Y-37800000D02*
X79900000Y-30700000D01*
X141900000Y-29900000D02*
X158100000Y-29900000D01*
X110500000Y-76300000D02*
X110500000Y-42200000D01*
X96900000Y-29900000D02*
G75*
G02*
X98500000Y-31500000I0J-1600000D01*
G01*
X139100000Y-80700000D02*
X139100000Y-89500000D01*
X108500000Y-37800000D02*
X108500000Y-28900000D01*
X141100000Y-76300000D02*
X141100000Y-42200000D01*
X140100000Y-90500000D02*
X160700000Y-90500000D01*
X98500000Y-87700000D02*
X98500000Y-31500000D01*
X141100000Y-37800000D02*
X141100000Y-30700000D01*
X110500000Y-37800000D02*
X110500000Y-30700000D01*
X110500000Y-76300000D02*
G75*
G02*
X108500000Y-76300000I-1000000J0D01*
G01*
X140100000Y-90500000D02*
G75*
G02*
X139100000Y-89500000I0J1000000D01*
G01*
X79900000Y-76300000D02*
X79900000Y-42200000D01*
X129100000Y-87700000D02*
G75*
G02*
X128300000Y-88500000I-800000J0D01*
G01*
X79900000Y-37800000D02*
G75*
G02*
X77900000Y-37800000I-1000000J0D01*
G01*
X167700000Y-19900000D02*
X71900000Y-19900000D01*
X169700000Y-104500000D02*
G75*
G02*
X167700000Y-106500000I-2000000J0D01*
G01*
X159700000Y-87700000D02*
X159700000Y-31500000D01*
X139100000Y-42200000D02*
X139100000Y-76300000D01*
X80700000Y-88500000D02*
G75*
G02*
X79900000Y-87700000I0J800000D01*
G01*
X141100000Y-30700000D02*
G75*
G02*
X141900000Y-29900000I800000J0D01*
G01*
X110500000Y-30700000D02*
G75*
G02*
X111300000Y-29900000I800000J0D01*
G01*
X141100000Y-37800000D02*
G75*
G02*
X139100000Y-37800000I-1000000J0D01*
G01*
X79900000Y-30700000D02*
G75*
G02*
X80700000Y-29900000I800000J0D01*
G01*
X141100000Y-76300000D02*
G75*
G02*
X139100000Y-76300000I-1000000J0D01*
G01*
X167700000Y-106500000D02*
X71900000Y-106500000D01*
X161700000Y-89500000D02*
G75*
G02*
X160700000Y-90500000I-1000000J0D01*
G01*
X139100000Y-42200000D02*
G75*
G02*
X141100000Y-42200000I1000000J0D01*
G01*
X78900000Y-90500000D02*
X99500000Y-90500000D01*
X141900000Y-88500000D02*
G75*
G02*
X141100000Y-87700000I0J800000D01*
G01*
X109500000Y-90500000D02*
G75*
G02*
X108500000Y-89500000I0J1000000D01*
G01*
X79900000Y-76300000D02*
G75*
G02*
X77900000Y-76300000I-1000000J0D01*
G01*
X98700000Y-27900000D02*
X78900000Y-27900000D01*
X108500000Y-42200000D02*
G75*
G02*
X110500000Y-42200000I1000000J0D01*
G01*
X108500000Y-28900000D02*
G75*
G02*
X109500000Y-27900000I1000000J0D01*
G01*
X80700000Y-29900000D02*
X96900000Y-29900000D01*
X77900000Y-42200000D02*
G75*
G02*
X79900000Y-42200000I1000000J0D01*
G01*
X77900000Y-42200000D02*
X77900000Y-76300000D01*
X108500000Y-80700000D02*
G75*
G02*
X110500000Y-80700000I1000000J0D01*
G01*
X71900000Y-106500000D02*
G75*
G02*
X69900000Y-104500000I0J2000000D01*
G01*
X169700000Y-104500000D02*
X169700000Y-21900000D01*
X167700000Y-19900000D02*
G75*
G02*
X169700000Y-21900000I0J-2000000D01*
G01*
X80700000Y-88500000D02*
X97700000Y-88500000D01*
X139100000Y-37800000D02*
X139100000Y-28900000D01*
X129100000Y-87700000D02*
X129100000Y-31500000D01*
X131100000Y-89500000D02*
G75*
G02*
X130100000Y-90500000I-1000000J0D01*
G01*
X100500000Y-89500000D02*
X100500000Y-29700000D01*
X159900000Y-27900000D02*
X140100000Y-27900000D01*
X69900000Y-21900000D02*
G75*
G02*
X71900000Y-19900000I2000000J0D01*
G01*
X77900000Y-37800000D02*
X77900000Y-28900000D01*
X77900000Y-80700000D02*
G75*
G02*
X79900000Y-80700000I1000000J0D01*
G01*
X109500000Y-90500000D02*
X130100000Y-90500000D01*
X159700000Y-87700000D02*
G75*
G02*
X158900000Y-88500000I-800000J0D01*
G01*
X77900000Y-80700000D02*
X77900000Y-89500000D01*
X100500000Y-89500000D02*
G75*
G02*
X99500000Y-90500000I-1000000J0D01*
G01*
X111300000Y-88500000D02*
X128300000Y-88500000D01*
X129300000Y-27900000D02*
G75*
G02*
X131100000Y-29700000I0J-1800000D01*
G01*
X159900000Y-27900000D02*
G75*
G02*
X161700000Y-29700000I0J-1800000D01*
G01*
X108500000Y-42200000D02*
X108500000Y-76300000D01*
X161700000Y-89500000D02*
X161700000Y-29700000D01*
X139100000Y-80700000D02*
G75*
G02*
X141100000Y-80700000I1000000J0D01*
G01*
X79900000Y-87700000D02*
X79900000Y-80700000D01*
X108500000Y-80700000D02*
X108500000Y-89500000D01*
X110500000Y-37800000D02*
G75*
G02*
X108500000Y-37800000I-1000000J0D01*
G01*
X111300000Y-88500000D02*
G75*
G02*
X110500000Y-87700000I0J800000D01*
G01*
X127500000Y-29900000D02*
G75*
G02*
X129100000Y-31500000I0J-1600000D01*
G01*
X69900000Y-104500000D02*
X69900000Y-21900000D01*
X141900000Y-88500000D02*
X158900000Y-88500000D01*
X158100000Y-29900000D02*
G75*
G02*
X159700000Y-31500000I0J-1600000D01*
G01*
M02*
