G04 #@! TF.GenerationSoftware,KiCad,Pcbnew,7.0.2*
G04 #@! TF.CreationDate,2023-04-26T23:48:15+03:00*
G04 #@! TF.ProjectId,mriya-right,6d726979-612d-4726-9967-68742e6b6963,0.9*
G04 #@! TF.SameCoordinates,Original*
G04 #@! TF.FileFunction,Soldermask,Top*
G04 #@! TF.FilePolarity,Negative*
%FSLAX46Y46*%
G04 Gerber Fmt 4.6, Leading zero omitted, Abs format (unit mm)*
G04 Created by KiCad (PCBNEW 7.0.2) date 2023-04-26 23:48:15*
%MOMM*%
%LPD*%
G01*
G04 APERTURE LIST*
%ADD10C,1.900000*%
%ADD11C,3.000000*%
%ADD12C,4.100000*%
%ADD13C,3.800000*%
%ADD14C,1.300000*%
%ADD15C,2.000000*%
%ADD16C,0.800000*%
G04 APERTURE END LIST*
G36*
X134352586Y-100300000D02*
G01*
X134352586Y-101274642D01*
X134102570Y-101274642D01*
X133852553Y-101274642D01*
X133852553Y-100300000D01*
X133852553Y-99325359D01*
X134102570Y-99325359D01*
X134352586Y-99325359D01*
X134352586Y-100300000D01*
G37*
G36*
X136667336Y-99378329D02*
G01*
X136658006Y-99393479D01*
X136640603Y-99421981D01*
X136615824Y-99462681D01*
X136584370Y-99514429D01*
X136546939Y-99576072D01*
X136504231Y-99646458D01*
X136456945Y-99724434D01*
X136405779Y-99808849D01*
X136351433Y-99898551D01*
X136294606Y-99992387D01*
X136247686Y-100069893D01*
X135861162Y-100708488D01*
X135861162Y-100991565D01*
X135861162Y-101274642D01*
X135611145Y-101274642D01*
X135361128Y-101274642D01*
X135361128Y-100991509D01*
X135361128Y-100708377D01*
X134945846Y-100020666D01*
X134886321Y-99922050D01*
X134829347Y-99827584D01*
X134775529Y-99738272D01*
X134725470Y-99655119D01*
X134679773Y-99579130D01*
X134639041Y-99511309D01*
X134603878Y-99452661D01*
X134574886Y-99404190D01*
X134552670Y-99366902D01*
X134537831Y-99341801D01*
X134530975Y-99329892D01*
X134530564Y-99329038D01*
X134538703Y-99328149D01*
X134561772Y-99327469D01*
X134597755Y-99327012D01*
X134644634Y-99326789D01*
X134700391Y-99326813D01*
X134763008Y-99327097D01*
X134798501Y-99327359D01*
X135066437Y-99329596D01*
X135337548Y-99789332D01*
X135385077Y-99869714D01*
X135430142Y-99945513D01*
X135472000Y-100015506D01*
X135509909Y-100078471D01*
X135543126Y-100133188D01*
X135570910Y-100178435D01*
X135592517Y-100212990D01*
X135607206Y-100235632D01*
X135614235Y-100245139D01*
X135614680Y-100245346D01*
X135619932Y-100237580D01*
X135633029Y-100216452D01*
X135653224Y-100183209D01*
X135679770Y-100139100D01*
X135711920Y-100085374D01*
X135748928Y-100023279D01*
X135790046Y-99954064D01*
X135834528Y-99878978D01*
X135881628Y-99799269D01*
X135890936Y-99783492D01*
X136161171Y-99325359D01*
X136430817Y-99325359D01*
X136700463Y-99325359D01*
X136667336Y-99378329D01*
G37*
G36*
X137545170Y-99302358D02*
G01*
X137615625Y-99310658D01*
X137677530Y-99325797D01*
X137677931Y-99325931D01*
X137739252Y-99355053D01*
X137793321Y-99398120D01*
X137837359Y-99452726D01*
X137850541Y-99475347D01*
X137856025Y-99487296D01*
X137867545Y-99513645D01*
X137884583Y-99553162D01*
X137906618Y-99604616D01*
X137933131Y-99666776D01*
X137963603Y-99738410D01*
X137997515Y-99818286D01*
X138034347Y-99905174D01*
X138073580Y-99997841D01*
X138114693Y-100095056D01*
X138157169Y-100195589D01*
X138200487Y-100298207D01*
X138244128Y-100401679D01*
X138287573Y-100504774D01*
X138330303Y-100606261D01*
X138371797Y-100704907D01*
X138411536Y-100799481D01*
X138449002Y-100888753D01*
X138483674Y-100971490D01*
X138515034Y-101046461D01*
X138542561Y-101112435D01*
X138565737Y-101168180D01*
X138584042Y-101212466D01*
X138596957Y-101244059D01*
X138603437Y-101260351D01*
X138604057Y-101264403D01*
X138601329Y-101267597D01*
X138593559Y-101270013D01*
X138579053Y-101271731D01*
X138556118Y-101272832D01*
X138523059Y-101273396D01*
X138478184Y-101273503D01*
X138419798Y-101273232D01*
X138346208Y-101272666D01*
X138343741Y-101272645D01*
X138078467Y-101270404D01*
X137990458Y-101047931D01*
X137902450Y-100825459D01*
X137492633Y-100825459D01*
X137082815Y-100825459D01*
X136994955Y-101047931D01*
X136907094Y-101270404D01*
X136646857Y-101272645D01*
X136567584Y-101273137D01*
X136504183Y-101273083D01*
X136455585Y-101272453D01*
X136420720Y-101271217D01*
X136398519Y-101269345D01*
X136387911Y-101266806D01*
X136386620Y-101265264D01*
X136389819Y-101256264D01*
X136399079Y-101232842D01*
X136413896Y-101196206D01*
X136433768Y-101147562D01*
X136458192Y-101088117D01*
X136486664Y-101019077D01*
X136518680Y-100941648D01*
X136553738Y-100857037D01*
X136591334Y-100766451D01*
X136630964Y-100671096D01*
X136672126Y-100572178D01*
X136714317Y-100470904D01*
X136727464Y-100439380D01*
X137208709Y-100439380D01*
X137216858Y-100440495D01*
X137239998Y-100441515D01*
X137276172Y-100442409D01*
X137323421Y-100443143D01*
X137379786Y-100443686D01*
X137443310Y-100444005D01*
X137493198Y-100444078D01*
X137570044Y-100444058D01*
X137631596Y-100443929D01*
X137679509Y-100443589D01*
X137715441Y-100442933D01*
X137741046Y-100441860D01*
X137757981Y-100440264D01*
X137767902Y-100438045D01*
X137772465Y-100435097D01*
X137773325Y-100431318D01*
X137772167Y-100426689D01*
X137766939Y-100412422D01*
X137756262Y-100385005D01*
X137740985Y-100346517D01*
X137721956Y-100299040D01*
X137700024Y-100244653D01*
X137676038Y-100185439D01*
X137650846Y-100123476D01*
X137625296Y-100060845D01*
X137600237Y-99999627D01*
X137576519Y-99941902D01*
X137554988Y-99889751D01*
X137536494Y-99845254D01*
X137521885Y-99810492D01*
X137512010Y-99787544D01*
X137507911Y-99778779D01*
X137497770Y-99761829D01*
X137481680Y-99778779D01*
X137476161Y-99788931D01*
X137465182Y-99812745D01*
X137449585Y-99848181D01*
X137430213Y-99893198D01*
X137407910Y-99945757D01*
X137383518Y-100003817D01*
X137357880Y-100065339D01*
X137331839Y-100128281D01*
X137306239Y-100190605D01*
X137281922Y-100250269D01*
X137259732Y-100305234D01*
X137240511Y-100353460D01*
X137225102Y-100392907D01*
X137214349Y-100421533D01*
X137209094Y-100437300D01*
X137208709Y-100439380D01*
X136727464Y-100439380D01*
X136757032Y-100368481D01*
X136799768Y-100266115D01*
X136842023Y-100165012D01*
X136883293Y-100066380D01*
X136923074Y-99971424D01*
X136960863Y-99881351D01*
X136996158Y-99797367D01*
X137028454Y-99720680D01*
X137057249Y-99652495D01*
X137082038Y-99594019D01*
X137102319Y-99546459D01*
X137117589Y-99511020D01*
X137127344Y-99488911D01*
X137130185Y-99482850D01*
X137156016Y-99441383D01*
X137189998Y-99400800D01*
X137227720Y-99365593D01*
X137264773Y-99340255D01*
X137275030Y-99335279D01*
X137331094Y-99317355D01*
X137398045Y-99305819D01*
X137471023Y-99300782D01*
X137545170Y-99302358D01*
G37*
G36*
X132281454Y-99326371D02*
G01*
X132374253Y-99326705D01*
X132481942Y-99327170D01*
X132560683Y-99327530D01*
X132681860Y-99328085D01*
X132787352Y-99328612D01*
X132878423Y-99329198D01*
X132956340Y-99329929D01*
X133022366Y-99330891D01*
X133077767Y-99332173D01*
X133123807Y-99333859D01*
X133161752Y-99336038D01*
X133192866Y-99338794D01*
X133218414Y-99342216D01*
X133239661Y-99346389D01*
X133257873Y-99351401D01*
X133274313Y-99357337D01*
X133290247Y-99364284D01*
X133306940Y-99372330D01*
X133321747Y-99379643D01*
X133377853Y-99413092D01*
X133423898Y-99454679D01*
X133461306Y-99503271D01*
X133497361Y-99570107D01*
X133526011Y-99650902D01*
X133546935Y-99744217D01*
X133559813Y-99848610D01*
X133564322Y-99962643D01*
X133564324Y-99965232D01*
X133559768Y-100094748D01*
X133546053Y-100210391D01*
X133523206Y-100312065D01*
X133491254Y-100399670D01*
X133450225Y-100473109D01*
X133409068Y-100523469D01*
X133359578Y-100566548D01*
X133304737Y-100598790D01*
X133242131Y-100621029D01*
X133169348Y-100634099D01*
X133083972Y-100638834D01*
X133074959Y-100638881D01*
X133037039Y-100639454D01*
X133006269Y-100640917D01*
X132986029Y-100643040D01*
X132979613Y-100645320D01*
X132985433Y-100652355D01*
X133002147Y-100670211D01*
X133028639Y-100697749D01*
X133063792Y-100733828D01*
X133106490Y-100777309D01*
X133155617Y-100827054D01*
X133210055Y-100881921D01*
X133268689Y-100940773D01*
X133291032Y-100963138D01*
X133602450Y-101274642D01*
X133292057Y-101274642D01*
X132981663Y-101274642D01*
X132762404Y-101022702D01*
X132711052Y-100963806D01*
X132660574Y-100906118D01*
X132612657Y-100851551D01*
X132568990Y-100802018D01*
X132531257Y-100759434D01*
X132501148Y-100725711D01*
X132480349Y-100702763D01*
X132479400Y-100701733D01*
X132449971Y-100668111D01*
X132422209Y-100633322D01*
X132400005Y-100602393D01*
X132390607Y-100587123D01*
X132377863Y-100561895D01*
X132370296Y-100539516D01*
X132366586Y-100513825D01*
X132365411Y-100478663D01*
X132365362Y-100469503D01*
X132367619Y-100416955D01*
X132375882Y-100377389D01*
X132391893Y-100347384D01*
X132417397Y-100323517D01*
X132449282Y-100304769D01*
X132465616Y-100296740D01*
X132480313Y-100290583D01*
X132495966Y-100285969D01*
X132515170Y-100282569D01*
X132540520Y-100280054D01*
X132574611Y-100278095D01*
X132620038Y-100276364D01*
X132679395Y-100274531D01*
X132690432Y-100274204D01*
X132763635Y-100271681D01*
X132822096Y-100268637D01*
X132868027Y-100264650D01*
X132903636Y-100259295D01*
X132931133Y-100252148D01*
X132952726Y-100242784D01*
X132970627Y-100230779D01*
X132985145Y-100217627D01*
X133008692Y-100186923D01*
X133025636Y-100147449D01*
X133036531Y-100097065D01*
X133041930Y-100033633D01*
X133042748Y-99994895D01*
X133041318Y-99928790D01*
X133035921Y-99876513D01*
X133025877Y-99835262D01*
X133010504Y-99802237D01*
X132989191Y-99774711D01*
X132975740Y-99761252D01*
X132962277Y-99750173D01*
X132947074Y-99741244D01*
X132928401Y-99734233D01*
X132904527Y-99728909D01*
X132873723Y-99725042D01*
X132834259Y-99722399D01*
X132784405Y-99720750D01*
X132722432Y-99719864D01*
X132646609Y-99719509D01*
X132575551Y-99719453D01*
X132495301Y-99719484D01*
X132430242Y-99719638D01*
X132378618Y-99720011D01*
X132338670Y-99720696D01*
X132308641Y-99721789D01*
X132286773Y-99723383D01*
X132271308Y-99725573D01*
X132260487Y-99728452D01*
X132252553Y-99732117D01*
X132245748Y-99736660D01*
X132245021Y-99737197D01*
X132225246Y-99758073D01*
X132211063Y-99783554D01*
X132210973Y-99783810D01*
X132209057Y-99793951D01*
X132207363Y-99813290D01*
X132205882Y-99842594D01*
X132204603Y-99882630D01*
X132203514Y-99934165D01*
X132202605Y-99997966D01*
X132201866Y-100074799D01*
X132201286Y-100165432D01*
X132200853Y-100270630D01*
X132200558Y-100391162D01*
X132200390Y-100527793D01*
X132200379Y-100543661D01*
X132199900Y-101274642D01*
X131949692Y-101274642D01*
X131699484Y-101274642D01*
X131701794Y-100399583D01*
X131702148Y-100254407D01*
X131702447Y-100125186D01*
X131702766Y-100010925D01*
X131703181Y-99910629D01*
X131703765Y-99823303D01*
X131704593Y-99747952D01*
X131705739Y-99683581D01*
X131707278Y-99629195D01*
X131709285Y-99583800D01*
X131711833Y-99546400D01*
X131714998Y-99516000D01*
X131718855Y-99491606D01*
X131723476Y-99472223D01*
X131728938Y-99456854D01*
X131735314Y-99444507D01*
X131742679Y-99434185D01*
X131751108Y-99424894D01*
X131760675Y-99415639D01*
X131771455Y-99405425D01*
X131776630Y-99400341D01*
X131805588Y-99374678D01*
X131835202Y-99357141D01*
X131873419Y-99343076D01*
X131875385Y-99342475D01*
X131886772Y-99339116D01*
X131898084Y-99336215D01*
X131910569Y-99333744D01*
X131925472Y-99331675D01*
X131944043Y-99329983D01*
X131967526Y-99328639D01*
X131997171Y-99327616D01*
X132034223Y-99326888D01*
X132079931Y-99326426D01*
X132135540Y-99326204D01*
X132202299Y-99326195D01*
X132281454Y-99326371D01*
G37*
G36*
X129247329Y-99310844D02*
G01*
X129305508Y-99317344D01*
X129326039Y-99321459D01*
X129399603Y-99346861D01*
X129467356Y-99385964D01*
X129526500Y-99436526D01*
X129574235Y-99496308D01*
X129597814Y-99539038D01*
X129604744Y-99555715D01*
X129616924Y-99586925D01*
X129633831Y-99631262D01*
X129654942Y-99687322D01*
X129679732Y-99753700D01*
X129707680Y-99828992D01*
X129738262Y-99911792D01*
X129770954Y-100000696D01*
X129805234Y-100094300D01*
X129834575Y-100174712D01*
X129869346Y-100270001D01*
X129902629Y-100360899D01*
X129933944Y-100446108D01*
X129962808Y-100524333D01*
X129988739Y-100594275D01*
X130011254Y-100654639D01*
X130029873Y-100704127D01*
X130044113Y-100741443D01*
X130053491Y-100765288D01*
X130057379Y-100774165D01*
X130075005Y-100792879D01*
X130093699Y-100794897D01*
X130108112Y-100785278D01*
X130113430Y-100774998D01*
X130124021Y-100750042D01*
X130139405Y-100711676D01*
X130159099Y-100661167D01*
X130182622Y-100599782D01*
X130209492Y-100528788D01*
X130239226Y-100449450D01*
X130271344Y-100363036D01*
X130305362Y-100270813D01*
X130340799Y-100174046D01*
X130344257Y-100164566D01*
X130380065Y-100066640D01*
X130414662Y-99972538D01*
X130447545Y-99883599D01*
X130478210Y-99801162D01*
X130506153Y-99726566D01*
X130530872Y-99661150D01*
X130551861Y-99606252D01*
X130568619Y-99563211D01*
X130580640Y-99533367D01*
X130587421Y-99518057D01*
X130587608Y-99517708D01*
X130631936Y-99451119D01*
X130685510Y-99397861D01*
X130749052Y-99357523D01*
X130823284Y-99329693D01*
X130908927Y-99313959D01*
X130950256Y-99310770D01*
X131045225Y-99311659D01*
X131130928Y-99323817D01*
X131205744Y-99346959D01*
X131236288Y-99361335D01*
X131278836Y-99388133D01*
X131311431Y-99419585D01*
X131338583Y-99460581D01*
X131351622Y-99486387D01*
X131373574Y-99533000D01*
X131373574Y-100405940D01*
X131373574Y-101278879D01*
X131128351Y-101281130D01*
X131065414Y-101281466D01*
X131007958Y-101281309D01*
X130958178Y-101280701D01*
X130918264Y-101279687D01*
X130890410Y-101278309D01*
X130876807Y-101276610D01*
X130875926Y-101276179D01*
X130874922Y-101266778D01*
X130874188Y-101241710D01*
X130873721Y-101202258D01*
X130873516Y-101149702D01*
X130873570Y-101085324D01*
X130873877Y-101010407D01*
X130874434Y-100926230D01*
X130875237Y-100834077D01*
X130876281Y-100735229D01*
X130877562Y-100630966D01*
X130878168Y-100586036D01*
X130879900Y-100458999D01*
X130881333Y-100347853D01*
X130882444Y-100251540D01*
X130883205Y-100169003D01*
X130883591Y-100099182D01*
X130883578Y-100041022D01*
X130883138Y-99993464D01*
X130882246Y-99955451D01*
X130880877Y-99925925D01*
X130879004Y-99903829D01*
X130876603Y-99888104D01*
X130873648Y-99877694D01*
X130870112Y-99871540D01*
X130865970Y-99868586D01*
X130861196Y-99867772D01*
X130860725Y-99867768D01*
X130850779Y-99874151D01*
X130839253Y-99888357D01*
X130834234Y-99899569D01*
X130824015Y-99925435D01*
X130809082Y-99964639D01*
X130789920Y-100015865D01*
X130767014Y-100077799D01*
X130740847Y-100149124D01*
X130711905Y-100228525D01*
X130680672Y-100314687D01*
X130647634Y-100406295D01*
X130618309Y-100487973D01*
X130583726Y-100584279D01*
X130550248Y-100677080D01*
X130518396Y-100764959D01*
X130488691Y-100846498D01*
X130461655Y-100920279D01*
X130437809Y-100984884D01*
X130417672Y-101038895D01*
X130401767Y-101080894D01*
X130390614Y-101109463D01*
X130385504Y-101121608D01*
X130351172Y-101183864D01*
X130312591Y-101230950D01*
X130268405Y-101264400D01*
X130251214Y-101273238D01*
X130227508Y-101283111D01*
X130204551Y-101289677D01*
X130177631Y-101293710D01*
X130142036Y-101295984D01*
X130106540Y-101297007D01*
X130066044Y-101297478D01*
X130030563Y-101297171D01*
X130004261Y-101296165D01*
X129992126Y-101294795D01*
X129928938Y-101273459D01*
X129878199Y-101243412D01*
X129836700Y-101202082D01*
X129801234Y-101146897D01*
X129796632Y-101138046D01*
X129790061Y-101122745D01*
X129778340Y-101092825D01*
X129761968Y-101049649D01*
X129741446Y-100994578D01*
X129717273Y-100928976D01*
X129689949Y-100854203D01*
X129659974Y-100771622D01*
X129627848Y-100682596D01*
X129594069Y-100588487D01*
X129559615Y-100491993D01*
X129525012Y-100395170D01*
X129491772Y-100302816D01*
X129460369Y-100216205D01*
X129431274Y-100136609D01*
X129404961Y-100065301D01*
X129381902Y-100003556D01*
X129362569Y-99952647D01*
X129347435Y-99913846D01*
X129336973Y-99888427D01*
X129331656Y-99877663D01*
X129331546Y-99877545D01*
X129319850Y-99868375D01*
X129311085Y-99872454D01*
X129305121Y-99879982D01*
X129302890Y-99884973D01*
X129300941Y-99894229D01*
X129299255Y-99908800D01*
X129297814Y-99929735D01*
X129296602Y-99958083D01*
X129295598Y-99994892D01*
X129294786Y-100041213D01*
X129294148Y-100098094D01*
X129293665Y-100166585D01*
X129293319Y-100247735D01*
X129293093Y-100342592D01*
X129292968Y-100452207D01*
X129292927Y-100577628D01*
X129292927Y-100589775D01*
X129292927Y-101283117D01*
X129046994Y-101283117D01*
X128801062Y-101283117D01*
X128803334Y-100403821D01*
X128805606Y-99524525D01*
X128825093Y-99482149D01*
X128857533Y-99429502D01*
X128902305Y-99386605D01*
X128960192Y-99352925D01*
X129031978Y-99327929D01*
X129061843Y-99320854D01*
X129118570Y-99312583D01*
X129182708Y-99309251D01*
X129247329Y-99310844D01*
G37*
D10*
X128520000Y-113000000D03*
D11*
X129790000Y-110460000D03*
D12*
X133600000Y-113000000D03*
D11*
X136140000Y-107920000D03*
D10*
X138680000Y-113000000D03*
X168920000Y-50000000D03*
D11*
X170190000Y-47460000D03*
D12*
X174000000Y-50000000D03*
D11*
X176540000Y-44920000D03*
D10*
X179080000Y-50000000D03*
D13*
X164500000Y-99000000D03*
D14*
X124900000Y-91500000D03*
X131900000Y-91500000D03*
D15*
X124300000Y-100300000D03*
D10*
X244920000Y-57000000D03*
D11*
X246190000Y-54460000D03*
D12*
X250000000Y-57000000D03*
D11*
X252540000Y-51920000D03*
D10*
X255080000Y-57000000D03*
D15*
X143100000Y-100300000D03*
X143100000Y-46300000D03*
D10*
X149920000Y-71300000D03*
D11*
X151190000Y-68760000D03*
D12*
X155000000Y-71300000D03*
D11*
X157540000Y-66220000D03*
D10*
X160080000Y-71300000D03*
X168920000Y-88000000D03*
D11*
X170190000Y-85460000D03*
D12*
X174000000Y-88000000D03*
D11*
X176540000Y-82920000D03*
D10*
X179080000Y-88000000D03*
X149920000Y-90300000D03*
D11*
X151190000Y-87760000D03*
D12*
X155000000Y-90300000D03*
D11*
X157540000Y-85220000D03*
D10*
X160080000Y-90300000D03*
X168920000Y-107700000D03*
D11*
X170190000Y-105160000D03*
D12*
X174000000Y-107700000D03*
D11*
X176540000Y-102620000D03*
D10*
X179080000Y-107700000D03*
X206920000Y-69000000D03*
D11*
X208190000Y-66460000D03*
D12*
X212000000Y-69000000D03*
D11*
X214540000Y-63920000D03*
D10*
X217080000Y-69000000D03*
D13*
X164500000Y-60650000D03*
D10*
X244920000Y-95000000D03*
D11*
X246190000Y-92460000D03*
D12*
X250000000Y-95000000D03*
D11*
X252540000Y-89920000D03*
D10*
X255080000Y-95000000D03*
X244920000Y-76000000D03*
D11*
X246190000Y-73460000D03*
D12*
X250000000Y-76000000D03*
D11*
X252540000Y-70920000D03*
D10*
X255080000Y-76000000D03*
X187920000Y-66000000D03*
D11*
X189190000Y-63460000D03*
D12*
X193000000Y-66000000D03*
D11*
X195540000Y-60920000D03*
D10*
X198080000Y-66000000D03*
X206920000Y-88000000D03*
D11*
X208190000Y-85460000D03*
D12*
X212000000Y-88000000D03*
D11*
X214540000Y-82920000D03*
D10*
X217080000Y-88000000D03*
D13*
X240500000Y-85500000D03*
D10*
X149920000Y-110000000D03*
D11*
X151190000Y-107460000D03*
D12*
X155000000Y-110000000D03*
D11*
X157540000Y-104920000D03*
D10*
X160080000Y-110000000D03*
D13*
X240500000Y-66500000D03*
D10*
X187920000Y-85000000D03*
D11*
X189190000Y-82460000D03*
D12*
X193000000Y-85000000D03*
D11*
X195540000Y-79920000D03*
D10*
X198080000Y-85000000D03*
X168920000Y-69000000D03*
D11*
X170190000Y-66460000D03*
D12*
X174000000Y-69000000D03*
D11*
X176540000Y-63920000D03*
D10*
X179080000Y-69000000D03*
X225920000Y-76000000D03*
D11*
X227190000Y-73460000D03*
D12*
X231000000Y-76000000D03*
D11*
X233540000Y-70920000D03*
D10*
X236080000Y-76000000D03*
X225920000Y-57000000D03*
D11*
X227190000Y-54460000D03*
D12*
X231000000Y-57000000D03*
D11*
X233540000Y-51920000D03*
D10*
X236080000Y-57000000D03*
X206920000Y-50000000D03*
D11*
X208190000Y-47460000D03*
D12*
X212000000Y-50000000D03*
D11*
X214540000Y-44920000D03*
D10*
X217080000Y-50000000D03*
X149920000Y-52300000D03*
D11*
X151190000Y-49760000D03*
D12*
X155000000Y-52300000D03*
D11*
X157540000Y-47220000D03*
D10*
X160080000Y-52300000D03*
X225920000Y-95000000D03*
D11*
X227190000Y-92460000D03*
D12*
X231000000Y-95000000D03*
D11*
X233540000Y-89920000D03*
D10*
X236080000Y-95000000D03*
X187920000Y-47000000D03*
D11*
X189190000Y-44460000D03*
D12*
X193000000Y-47000000D03*
D11*
X195540000Y-41920000D03*
D10*
X198080000Y-47000000D03*
D16*
X130500000Y-45400000D03*
X133500000Y-45400000D03*
M02*
