M48
; DRILL file {KiCad 7.0.2} date Wed Apr 26 23:48:21 2023
; FORMAT={-:-/ absolute / inch / decimal}
; #@! TF.CreationDate,2023-04-26T23:48:21+03:00
; #@! TF.GenerationSoftware,Kicad,Pcbnew,7.0.2
; #@! TF.FileFunction,Plated,1,2,PTH
FMAT,2
INCH
; #@! TA.AperFunction,Plated,PTH,ViaDrill
T1C0.0157
; #@! TA.AperFunction,Plated,PTH,ComponentDrill
T2C0.0236
; #@! TA.AperFunction,Plated,PTH,ComponentDrill
T3C0.0315
; #@! TA.AperFunction,Plated,PTH,ComponentDrill
T4C0.0320
; #@! TA.AperFunction,Plated,PTH,ComponentDrill
T5C0.0339
; #@! TA.AperFunction,Plated,PTH,ComponentDrill
T6C0.0354
%
G90
G05
T1
X5.1336Y-2.3317
X5.1651Y-2.4301
X5.2281Y-2.0827
X5.7825Y-4.4715
X5.7943Y-3.686
X5.7955Y-2.2047
X5.8122Y-3.7283
X5.8228Y-3.1033
X5.8234Y-1.9591
X5.8234Y-2.7071
X5.8234Y-3.4551
X6.5708Y-3.0472
X6.5715Y-1.8685
X6.5715Y-2.6165
X6.5715Y-3.3646
X6.5728Y-3.6398
X7.3189Y-2.929
X7.3195Y-1.7504
X7.3195Y-2.4984
X7.3195Y-3.2465
X7.3209Y-3.5492
X8.0211Y-2.1777
X8.0388Y-2.1384
X8.0674Y-2.9646
X8.0675Y-1.8685
X8.0675Y-2.6165
X8.0675Y-3.3646
X8.8143Y-3.2168
X8.8156Y-2.1441
X8.8156Y-2.8921
X8.8156Y-3.6402
X9.5636Y-2.1441
X9.5636Y-2.8921
X9.5636Y-3.1884
X9.5636Y-3.6402
T2
X4.8969Y-1.8358
X5.4969Y-1.8358
T4
X4.8969Y-1.9303
X4.8969Y-2.0303
X4.8969Y-2.1303
X4.8969Y-2.2303
X4.8969Y-2.4303
X4.8969Y-2.6303
X4.8969Y-2.7303
X4.8969Y-2.9303
X4.8969Y-3.0303
X4.9969Y-3.2303
X5.0969Y-3.2303
X5.1969Y-3.2303
X5.2969Y-3.2303
X5.3969Y-3.2303
X5.4969Y-1.9303
X5.4969Y-2.0303
X5.4969Y-2.1303
X5.4969Y-2.2303
X5.4969Y-2.3303
X5.4969Y-2.4303
X5.4969Y-2.5303
X5.4969Y-2.6303
X5.4969Y-2.7303
X5.4969Y-2.8303
X5.4969Y-2.9303
X5.4969Y-3.0303
T5
X4.8969Y-2.3303
X4.8969Y-2.5303
X4.8969Y-2.8303
T6
X7.2846Y-3.9192
X7.374Y-3.7438
X7.3898Y-3.9728
X7.4792Y-3.7974
T3
X4.9665Y-3.5157G85X4.9941Y-3.5157
G05
X5.0846Y-3.5157G85X5.1122Y-3.5157
G05
X5.2421Y-3.5157G85X5.2697Y-3.5157
G05
X5.2854Y-3.689G85X5.313Y-3.689
G05
T0
M30
