G04 #@! TF.GenerationSoftware,KiCad,Pcbnew,7.0.2*
G04 #@! TF.CreationDate,2023-04-26T23:48:15+03:00*
G04 #@! TF.ProjectId,mriya-right,6d726979-612d-4726-9967-68742e6b6963,0.9*
G04 #@! TF.SameCoordinates,Original*
G04 #@! TF.FileFunction,Profile,NP*
%FSLAX46Y46*%
G04 Gerber Fmt 4.6, Leading zero omitted, Abs format (unit mm)*
G04 Created by KiCad (PCBNEW 7.0.2) date 2023-04-26 23:48:15*
%MOMM*%
%LPD*%
G01*
G04 APERTURE LIST*
G04 #@! TA.AperFunction,Profile*
%ADD10C,0.100000*%
G04 #@! TD*
G04 APERTURE END LIST*
D10*
X205414214Y-41000000D02*
X220585786Y-41000000D01*
X202292893Y-38292893D02*
X204707107Y-40707107D01*
X166714214Y-116700010D02*
G75*
G03*
X166007107Y-116992893I-14J-999990D01*
G01*
X221707107Y-103707107D02*
X215585786Y-97585786D01*
X166714214Y-116700000D02*
X182386154Y-116700000D01*
X258100000Y-104000000D02*
X222414214Y-104000000D01*
X148414214Y-119000010D02*
G75*
G03*
X147707107Y-119292893I-14J-999990D01*
G01*
X214171573Y-97000000D02*
X194227691Y-97000000D01*
X184414214Y-38000010D02*
G75*
G03*
X183707107Y-38292893I-14J-999990D01*
G01*
X122100000Y-121000000D02*
X122100000Y-45300000D01*
X162285786Y-43300000D02*
X124100000Y-43300000D01*
X204707100Y-40707114D02*
G75*
G03*
X205414214Y-41000000I707100J707114D01*
G01*
X122100000Y-121000000D02*
G75*
G03*
X123100000Y-122000000I1000000J0D01*
G01*
X184414214Y-38000000D02*
X201585786Y-38000000D01*
X165414214Y-41000010D02*
G75*
G03*
X164707107Y-41292893I-14J-999990D01*
G01*
X162285786Y-43299990D02*
G75*
G03*
X162992893Y-43007107I14J999990D01*
G01*
X124100000Y-43300000D02*
G75*
G03*
X122100000Y-45300000I0J-2000000D01*
G01*
X221707121Y-103707093D02*
G75*
G03*
X222414214Y-104000000I707079J706993D01*
G01*
X183277849Y-116152637D02*
X192444301Y-98094726D01*
X123100000Y-122000000D02*
X144585786Y-122000000D01*
X163585786Y-118999990D02*
G75*
G03*
X164292893Y-118707107I14J999990D01*
G01*
X227414221Y-47414207D02*
G75*
G03*
X228828427Y-48000000I1414179J1414107D01*
G01*
X183707107Y-38292893D02*
X181292893Y-40707107D01*
X259100000Y-49000000D02*
G75*
G03*
X258100000Y-48000000I-1000000J0D01*
G01*
X148414214Y-119000000D02*
X163585786Y-119000000D01*
X180585786Y-40999990D02*
G75*
G03*
X181292893Y-40707107I14J999990D01*
G01*
X258100000Y-104000000D02*
G75*
G03*
X259100000Y-103000000I0J1000000D01*
G01*
X164707107Y-41292893D02*
X162992893Y-43007107D01*
X165414214Y-41000000D02*
X180585786Y-41000000D01*
X144585786Y-121999990D02*
G75*
G03*
X145292893Y-121707107I14J999990D01*
G01*
X202292900Y-38292886D02*
G75*
G03*
X201585786Y-38000000I-707100J-707114D01*
G01*
X164292893Y-118707107D02*
X166007107Y-116992893D01*
X182386154Y-116699959D02*
G75*
G03*
X183277849Y-116152637I46J999959D01*
G01*
X145292893Y-121707107D02*
X147707107Y-119292893D01*
X215585779Y-97585793D02*
G75*
G03*
X214171573Y-97000000I-1414179J-1414107D01*
G01*
X221292893Y-41292893D02*
X227414214Y-47414214D01*
X221292879Y-41292907D02*
G75*
G03*
X220585786Y-41000000I-707079J-706993D01*
G01*
X194227691Y-96999992D02*
G75*
G03*
X192444301Y-98094726I9J-2000008D01*
G01*
X259100000Y-49000000D02*
X259100000Y-103000000D01*
X228828427Y-48000000D02*
X258100000Y-48000000D01*
M02*
