G04 #@! TF.GenerationSoftware,KiCad,Pcbnew,7.0.2*
G04 #@! TF.CreationDate,2023-04-26T23:48:15+03:00*
G04 #@! TF.ProjectId,mriya-right,6d726979-612d-4726-9967-68742e6b6963,0.9*
G04 #@! TF.SameCoordinates,Original*
G04 #@! TF.FileFunction,Soldermask,Bot*
G04 #@! TF.FilePolarity,Negative*
%FSLAX46Y46*%
G04 Gerber Fmt 4.6, Leading zero omitted, Abs format (unit mm)*
G04 Created by KiCad (PCBNEW 7.0.2) date 2023-04-26 23:48:15*
%MOMM*%
%LPD*%
G01*
G04 APERTURE LIST*
G04 Aperture macros list*
%AMRoundRect*
0 Rectangle with rounded corners*
0 $1 Rounding radius*
0 $2 $3 $4 $5 $6 $7 $8 $9 X,Y pos of 4 corners*
0 Add a 4 corners polygon primitive as box body*
4,1,4,$2,$3,$4,$5,$6,$7,$8,$9,$2,$3,0*
0 Add four circle primitives for the rounded corners*
1,1,$1+$1,$2,$3*
1,1,$1+$1,$4,$5*
1,1,$1+$1,$6,$7*
1,1,$1+$1,$8,$9*
0 Add four rect primitives between the rounded corners*
20,1,$1+$1,$2,$3,$4,$5,0*
20,1,$1+$1,$4,$5,$6,$7,0*
20,1,$1+$1,$6,$7,$8,$9,0*
20,1,$1+$1,$8,$9,$2,$3,0*%
G04 Aperture macros list end*
%ADD10C,1.900000*%
%ADD11C,3.000000*%
%ADD12C,4.100000*%
%ADD13RoundRect,0.200000X1.075000X1.050000X-1.075000X1.050000X-1.075000X-1.050000X1.075000X-1.050000X0*%
%ADD14C,3.800000*%
%ADD15C,1.300000*%
%ADD16O,2.200000X1.400000*%
%ADD17C,2.000000*%
%ADD18C,1.500000*%
%ADD19RoundRect,0.375000X-0.375000X-0.375000X0.375000X-0.375000X0.375000X0.375000X-0.375000X0.375000X0*%
%ADD20O,1.200000X1.200000*%
%ADD21RoundRect,0.300000X-0.300000X-0.300000X0.300000X-0.300000X0.300000X0.300000X-0.300000X0.300000X0*%
%ADD22RoundRect,0.200000X0.300000X-0.500000X0.300000X0.500000X-0.300000X0.500000X-0.300000X-0.500000X0*%
%ADD23RoundRect,0.120000X-0.380000X-0.280000X0.380000X-0.280000X0.380000X0.280000X-0.380000X0.280000X0*%
%ADD24C,0.800000*%
%ADD25RoundRect,0.120000X-0.280000X-0.680000X0.280000X-0.680000X0.280000X0.680000X-0.280000X0.680000X0*%
G04 APERTURE END LIST*
D10*
X128520000Y-113000000D03*
D11*
X129790000Y-110460000D03*
D12*
X133600000Y-113000000D03*
D11*
X136140000Y-107920000D03*
D10*
X138680000Y-113000000D03*
D13*
X126515000Y-110460000D03*
X139442000Y-107920000D03*
D10*
X168920000Y-50000000D03*
D11*
X170190000Y-47460000D03*
D12*
X174000000Y-50000000D03*
D11*
X176540000Y-44920000D03*
D10*
X179080000Y-50000000D03*
D13*
X166915000Y-47460000D03*
X179842000Y-44920000D03*
D14*
X164500000Y-99000000D03*
D15*
X124900000Y-91500000D03*
X131900000Y-91500000D03*
D16*
X134600000Y-93700000D03*
X126500000Y-89300000D03*
X129500000Y-89300000D03*
X133500000Y-89300000D03*
D17*
X124300000Y-100300000D03*
D15*
X185028514Y-99546531D03*
X187701534Y-100908502D03*
X189971486Y-96453469D03*
X187298466Y-95091498D03*
D10*
X244920000Y-57000000D03*
D11*
X246190000Y-54460000D03*
D12*
X250000000Y-57000000D03*
D11*
X252540000Y-51920000D03*
D10*
X255080000Y-57000000D03*
D13*
X242915000Y-54460000D03*
X255842000Y-51920000D03*
D17*
X143100000Y-100300000D03*
X143100000Y-46300000D03*
D10*
X149920000Y-71300000D03*
D11*
X151190000Y-68760000D03*
D12*
X155000000Y-71300000D03*
D11*
X157540000Y-66220000D03*
D10*
X160080000Y-71300000D03*
D13*
X147915000Y-68760000D03*
X160842000Y-66220000D03*
D18*
X139620000Y-49030000D03*
X139620000Y-51570000D03*
D19*
X139620000Y-54110000D03*
X139620000Y-56650000D03*
D18*
X139620000Y-59190000D03*
X139620000Y-61730000D03*
X139620000Y-64270000D03*
X139620000Y-66810000D03*
X139620000Y-69350000D03*
X139620000Y-71890000D03*
X139620000Y-74430000D03*
X139620000Y-76970000D03*
X124380000Y-76970000D03*
X124380000Y-74430000D03*
X124380000Y-71890000D03*
X124380000Y-69350000D03*
X124380000Y-66810000D03*
X124380000Y-64270000D03*
X124380000Y-61730000D03*
X124380000Y-59190000D03*
X124380000Y-56650000D03*
X124380000Y-54110000D03*
D19*
X124380000Y-51570000D03*
D18*
X124380000Y-49030000D03*
D10*
X168920000Y-88000000D03*
D11*
X170190000Y-85460000D03*
D12*
X174000000Y-88000000D03*
D11*
X176540000Y-82920000D03*
D10*
X179080000Y-88000000D03*
D13*
X166915000Y-85460000D03*
X179842000Y-82920000D03*
D10*
X149920000Y-90300000D03*
D11*
X151190000Y-87760000D03*
D12*
X155000000Y-90300000D03*
D11*
X157540000Y-85220000D03*
D10*
X160080000Y-90300000D03*
D13*
X147915000Y-87760000D03*
X160842000Y-85220000D03*
D10*
X168920000Y-107700000D03*
D11*
X170190000Y-105160000D03*
D12*
X174000000Y-107700000D03*
D11*
X176540000Y-102620000D03*
D10*
X179080000Y-107700000D03*
D13*
X166915000Y-105160000D03*
X179842000Y-102620000D03*
D10*
X206920000Y-69000000D03*
D11*
X208190000Y-66460000D03*
D12*
X212000000Y-69000000D03*
D11*
X214540000Y-63920000D03*
D10*
X217080000Y-69000000D03*
D13*
X204915000Y-66460000D03*
X217842000Y-63920000D03*
D14*
X164500000Y-60650000D03*
D10*
X244920000Y-95000000D03*
D11*
X246190000Y-92460000D03*
D12*
X250000000Y-95000000D03*
D11*
X252540000Y-89920000D03*
D10*
X255080000Y-95000000D03*
D13*
X242915000Y-92460000D03*
X255842000Y-89920000D03*
D10*
X244920000Y-76000000D03*
D11*
X246190000Y-73460000D03*
D12*
X250000000Y-76000000D03*
D11*
X252540000Y-70920000D03*
D10*
X255080000Y-76000000D03*
D13*
X242915000Y-73460000D03*
X255842000Y-70920000D03*
D10*
X187920000Y-66000000D03*
D11*
X189190000Y-63460000D03*
D12*
X193000000Y-66000000D03*
D11*
X195540000Y-60920000D03*
D10*
X198080000Y-66000000D03*
D13*
X185915000Y-63460000D03*
X198842000Y-60920000D03*
D10*
X206920000Y-88000000D03*
D11*
X208190000Y-85460000D03*
D12*
X212000000Y-88000000D03*
D11*
X214540000Y-82920000D03*
D10*
X217080000Y-88000000D03*
D13*
X204915000Y-85460000D03*
X217842000Y-82920000D03*
D14*
X240500000Y-85500000D03*
D10*
X149920000Y-110000000D03*
D11*
X151190000Y-107460000D03*
D12*
X155000000Y-110000000D03*
D11*
X157540000Y-104920000D03*
D10*
X160080000Y-110000000D03*
D13*
X147915000Y-107460000D03*
X160842000Y-104920000D03*
D14*
X240500000Y-66500000D03*
D20*
X124380000Y-46630000D03*
D21*
X139620000Y-46630000D03*
D10*
X187920000Y-85000000D03*
D11*
X189190000Y-82460000D03*
D12*
X193000000Y-85000000D03*
D11*
X195540000Y-79920000D03*
D10*
X198080000Y-85000000D03*
D13*
X185915000Y-82460000D03*
X198842000Y-79920000D03*
D10*
X168920000Y-69000000D03*
D11*
X170190000Y-66460000D03*
D12*
X174000000Y-69000000D03*
D11*
X176540000Y-63920000D03*
D10*
X179080000Y-69000000D03*
D13*
X166915000Y-66460000D03*
X179842000Y-63920000D03*
D10*
X225920000Y-76000000D03*
D11*
X227190000Y-73460000D03*
D12*
X231000000Y-76000000D03*
D11*
X233540000Y-70920000D03*
D10*
X236080000Y-76000000D03*
D13*
X223915000Y-73460000D03*
X236842000Y-70920000D03*
D10*
X225920000Y-57000000D03*
D11*
X227190000Y-54460000D03*
D12*
X231000000Y-57000000D03*
D11*
X233540000Y-51920000D03*
D10*
X236080000Y-57000000D03*
D13*
X223915000Y-54460000D03*
X236842000Y-51920000D03*
D10*
X206920000Y-50000000D03*
D11*
X208190000Y-47460000D03*
D12*
X212000000Y-50000000D03*
D11*
X214540000Y-44920000D03*
D10*
X217080000Y-50000000D03*
D13*
X204915000Y-47460000D03*
X217842000Y-44920000D03*
D10*
X149920000Y-52300000D03*
D11*
X151190000Y-49760000D03*
D12*
X155000000Y-52300000D03*
D11*
X157540000Y-47220000D03*
D10*
X160080000Y-52300000D03*
D13*
X147915000Y-49760000D03*
X160842000Y-47220000D03*
D18*
X126920000Y-82050000D03*
X129460000Y-82050000D03*
X132000000Y-82050000D03*
D19*
X134540000Y-82050000D03*
D18*
X137080000Y-82050000D03*
D10*
X225920000Y-95000000D03*
D11*
X227190000Y-92460000D03*
D12*
X231000000Y-95000000D03*
D11*
X233540000Y-89920000D03*
D10*
X236080000Y-95000000D03*
D13*
X223915000Y-92460000D03*
X236842000Y-89920000D03*
D10*
X187920000Y-47000000D03*
D11*
X189190000Y-44460000D03*
D12*
X193000000Y-47000000D03*
D11*
X195540000Y-41920000D03*
D10*
X198080000Y-47000000D03*
D13*
X185915000Y-44460000D03*
X198842000Y-41920000D03*
D22*
X162500000Y-113575000D03*
X162500000Y-110025000D03*
X238500000Y-98575000D03*
X238500000Y-95025000D03*
X181500000Y-72575000D03*
X181500000Y-69025000D03*
X162500000Y-74875000D03*
X162500000Y-71325000D03*
X200500000Y-88575000D03*
X200500000Y-85025000D03*
X200500000Y-50575000D03*
X200500000Y-47025000D03*
X181500000Y-111275000D03*
X181500000Y-107725000D03*
X162500000Y-93875000D03*
X162500000Y-90325000D03*
X219500000Y-91575000D03*
X219500000Y-88025000D03*
X219500000Y-72575000D03*
X219500000Y-69025000D03*
X257500000Y-98575000D03*
X257500000Y-95025000D03*
X200500000Y-69575000D03*
X200500000Y-66025000D03*
D23*
X128350000Y-44300000D03*
X128350000Y-46500000D03*
D24*
X130500000Y-45400000D03*
X133500000Y-45400000D03*
D23*
X135650000Y-44300000D03*
X135650000Y-46500000D03*
D25*
X129750000Y-47200000D03*
X132750000Y-47200000D03*
X134250000Y-47200000D03*
D22*
X162500000Y-55875000D03*
X162500000Y-52325000D03*
X257500000Y-60575000D03*
X257500000Y-57025000D03*
X181500000Y-53575000D03*
X181500000Y-50025000D03*
X238500000Y-60575000D03*
X238500000Y-57025000D03*
X257500000Y-79575000D03*
X257500000Y-76025000D03*
X219500000Y-53575000D03*
X219500000Y-50025000D03*
X181500000Y-91575000D03*
X181500000Y-88025000D03*
X141100000Y-116575000D03*
X141100000Y-113025000D03*
X238500000Y-79575000D03*
X238500000Y-76025000D03*
M02*
