M48
; DRILL file {KiCad 7.0.2} date Wed Apr 26 23:48:21 2023
; FORMAT={-:-/ absolute / inch / decimal}
; #@! TF.CreationDate,2023-04-26T23:48:21+03:00
; #@! TF.GenerationSoftware,Kicad,Pcbnew,7.0.2
; #@! TF.FileFunction,NonPlated,1,2,NPTH
FMAT,2
INCH
; #@! TA.AperFunction,NonPlated,NPTH,ComponentDrill
T1C0.0315
; #@! TA.AperFunction,NonPlated,NPTH,ComponentDrill
T2C0.0512
; #@! TA.AperFunction,NonPlated,NPTH,ComponentDrill
T3C0.0748
; #@! TA.AperFunction,NonPlated,NPTH,ComponentDrill
T4C0.0787
; #@! TA.AperFunction,NonPlated,NPTH,ComponentDrill
T5C0.1181
; #@! TA.AperFunction,NonPlated,NPTH,ComponentDrill
T6C0.1417
; #@! TA.AperFunction,NonPlated,NPTH,ComponentDrill
T7C0.1614
%
G90
G05
T1
X5.1378Y-1.7874
X5.2559Y-1.7874
T2
X4.9173Y-3.6024
X5.1929Y-3.6024
T3
X5.0598Y-4.4488
X5.4598Y-4.4488
X5.9024Y-2.0591
X5.9024Y-2.8071
X5.9024Y-3.5551
X5.9024Y-4.3307
X6.3024Y-2.0591
X6.3024Y-2.8071
X6.3024Y-3.5551
X6.3024Y-4.3307
X6.6504Y-1.9685
X6.6504Y-2.7165
X6.6504Y-3.4646
X6.6504Y-4.2402
X7.0504Y-1.9685
X7.0504Y-2.7165
X7.0504Y-3.4646
X7.0504Y-4.2402
X7.3984Y-1.8504
X7.3984Y-2.5984
X7.3984Y-3.3465
X7.7984Y-1.8504
X7.7984Y-2.5984
X7.7984Y-3.3465
X8.1465Y-1.9685
X8.1465Y-2.7165
X8.1465Y-3.4646
X8.5465Y-1.9685
X8.5465Y-2.7165
X8.5465Y-3.4646
X8.8945Y-2.2441
X8.8945Y-2.9921
X8.8945Y-3.7402
X9.2945Y-2.2441
X9.2945Y-2.9921
X9.2945Y-3.7402
X9.6425Y-2.2441
X9.6425Y-2.9921
X9.6425Y-3.7402
X10.0425Y-2.2441
X10.0425Y-2.9921
X10.0425Y-3.7402
T4
X4.8937Y-3.9488
X5.6339Y-1.8228
X5.6339Y-3.9488
T5
X5.1098Y-4.3488
X5.3598Y-4.2488
X5.9524Y-1.9591
X5.9524Y-2.7071
X5.9524Y-3.4551
X5.9524Y-4.2307
X6.2024Y-1.8591
X6.2024Y-2.6071
X6.2024Y-3.3551
X6.2024Y-4.1307
X6.7004Y-1.8685
X6.7004Y-2.6165
X6.7004Y-3.3646
X6.7004Y-4.1402
X6.9504Y-1.7685
X6.9504Y-2.5165
X6.9504Y-3.2646
X6.9504Y-4.0402
X7.4484Y-1.7504
X7.4484Y-2.4984
X7.4484Y-3.2465
X7.6984Y-1.6504
X7.6984Y-2.3984
X7.6984Y-3.1465
X8.1965Y-1.8685
X8.1965Y-2.6165
X8.1965Y-3.3646
X8.4465Y-1.7685
X8.4465Y-2.5165
X8.4465Y-3.2646
X8.9445Y-2.1441
X8.9445Y-2.8921
X8.9445Y-3.6402
X9.1945Y-2.0441
X9.1945Y-2.7921
X9.1945Y-3.5402
X9.6925Y-2.1441
X9.6925Y-2.8921
X9.6925Y-3.6402
X9.9425Y-2.0441
X9.9425Y-2.7921
X9.9425Y-3.5402
T6
X6.4764Y-2.3878
X6.4764Y-3.8976
X9.4685Y-2.6181
X9.4685Y-3.3661
T7
X5.2598Y-4.4488
X6.1024Y-2.0591
X6.1024Y-2.8071
X6.1024Y-3.5551
X6.1024Y-4.3307
X6.8504Y-1.9685
X6.8504Y-2.7165
X6.8504Y-3.4646
X6.8504Y-4.2402
X7.5984Y-1.8504
X7.5984Y-2.5984
X7.5984Y-3.3465
X8.3465Y-1.9685
X8.3465Y-2.7165
X8.3465Y-3.4646
X9.0945Y-2.2441
X9.0945Y-2.9921
X9.0945Y-3.7402
X9.8425Y-2.2441
X9.8425Y-2.9921
X9.8425Y-3.7402
T0
M30
