G04 #@! TF.GenerationSoftware,KiCad,Pcbnew,7.0.2*
G04 #@! TF.CreationDate,2023-04-26T23:48:15+03:00*
G04 #@! TF.ProjectId,mriya-right,6d726979-612d-4726-9967-68742e6b6963,0.9*
G04 #@! TF.SameCoordinates,Original*
G04 #@! TF.FileFunction,Copper,L1,Top*
G04 #@! TF.FilePolarity,Positive*
%FSLAX46Y46*%
G04 Gerber Fmt 4.6, Leading zero omitted, Abs format (unit mm)*
G04 Created by KiCad (PCBNEW 7.0.2) date 2023-04-26 23:48:15*
%MOMM*%
%LPD*%
G01*
G04 APERTURE LIST*
G04 Aperture macros list*
%AMRoundRect*
0 Rectangle with rounded corners*
0 $1 Rounding radius*
0 $2 $3 $4 $5 $6 $7 $8 $9 X,Y pos of 4 corners*
0 Add a 4 corners polygon primitive as box body*
4,1,4,$2,$3,$4,$5,$6,$7,$8,$9,$2,$3,0*
0 Add four circle primitives for the rounded corners*
1,1,$1+$1,$2,$3*
1,1,$1+$1,$4,$5*
1,1,$1+$1,$6,$7*
1,1,$1+$1,$8,$9*
0 Add four rect primitives between the rounded corners*
20,1,$1+$1,$2,$3,$4,$5,0*
20,1,$1+$1,$4,$5,$6,$7,0*
20,1,$1+$1,$6,$7,$8,$9,0*
20,1,$1+$1,$8,$9,$2,$3,0*%
G04 Aperture macros list end*
%ADD10C,0.240000*%
G04 #@! TA.AperFunction,NonConductor*
%ADD11C,0.240000*%
G04 #@! TD*
G04 #@! TA.AperFunction,WasherPad*
%ADD12C,3.800000*%
G04 #@! TD*
G04 #@! TA.AperFunction,ComponentPad*
%ADD13O,2.200000X1.400000*%
G04 #@! TD*
G04 #@! TA.AperFunction,ComponentPad*
%ADD14C,1.300000*%
G04 #@! TD*
G04 #@! TA.AperFunction,ComponentPad*
%ADD15C,1.500000*%
G04 #@! TD*
G04 #@! TA.AperFunction,ComponentPad*
%ADD16RoundRect,0.375000X-0.375000X-0.375000X0.375000X-0.375000X0.375000X0.375000X-0.375000X0.375000X0*%
G04 #@! TD*
G04 #@! TA.AperFunction,ComponentPad*
%ADD17O,1.200000X1.200000*%
G04 #@! TD*
G04 #@! TA.AperFunction,ComponentPad*
%ADD18RoundRect,0.300000X-0.300000X-0.300000X0.300000X-0.300000X0.300000X0.300000X-0.300000X0.300000X0*%
G04 #@! TD*
G04 #@! TA.AperFunction,ViaPad*
%ADD19C,0.800000*%
G04 #@! TD*
G04 #@! TA.AperFunction,Conductor*
%ADD20C,0.250000*%
G04 #@! TD*
G04 #@! TA.AperFunction,Conductor*
%ADD21C,0.350000*%
G04 #@! TD*
G04 APERTURE END LIST*
D10*
D11*
G36*
X135563153Y-44558685D02*
G01*
X135577480Y-44559154D01*
X135591612Y-44559936D01*
X135605549Y-44561030D01*
X135619293Y-44562436D01*
X135646196Y-44566187D01*
X135672323Y-44571188D01*
X135697672Y-44577439D01*
X135722243Y-44584940D01*
X135746038Y-44593692D01*
X135769054Y-44603693D01*
X135791294Y-44614945D01*
X135812756Y-44627447D01*
X135833441Y-44641200D01*
X135853348Y-44656202D01*
X135872478Y-44672455D01*
X135890830Y-44689958D01*
X135908406Y-44708712D01*
X135916902Y-44718557D01*
X135933224Y-44739021D01*
X135948510Y-44760493D01*
X135962759Y-44782971D01*
X135975972Y-44806457D01*
X135988148Y-44830950D01*
X135993848Y-44843574D01*
X135999288Y-44856450D01*
X136004469Y-44869577D01*
X136009391Y-44882957D01*
X136014054Y-44896588D01*
X136018458Y-44910471D01*
X136022603Y-44924606D01*
X136026488Y-44938992D01*
X136030115Y-44953630D01*
X136033482Y-44968521D01*
X136036590Y-44983662D01*
X136039439Y-44999056D01*
X136042029Y-45014701D01*
X136044360Y-45030599D01*
X136046432Y-45046748D01*
X136048244Y-45063148D01*
X136049798Y-45079801D01*
X136051092Y-45096705D01*
X136052127Y-45113861D01*
X136052903Y-45131269D01*
X136053420Y-45148929D01*
X136053678Y-45166840D01*
X136053678Y-45407224D01*
X136053548Y-45424775D01*
X136053157Y-45442079D01*
X136052506Y-45459137D01*
X136051594Y-45475949D01*
X136050422Y-45492514D01*
X136048989Y-45508832D01*
X136047296Y-45524905D01*
X136045343Y-45540730D01*
X136043129Y-45556310D01*
X136040655Y-45571643D01*
X136037920Y-45586729D01*
X136034924Y-45601569D01*
X136031669Y-45616163D01*
X136028152Y-45630510D01*
X136024376Y-45644610D01*
X136020339Y-45658465D01*
X136016041Y-45672072D01*
X136011483Y-45685434D01*
X136006664Y-45698549D01*
X136001585Y-45711417D01*
X135996246Y-45724039D01*
X135984786Y-45748544D01*
X135972283Y-45772063D01*
X135958739Y-45794596D01*
X135944153Y-45816144D01*
X135928526Y-45836706D01*
X135920321Y-45846617D01*
X135903290Y-45865540D01*
X135885449Y-45883242D01*
X135866798Y-45899723D01*
X135847338Y-45914984D01*
X135827069Y-45929023D01*
X135805990Y-45941842D01*
X135784102Y-45953440D01*
X135761405Y-45963817D01*
X135737897Y-45972973D01*
X135713581Y-45980909D01*
X135688455Y-45987623D01*
X135662520Y-45993117D01*
X135635775Y-45997390D01*
X135622099Y-45999069D01*
X135608221Y-46000442D01*
X135594140Y-46001510D01*
X135579857Y-46002273D01*
X135565372Y-46002731D01*
X135550684Y-46002884D01*
X135536058Y-46002732D01*
X135521628Y-46002279D01*
X135507396Y-46001522D01*
X135493361Y-46000463D01*
X135479523Y-45999102D01*
X135465882Y-45997438D01*
X135439190Y-45993202D01*
X135413287Y-45987757D01*
X135388172Y-45981101D01*
X135363845Y-45973235D01*
X135340305Y-45964159D01*
X135317554Y-45953873D01*
X135295591Y-45942376D01*
X135274417Y-45929670D01*
X135254030Y-45915753D01*
X135234431Y-45900626D01*
X135215620Y-45884289D01*
X135197598Y-45866742D01*
X135180363Y-45847985D01*
X135164042Y-45828138D01*
X135148760Y-45807321D01*
X135134518Y-45785534D01*
X135121314Y-45762778D01*
X135109150Y-45739052D01*
X135098025Y-45714356D01*
X135092852Y-45701644D01*
X135087939Y-45688690D01*
X135083286Y-45675494D01*
X135078892Y-45662055D01*
X135074759Y-45648374D01*
X135070885Y-45634450D01*
X135067271Y-45620284D01*
X135063916Y-45605875D01*
X135060822Y-45591224D01*
X135057987Y-45576331D01*
X135055412Y-45561195D01*
X135053097Y-45545817D01*
X135051042Y-45530196D01*
X135049246Y-45514333D01*
X135047711Y-45498227D01*
X135046435Y-45481879D01*
X135045419Y-45465289D01*
X135044662Y-45448456D01*
X135044166Y-45431381D01*
X135043929Y-45414063D01*
X135043929Y-45407566D01*
X135326713Y-45407566D01*
X135326927Y-45430268D01*
X135327568Y-45452211D01*
X135328637Y-45473395D01*
X135330133Y-45493821D01*
X135332056Y-45513487D01*
X135334407Y-45532396D01*
X135337185Y-45550545D01*
X135340391Y-45567936D01*
X135344024Y-45584568D01*
X135348085Y-45600442D01*
X135352573Y-45615556D01*
X135357488Y-45629913D01*
X135362831Y-45643510D01*
X135368601Y-45656349D01*
X135378058Y-45674184D01*
X135381424Y-45679750D01*
X135392208Y-45695394D01*
X135404044Y-45709499D01*
X135416932Y-45722065D01*
X135430871Y-45733093D01*
X135445863Y-45742582D01*
X135461907Y-45750532D01*
X135479002Y-45756943D01*
X135497149Y-45761816D01*
X135516348Y-45765150D01*
X135536599Y-45766945D01*
X135550684Y-45767287D01*
X135570894Y-45766536D01*
X135590106Y-45764282D01*
X135608320Y-45760525D01*
X135625537Y-45755266D01*
X135641756Y-45748504D01*
X135656977Y-45740239D01*
X135671200Y-45730472D01*
X135684425Y-45719202D01*
X135696653Y-45706429D01*
X135707883Y-45692154D01*
X135714815Y-45681802D01*
X135724479Y-45664883D01*
X135733212Y-45646311D01*
X135738516Y-45633011D01*
X135743406Y-45618977D01*
X135747882Y-45604208D01*
X135751944Y-45588705D01*
X135755592Y-45572467D01*
X135758825Y-45555494D01*
X135761645Y-45537787D01*
X135764051Y-45519344D01*
X135766042Y-45500168D01*
X135767620Y-45480256D01*
X135768783Y-45459610D01*
X135769532Y-45438230D01*
X135769868Y-45416115D01*
X135769868Y-45171286D01*
X135769657Y-45147860D01*
X135769023Y-45125199D01*
X135767968Y-45103301D01*
X135766491Y-45082168D01*
X135764592Y-45061798D01*
X135762270Y-45042193D01*
X135759527Y-45023351D01*
X135756361Y-45005274D01*
X135752773Y-44987960D01*
X135748763Y-44971411D01*
X135744332Y-44955626D01*
X135739478Y-44940604D01*
X135734202Y-44926347D01*
X135728503Y-44912854D01*
X135722383Y-44900125D01*
X135715841Y-44888159D01*
X135705249Y-44871538D01*
X135693606Y-44856551D01*
X135680910Y-44843200D01*
X135667163Y-44831483D01*
X135652363Y-44821401D01*
X135636512Y-44812954D01*
X135619609Y-44806142D01*
X135601654Y-44800965D01*
X135582648Y-44797422D01*
X135562589Y-44795515D01*
X135548632Y-44795152D01*
X135534798Y-44795502D01*
X135514904Y-44797339D01*
X135496038Y-44800751D01*
X135478199Y-44805738D01*
X135461388Y-44812299D01*
X135445605Y-44820436D01*
X135430850Y-44830147D01*
X135417123Y-44841433D01*
X135404423Y-44854294D01*
X135392751Y-44868729D01*
X135382108Y-44884740D01*
X135372499Y-44902297D01*
X135366600Y-44914917D01*
X135361108Y-44928268D01*
X135356021Y-44942352D01*
X135351341Y-44957168D01*
X135347067Y-44972715D01*
X135343199Y-44988995D01*
X135339736Y-45006006D01*
X135336680Y-45023750D01*
X135334030Y-45042225D01*
X135331786Y-45061433D01*
X135329948Y-45081372D01*
X135328517Y-45102043D01*
X135327491Y-45123447D01*
X135326871Y-45145582D01*
X135326713Y-45156924D01*
X135326713Y-45407566D01*
X135043929Y-45407566D01*
X135043929Y-45173679D01*
X135044060Y-45155702D01*
X135044451Y-45137972D01*
X135045104Y-45120490D01*
X135046018Y-45103256D01*
X135047193Y-45086269D01*
X135048629Y-45069530D01*
X135050327Y-45053039D01*
X135052285Y-45036796D01*
X135054505Y-45020801D01*
X135056985Y-45005053D01*
X135059727Y-44989554D01*
X135062730Y-44974301D01*
X135065994Y-44959297D01*
X135069520Y-44944541D01*
X135073306Y-44930032D01*
X135077354Y-44915771D01*
X135081662Y-44901758D01*
X135086232Y-44887992D01*
X135091063Y-44874475D01*
X135096155Y-44861205D01*
X135101508Y-44848183D01*
X135107122Y-44835408D01*
X135112998Y-44822882D01*
X135119134Y-44810603D01*
X135132191Y-44786789D01*
X135146292Y-44763966D01*
X135161437Y-44742134D01*
X135177627Y-44721293D01*
X135194745Y-44701583D01*
X135212671Y-44683145D01*
X135231407Y-44665978D01*
X135250952Y-44650084D01*
X135271307Y-44635460D01*
X135292471Y-44622109D01*
X135314445Y-44610029D01*
X135337228Y-44599220D01*
X135360821Y-44589683D01*
X135385222Y-44581418D01*
X135410434Y-44574424D01*
X135436455Y-44568702D01*
X135463285Y-44564251D01*
X135477004Y-44562503D01*
X135490925Y-44561072D01*
X135505048Y-44559960D01*
X135519374Y-44559165D01*
X135533902Y-44558688D01*
X135548632Y-44558529D01*
X135563153Y-44558685D01*
G37*
G36*
X136971787Y-45405856D02*
G01*
X136532394Y-45405856D01*
X136532394Y-45981000D01*
X136249609Y-45981000D01*
X136249609Y-44580413D01*
X137024787Y-44580413D01*
X137024787Y-44816010D01*
X136532394Y-44816010D01*
X136532394Y-45171286D01*
X136971787Y-45171286D01*
X136971787Y-45405856D01*
G37*
G36*
X137903231Y-45405856D02*
G01*
X137463838Y-45405856D01*
X137463838Y-45981000D01*
X137181054Y-45981000D01*
X137181054Y-44580413D01*
X137956232Y-44580413D01*
X137956232Y-44816010D01*
X137463838Y-44816010D01*
X137463838Y-45171286D01*
X137903231Y-45171286D01*
X137903231Y-45405856D01*
G37*
G04 #@! TA.AperFunction,EtchedComponent*
G36*
X134352586Y-100300000D02*
G01*
X134352586Y-101274642D01*
X134102570Y-101274642D01*
X133852553Y-101274642D01*
X133852553Y-100300000D01*
X133852553Y-99325359D01*
X134102570Y-99325359D01*
X134352586Y-99325359D01*
X134352586Y-100300000D01*
G37*
G04 #@! TD.AperFunction*
G04 #@! TA.AperFunction,EtchedComponent*
G36*
X136667336Y-99378329D02*
G01*
X136658006Y-99393479D01*
X136640603Y-99421981D01*
X136615824Y-99462681D01*
X136584370Y-99514429D01*
X136546939Y-99576072D01*
X136504231Y-99646458D01*
X136456945Y-99724434D01*
X136405779Y-99808849D01*
X136351433Y-99898551D01*
X136294606Y-99992387D01*
X136247686Y-100069893D01*
X135861162Y-100708488D01*
X135861162Y-100991565D01*
X135861162Y-101274642D01*
X135611145Y-101274642D01*
X135361128Y-101274642D01*
X135361128Y-100991509D01*
X135361128Y-100708377D01*
X134945846Y-100020666D01*
X134886321Y-99922050D01*
X134829347Y-99827584D01*
X134775529Y-99738272D01*
X134725470Y-99655119D01*
X134679773Y-99579130D01*
X134639041Y-99511309D01*
X134603878Y-99452661D01*
X134574886Y-99404190D01*
X134552670Y-99366902D01*
X134537831Y-99341801D01*
X134530975Y-99329892D01*
X134530564Y-99329038D01*
X134538703Y-99328149D01*
X134561772Y-99327469D01*
X134597755Y-99327012D01*
X134644634Y-99326789D01*
X134700391Y-99326813D01*
X134763008Y-99327097D01*
X134798501Y-99327359D01*
X135066437Y-99329596D01*
X135337548Y-99789332D01*
X135385077Y-99869714D01*
X135430142Y-99945513D01*
X135472000Y-100015506D01*
X135509909Y-100078471D01*
X135543126Y-100133188D01*
X135570910Y-100178435D01*
X135592517Y-100212990D01*
X135607206Y-100235632D01*
X135614235Y-100245139D01*
X135614680Y-100245346D01*
X135619932Y-100237580D01*
X135633029Y-100216452D01*
X135653224Y-100183209D01*
X135679770Y-100139100D01*
X135711920Y-100085374D01*
X135748928Y-100023279D01*
X135790046Y-99954064D01*
X135834528Y-99878978D01*
X135881628Y-99799269D01*
X135890936Y-99783492D01*
X136161171Y-99325359D01*
X136430817Y-99325359D01*
X136700463Y-99325359D01*
X136667336Y-99378329D01*
G37*
G04 #@! TD.AperFunction*
G04 #@! TA.AperFunction,EtchedComponent*
G36*
X137545170Y-99302358D02*
G01*
X137615625Y-99310658D01*
X137677530Y-99325797D01*
X137677931Y-99325931D01*
X137739252Y-99355053D01*
X137793321Y-99398120D01*
X137837359Y-99452726D01*
X137850541Y-99475347D01*
X137856025Y-99487296D01*
X137867545Y-99513645D01*
X137884583Y-99553162D01*
X137906618Y-99604616D01*
X137933131Y-99666776D01*
X137963603Y-99738410D01*
X137997515Y-99818286D01*
X138034347Y-99905174D01*
X138073580Y-99997841D01*
X138114693Y-100095056D01*
X138157169Y-100195589D01*
X138200487Y-100298207D01*
X138244128Y-100401679D01*
X138287573Y-100504774D01*
X138330303Y-100606261D01*
X138371797Y-100704907D01*
X138411536Y-100799481D01*
X138449002Y-100888753D01*
X138483674Y-100971490D01*
X138515034Y-101046461D01*
X138542561Y-101112435D01*
X138565737Y-101168180D01*
X138584042Y-101212466D01*
X138596957Y-101244059D01*
X138603437Y-101260351D01*
X138604057Y-101264403D01*
X138601329Y-101267597D01*
X138593559Y-101270013D01*
X138579053Y-101271731D01*
X138556118Y-101272832D01*
X138523059Y-101273396D01*
X138478184Y-101273503D01*
X138419798Y-101273232D01*
X138346208Y-101272666D01*
X138343741Y-101272645D01*
X138078467Y-101270404D01*
X137990458Y-101047931D01*
X137902450Y-100825459D01*
X137492633Y-100825459D01*
X137082815Y-100825459D01*
X136994955Y-101047931D01*
X136907094Y-101270404D01*
X136646857Y-101272645D01*
X136567584Y-101273137D01*
X136504183Y-101273083D01*
X136455585Y-101272453D01*
X136420720Y-101271217D01*
X136398519Y-101269345D01*
X136387911Y-101266806D01*
X136386620Y-101265264D01*
X136389819Y-101256264D01*
X136399079Y-101232842D01*
X136413896Y-101196206D01*
X136433768Y-101147562D01*
X136458192Y-101088117D01*
X136486664Y-101019077D01*
X136518680Y-100941648D01*
X136553738Y-100857037D01*
X136591334Y-100766451D01*
X136630964Y-100671096D01*
X136672126Y-100572178D01*
X136714317Y-100470904D01*
X136727464Y-100439380D01*
X137208709Y-100439380D01*
X137216858Y-100440495D01*
X137239998Y-100441515D01*
X137276172Y-100442409D01*
X137323421Y-100443143D01*
X137379786Y-100443686D01*
X137443310Y-100444005D01*
X137493198Y-100444078D01*
X137570044Y-100444058D01*
X137631596Y-100443929D01*
X137679509Y-100443589D01*
X137715441Y-100442933D01*
X137741046Y-100441860D01*
X137757981Y-100440264D01*
X137767902Y-100438045D01*
X137772465Y-100435097D01*
X137773325Y-100431318D01*
X137772167Y-100426689D01*
X137766939Y-100412422D01*
X137756262Y-100385005D01*
X137740985Y-100346517D01*
X137721956Y-100299040D01*
X137700024Y-100244653D01*
X137676038Y-100185439D01*
X137650846Y-100123476D01*
X137625296Y-100060845D01*
X137600237Y-99999627D01*
X137576519Y-99941902D01*
X137554988Y-99889751D01*
X137536494Y-99845254D01*
X137521885Y-99810492D01*
X137512010Y-99787544D01*
X137507911Y-99778779D01*
X137497770Y-99761829D01*
X137481680Y-99778779D01*
X137476161Y-99788931D01*
X137465182Y-99812745D01*
X137449585Y-99848181D01*
X137430213Y-99893198D01*
X137407910Y-99945757D01*
X137383518Y-100003817D01*
X137357880Y-100065339D01*
X137331839Y-100128281D01*
X137306239Y-100190605D01*
X137281922Y-100250269D01*
X137259732Y-100305234D01*
X137240511Y-100353460D01*
X137225102Y-100392907D01*
X137214349Y-100421533D01*
X137209094Y-100437300D01*
X137208709Y-100439380D01*
X136727464Y-100439380D01*
X136757032Y-100368481D01*
X136799768Y-100266115D01*
X136842023Y-100165012D01*
X136883293Y-100066380D01*
X136923074Y-99971424D01*
X136960863Y-99881351D01*
X136996158Y-99797367D01*
X137028454Y-99720680D01*
X137057249Y-99652495D01*
X137082038Y-99594019D01*
X137102319Y-99546459D01*
X137117589Y-99511020D01*
X137127344Y-99488911D01*
X137130185Y-99482850D01*
X137156016Y-99441383D01*
X137189998Y-99400800D01*
X137227720Y-99365593D01*
X137264773Y-99340255D01*
X137275030Y-99335279D01*
X137331094Y-99317355D01*
X137398045Y-99305819D01*
X137471023Y-99300782D01*
X137545170Y-99302358D01*
G37*
G04 #@! TD.AperFunction*
G04 #@! TA.AperFunction,EtchedComponent*
G36*
X132281454Y-99326371D02*
G01*
X132374253Y-99326705D01*
X132481942Y-99327170D01*
X132560683Y-99327530D01*
X132681860Y-99328085D01*
X132787352Y-99328612D01*
X132878423Y-99329198D01*
X132956340Y-99329929D01*
X133022366Y-99330891D01*
X133077767Y-99332173D01*
X133123807Y-99333859D01*
X133161752Y-99336038D01*
X133192866Y-99338794D01*
X133218414Y-99342216D01*
X133239661Y-99346389D01*
X133257873Y-99351401D01*
X133274313Y-99357337D01*
X133290247Y-99364284D01*
X133306940Y-99372330D01*
X133321747Y-99379643D01*
X133377853Y-99413092D01*
X133423898Y-99454679D01*
X133461306Y-99503271D01*
X133497361Y-99570107D01*
X133526011Y-99650902D01*
X133546935Y-99744217D01*
X133559813Y-99848610D01*
X133564322Y-99962643D01*
X133564324Y-99965232D01*
X133559768Y-100094748D01*
X133546053Y-100210391D01*
X133523206Y-100312065D01*
X133491254Y-100399670D01*
X133450225Y-100473109D01*
X133409068Y-100523469D01*
X133359578Y-100566548D01*
X133304737Y-100598790D01*
X133242131Y-100621029D01*
X133169348Y-100634099D01*
X133083972Y-100638834D01*
X133074959Y-100638881D01*
X133037039Y-100639454D01*
X133006269Y-100640917D01*
X132986029Y-100643040D01*
X132979613Y-100645320D01*
X132985433Y-100652355D01*
X133002147Y-100670211D01*
X133028639Y-100697749D01*
X133063792Y-100733828D01*
X133106490Y-100777309D01*
X133155617Y-100827054D01*
X133210055Y-100881921D01*
X133268689Y-100940773D01*
X133291032Y-100963138D01*
X133602450Y-101274642D01*
X133292057Y-101274642D01*
X132981663Y-101274642D01*
X132762404Y-101022702D01*
X132711052Y-100963806D01*
X132660574Y-100906118D01*
X132612657Y-100851551D01*
X132568990Y-100802018D01*
X132531257Y-100759434D01*
X132501148Y-100725711D01*
X132480349Y-100702763D01*
X132479400Y-100701733D01*
X132449971Y-100668111D01*
X132422209Y-100633322D01*
X132400005Y-100602393D01*
X132390607Y-100587123D01*
X132377863Y-100561895D01*
X132370296Y-100539516D01*
X132366586Y-100513825D01*
X132365411Y-100478663D01*
X132365362Y-100469503D01*
X132367619Y-100416955D01*
X132375882Y-100377389D01*
X132391893Y-100347384D01*
X132417397Y-100323517D01*
X132449282Y-100304769D01*
X132465616Y-100296740D01*
X132480313Y-100290583D01*
X132495966Y-100285969D01*
X132515170Y-100282569D01*
X132540520Y-100280054D01*
X132574611Y-100278095D01*
X132620038Y-100276364D01*
X132679395Y-100274531D01*
X132690432Y-100274204D01*
X132763635Y-100271681D01*
X132822096Y-100268637D01*
X132868027Y-100264650D01*
X132903636Y-100259295D01*
X132931133Y-100252148D01*
X132952726Y-100242784D01*
X132970627Y-100230779D01*
X132985145Y-100217627D01*
X133008692Y-100186923D01*
X133025636Y-100147449D01*
X133036531Y-100097065D01*
X133041930Y-100033633D01*
X133042748Y-99994895D01*
X133041318Y-99928790D01*
X133035921Y-99876513D01*
X133025877Y-99835262D01*
X133010504Y-99802237D01*
X132989191Y-99774711D01*
X132975740Y-99761252D01*
X132962277Y-99750173D01*
X132947074Y-99741244D01*
X132928401Y-99734233D01*
X132904527Y-99728909D01*
X132873723Y-99725042D01*
X132834259Y-99722399D01*
X132784405Y-99720750D01*
X132722432Y-99719864D01*
X132646609Y-99719509D01*
X132575551Y-99719453D01*
X132495301Y-99719484D01*
X132430242Y-99719638D01*
X132378618Y-99720011D01*
X132338670Y-99720696D01*
X132308641Y-99721789D01*
X132286773Y-99723383D01*
X132271308Y-99725573D01*
X132260487Y-99728452D01*
X132252553Y-99732117D01*
X132245748Y-99736660D01*
X132245021Y-99737197D01*
X132225246Y-99758073D01*
X132211063Y-99783554D01*
X132210973Y-99783810D01*
X132209057Y-99793951D01*
X132207363Y-99813290D01*
X132205882Y-99842594D01*
X132204603Y-99882630D01*
X132203514Y-99934165D01*
X132202605Y-99997966D01*
X132201866Y-100074799D01*
X132201286Y-100165432D01*
X132200853Y-100270630D01*
X132200558Y-100391162D01*
X132200390Y-100527793D01*
X132200379Y-100543661D01*
X132199900Y-101274642D01*
X131949692Y-101274642D01*
X131699484Y-101274642D01*
X131701794Y-100399583D01*
X131702148Y-100254407D01*
X131702447Y-100125186D01*
X131702766Y-100010925D01*
X131703181Y-99910629D01*
X131703765Y-99823303D01*
X131704593Y-99747952D01*
X131705739Y-99683581D01*
X131707278Y-99629195D01*
X131709285Y-99583800D01*
X131711833Y-99546400D01*
X131714998Y-99516000D01*
X131718855Y-99491606D01*
X131723476Y-99472223D01*
X131728938Y-99456854D01*
X131735314Y-99444507D01*
X131742679Y-99434185D01*
X131751108Y-99424894D01*
X131760675Y-99415639D01*
X131771455Y-99405425D01*
X131776630Y-99400341D01*
X131805588Y-99374678D01*
X131835202Y-99357141D01*
X131873419Y-99343076D01*
X131875385Y-99342475D01*
X131886772Y-99339116D01*
X131898084Y-99336215D01*
X131910569Y-99333744D01*
X131925472Y-99331675D01*
X131944043Y-99329983D01*
X131967526Y-99328639D01*
X131997171Y-99327616D01*
X132034223Y-99326888D01*
X132079931Y-99326426D01*
X132135540Y-99326204D01*
X132202299Y-99326195D01*
X132281454Y-99326371D01*
G37*
G04 #@! TD.AperFunction*
G04 #@! TA.AperFunction,EtchedComponent*
G36*
X129247329Y-99310844D02*
G01*
X129305508Y-99317344D01*
X129326039Y-99321459D01*
X129399603Y-99346861D01*
X129467356Y-99385964D01*
X129526500Y-99436526D01*
X129574235Y-99496308D01*
X129597814Y-99539038D01*
X129604744Y-99555715D01*
X129616924Y-99586925D01*
X129633831Y-99631262D01*
X129654942Y-99687322D01*
X129679732Y-99753700D01*
X129707680Y-99828992D01*
X129738262Y-99911792D01*
X129770954Y-100000696D01*
X129805234Y-100094300D01*
X129834575Y-100174712D01*
X129869346Y-100270001D01*
X129902629Y-100360899D01*
X129933944Y-100446108D01*
X129962808Y-100524333D01*
X129988739Y-100594275D01*
X130011254Y-100654639D01*
X130029873Y-100704127D01*
X130044113Y-100741443D01*
X130053491Y-100765288D01*
X130057379Y-100774165D01*
X130075005Y-100792879D01*
X130093699Y-100794897D01*
X130108112Y-100785278D01*
X130113430Y-100774998D01*
X130124021Y-100750042D01*
X130139405Y-100711676D01*
X130159099Y-100661167D01*
X130182622Y-100599782D01*
X130209492Y-100528788D01*
X130239226Y-100449450D01*
X130271344Y-100363036D01*
X130305362Y-100270813D01*
X130340799Y-100174046D01*
X130344257Y-100164566D01*
X130380065Y-100066640D01*
X130414662Y-99972538D01*
X130447545Y-99883599D01*
X130478210Y-99801162D01*
X130506153Y-99726566D01*
X130530872Y-99661150D01*
X130551861Y-99606252D01*
X130568619Y-99563211D01*
X130580640Y-99533367D01*
X130587421Y-99518057D01*
X130587608Y-99517708D01*
X130631936Y-99451119D01*
X130685510Y-99397861D01*
X130749052Y-99357523D01*
X130823284Y-99329693D01*
X130908927Y-99313959D01*
X130950256Y-99310770D01*
X131045225Y-99311659D01*
X131130928Y-99323817D01*
X131205744Y-99346959D01*
X131236288Y-99361335D01*
X131278836Y-99388133D01*
X131311431Y-99419585D01*
X131338583Y-99460581D01*
X131351622Y-99486387D01*
X131373574Y-99533000D01*
X131373574Y-100405940D01*
X131373574Y-101278879D01*
X131128351Y-101281130D01*
X131065414Y-101281466D01*
X131007958Y-101281309D01*
X130958178Y-101280701D01*
X130918264Y-101279687D01*
X130890410Y-101278309D01*
X130876807Y-101276610D01*
X130875926Y-101276179D01*
X130874922Y-101266778D01*
X130874188Y-101241710D01*
X130873721Y-101202258D01*
X130873516Y-101149702D01*
X130873570Y-101085324D01*
X130873877Y-101010407D01*
X130874434Y-100926230D01*
X130875237Y-100834077D01*
X130876281Y-100735229D01*
X130877562Y-100630966D01*
X130878168Y-100586036D01*
X130879900Y-100458999D01*
X130881333Y-100347853D01*
X130882444Y-100251540D01*
X130883205Y-100169003D01*
X130883591Y-100099182D01*
X130883578Y-100041022D01*
X130883138Y-99993464D01*
X130882246Y-99955451D01*
X130880877Y-99925925D01*
X130879004Y-99903829D01*
X130876603Y-99888104D01*
X130873648Y-99877694D01*
X130870112Y-99871540D01*
X130865970Y-99868586D01*
X130861196Y-99867772D01*
X130860725Y-99867768D01*
X130850779Y-99874151D01*
X130839253Y-99888357D01*
X130834234Y-99899569D01*
X130824015Y-99925435D01*
X130809082Y-99964639D01*
X130789920Y-100015865D01*
X130767014Y-100077799D01*
X130740847Y-100149124D01*
X130711905Y-100228525D01*
X130680672Y-100314687D01*
X130647634Y-100406295D01*
X130618309Y-100487973D01*
X130583726Y-100584279D01*
X130550248Y-100677080D01*
X130518396Y-100764959D01*
X130488691Y-100846498D01*
X130461655Y-100920279D01*
X130437809Y-100984884D01*
X130417672Y-101038895D01*
X130401767Y-101080894D01*
X130390614Y-101109463D01*
X130385504Y-101121608D01*
X130351172Y-101183864D01*
X130312591Y-101230950D01*
X130268405Y-101264400D01*
X130251214Y-101273238D01*
X130227508Y-101283111D01*
X130204551Y-101289677D01*
X130177631Y-101293710D01*
X130142036Y-101295984D01*
X130106540Y-101297007D01*
X130066044Y-101297478D01*
X130030563Y-101297171D01*
X130004261Y-101296165D01*
X129992126Y-101294795D01*
X129928938Y-101273459D01*
X129878199Y-101243412D01*
X129836700Y-101202082D01*
X129801234Y-101146897D01*
X129796632Y-101138046D01*
X129790061Y-101122745D01*
X129778340Y-101092825D01*
X129761968Y-101049649D01*
X129741446Y-100994578D01*
X129717273Y-100928976D01*
X129689949Y-100854203D01*
X129659974Y-100771622D01*
X129627848Y-100682596D01*
X129594069Y-100588487D01*
X129559615Y-100491993D01*
X129525012Y-100395170D01*
X129491772Y-100302816D01*
X129460369Y-100216205D01*
X129431274Y-100136609D01*
X129404961Y-100065301D01*
X129381902Y-100003556D01*
X129362569Y-99952647D01*
X129347435Y-99913846D01*
X129336973Y-99888427D01*
X129331656Y-99877663D01*
X129331546Y-99877545D01*
X129319850Y-99868375D01*
X129311085Y-99872454D01*
X129305121Y-99879982D01*
X129302890Y-99884973D01*
X129300941Y-99894229D01*
X129299255Y-99908800D01*
X129297814Y-99929735D01*
X129296602Y-99958083D01*
X129295598Y-99994892D01*
X129294786Y-100041213D01*
X129294148Y-100098094D01*
X129293665Y-100166585D01*
X129293319Y-100247735D01*
X129293093Y-100342592D01*
X129292968Y-100452207D01*
X129292927Y-100577628D01*
X129292927Y-100589775D01*
X129292927Y-101283117D01*
X129046994Y-101283117D01*
X128801062Y-101283117D01*
X128803334Y-100403821D01*
X128805606Y-99524525D01*
X128825093Y-99482149D01*
X128857533Y-99429502D01*
X128902305Y-99386605D01*
X128960192Y-99352925D01*
X129031978Y-99327929D01*
X129061843Y-99320854D01*
X129118570Y-99312583D01*
X129182708Y-99309251D01*
X129247329Y-99310844D01*
G37*
G04 #@! TD.AperFunction*
D12*
X164500000Y-99000000D03*
D13*
X134600000Y-93700000D03*
X126500000Y-89300000D03*
X129500000Y-89300000D03*
X133500000Y-89300000D03*
D14*
X185028514Y-99546531D03*
X187701534Y-100908502D03*
X189971486Y-96453469D03*
X187298466Y-95091498D03*
D15*
X139620000Y-49030000D03*
X139620000Y-51570000D03*
D16*
X139620000Y-54110000D03*
X139620000Y-56650000D03*
D15*
X139620000Y-59190000D03*
X139620000Y-61730000D03*
X139620000Y-64270000D03*
X139620000Y-66810000D03*
X139620000Y-69350000D03*
X139620000Y-71890000D03*
X139620000Y-74430000D03*
X139620000Y-76970000D03*
X124380000Y-76970000D03*
X124380000Y-74430000D03*
X124380000Y-71890000D03*
X124380000Y-69350000D03*
X124380000Y-66810000D03*
X124380000Y-64270000D03*
X124380000Y-61730000D03*
X124380000Y-59190000D03*
X124380000Y-56650000D03*
X124380000Y-54110000D03*
D16*
X124380000Y-51570000D03*
D15*
X124380000Y-49030000D03*
D12*
X164500000Y-60650000D03*
X240500000Y-85500000D03*
X240500000Y-66500000D03*
D17*
X124380000Y-46630000D03*
D18*
X139620000Y-46630000D03*
D15*
X126920000Y-82050000D03*
X129460000Y-82050000D03*
X132000000Y-82050000D03*
D16*
X134540000Y-82050000D03*
D15*
X137080000Y-82050000D03*
D19*
X132793750Y-52900000D03*
X203735500Y-55313296D03*
X130393750Y-59225000D03*
X131193750Y-61725000D03*
X147205500Y-56000000D03*
X147175500Y-93625000D03*
X146875000Y-113575000D03*
X204185500Y-54314500D03*
X242915000Y-54460000D03*
X242915000Y-92460000D03*
X242915000Y-80985000D03*
X242915000Y-73460000D03*
X223915000Y-73460000D03*
X223884251Y-81706741D03*
X223915000Y-92460000D03*
X223915000Y-54460000D03*
X204915000Y-47460000D03*
X204915000Y-66460000D03*
X204915000Y-85460000D03*
X204912393Y-75300000D03*
X185915000Y-63460000D03*
X185915000Y-44460000D03*
X185949799Y-90149799D03*
X185915000Y-82460000D03*
X185900000Y-74397390D03*
X166915000Y-85460000D03*
X166915000Y-47460000D03*
X166898695Y-77398695D03*
X166915000Y-66460000D03*
X166948305Y-92451292D03*
X147915000Y-87760000D03*
X147915000Y-49760000D03*
X147915000Y-68760000D03*
X147630000Y-94700000D03*
X147898560Y-78824500D03*
D20*
X187308502Y-95091498D02*
X188946399Y-93453600D01*
X204010000Y-55587796D02*
X203735500Y-55313296D01*
X132793750Y-74936907D02*
X132793750Y-52900000D01*
X204010000Y-65512380D02*
X204010000Y-55587796D01*
X203740000Y-66752246D02*
X203740000Y-66164217D01*
X134300932Y-76782182D02*
X133032817Y-75514067D01*
D21*
X139620000Y-54110000D02*
X139620000Y-56650000D01*
D20*
X204012393Y-76325109D02*
X204012393Y-84508295D01*
X204015000Y-74182452D02*
X204015000Y-67416155D01*
X203740000Y-92321058D02*
X203740000Y-85165909D01*
X187298466Y-95091498D02*
X187308502Y-95091498D01*
X203737393Y-74852654D02*
X203737393Y-75661200D01*
X189800065Y-93100000D02*
X202961058Y-93100000D01*
X134540000Y-77359342D02*
X134540000Y-82050000D01*
X204012375Y-76325109D02*
G75*
G03*
X203874893Y-75993155I-469475J9D01*
G01*
X189800065Y-93099986D02*
G75*
G03*
X188946400Y-93453601I35J-1207314D01*
G01*
X203739981Y-66752246D02*
G75*
G03*
X203877500Y-67084201I469519J46D01*
G01*
X134539978Y-77359342D02*
G75*
G03*
X134300932Y-76782182I-816178J42D01*
G01*
X203875006Y-65838305D02*
G75*
G03*
X204010000Y-65512380I-325906J325905D01*
G01*
X203876197Y-84837103D02*
G75*
G03*
X204012393Y-84508295I-328797J328803D01*
G01*
X203876192Y-84837098D02*
G75*
G03*
X203740000Y-85165909I328808J-328802D01*
G01*
X203876219Y-74517576D02*
G75*
G03*
X204015000Y-74182452I-335119J335076D01*
G01*
X203876169Y-74517526D02*
G75*
G03*
X203737393Y-74852654I335131J-335074D01*
G01*
X203874995Y-65838294D02*
G75*
G03*
X203740000Y-66164217I325905J-325906D01*
G01*
X204015018Y-67416155D02*
G75*
G03*
X203877500Y-67084201I-469518J-45D01*
G01*
X202961058Y-93100000D02*
G75*
G03*
X203740000Y-92321058I42J778900D01*
G01*
X132793752Y-74936907D02*
G75*
G03*
X133032818Y-75514066I816248J7D01*
G01*
X203737408Y-75661200D02*
G75*
G03*
X203874893Y-75993155I469492J0D01*
G01*
X130393750Y-74586907D02*
X130393750Y-59225000D01*
X127159067Y-78159682D02*
X130154682Y-75164067D01*
X126920000Y-78736842D02*
X126920000Y-82050000D01*
X130154683Y-75164068D02*
G75*
G03*
X130393750Y-74586907I-577183J577168D01*
G01*
X127159052Y-78159667D02*
G75*
G03*
X126920000Y-78736842I577148J-577133D01*
G01*
X129460000Y-77296842D02*
X129460000Y-82050000D01*
X131193750Y-74886907D02*
X131193750Y-61725000D01*
X130954682Y-75464067D02*
X129699067Y-76719682D01*
X130954683Y-75464068D02*
G75*
G03*
X131193750Y-74886907I-577183J577168D01*
G01*
X129699052Y-76719667D02*
G75*
G03*
X129460000Y-77296842I577148J-577133D01*
G01*
X137883451Y-50325000D02*
X134550392Y-50325000D01*
X137080000Y-78749342D02*
X137080000Y-82050000D01*
X138637221Y-50012778D02*
X139620000Y-49030000D01*
X136840932Y-78172182D02*
X133832817Y-75164067D01*
X133593750Y-51281642D02*
X133593750Y-74586907D01*
X137883451Y-50325033D02*
G75*
G03*
X138637221Y-50012778I-51J1066033D01*
G01*
X137079978Y-78749342D02*
G75*
G03*
X136840932Y-78172182I-816178J42D01*
G01*
X133593752Y-74586907D02*
G75*
G03*
X133832818Y-75164066I816248J7D01*
G01*
X134550392Y-50324950D02*
G75*
G03*
X133593750Y-51281642I8J-956650D01*
G01*
X147480000Y-56274500D02*
X147480000Y-63251186D01*
X146461186Y-64270000D02*
X139620000Y-64270000D01*
X147205500Y-56000000D02*
X147480000Y-56274500D01*
X146461186Y-64270000D02*
G75*
G03*
X147480000Y-63251186I14J1018800D01*
G01*
X147175500Y-93625000D02*
X147450000Y-93350500D01*
X147450000Y-87015847D02*
X147450000Y-79596717D01*
X146615446Y-69350000D02*
X139620000Y-69350000D01*
X147173560Y-78929332D02*
X147173560Y-78730274D01*
X147450000Y-93350500D02*
X147450000Y-88504152D01*
X147465000Y-78026675D02*
X147465000Y-70199554D01*
X147190000Y-87876457D02*
X147190000Y-87643542D01*
X147190017Y-87876457D02*
G75*
G03*
X147320001Y-88190304I443783J-43D01*
G01*
X147319289Y-78378484D02*
G75*
G03*
X147173560Y-78730274I351811J-351816D01*
G01*
X147465000Y-70199554D02*
G75*
G03*
X146615446Y-69350000I-849600J-46D01*
G01*
X147450047Y-88504152D02*
G75*
G03*
X147320000Y-88190305I-443847J-48D01*
G01*
X147319288Y-78378483D02*
G75*
G03*
X147465000Y-78026675I-351788J351783D01*
G01*
X147319987Y-87329682D02*
G75*
G03*
X147450000Y-87015847I-313887J313882D01*
G01*
X147449991Y-79596717D02*
G75*
G03*
X147311780Y-79263025I-471891J17D01*
G01*
X147319989Y-87329684D02*
G75*
G03*
X147190000Y-87643542I313811J-313816D01*
G01*
X147173546Y-78929332D02*
G75*
G03*
X147311781Y-79263024I471954J32D01*
G01*
X146632817Y-94264067D02*
X146660932Y-94292182D01*
X147015000Y-72812043D02*
X147015000Y-77840279D01*
X147000000Y-79783113D02*
X147000000Y-86829451D01*
X146393750Y-93686907D02*
X146393750Y-93663092D01*
X139620000Y-71890000D02*
X146092957Y-71890000D01*
X147000000Y-92380657D02*
X147000000Y-88690548D01*
X146760931Y-92957817D02*
X146632817Y-93085932D01*
X146900000Y-113550000D02*
X146875000Y-113575000D01*
X146723560Y-78543878D02*
X146723560Y-79115728D01*
X146740000Y-87457146D02*
X146740000Y-88062853D01*
X146900000Y-94869342D02*
X146900000Y-113550000D01*
X146740020Y-88062853D02*
G75*
G03*
X146870001Y-88376700I443780J-47D01*
G01*
X147015000Y-72812043D02*
G75*
G03*
X146092957Y-71890000I-922000J43D01*
G01*
X146869987Y-87143286D02*
G75*
G03*
X146740000Y-87457146I313813J-313814D01*
G01*
X146999979Y-88690548D02*
G75*
G03*
X146870000Y-88376701I-443779J48D01*
G01*
X146869286Y-78192085D02*
G75*
G03*
X147015000Y-77840279I-351786J351785D01*
G01*
X146869287Y-78192086D02*
G75*
G03*
X146723560Y-78543878I351813J-351814D01*
G01*
X146723548Y-79115728D02*
G75*
G03*
X146861780Y-79449421I471952J28D01*
G01*
X146869985Y-87143284D02*
G75*
G03*
X147000000Y-86829451I-313885J313884D01*
G01*
X146393752Y-93686907D02*
G75*
G03*
X146632818Y-94264066I816248J7D01*
G01*
X146999994Y-79783113D02*
G75*
G03*
X146861780Y-79449421I-471894J13D01*
G01*
X146632817Y-93085932D02*
G75*
G03*
X146393750Y-93663092I577183J-577168D01*
G01*
X146899978Y-94869342D02*
G75*
G03*
X146660932Y-94292182I-816178J42D01*
G01*
X146760948Y-92957834D02*
G75*
G03*
X147000000Y-92380657I-577148J577134D01*
G01*
X130973791Y-55425000D02*
X126053957Y-55425000D01*
X125287538Y-55742461D02*
X124380000Y-56650000D01*
X132000000Y-56451209D02*
X132000000Y-82050000D01*
X132000000Y-56451209D02*
G75*
G03*
X130973791Y-55425000I-1026200J9D01*
G01*
X126053957Y-55424976D02*
G75*
G03*
X125287538Y-55742461I43J-1083924D01*
G01*
X204460000Y-54589000D02*
X204185500Y-54314500D01*
X189971486Y-96428514D02*
X192421637Y-93978362D01*
X189971486Y-96453469D02*
X189971486Y-96428514D01*
X204190000Y-92365174D02*
X204190000Y-85352305D01*
X204187393Y-75474804D02*
X204187393Y-75102654D01*
X193335083Y-93600000D02*
X202955174Y-93600000D01*
X204190000Y-66565850D02*
X204190000Y-66350613D01*
X204465000Y-74432452D02*
X204465000Y-67229759D01*
X204462393Y-76138713D02*
X204462393Y-84694691D01*
X204460000Y-65698776D02*
X204460000Y-54589000D01*
X202955174Y-93600000D02*
G75*
G03*
X204190000Y-92365174I26J1234800D01*
G01*
X204189978Y-66565850D02*
G75*
G03*
X204327500Y-66897805I469522J50D01*
G01*
X204326169Y-74767526D02*
G75*
G03*
X204187393Y-75102654I335131J-335074D01*
G01*
X204465015Y-67229759D02*
G75*
G03*
X204327500Y-66897805I-469515J-41D01*
G01*
X204325008Y-66024703D02*
G75*
G03*
X204460000Y-65698776I-325908J325903D01*
G01*
X204187406Y-75474804D02*
G75*
G03*
X204324894Y-75806758I469494J4D01*
G01*
X204324997Y-66024692D02*
G75*
G03*
X204190000Y-66350613I325903J-325908D01*
G01*
X204326219Y-74767576D02*
G75*
G03*
X204465000Y-74432452I-335119J335076D01*
G01*
X193335083Y-93599986D02*
G75*
G03*
X192421637Y-93978362I17J-1291814D01*
G01*
X204326194Y-85023496D02*
G75*
G03*
X204190000Y-85352305I328806J-328804D01*
G01*
X204462372Y-76138713D02*
G75*
G03*
X204324893Y-75806759I-469472J13D01*
G01*
X204326199Y-85023501D02*
G75*
G03*
X204462393Y-84694691I-328799J328801D01*
G01*
X242900000Y-81000000D02*
X242900000Y-92445000D01*
X242915000Y-80985000D02*
X242915000Y-73460000D01*
X242910000Y-54465000D02*
X242915000Y-54460000D01*
X242915000Y-80985000D02*
X242900000Y-81000000D01*
X242900000Y-92445000D02*
X242915000Y-92460000D01*
X242910000Y-73455000D02*
X242910000Y-54465000D01*
X223915000Y-54460000D02*
X223910000Y-54465000D01*
X223915000Y-92460000D02*
X223915000Y-81737490D01*
X223910000Y-54465000D02*
X223910000Y-73455000D01*
X223915000Y-81737490D02*
X223884251Y-81706741D01*
X223915000Y-81675992D02*
X223884251Y-81706741D01*
X223915000Y-73460000D02*
X223915000Y-81675992D01*
X204915000Y-66460000D02*
X204915000Y-75297393D01*
X204910000Y-47465000D02*
X204910000Y-66455000D01*
X204912393Y-85457393D02*
X204915000Y-85460000D01*
X204912393Y-75300000D02*
X204912393Y-85457393D01*
X204915000Y-75297393D02*
X204912393Y-75300000D01*
X185915000Y-74382390D02*
X185915000Y-63460000D01*
X185900000Y-82445000D02*
X185915000Y-82460000D01*
X185915000Y-90115000D02*
X185915000Y-82460000D01*
X185900000Y-74397390D02*
X185900000Y-82445000D01*
X185949799Y-90149799D02*
X185915000Y-90115000D01*
X185900000Y-74397390D02*
X185915000Y-74382390D01*
X185920000Y-44465000D02*
X185920000Y-63455000D01*
X166910000Y-47465000D02*
X166910000Y-66455000D01*
X166898695Y-77398695D02*
X166898695Y-85443695D01*
X166898695Y-85443695D02*
X166915000Y-85460000D01*
X166915000Y-92417987D02*
X166915000Y-85460000D01*
X166915000Y-66460000D02*
X166915000Y-77382390D01*
X166915000Y-77382390D02*
X166898695Y-77398695D01*
X166948305Y-92451292D02*
X166915000Y-92417987D01*
X147898560Y-78824500D02*
X147915000Y-78808060D01*
X147900000Y-94430000D02*
X147900000Y-87775000D01*
X147898560Y-78824500D02*
X147900000Y-78825940D01*
X147900000Y-78825940D02*
X147900000Y-87745000D01*
X147930000Y-49775000D02*
X147930000Y-68745000D01*
X147900000Y-87775000D02*
X147915000Y-87760000D01*
X147630000Y-94700000D02*
X147900000Y-94430000D01*
X147900000Y-87745000D02*
X147915000Y-87760000D01*
X147915000Y-78808060D02*
X147915000Y-68760000D01*
G04 #@! TA.AperFunction,Conductor*
G36*
X190803167Y-95435861D02*
G01*
X190964146Y-95596839D01*
X190967573Y-95605112D01*
X190964524Y-95612989D01*
X190887539Y-95697533D01*
X190869753Y-95717065D01*
X190869568Y-95717319D01*
X190869560Y-95717331D01*
X190795737Y-95819610D01*
X190795730Y-95819620D01*
X190795502Y-95819937D01*
X190795317Y-95820282D01*
X190795313Y-95820290D01*
X190744320Y-95915879D01*
X190744313Y-95915894D01*
X190744124Y-95916249D01*
X190743986Y-95916627D01*
X190743980Y-95916642D01*
X190710573Y-96008560D01*
X190710569Y-96008572D01*
X190710451Y-96008898D01*
X190710373Y-96009234D01*
X190710369Y-96009250D01*
X190689372Y-96100557D01*
X190689320Y-96100784D01*
X190689289Y-96100993D01*
X190689287Y-96101006D01*
X190675564Y-96194807D01*
X190675546Y-96194958D01*
X190664018Y-96293864D01*
X190649560Y-96400539D01*
X190649456Y-96401173D01*
X190626979Y-96518237D01*
X190626776Y-96519112D01*
X190593228Y-96642025D01*
X190587744Y-96649104D01*
X190582483Y-96650631D01*
X189760076Y-96688796D01*
X189751653Y-96685757D01*
X189747847Y-96677651D01*
X189747834Y-96677194D01*
X189746683Y-96519112D01*
X189741841Y-95853928D01*
X189745209Y-95845630D01*
X189749864Y-95842736D01*
X189872889Y-95802046D01*
X189873747Y-95801800D01*
X189990896Y-95773165D01*
X189991529Y-95773030D01*
X190098309Y-95753612D01*
X190098495Y-95753580D01*
X190197846Y-95738062D01*
X190197962Y-95738042D01*
X190251313Y-95728493D01*
X190292434Y-95721134D01*
X190385110Y-95697451D01*
X190478802Y-95661651D01*
X190576439Y-95608376D01*
X190680950Y-95532265D01*
X190787008Y-95435490D01*
X190795429Y-95432446D01*
X190803167Y-95435861D01*
G37*
G04 #@! TD.AperFunction*
G04 #@! TA.AperFunction,Conductor*
G36*
X204925533Y-47268564D02*
G01*
X204925829Y-47268867D01*
X205267021Y-47632772D01*
X205270179Y-47641150D01*
X205268798Y-47646299D01*
X205235576Y-47708304D01*
X205235289Y-47708809D01*
X205199653Y-47768055D01*
X205199483Y-47768327D01*
X205165753Y-47820865D01*
X205146853Y-47850443D01*
X205134622Y-47869585D01*
X205134609Y-47869605D01*
X205134553Y-47869694D01*
X205134486Y-47869807D01*
X205134435Y-47869893D01*
X205106682Y-47917549D01*
X205106673Y-47917564D01*
X205106557Y-47917765D01*
X205106455Y-47917976D01*
X205106452Y-47917983D01*
X205083787Y-47965175D01*
X205082348Y-47968171D01*
X205082246Y-47968457D01*
X205082241Y-47968470D01*
X205062617Y-48023688D01*
X205062505Y-48024004D01*
X205062434Y-48024308D01*
X205062430Y-48024324D01*
X205047680Y-48088062D01*
X205047678Y-48088071D01*
X205047612Y-48088358D01*
X205047575Y-48088651D01*
X205047574Y-48088662D01*
X205038282Y-48164058D01*
X205038280Y-48164077D01*
X205038250Y-48164325D01*
X205038240Y-48164591D01*
X205038240Y-48164597D01*
X205035404Y-48243719D01*
X205031683Y-48251864D01*
X205023712Y-48255000D01*
X204796294Y-48255000D01*
X204788021Y-48251573D01*
X204784601Y-48243713D01*
X204781805Y-48164597D01*
X204781764Y-48163428D01*
X204772465Y-48086696D01*
X204757710Y-48021660D01*
X204738108Y-47965175D01*
X204714269Y-47914099D01*
X204686801Y-47865285D01*
X204686749Y-47865201D01*
X204686695Y-47865108D01*
X204656314Y-47815592D01*
X204623498Y-47762007D01*
X204623311Y-47761690D01*
X204588869Y-47701256D01*
X204588586Y-47700730D01*
X204556603Y-47637286D01*
X204555939Y-47628356D01*
X204558719Y-47623806D01*
X204908989Y-47268676D01*
X204917236Y-47265194D01*
X204925533Y-47268564D01*
G37*
G04 #@! TD.AperFunction*
G04 #@! TA.AperFunction,Conductor*
G36*
X137202143Y-80563427D02*
G01*
X137205554Y-80571116D01*
X137213737Y-80735128D01*
X137213797Y-80735481D01*
X137213798Y-80735483D01*
X137238509Y-80879065D01*
X137238511Y-80879071D01*
X137277163Y-80998622D01*
X137327535Y-81100573D01*
X137327724Y-81100861D01*
X137327729Y-81100869D01*
X137387342Y-81191528D01*
X137387351Y-81191540D01*
X137387467Y-81191717D01*
X137387597Y-81191885D01*
X137387604Y-81191895D01*
X137454802Y-81278847D01*
X137454880Y-81278945D01*
X137527282Y-81368634D01*
X137527490Y-81368900D01*
X137602805Y-81467919D01*
X137603253Y-81468549D01*
X137679358Y-81583656D01*
X137679884Y-81584533D01*
X137750923Y-81715563D01*
X137751853Y-81724469D01*
X137749070Y-81729249D01*
X137088433Y-82416230D01*
X137080229Y-82419818D01*
X137071890Y-82416553D01*
X137071567Y-82416230D01*
X136703258Y-82033235D01*
X136410928Y-81729248D01*
X136407664Y-81720910D01*
X136409075Y-81715566D01*
X136480123Y-81584516D01*
X136480630Y-81583672D01*
X136556760Y-81468527D01*
X136557177Y-81467941D01*
X136632525Y-81368877D01*
X136632716Y-81368634D01*
X136705197Y-81278847D01*
X136705273Y-81278750D01*
X136772394Y-81191895D01*
X136772532Y-81191717D01*
X136832464Y-81100573D01*
X136882836Y-80998622D01*
X136921488Y-80879071D01*
X136946262Y-80735128D01*
X136954445Y-80571116D01*
X136958279Y-80563025D01*
X136966130Y-80560000D01*
X137193870Y-80560000D01*
X137202143Y-80563427D01*
G37*
G04 #@! TD.AperFunction*
G04 #@! TA.AperFunction,Conductor*
G36*
X205105339Y-75300639D02*
G01*
X205105339Y-75300640D01*
X205266566Y-75468296D01*
X205269831Y-75476635D01*
X205268511Y-75481809D01*
X205236128Y-75544005D01*
X205235835Y-75544534D01*
X205200905Y-75603921D01*
X205200712Y-75604236D01*
X205167509Y-75656812D01*
X205136703Y-75705561D01*
X205136685Y-75705590D01*
X205136654Y-75705640D01*
X205136613Y-75705710D01*
X205136542Y-75705829D01*
X205108987Y-75753442D01*
X205108980Y-75753455D01*
X205108869Y-75753647D01*
X205108777Y-75753838D01*
X205108769Y-75753854D01*
X205084898Y-75803659D01*
X205084889Y-75803678D01*
X205084767Y-75803935D01*
X205084668Y-75804211D01*
X205084663Y-75804225D01*
X205065068Y-75859298D01*
X205064957Y-75859610D01*
X205064886Y-75859914D01*
X205064882Y-75859929D01*
X205050121Y-75923475D01*
X205050051Y-75923777D01*
X205050013Y-75924082D01*
X205050012Y-75924089D01*
X205040690Y-75999281D01*
X205040688Y-75999300D01*
X205040659Y-75999538D01*
X205040650Y-75999785D01*
X205040649Y-75999799D01*
X205037800Y-76078722D01*
X205034077Y-76086866D01*
X205026108Y-76090000D01*
X204799574Y-76090000D01*
X204791301Y-76086573D01*
X204787874Y-76078300D01*
X204787875Y-76060429D01*
X204786164Y-76051825D01*
X204785947Y-76049965D01*
X204784135Y-75999799D01*
X204784126Y-75999538D01*
X204774734Y-75923777D01*
X204759828Y-75859610D01*
X204740018Y-75803935D01*
X204715916Y-75753647D01*
X204688131Y-75705640D01*
X204657276Y-75656812D01*
X204624041Y-75604186D01*
X204623879Y-75603921D01*
X204588949Y-75544534D01*
X204588656Y-75544005D01*
X204556274Y-75481809D01*
X204555493Y-75472888D01*
X204558217Y-75468297D01*
X204912393Y-75100000D01*
X205105339Y-75300639D01*
G37*
G04 #@! TD.AperFunction*
G04 #@! TA.AperFunction,Conductor*
G36*
X186103965Y-82456501D02*
G01*
X186103966Y-82456501D01*
X186226135Y-82583541D01*
X186269173Y-82628296D01*
X186272438Y-82636635D01*
X186271118Y-82641809D01*
X186238735Y-82704005D01*
X186238442Y-82704534D01*
X186203512Y-82763921D01*
X186203319Y-82764236D01*
X186170116Y-82816812D01*
X186139310Y-82865561D01*
X186139292Y-82865590D01*
X186139261Y-82865640D01*
X186139220Y-82865710D01*
X186139149Y-82865829D01*
X186111594Y-82913442D01*
X186111587Y-82913455D01*
X186111476Y-82913647D01*
X186111384Y-82913838D01*
X186111376Y-82913854D01*
X186087505Y-82963659D01*
X186087496Y-82963678D01*
X186087374Y-82963935D01*
X186087275Y-82964211D01*
X186087270Y-82964225D01*
X186067675Y-83019298D01*
X186067564Y-83019610D01*
X186067493Y-83019914D01*
X186067489Y-83019929D01*
X186052728Y-83083475D01*
X186052658Y-83083777D01*
X186052620Y-83084082D01*
X186052619Y-83084089D01*
X186043297Y-83159281D01*
X186043295Y-83159300D01*
X186043266Y-83159538D01*
X186043257Y-83159785D01*
X186043256Y-83159799D01*
X186040407Y-83238722D01*
X186036684Y-83246866D01*
X186028715Y-83250000D01*
X185801285Y-83250000D01*
X185793012Y-83246573D01*
X185789593Y-83238722D01*
X185786742Y-83159799D01*
X185786733Y-83159538D01*
X185777341Y-83083777D01*
X185762435Y-83019610D01*
X185742625Y-82963935D01*
X185718523Y-82913647D01*
X185690738Y-82865640D01*
X185659883Y-82816812D01*
X185626648Y-82764186D01*
X185626486Y-82763921D01*
X185591556Y-82704534D01*
X185591263Y-82704005D01*
X185558881Y-82641809D01*
X185558100Y-82632888D01*
X185560824Y-82628297D01*
X185915000Y-82260000D01*
X186103965Y-82456501D01*
G37*
G04 #@! TD.AperFunction*
G04 #@! TA.AperFunction,Conductor*
G36*
X203613670Y-55170960D02*
G01*
X204125880Y-55310672D01*
X204132959Y-55316155D01*
X204134500Y-55321959D01*
X204134500Y-55996096D01*
X204131073Y-56004369D01*
X204122800Y-56007796D01*
X203896031Y-56007796D01*
X203887758Y-56004369D01*
X203884351Y-55996785D01*
X203883576Y-55983652D01*
X203881455Y-55947679D01*
X203871090Y-55897172D01*
X203854308Y-55855000D01*
X203831513Y-55819892D01*
X203803107Y-55790573D01*
X203769787Y-55765990D01*
X203769785Y-55765988D01*
X203769494Y-55765774D01*
X203769186Y-55765601D01*
X203769178Y-55765596D01*
X203731278Y-55744331D01*
X203731273Y-55744328D01*
X203731078Y-55744219D01*
X203730864Y-55744121D01*
X203688389Y-55724695D01*
X203688369Y-55724686D01*
X203688261Y-55724637D01*
X203641446Y-55705754D01*
X203623380Y-55698781D01*
X203598651Y-55689236D01*
X203592167Y-55683060D01*
X203591165Y-55678139D01*
X203592603Y-55585944D01*
X203598899Y-55182066D01*
X203602455Y-55173848D01*
X203610780Y-55170550D01*
X203613670Y-55170960D01*
G37*
G04 #@! TD.AperFunction*
G04 #@! TA.AperFunction,Conductor*
G36*
X139954434Y-68679075D02*
G01*
X140085472Y-68750118D01*
X140086336Y-68750636D01*
X140201456Y-68826750D01*
X140202079Y-68827193D01*
X140301098Y-68902508D01*
X140301364Y-68902716D01*
X140391152Y-68975197D01*
X140391249Y-68975273D01*
X140478103Y-69042394D01*
X140478282Y-69042532D01*
X140478463Y-69042651D01*
X140478470Y-69042656D01*
X140569129Y-69102269D01*
X140569426Y-69102464D01*
X140671377Y-69152836D01*
X140790928Y-69191488D01*
X140790932Y-69191488D01*
X140790933Y-69191489D01*
X140813990Y-69195457D01*
X140934871Y-69216262D01*
X141098883Y-69224445D01*
X141106975Y-69228279D01*
X141110000Y-69236130D01*
X141110000Y-69463869D01*
X141106573Y-69472142D01*
X141098883Y-69475554D01*
X140935229Y-69483719D01*
X140935226Y-69483719D01*
X140934871Y-69483737D01*
X140934519Y-69483797D01*
X140934515Y-69483798D01*
X140790933Y-69508509D01*
X140671378Y-69547162D01*
X140569739Y-69597380D01*
X140569734Y-69597382D01*
X140569426Y-69597535D01*
X140569144Y-69597720D01*
X140569129Y-69597729D01*
X140478470Y-69657342D01*
X140478445Y-69657359D01*
X140478282Y-69657467D01*
X140478125Y-69657587D01*
X140478103Y-69657604D01*
X140391152Y-69724802D01*
X140391054Y-69724880D01*
X140301364Y-69797282D01*
X140301098Y-69797490D01*
X140202079Y-69872805D01*
X140201449Y-69873253D01*
X140086342Y-69949358D01*
X140085465Y-69949884D01*
X139954436Y-70020923D01*
X139945530Y-70021853D01*
X139940751Y-70019070D01*
X139253768Y-69358432D01*
X139250181Y-69350229D01*
X139253446Y-69341890D01*
X139253769Y-69341567D01*
X139940752Y-68680927D01*
X139949089Y-68677664D01*
X139954434Y-68679075D01*
G37*
G04 #@! TD.AperFunction*
G04 #@! TA.AperFunction,Conductor*
G36*
X147571073Y-92933927D02*
G01*
X147574500Y-92942200D01*
X147574500Y-93616335D01*
X147571073Y-93624608D01*
X147565879Y-93627623D01*
X147053677Y-93767334D01*
X147044794Y-93766205D01*
X147039310Y-93759125D01*
X147038899Y-93756228D01*
X147033497Y-93409755D01*
X147031165Y-93260155D01*
X147034463Y-93251831D01*
X147038649Y-93249060D01*
X147081446Y-93232541D01*
X147128261Y-93213658D01*
X147171078Y-93194076D01*
X147209494Y-93172521D01*
X147243107Y-93147721D01*
X147271513Y-93118403D01*
X147294308Y-93083295D01*
X147311090Y-93041123D01*
X147321455Y-92990616D01*
X147324350Y-92941511D01*
X147328259Y-92933454D01*
X147336031Y-92930500D01*
X147562800Y-92930500D01*
X147571073Y-92933927D01*
G37*
G04 #@! TD.AperFunction*
G04 #@! TA.AperFunction,Conductor*
G36*
X139628110Y-53743446D02*
G01*
X139628433Y-53743769D01*
X140289118Y-54430800D01*
X140292383Y-54439139D01*
X140291013Y-54444407D01*
X140222894Y-54572400D01*
X140222479Y-54573118D01*
X140151020Y-54687095D01*
X140150695Y-54687585D01*
X140081191Y-54786973D01*
X140015350Y-54878027D01*
X140015258Y-54878161D01*
X139955152Y-54966668D01*
X139955141Y-54966685D01*
X139955026Y-54966855D01*
X139954919Y-54967041D01*
X139954916Y-54967047D01*
X139902065Y-55059520D01*
X139902056Y-55059537D01*
X139901900Y-55059811D01*
X139901772Y-55060108D01*
X139901768Y-55060118D01*
X139857803Y-55162897D01*
X139857800Y-55162904D01*
X139857653Y-55163249D01*
X139857550Y-55163613D01*
X139857549Y-55163619D01*
X139824064Y-55283171D01*
X139824061Y-55283184D01*
X139823966Y-55283524D01*
X139823913Y-55283872D01*
X139823911Y-55283886D01*
X139809543Y-55379999D01*
X139809543Y-55380003D01*
X139802521Y-55426989D01*
X139795000Y-55600000D01*
X139445000Y-55600000D01*
X139437478Y-55426989D01*
X139416033Y-55283524D01*
X139382346Y-55163249D01*
X139338099Y-55059811D01*
X139284973Y-54966855D01*
X139224649Y-54878027D01*
X139224543Y-54877878D01*
X139158808Y-54786973D01*
X139089303Y-54687585D01*
X139088978Y-54687095D01*
X139017519Y-54573118D01*
X139017104Y-54572400D01*
X138948986Y-54444407D01*
X138948124Y-54435494D01*
X138950878Y-54430803D01*
X139611567Y-53743768D01*
X139619771Y-53740181D01*
X139628110Y-53743446D01*
G37*
G04 #@! TD.AperFunction*
G04 #@! TA.AperFunction,Conductor*
G36*
X224106165Y-73458788D02*
G01*
X224106166Y-73458788D01*
X224106166Y-73458789D01*
X224269173Y-73628296D01*
X224272438Y-73636635D01*
X224271118Y-73641809D01*
X224238735Y-73704005D01*
X224238442Y-73704534D01*
X224203512Y-73763921D01*
X224203319Y-73764236D01*
X224170116Y-73816812D01*
X224139310Y-73865561D01*
X224139292Y-73865590D01*
X224139261Y-73865640D01*
X224139220Y-73865710D01*
X224139149Y-73865829D01*
X224111594Y-73913442D01*
X224111587Y-73913455D01*
X224111476Y-73913647D01*
X224111384Y-73913838D01*
X224111376Y-73913854D01*
X224087505Y-73963659D01*
X224087496Y-73963678D01*
X224087374Y-73963935D01*
X224087275Y-73964211D01*
X224087270Y-73964225D01*
X224067675Y-74019298D01*
X224067564Y-74019610D01*
X224067493Y-74019914D01*
X224067489Y-74019929D01*
X224052728Y-74083475D01*
X224052658Y-74083777D01*
X224052620Y-74084082D01*
X224052619Y-74084089D01*
X224043297Y-74159281D01*
X224043295Y-74159300D01*
X224043266Y-74159538D01*
X224043257Y-74159785D01*
X224043256Y-74159799D01*
X224040407Y-74238722D01*
X224036684Y-74246866D01*
X224028715Y-74250000D01*
X223801285Y-74250000D01*
X223793012Y-74246573D01*
X223789593Y-74238722D01*
X223786742Y-74159799D01*
X223786733Y-74159538D01*
X223777341Y-74083777D01*
X223762435Y-74019610D01*
X223742625Y-73963935D01*
X223718523Y-73913647D01*
X223690738Y-73865640D01*
X223659883Y-73816812D01*
X223626648Y-73764186D01*
X223626486Y-73763921D01*
X223591556Y-73704534D01*
X223591263Y-73704005D01*
X223558881Y-73641809D01*
X223558100Y-73632888D01*
X223560826Y-73628296D01*
X223721491Y-73461224D01*
X223915000Y-73260000D01*
X224106165Y-73458788D01*
G37*
G04 #@! TD.AperFunction*
G04 #@! TA.AperFunction,Conductor*
G36*
X167036992Y-91651414D02*
G01*
X167040410Y-91659260D01*
X167043257Y-91737411D01*
X167043288Y-91737663D01*
X167043290Y-91737678D01*
X167052666Y-91812058D01*
X167052706Y-91812373D01*
X167052777Y-91812671D01*
X167052779Y-91812681D01*
X167067777Y-91875496D01*
X167067860Y-91875842D01*
X167088230Y-91930790D01*
X167088374Y-91931075D01*
X167088377Y-91931080D01*
X167113213Y-91979959D01*
X167113219Y-91979970D01*
X167113330Y-91980188D01*
X167113458Y-91980393D01*
X167113467Y-91980408D01*
X167128327Y-92004117D01*
X167142673Y-92027006D01*
X167142758Y-92027127D01*
X167175772Y-92074215D01*
X167212084Y-92124708D01*
X167212220Y-92124902D01*
X167240336Y-92165771D01*
X167251142Y-92181477D01*
X167251420Y-92181900D01*
X167288289Y-92240799D01*
X167289774Y-92249630D01*
X167287444Y-92254395D01*
X166972447Y-92641179D01*
X166964566Y-92645430D01*
X166955987Y-92642863D01*
X166955638Y-92642567D01*
X166581476Y-92312709D01*
X166577536Y-92304668D01*
X166578421Y-92299414D01*
X166607032Y-92231143D01*
X166607236Y-92230689D01*
X166638436Y-92165917D01*
X166638605Y-92165584D01*
X166668651Y-92108432D01*
X166696908Y-92055590D01*
X166696979Y-92055448D01*
X166712223Y-92024819D01*
X166722616Y-92003942D01*
X166745123Y-91950184D01*
X166763772Y-91891012D01*
X166777905Y-91823125D01*
X166786866Y-91743217D01*
X166789627Y-91659302D01*
X166793325Y-91651146D01*
X166801322Y-91647987D01*
X167028719Y-91647987D01*
X167036992Y-91651414D01*
G37*
G04 #@! TD.AperFunction*
G04 #@! TA.AperFunction,Conductor*
G36*
X148100842Y-87759999D02*
G01*
X148100842Y-87760000D01*
X148223963Y-87897900D01*
X148262716Y-87941306D01*
X148265669Y-87949759D01*
X148264173Y-87954857D01*
X148229302Y-88016528D01*
X148229027Y-88016988D01*
X148192028Y-88075949D01*
X148191872Y-88076192D01*
X148157111Y-88128662D01*
X148125298Y-88177407D01*
X148125285Y-88177426D01*
X148125219Y-88177529D01*
X148125157Y-88177633D01*
X148125154Y-88177639D01*
X148096915Y-88225551D01*
X148096908Y-88225563D01*
X148096789Y-88225766D01*
X148096683Y-88225985D01*
X148096677Y-88225997D01*
X148072486Y-88276155D01*
X148072480Y-88276168D01*
X148072348Y-88276443D01*
X148072242Y-88276739D01*
X148072241Y-88276744D01*
X148052538Y-88332307D01*
X148052533Y-88332321D01*
X148052423Y-88332634D01*
X148052347Y-88332963D01*
X148052346Y-88332968D01*
X148037604Y-88397118D01*
X148037601Y-88397133D01*
X148037538Y-88397409D01*
X148037503Y-88397690D01*
X148037501Y-88397706D01*
X148028252Y-88473588D01*
X148028250Y-88473604D01*
X148028222Y-88473840D01*
X148025414Y-88553301D01*
X148025399Y-88553713D01*
X148021682Y-88561860D01*
X148013706Y-88565000D01*
X147787205Y-88565000D01*
X147778932Y-88561573D01*
X147775505Y-88553301D01*
X147775500Y-88509010D01*
X147775547Y-88508894D01*
X147775546Y-88503830D01*
X147775539Y-88428339D01*
X147745954Y-88279698D01*
X147687938Y-88139685D01*
X147605930Y-88016988D01*
X147603721Y-88013683D01*
X147603720Y-88013682D01*
X147584166Y-87994134D01*
X147581865Y-87990866D01*
X147552380Y-87928497D01*
X147551943Y-87919553D01*
X147554828Y-87915084D01*
X147922402Y-87560138D01*
X148100842Y-87759999D01*
G37*
G04 #@! TD.AperFunction*
G04 #@! TA.AperFunction,Conductor*
G36*
X167020673Y-84657122D02*
G01*
X167024093Y-84664982D01*
X167026914Y-84744923D01*
X167026944Y-84745169D01*
X167026945Y-84745182D01*
X167036189Y-84821116D01*
X167036226Y-84821419D01*
X167036292Y-84821709D01*
X167036294Y-84821717D01*
X167051033Y-84885921D01*
X167051035Y-84885929D01*
X167051110Y-84886254D01*
X167051223Y-84886573D01*
X167051224Y-84886576D01*
X167053724Y-84893629D01*
X167071049Y-84942495D01*
X167095521Y-84993212D01*
X167124009Y-85041474D01*
X167124081Y-85041584D01*
X167155992Y-85090349D01*
X167190882Y-85142807D01*
X167191035Y-85143043D01*
X167228222Y-85201990D01*
X167228495Y-85202445D01*
X167263572Y-85264065D01*
X167264687Y-85272950D01*
X167262156Y-85277618D01*
X167103691Y-85456214D01*
X167103691Y-85456215D01*
X166923019Y-85659839D01*
X166554353Y-85306030D01*
X166550756Y-85297830D01*
X166551859Y-85292625D01*
X166582900Y-85226413D01*
X166583127Y-85225960D01*
X166616546Y-85162985D01*
X166616694Y-85162717D01*
X166648520Y-85106999D01*
X166678121Y-85055378D01*
X166678217Y-85055200D01*
X166695687Y-85022073D01*
X166704818Y-85004763D01*
X166728010Y-84951924D01*
X166747095Y-84893629D01*
X166761472Y-84826647D01*
X166770539Y-84747746D01*
X166773316Y-84665003D01*
X166777018Y-84656849D01*
X166785009Y-84653695D01*
X167012400Y-84653695D01*
X167020673Y-84657122D01*
G37*
G04 #@! TD.AperFunction*
G04 #@! TA.AperFunction,Conductor*
G36*
X186041979Y-62668427D02*
G01*
X186045399Y-62676287D01*
X186048226Y-62756332D01*
X186048227Y-62756344D01*
X186048235Y-62756571D01*
X186057534Y-62833303D01*
X186057599Y-62833589D01*
X186057601Y-62833601D01*
X186072217Y-62898025D01*
X186072220Y-62898037D01*
X186072289Y-62898339D01*
X186091891Y-62954824D01*
X186115730Y-63005900D01*
X186143198Y-63054714D01*
X186143245Y-63054791D01*
X186143304Y-63054891D01*
X186173685Y-63104407D01*
X186206500Y-63157991D01*
X186206687Y-63158308D01*
X186241129Y-63218742D01*
X186241412Y-63219268D01*
X186273396Y-63282713D01*
X186274060Y-63291643D01*
X186271278Y-63296196D01*
X186108508Y-63461223D01*
X186108507Y-63461224D01*
X185912469Y-63659983D01*
X185562978Y-63287226D01*
X185559820Y-63278848D01*
X185561200Y-63273702D01*
X185594427Y-63211685D01*
X185594694Y-63211213D01*
X185630372Y-63151898D01*
X185630490Y-63151709D01*
X185664246Y-63099134D01*
X185695446Y-63050305D01*
X185695521Y-63050176D01*
X185695564Y-63050106D01*
X185715766Y-63015412D01*
X185723442Y-63002234D01*
X185747651Y-62951828D01*
X185767494Y-62895995D01*
X185782387Y-62831641D01*
X185791749Y-62755674D01*
X185793541Y-62705672D01*
X185794596Y-62676281D01*
X185798317Y-62668136D01*
X185806288Y-62665000D01*
X186033706Y-62665000D01*
X186041979Y-62668427D01*
G37*
G04 #@! TD.AperFunction*
G04 #@! TA.AperFunction,Conductor*
G36*
X134662143Y-80563427D02*
G01*
X134665554Y-80571116D01*
X134673737Y-80735128D01*
X134673797Y-80735481D01*
X134673798Y-80735483D01*
X134698509Y-80879065D01*
X134698511Y-80879071D01*
X134737163Y-80998622D01*
X134787535Y-81100573D01*
X134787724Y-81100861D01*
X134787729Y-81100869D01*
X134847342Y-81191528D01*
X134847351Y-81191540D01*
X134847467Y-81191717D01*
X134847597Y-81191885D01*
X134847604Y-81191895D01*
X134914802Y-81278847D01*
X134914880Y-81278945D01*
X134987282Y-81368634D01*
X134987490Y-81368900D01*
X135062805Y-81467919D01*
X135063253Y-81468549D01*
X135139358Y-81583656D01*
X135139884Y-81584533D01*
X135210923Y-81715563D01*
X135211853Y-81724469D01*
X135209070Y-81729249D01*
X134548433Y-82416230D01*
X134540229Y-82419818D01*
X134531890Y-82416553D01*
X134531567Y-82416230D01*
X134163258Y-82033235D01*
X133870928Y-81729248D01*
X133867664Y-81720910D01*
X133869075Y-81715566D01*
X133940123Y-81584516D01*
X133940630Y-81583672D01*
X134016760Y-81468527D01*
X134017177Y-81467941D01*
X134092525Y-81368877D01*
X134092716Y-81368634D01*
X134165197Y-81278847D01*
X134165273Y-81278750D01*
X134232394Y-81191895D01*
X134232532Y-81191717D01*
X134292464Y-81100573D01*
X134342836Y-80998622D01*
X134381488Y-80879071D01*
X134406262Y-80735128D01*
X134414445Y-80571116D01*
X134418279Y-80563025D01*
X134426130Y-80560000D01*
X134653870Y-80560000D01*
X134662143Y-80563427D01*
G37*
G04 #@! TD.AperFunction*
G04 #@! TA.AperFunction,Conductor*
G36*
X243036988Y-80198427D02*
G01*
X243040407Y-80206278D01*
X243043256Y-80285199D01*
X243043256Y-80285211D01*
X243043266Y-80285461D01*
X243043295Y-80285700D01*
X243043297Y-80285717D01*
X243052619Y-80360909D01*
X243052658Y-80361222D01*
X243052728Y-80361523D01*
X243067489Y-80425069D01*
X243067492Y-80425079D01*
X243067564Y-80425389D01*
X243087374Y-80481064D01*
X243087499Y-80481326D01*
X243087505Y-80481339D01*
X243111376Y-80531144D01*
X243111476Y-80531352D01*
X243139261Y-80579359D01*
X243170116Y-80628187D01*
X243203338Y-80680793D01*
X243203512Y-80681077D01*
X243238442Y-80740464D01*
X243238735Y-80740993D01*
X243271118Y-80803190D01*
X243271899Y-80812111D01*
X243269173Y-80816703D01*
X243110817Y-80981374D01*
X243103966Y-80988498D01*
X242915000Y-81185000D01*
X242560826Y-80816703D01*
X242557561Y-80808364D01*
X242558881Y-80803190D01*
X242591263Y-80740993D01*
X242591547Y-80740479D01*
X242626513Y-80681032D01*
X242626629Y-80680841D01*
X242659883Y-80628187D01*
X242690738Y-80579359D01*
X242690793Y-80579263D01*
X242690850Y-80579170D01*
X242711164Y-80544065D01*
X242718523Y-80531352D01*
X242742625Y-80481064D01*
X242762435Y-80425389D01*
X242777341Y-80361222D01*
X242786733Y-80285461D01*
X242789592Y-80206278D01*
X242793316Y-80198134D01*
X242801285Y-80195000D01*
X243028715Y-80195000D01*
X243036988Y-80198427D01*
G37*
G04 #@! TD.AperFunction*
G04 #@! TA.AperFunction,Conductor*
G36*
X131201859Y-61533446D02*
G01*
X131202182Y-61533769D01*
X131547923Y-61893296D01*
X131551188Y-61901635D01*
X131549868Y-61906809D01*
X131517485Y-61969005D01*
X131517192Y-61969534D01*
X131482262Y-62028921D01*
X131482069Y-62029236D01*
X131448866Y-62081812D01*
X131418060Y-62130561D01*
X131418042Y-62130590D01*
X131418011Y-62130640D01*
X131417970Y-62130710D01*
X131417899Y-62130829D01*
X131390344Y-62178442D01*
X131390337Y-62178455D01*
X131390226Y-62178647D01*
X131390134Y-62178838D01*
X131390126Y-62178854D01*
X131366255Y-62228659D01*
X131366246Y-62228678D01*
X131366124Y-62228935D01*
X131366025Y-62229211D01*
X131366020Y-62229225D01*
X131346425Y-62284298D01*
X131346314Y-62284610D01*
X131346243Y-62284914D01*
X131346239Y-62284929D01*
X131331478Y-62348475D01*
X131331408Y-62348777D01*
X131331370Y-62349082D01*
X131331369Y-62349089D01*
X131322047Y-62424281D01*
X131322045Y-62424300D01*
X131322016Y-62424538D01*
X131322007Y-62424785D01*
X131322006Y-62424799D01*
X131319157Y-62503722D01*
X131315434Y-62511866D01*
X131307465Y-62515000D01*
X131080035Y-62515000D01*
X131071762Y-62511573D01*
X131068343Y-62503722D01*
X131065492Y-62424799D01*
X131065483Y-62424538D01*
X131056091Y-62348777D01*
X131041185Y-62284610D01*
X131021375Y-62228935D01*
X130997273Y-62178647D01*
X130969488Y-62130640D01*
X130938633Y-62081812D01*
X130905398Y-62029186D01*
X130905236Y-62028921D01*
X130870306Y-61969534D01*
X130870013Y-61969005D01*
X130837631Y-61906809D01*
X130836850Y-61897888D01*
X130839574Y-61893297D01*
X131185318Y-61533768D01*
X131193520Y-61530181D01*
X131201859Y-61533446D01*
G37*
G04 #@! TD.AperFunction*
G04 #@! TA.AperFunction,Conductor*
G36*
X129582143Y-80563427D02*
G01*
X129585554Y-80571116D01*
X129593737Y-80735128D01*
X129593797Y-80735481D01*
X129593798Y-80735483D01*
X129618509Y-80879065D01*
X129618511Y-80879071D01*
X129657163Y-80998622D01*
X129707535Y-81100573D01*
X129707724Y-81100861D01*
X129707729Y-81100869D01*
X129767342Y-81191528D01*
X129767351Y-81191540D01*
X129767467Y-81191717D01*
X129767597Y-81191885D01*
X129767604Y-81191895D01*
X129834802Y-81278847D01*
X129834880Y-81278945D01*
X129907282Y-81368634D01*
X129907490Y-81368900D01*
X129982805Y-81467919D01*
X129983253Y-81468549D01*
X130059358Y-81583656D01*
X130059884Y-81584533D01*
X130130923Y-81715563D01*
X130131853Y-81724469D01*
X130129070Y-81729249D01*
X129468433Y-82416230D01*
X129460229Y-82419818D01*
X129451890Y-82416553D01*
X129451567Y-82416230D01*
X129083258Y-82033235D01*
X128790928Y-81729248D01*
X128787664Y-81720910D01*
X128789075Y-81715566D01*
X128860123Y-81584516D01*
X128860630Y-81583672D01*
X128936760Y-81468527D01*
X128937177Y-81467941D01*
X129012525Y-81368877D01*
X129012716Y-81368634D01*
X129085197Y-81278847D01*
X129085273Y-81278750D01*
X129152394Y-81191895D01*
X129152532Y-81191717D01*
X129212464Y-81100573D01*
X129262836Y-80998622D01*
X129301488Y-80879071D01*
X129326262Y-80735128D01*
X129334445Y-80571116D01*
X129338279Y-80563025D01*
X129346130Y-80560000D01*
X129573870Y-80560000D01*
X129582143Y-80563427D01*
G37*
G04 #@! TD.AperFunction*
G04 #@! TA.AperFunction,Conductor*
G36*
X205031985Y-65668427D02*
G01*
X205035404Y-65676281D01*
X205038250Y-65755674D01*
X205038280Y-65755922D01*
X205038282Y-65755940D01*
X205047574Y-65831336D01*
X205047612Y-65831641D01*
X205047679Y-65831931D01*
X205047680Y-65831936D01*
X205062430Y-65895674D01*
X205062433Y-65895685D01*
X205062505Y-65895995D01*
X205082348Y-65951828D01*
X205106557Y-66002234D01*
X205106679Y-66002444D01*
X205106682Y-66002449D01*
X205134553Y-66050305D01*
X205165753Y-66099134D01*
X205199472Y-66151653D01*
X205199653Y-66151943D01*
X205235289Y-66211188D01*
X205235576Y-66211694D01*
X205268797Y-66273700D01*
X205269684Y-66282610D01*
X205267019Y-66287227D01*
X205106166Y-66458787D01*
X205106166Y-66458789D01*
X204917531Y-66659983D01*
X204558720Y-66296195D01*
X204555351Y-66287899D01*
X204556602Y-66282716D01*
X204585529Y-66225332D01*
X204587688Y-66222348D01*
X204609943Y-66200093D01*
X204696008Y-66071283D01*
X204755287Y-65928158D01*
X204785504Y-65776217D01*
X204785500Y-65698759D01*
X204785500Y-65695138D01*
X204785500Y-65676700D01*
X204788927Y-65668427D01*
X204797200Y-65665000D01*
X205023712Y-65665000D01*
X205031985Y-65668427D01*
G37*
G04 #@! TD.AperFunction*
G04 #@! TA.AperFunction,Conductor*
G36*
X139878927Y-48768385D02*
G01*
X139882515Y-48776589D01*
X139882287Y-48779127D01*
X139682929Y-49769445D01*
X139677937Y-49776879D01*
X139673195Y-49778706D01*
X139463564Y-49810161D01*
X139284169Y-49865085D01*
X139133021Y-49936620D01*
X139133011Y-49936625D01*
X139132716Y-49936765D01*
X139132437Y-49936937D01*
X139132431Y-49936941D01*
X138998928Y-50019623D01*
X138998900Y-50019640D01*
X138998799Y-50019704D01*
X138998694Y-50019777D01*
X138998678Y-50019788D01*
X138872011Y-50108406D01*
X138742298Y-50197135D01*
X138741582Y-50197588D01*
X138598786Y-50280777D01*
X138597564Y-50281396D01*
X138431084Y-50353826D01*
X138429578Y-50354362D01*
X138228754Y-50410742D01*
X138227236Y-50411061D01*
X137993052Y-50444301D01*
X137984380Y-50442071D01*
X137979824Y-50434361D01*
X137979747Y-50433673D01*
X137967257Y-50281396D01*
X137961206Y-50207625D01*
X137963945Y-50199101D01*
X137970958Y-50195126D01*
X138186582Y-50159515D01*
X138361588Y-50091159D01*
X138493633Y-49994774D01*
X138591008Y-49873319D01*
X138662006Y-49729754D01*
X138714918Y-49567039D01*
X138758035Y-49388134D01*
X138758070Y-49387977D01*
X138799627Y-49196101D01*
X138799683Y-49195857D01*
X138847973Y-48993926D01*
X138848154Y-48993257D01*
X138909074Y-48792007D01*
X138914750Y-48785084D01*
X138920038Y-48783701D01*
X139870590Y-48765120D01*
X139878927Y-48768385D01*
G37*
G04 #@! TD.AperFunction*
G04 #@! TA.AperFunction,Conductor*
G36*
X243031985Y-72668427D02*
G01*
X243035404Y-72676281D01*
X243038240Y-72755401D01*
X243038250Y-72755674D01*
X243038280Y-72755922D01*
X243038282Y-72755940D01*
X243047574Y-72831336D01*
X243047612Y-72831641D01*
X243047679Y-72831931D01*
X243047680Y-72831936D01*
X243062430Y-72895674D01*
X243062433Y-72895685D01*
X243062505Y-72895995D01*
X243082348Y-72951828D01*
X243106557Y-73002234D01*
X243106679Y-73002444D01*
X243106682Y-73002449D01*
X243134553Y-73050305D01*
X243165753Y-73099134D01*
X243199472Y-73151653D01*
X243199653Y-73151943D01*
X243235289Y-73211188D01*
X243235576Y-73211694D01*
X243268797Y-73273700D01*
X243269684Y-73282610D01*
X243267019Y-73287227D01*
X243106166Y-73458787D01*
X243106166Y-73458789D01*
X242917531Y-73659983D01*
X242558720Y-73296195D01*
X242555351Y-73287899D01*
X242556602Y-73282716D01*
X242588601Y-73219239D01*
X242588851Y-73218773D01*
X242623320Y-73158292D01*
X242623498Y-73157990D01*
X242627202Y-73151943D01*
X242656314Y-73104407D01*
X242686801Y-73054714D01*
X242714269Y-73005900D01*
X242738108Y-72954824D01*
X242757710Y-72898339D01*
X242772465Y-72833303D01*
X242781764Y-72756571D01*
X242784601Y-72676286D01*
X242788318Y-72668140D01*
X242796294Y-72665000D01*
X243023712Y-72665000D01*
X243031985Y-72668427D01*
G37*
G04 #@! TD.AperFunction*
G04 #@! TA.AperFunction,Conductor*
G36*
X186021979Y-81658427D02*
G01*
X186025398Y-81666286D01*
X186028222Y-81746159D01*
X186028250Y-81746396D01*
X186028252Y-81746410D01*
X186037501Y-81822292D01*
X186037503Y-81822304D01*
X186037538Y-81822590D01*
X186037601Y-81822868D01*
X186037604Y-81822880D01*
X186052346Y-81887030D01*
X186052423Y-81887365D01*
X186052535Y-81887681D01*
X186052538Y-81887691D01*
X186054940Y-81894464D01*
X186072348Y-81943556D01*
X186096789Y-81994233D01*
X186125219Y-82042470D01*
X186125298Y-82042591D01*
X186157111Y-82091337D01*
X186191872Y-82143806D01*
X186192028Y-82144049D01*
X186229027Y-82203009D01*
X186229302Y-82203469D01*
X186264173Y-82265142D01*
X186265262Y-82274031D01*
X186262716Y-82278693D01*
X186103966Y-82456500D01*
X186103966Y-82456501D01*
X185922402Y-82659862D01*
X185719182Y-82463623D01*
X185719183Y-82463623D01*
X185719183Y-82463622D01*
X185554831Y-82304918D01*
X185551260Y-82296706D01*
X185552380Y-82291502D01*
X185583534Y-82225603D01*
X185583759Y-82225155D01*
X185617330Y-82162411D01*
X185617421Y-82162247D01*
X185649400Y-82106712D01*
X185679108Y-82055311D01*
X185679210Y-82055125D01*
X185701991Y-82012252D01*
X185705898Y-82004902D01*
X185729168Y-81952265D01*
X185748316Y-81894178D01*
X185762738Y-81827419D01*
X185771834Y-81748767D01*
X185774618Y-81666304D01*
X185778322Y-81658152D01*
X185786311Y-81655000D01*
X186013706Y-81655000D01*
X186021979Y-81658427D01*
G37*
G04 #@! TD.AperFunction*
G04 #@! TA.AperFunction,Conductor*
G36*
X148021979Y-86958427D02*
G01*
X148025398Y-86966286D01*
X148028222Y-87046159D01*
X148028250Y-87046396D01*
X148028252Y-87046410D01*
X148037501Y-87122292D01*
X148037503Y-87122304D01*
X148037538Y-87122590D01*
X148037601Y-87122868D01*
X148037604Y-87122880D01*
X148052346Y-87187030D01*
X148052423Y-87187365D01*
X148052535Y-87187681D01*
X148052538Y-87187691D01*
X148069726Y-87236163D01*
X148072348Y-87243556D01*
X148096789Y-87294233D01*
X148125219Y-87342470D01*
X148125298Y-87342591D01*
X148157111Y-87391337D01*
X148191872Y-87443806D01*
X148192028Y-87444049D01*
X148229027Y-87503009D01*
X148229298Y-87503463D01*
X148238160Y-87519135D01*
X148264173Y-87565142D01*
X148265262Y-87574031D01*
X148262716Y-87578693D01*
X148100842Y-87759999D01*
X148100842Y-87760000D01*
X147922402Y-87959862D01*
X147715429Y-87759999D01*
X147715430Y-87759999D01*
X147715429Y-87759998D01*
X147715430Y-87759998D01*
X147554831Y-87604917D01*
X147551260Y-87596705D01*
X147552379Y-87591503D01*
X147581876Y-87529108D01*
X147584173Y-87525848D01*
X147586616Y-87523406D01*
X147586617Y-87523403D01*
X147587918Y-87522103D01*
X147587981Y-87522014D01*
X147603729Y-87506268D01*
X147687921Y-87380271D01*
X147745918Y-87240273D01*
X147775493Y-87091650D01*
X147775496Y-87045568D01*
X147775500Y-87045546D01*
X147775500Y-87015813D01*
X147775505Y-86966699D01*
X147778933Y-86958426D01*
X147787205Y-86955000D01*
X148013706Y-86955000D01*
X148021979Y-86958427D01*
G37*
G04 #@! TD.AperFunction*
G04 #@! TA.AperFunction,Conductor*
G36*
X242925533Y-54268564D02*
G01*
X242925829Y-54268867D01*
X243267021Y-54632772D01*
X243270179Y-54641150D01*
X243268798Y-54646299D01*
X243235576Y-54708304D01*
X243235289Y-54708809D01*
X243199653Y-54768055D01*
X243199483Y-54768327D01*
X243165753Y-54820865D01*
X243146853Y-54850443D01*
X243134622Y-54869585D01*
X243134609Y-54869605D01*
X243134553Y-54869694D01*
X243134486Y-54869807D01*
X243134435Y-54869893D01*
X243106682Y-54917549D01*
X243106673Y-54917564D01*
X243106557Y-54917765D01*
X243106455Y-54917976D01*
X243106452Y-54917983D01*
X243083787Y-54965175D01*
X243082348Y-54968171D01*
X243082246Y-54968457D01*
X243082241Y-54968470D01*
X243062617Y-55023688D01*
X243062505Y-55024004D01*
X243062434Y-55024308D01*
X243062430Y-55024324D01*
X243047680Y-55088062D01*
X243047678Y-55088071D01*
X243047612Y-55088358D01*
X243047575Y-55088651D01*
X243047574Y-55088662D01*
X243038282Y-55164058D01*
X243038280Y-55164077D01*
X243038250Y-55164325D01*
X243038240Y-55164591D01*
X243038240Y-55164597D01*
X243035404Y-55243719D01*
X243031683Y-55251864D01*
X243023712Y-55255000D01*
X242796294Y-55255000D01*
X242788021Y-55251573D01*
X242784601Y-55243713D01*
X242781805Y-55164597D01*
X242781764Y-55163428D01*
X242772465Y-55086696D01*
X242757710Y-55021660D01*
X242738108Y-54965175D01*
X242714269Y-54914099D01*
X242686801Y-54865285D01*
X242686749Y-54865201D01*
X242686695Y-54865108D01*
X242656314Y-54815592D01*
X242623498Y-54762007D01*
X242623311Y-54761690D01*
X242588869Y-54701256D01*
X242588586Y-54700730D01*
X242556603Y-54637286D01*
X242555939Y-54628356D01*
X242558719Y-54623806D01*
X242908989Y-54268676D01*
X242917236Y-54265194D01*
X242925533Y-54268564D01*
G37*
G04 #@! TD.AperFunction*
G04 #@! TA.AperFunction,Conductor*
G36*
X147021955Y-112773427D02*
G01*
X147025375Y-112781310D01*
X147028143Y-112864673D01*
X147028167Y-112864888D01*
X147028169Y-112864910D01*
X147037122Y-112943828D01*
X147037123Y-112943839D01*
X147037154Y-112944105D01*
X147051404Y-113011564D01*
X147051491Y-113011836D01*
X147051494Y-113011846D01*
X147070177Y-113070051D01*
X147070181Y-113070063D01*
X147070264Y-113070320D01*
X147070371Y-113070570D01*
X147070373Y-113070575D01*
X147085404Y-113105662D01*
X147093107Y-113123641D01*
X147093194Y-113123812D01*
X147093196Y-113123815D01*
X147119303Y-113174797D01*
X147119390Y-113174958D01*
X147148225Y-113227058D01*
X147179151Y-113283522D01*
X147179331Y-113283864D01*
X147211601Y-113347711D01*
X147211855Y-113348248D01*
X147241656Y-113415481D01*
X147241876Y-113424433D01*
X147238878Y-113428836D01*
X146871635Y-113766386D01*
X146863225Y-113769462D01*
X146855103Y-113765690D01*
X146854816Y-113765365D01*
X146568936Y-113428836D01*
X146531852Y-113385182D01*
X146529108Y-113376658D01*
X146530726Y-113371604D01*
X146566766Y-113311312D01*
X146566997Y-113310944D01*
X146605144Y-113253108D01*
X146605247Y-113252954D01*
X146640896Y-113201461D01*
X146673462Y-113153419D01*
X146702395Y-113105878D01*
X146727193Y-113055819D01*
X146747355Y-113000222D01*
X146762378Y-112936066D01*
X146771761Y-112860332D01*
X146772802Y-112831293D01*
X146774596Y-112781281D01*
X146778317Y-112773136D01*
X146786288Y-112770000D01*
X147013682Y-112770000D01*
X147021955Y-112773427D01*
G37*
G04 #@! TD.AperFunction*
G04 #@! TA.AperFunction,Conductor*
G36*
X148095072Y-78828110D02*
G01*
X148095071Y-78828111D01*
X148253350Y-78991493D01*
X148256646Y-78999820D01*
X148255345Y-79004998D01*
X148223076Y-79067555D01*
X148222786Y-79068083D01*
X148188000Y-79127765D01*
X148187809Y-79128081D01*
X148154711Y-79180956D01*
X148123960Y-79230034D01*
X148123848Y-79230225D01*
X148096369Y-79278092D01*
X148096359Y-79278109D01*
X148096266Y-79278273D01*
X148096182Y-79278448D01*
X148096176Y-79278461D01*
X148072370Y-79328510D01*
X148072362Y-79328528D01*
X148072238Y-79328790D01*
X148072139Y-79329067D01*
X148072134Y-79329082D01*
X148052597Y-79384382D01*
X148052594Y-79384392D01*
X148052486Y-79384698D01*
X148037623Y-79449116D01*
X148028257Y-79525158D01*
X148028248Y-79525419D01*
X148028247Y-79525432D01*
X148025405Y-79604659D01*
X148021684Y-79612804D01*
X148013713Y-79615940D01*
X147787200Y-79615940D01*
X147778927Y-79612513D01*
X147775500Y-79604240D01*
X147775500Y-79567153D01*
X147775491Y-79567061D01*
X147775493Y-79533970D01*
X147763176Y-79456187D01*
X147763123Y-79455807D01*
X147762394Y-79449917D01*
X147762355Y-79449600D01*
X147761738Y-79446945D01*
X147761597Y-79446220D01*
X147755862Y-79409998D01*
X147717078Y-79290624D01*
X147660097Y-79178787D01*
X147586321Y-79077241D01*
X147579362Y-79070282D01*
X147579354Y-79070272D01*
X147573560Y-79064478D01*
X147571474Y-79061644D01*
X147543110Y-79007618D01*
X147542298Y-78998700D01*
X147545003Y-78994103D01*
X147897825Y-78624502D01*
X148095072Y-78828110D01*
G37*
G04 #@! TD.AperFunction*
G04 #@! TA.AperFunction,Conductor*
G36*
X186095815Y-74401014D02*
G01*
X186095816Y-74401014D01*
X186254173Y-74565686D01*
X186257438Y-74574025D01*
X186256118Y-74579199D01*
X186223735Y-74641395D01*
X186223442Y-74641924D01*
X186188512Y-74701311D01*
X186188319Y-74701626D01*
X186155116Y-74754202D01*
X186124310Y-74802951D01*
X186124292Y-74802980D01*
X186124261Y-74803030D01*
X186124220Y-74803100D01*
X186124149Y-74803219D01*
X186096594Y-74850832D01*
X186096587Y-74850845D01*
X186096476Y-74851037D01*
X186096384Y-74851228D01*
X186096376Y-74851244D01*
X186072505Y-74901049D01*
X186072496Y-74901068D01*
X186072374Y-74901325D01*
X186072275Y-74901601D01*
X186072270Y-74901615D01*
X186052675Y-74956688D01*
X186052564Y-74957000D01*
X186052493Y-74957304D01*
X186052489Y-74957319D01*
X186037728Y-75020865D01*
X186037658Y-75021167D01*
X186037620Y-75021472D01*
X186037619Y-75021479D01*
X186028297Y-75096671D01*
X186028295Y-75096690D01*
X186028266Y-75096928D01*
X186028257Y-75097175D01*
X186028256Y-75097189D01*
X186025407Y-75176112D01*
X186021684Y-75184256D01*
X186013715Y-75187390D01*
X185786285Y-75187390D01*
X185778012Y-75183963D01*
X185774593Y-75176112D01*
X185771742Y-75097189D01*
X185771733Y-75096928D01*
X185762341Y-75021167D01*
X185747435Y-74957000D01*
X185727625Y-74901325D01*
X185703523Y-74851037D01*
X185675738Y-74803030D01*
X185644883Y-74754202D01*
X185611648Y-74701576D01*
X185611486Y-74701311D01*
X185576556Y-74641924D01*
X185576263Y-74641395D01*
X185543881Y-74579199D01*
X185543100Y-74570278D01*
X185545826Y-74565686D01*
X185564977Y-74545770D01*
X185900000Y-74197390D01*
X186095815Y-74401014D01*
G37*
G04 #@! TD.AperFunction*
G04 #@! TA.AperFunction,Conductor*
G36*
X204063670Y-54172164D02*
G01*
X204575880Y-54311876D01*
X204582959Y-54317359D01*
X204584500Y-54323163D01*
X204584500Y-54997300D01*
X204581073Y-55005573D01*
X204572800Y-55009000D01*
X204346031Y-55009000D01*
X204337758Y-55005573D01*
X204334351Y-54997989D01*
X204333576Y-54984856D01*
X204331455Y-54948883D01*
X204321090Y-54898376D01*
X204304308Y-54856204D01*
X204281513Y-54821096D01*
X204253107Y-54791777D01*
X204219787Y-54767194D01*
X204219785Y-54767192D01*
X204219494Y-54766978D01*
X204219186Y-54766805D01*
X204219178Y-54766800D01*
X204181278Y-54745535D01*
X204181273Y-54745532D01*
X204181078Y-54745423D01*
X204180864Y-54745325D01*
X204138389Y-54725899D01*
X204138369Y-54725890D01*
X204138261Y-54725841D01*
X204091446Y-54706958D01*
X204073380Y-54699985D01*
X204048651Y-54690440D01*
X204042167Y-54684264D01*
X204041165Y-54679343D01*
X204042603Y-54587148D01*
X204048899Y-54183270D01*
X204052455Y-54175052D01*
X204060780Y-54171754D01*
X204063670Y-54172164D01*
G37*
G04 #@! TD.AperFunction*
G04 #@! TA.AperFunction,Conductor*
G36*
X167036959Y-76595817D02*
G01*
X167040379Y-76603698D01*
X167043146Y-76686195D01*
X167043147Y-76686213D01*
X167043155Y-76686441D01*
X167043180Y-76686658D01*
X167043181Y-76686672D01*
X167051586Y-76759811D01*
X167052222Y-76765342D01*
X167052280Y-76765616D01*
X167052281Y-76765617D01*
X167064944Y-76824616D01*
X167066599Y-76832324D01*
X167085684Y-76890619D01*
X167108876Y-76943458D01*
X167108980Y-76943655D01*
X167135573Y-76994073D01*
X167135676Y-76994257D01*
X167165175Y-77045694D01*
X167197000Y-77101412D01*
X167197175Y-77101731D01*
X167230545Y-77164615D01*
X167230804Y-77165132D01*
X167261833Y-77231317D01*
X167262242Y-77240263D01*
X167259340Y-77244725D01*
X167094808Y-77402627D01*
X167094808Y-77402628D01*
X166890676Y-77598534D01*
X166571592Y-77238915D01*
X166551538Y-77216313D01*
X166548611Y-77207850D01*
X166550121Y-77202763D01*
X166585213Y-77141114D01*
X166585454Y-77140712D01*
X166622694Y-77081681D01*
X166622783Y-77081544D01*
X166657702Y-77029044D01*
X166689685Y-76980169D01*
X166718173Y-76931907D01*
X166742645Y-76881190D01*
X166762584Y-76824949D01*
X166777468Y-76760114D01*
X166786780Y-76683618D01*
X166789601Y-76603677D01*
X166793319Y-76595530D01*
X166801295Y-76592390D01*
X167028686Y-76592390D01*
X167036959Y-76595817D01*
G37*
G04 #@! TD.AperFunction*
G04 #@! TA.AperFunction,Conductor*
G36*
X185920684Y-44268359D02*
G01*
X185921012Y-44268678D01*
X186271278Y-44623804D01*
X186274648Y-44632101D01*
X186273396Y-44637287D01*
X186241421Y-44700714D01*
X186241138Y-44701240D01*
X186206687Y-44761690D01*
X186206500Y-44762007D01*
X186173685Y-44815591D01*
X186143198Y-44865285D01*
X186115841Y-44913900D01*
X186115831Y-44913918D01*
X186115730Y-44914099D01*
X186091891Y-44965175D01*
X186091793Y-44965454D01*
X186091793Y-44965457D01*
X186072395Y-45021353D01*
X186072392Y-45021361D01*
X186072289Y-45021660D01*
X186072221Y-45021956D01*
X186072217Y-45021973D01*
X186057601Y-45086397D01*
X186057598Y-45086412D01*
X186057534Y-45086696D01*
X186057497Y-45086996D01*
X186057497Y-45087000D01*
X186057333Y-45088358D01*
X186048235Y-45163428D01*
X186048227Y-45163652D01*
X186048226Y-45163666D01*
X186045399Y-45243713D01*
X186041682Y-45251860D01*
X186033706Y-45255000D01*
X185806288Y-45255000D01*
X185798015Y-45251573D01*
X185794596Y-45243719D01*
X185793517Y-45213637D01*
X185791749Y-45164325D01*
X185782387Y-45088358D01*
X185767494Y-45024004D01*
X185747651Y-44968171D01*
X185723442Y-44917765D01*
X185695446Y-44869694D01*
X185664246Y-44820865D01*
X185630513Y-44768324D01*
X185630345Y-44768055D01*
X185626707Y-44762007D01*
X185594704Y-44708801D01*
X185594417Y-44708295D01*
X185590637Y-44701240D01*
X185561200Y-44646298D01*
X185560314Y-44637389D01*
X185562977Y-44632773D01*
X185904148Y-44268891D01*
X185912305Y-44265200D01*
X185920684Y-44268359D01*
G37*
G04 #@! TD.AperFunction*
G04 #@! TA.AperFunction,Conductor*
G36*
X167103690Y-85456215D02*
G01*
X167103691Y-85456215D01*
X167103691Y-85456216D01*
X167269173Y-85628296D01*
X167272438Y-85636635D01*
X167271118Y-85641809D01*
X167238735Y-85704005D01*
X167238442Y-85704534D01*
X167203512Y-85763921D01*
X167203319Y-85764236D01*
X167170116Y-85816812D01*
X167139310Y-85865561D01*
X167139292Y-85865590D01*
X167139261Y-85865640D01*
X167139220Y-85865710D01*
X167139149Y-85865829D01*
X167111594Y-85913442D01*
X167111587Y-85913455D01*
X167111476Y-85913647D01*
X167111384Y-85913838D01*
X167111376Y-85913854D01*
X167087505Y-85963659D01*
X167087496Y-85963678D01*
X167087374Y-85963935D01*
X167087275Y-85964211D01*
X167087270Y-85964225D01*
X167067675Y-86019298D01*
X167067564Y-86019610D01*
X167067493Y-86019914D01*
X167067489Y-86019929D01*
X167052728Y-86083475D01*
X167052658Y-86083777D01*
X167052620Y-86084082D01*
X167052619Y-86084089D01*
X167043297Y-86159281D01*
X167043295Y-86159300D01*
X167043266Y-86159538D01*
X167043257Y-86159785D01*
X167043256Y-86159799D01*
X167040407Y-86238722D01*
X167036684Y-86246866D01*
X167028715Y-86250000D01*
X166801285Y-86250000D01*
X166793012Y-86246573D01*
X166789593Y-86238722D01*
X166786742Y-86159799D01*
X166786733Y-86159538D01*
X166777341Y-86083777D01*
X166762435Y-86019610D01*
X166742625Y-85963935D01*
X166718523Y-85913647D01*
X166690738Y-85865640D01*
X166659883Y-85816812D01*
X166626648Y-85764186D01*
X166626486Y-85763921D01*
X166591556Y-85704534D01*
X166591263Y-85704005D01*
X166558881Y-85641809D01*
X166558100Y-85632888D01*
X166560826Y-85628296D01*
X166589369Y-85598614D01*
X166915000Y-85260000D01*
X167103690Y-85456215D01*
G37*
G04 #@! TD.AperFunction*
G04 #@! TA.AperFunction,Conductor*
G36*
X243021979Y-91658427D02*
G01*
X243025398Y-91666286D01*
X243028222Y-91746159D01*
X243028250Y-91746396D01*
X243028252Y-91746410D01*
X243037501Y-91822292D01*
X243037503Y-91822304D01*
X243037538Y-91822590D01*
X243037601Y-91822868D01*
X243037604Y-91822880D01*
X243052346Y-91887030D01*
X243052423Y-91887365D01*
X243052535Y-91887681D01*
X243052538Y-91887691D01*
X243054940Y-91894464D01*
X243072348Y-91943556D01*
X243096789Y-91994233D01*
X243125219Y-92042470D01*
X243125298Y-92042591D01*
X243157111Y-92091337D01*
X243191872Y-92143806D01*
X243192028Y-92144049D01*
X243229027Y-92203009D01*
X243229302Y-92203469D01*
X243264173Y-92265142D01*
X243265262Y-92274031D01*
X243262716Y-92278693D01*
X242930504Y-92650786D01*
X242922437Y-92654675D01*
X242913984Y-92651722D01*
X242913649Y-92651410D01*
X242554831Y-92304918D01*
X242551260Y-92296706D01*
X242552380Y-92291502D01*
X242583534Y-92225603D01*
X242583759Y-92225155D01*
X242617330Y-92162411D01*
X242617421Y-92162247D01*
X242649400Y-92106712D01*
X242679108Y-92055311D01*
X242679210Y-92055125D01*
X242701991Y-92012252D01*
X242705898Y-92004902D01*
X242729168Y-91952265D01*
X242748316Y-91894178D01*
X242762738Y-91827419D01*
X242771834Y-91748767D01*
X242774618Y-91666304D01*
X242778322Y-91658152D01*
X242786311Y-91655000D01*
X243013706Y-91655000D01*
X243021979Y-91658427D01*
G37*
G04 #@! TD.AperFunction*
G04 #@! TA.AperFunction,Conductor*
G36*
X148110815Y-68763624D02*
G01*
X148110816Y-68763624D01*
X148269173Y-68928296D01*
X148272438Y-68936635D01*
X148271118Y-68941809D01*
X148238735Y-69004005D01*
X148238442Y-69004534D01*
X148203512Y-69063921D01*
X148203319Y-69064236D01*
X148170116Y-69116812D01*
X148139310Y-69165561D01*
X148139292Y-69165590D01*
X148139261Y-69165640D01*
X148139220Y-69165710D01*
X148139149Y-69165829D01*
X148111594Y-69213442D01*
X148111587Y-69213455D01*
X148111476Y-69213647D01*
X148111384Y-69213838D01*
X148111376Y-69213854D01*
X148087505Y-69263659D01*
X148087496Y-69263678D01*
X148087374Y-69263935D01*
X148087275Y-69264211D01*
X148087270Y-69264225D01*
X148067675Y-69319298D01*
X148067564Y-69319610D01*
X148067493Y-69319914D01*
X148067489Y-69319929D01*
X148052728Y-69383475D01*
X148052658Y-69383777D01*
X148052620Y-69384082D01*
X148052619Y-69384089D01*
X148043297Y-69459281D01*
X148043295Y-69459300D01*
X148043266Y-69459538D01*
X148043257Y-69459785D01*
X148043256Y-69459799D01*
X148040407Y-69538722D01*
X148036684Y-69546866D01*
X148028715Y-69550000D01*
X147801285Y-69550000D01*
X147793012Y-69546573D01*
X147789593Y-69538722D01*
X147786742Y-69459799D01*
X147786733Y-69459538D01*
X147777341Y-69383777D01*
X147762435Y-69319610D01*
X147742625Y-69263935D01*
X147718523Y-69213647D01*
X147690738Y-69165640D01*
X147659883Y-69116812D01*
X147626648Y-69064186D01*
X147626486Y-69063921D01*
X147591556Y-69004534D01*
X147591263Y-69004005D01*
X147558881Y-68941809D01*
X147558100Y-68932888D01*
X147560826Y-68928296D01*
X147577841Y-68910601D01*
X147915000Y-68560000D01*
X148110815Y-68763624D01*
G37*
G04 #@! TD.AperFunction*
G04 #@! TA.AperFunction,Conductor*
G36*
X167094807Y-77402628D02*
G01*
X167252868Y-77566991D01*
X167256133Y-77575330D01*
X167254813Y-77580504D01*
X167222430Y-77642700D01*
X167222137Y-77643229D01*
X167187207Y-77702616D01*
X167187014Y-77702931D01*
X167153811Y-77755507D01*
X167123005Y-77804256D01*
X167122987Y-77804285D01*
X167122956Y-77804335D01*
X167122915Y-77804405D01*
X167122844Y-77804524D01*
X167095289Y-77852137D01*
X167095282Y-77852150D01*
X167095171Y-77852342D01*
X167095079Y-77852533D01*
X167095071Y-77852549D01*
X167071200Y-77902354D01*
X167071191Y-77902373D01*
X167071069Y-77902630D01*
X167070970Y-77902906D01*
X167070965Y-77902920D01*
X167051370Y-77957993D01*
X167051259Y-77958305D01*
X167051188Y-77958609D01*
X167051184Y-77958624D01*
X167036423Y-78022170D01*
X167036353Y-78022472D01*
X167036315Y-78022777D01*
X167036314Y-78022784D01*
X167026992Y-78097976D01*
X167026990Y-78097995D01*
X167026961Y-78098233D01*
X167026952Y-78098480D01*
X167026951Y-78098494D01*
X167024102Y-78177417D01*
X167020379Y-78185561D01*
X167012410Y-78188695D01*
X166784980Y-78188695D01*
X166776707Y-78185268D01*
X166773288Y-78177417D01*
X166770437Y-78098494D01*
X166770428Y-78098233D01*
X166761036Y-78022472D01*
X166746130Y-77958305D01*
X166726320Y-77902630D01*
X166702218Y-77852342D01*
X166674433Y-77804335D01*
X166643578Y-77755507D01*
X166610343Y-77702881D01*
X166610181Y-77702616D01*
X166575251Y-77643229D01*
X166574958Y-77642700D01*
X166542576Y-77580504D01*
X166541795Y-77571583D01*
X166544519Y-77566992D01*
X166898695Y-77198695D01*
X167094807Y-77402628D01*
G37*
G04 #@! TD.AperFunction*
G04 #@! TA.AperFunction,Conductor*
G36*
X127042143Y-80563427D02*
G01*
X127045554Y-80571116D01*
X127053737Y-80735128D01*
X127053797Y-80735481D01*
X127053798Y-80735483D01*
X127078509Y-80879065D01*
X127078511Y-80879071D01*
X127117163Y-80998622D01*
X127167535Y-81100573D01*
X127167724Y-81100861D01*
X127167729Y-81100869D01*
X127227342Y-81191528D01*
X127227351Y-81191540D01*
X127227467Y-81191717D01*
X127227597Y-81191885D01*
X127227604Y-81191895D01*
X127294802Y-81278847D01*
X127294880Y-81278945D01*
X127367282Y-81368634D01*
X127367490Y-81368900D01*
X127442805Y-81467919D01*
X127443253Y-81468549D01*
X127519358Y-81583656D01*
X127519884Y-81584533D01*
X127590923Y-81715563D01*
X127591853Y-81724469D01*
X127589070Y-81729249D01*
X126928432Y-82416230D01*
X126920228Y-82419818D01*
X126911889Y-82416553D01*
X126911566Y-82416230D01*
X126250928Y-81729248D01*
X126247664Y-81720910D01*
X126249075Y-81715566D01*
X126320123Y-81584516D01*
X126320630Y-81583672D01*
X126396760Y-81468527D01*
X126397177Y-81467941D01*
X126472525Y-81368877D01*
X126472716Y-81368634D01*
X126545197Y-81278847D01*
X126545273Y-81278750D01*
X126612394Y-81191895D01*
X126612532Y-81191717D01*
X126672464Y-81100573D01*
X126722836Y-80998622D01*
X126761488Y-80879071D01*
X126786262Y-80735128D01*
X126794445Y-80571116D01*
X126798279Y-80563025D01*
X126806130Y-80560000D01*
X127033870Y-80560000D01*
X127042143Y-80563427D01*
G37*
G04 #@! TD.AperFunction*
G04 #@! TA.AperFunction,Conductor*
G36*
X224031985Y-72668427D02*
G01*
X224035404Y-72676281D01*
X224038240Y-72755401D01*
X224038250Y-72755674D01*
X224038280Y-72755922D01*
X224038282Y-72755940D01*
X224047574Y-72831336D01*
X224047612Y-72831641D01*
X224047679Y-72831931D01*
X224047680Y-72831936D01*
X224062430Y-72895674D01*
X224062433Y-72895685D01*
X224062505Y-72895995D01*
X224082348Y-72951828D01*
X224106557Y-73002234D01*
X224106679Y-73002444D01*
X224106682Y-73002449D01*
X224134553Y-73050305D01*
X224165753Y-73099134D01*
X224199472Y-73151653D01*
X224199653Y-73151943D01*
X224235289Y-73211188D01*
X224235576Y-73211694D01*
X224268797Y-73273700D01*
X224269684Y-73282610D01*
X224267019Y-73287227D01*
X224106166Y-73458787D01*
X224106166Y-73458789D01*
X223917531Y-73659983D01*
X223558720Y-73296195D01*
X223555351Y-73287899D01*
X223556602Y-73282716D01*
X223588601Y-73219239D01*
X223588851Y-73218773D01*
X223623320Y-73158292D01*
X223623498Y-73157990D01*
X223627202Y-73151943D01*
X223656314Y-73104407D01*
X223686801Y-73054714D01*
X223714269Y-73005900D01*
X223738108Y-72954824D01*
X223757710Y-72898339D01*
X223772465Y-72833303D01*
X223781764Y-72756571D01*
X223784601Y-72676286D01*
X223788318Y-72668140D01*
X223796294Y-72665000D01*
X224023712Y-72665000D01*
X224031985Y-72668427D01*
G37*
G04 #@! TD.AperFunction*
G04 #@! TA.AperFunction,Conductor*
G36*
X132122143Y-80563427D02*
G01*
X132125554Y-80571116D01*
X132133737Y-80735128D01*
X132133797Y-80735481D01*
X132133798Y-80735483D01*
X132158509Y-80879065D01*
X132158511Y-80879071D01*
X132197163Y-80998622D01*
X132247535Y-81100573D01*
X132247724Y-81100861D01*
X132247729Y-81100869D01*
X132307342Y-81191528D01*
X132307351Y-81191540D01*
X132307467Y-81191717D01*
X132307597Y-81191885D01*
X132307604Y-81191895D01*
X132374802Y-81278847D01*
X132374880Y-81278945D01*
X132447282Y-81368634D01*
X132447490Y-81368900D01*
X132522805Y-81467919D01*
X132523253Y-81468549D01*
X132599358Y-81583656D01*
X132599884Y-81584533D01*
X132670923Y-81715563D01*
X132671853Y-81724469D01*
X132669070Y-81729249D01*
X132008433Y-82416230D01*
X132000229Y-82419818D01*
X131991890Y-82416553D01*
X131991567Y-82416230D01*
X131623258Y-82033235D01*
X131330928Y-81729248D01*
X131327664Y-81720910D01*
X131329075Y-81715566D01*
X131400123Y-81584516D01*
X131400630Y-81583672D01*
X131476760Y-81468527D01*
X131477177Y-81467941D01*
X131552525Y-81368877D01*
X131552716Y-81368634D01*
X131625197Y-81278847D01*
X131625273Y-81278750D01*
X131692394Y-81191895D01*
X131692532Y-81191717D01*
X131752464Y-81100573D01*
X131802836Y-80998622D01*
X131841488Y-80879071D01*
X131866262Y-80735128D01*
X131874445Y-80571116D01*
X131878279Y-80563025D01*
X131886130Y-80560000D01*
X132113870Y-80560000D01*
X132122143Y-80563427D01*
G37*
G04 #@! TD.AperFunction*
G04 #@! TA.AperFunction,Conductor*
G36*
X147083670Y-55857664D02*
G01*
X147595880Y-55997376D01*
X147602959Y-56002859D01*
X147604500Y-56008663D01*
X147604500Y-56682800D01*
X147601073Y-56691073D01*
X147592800Y-56694500D01*
X147366031Y-56694500D01*
X147357758Y-56691073D01*
X147354351Y-56683489D01*
X147353576Y-56670356D01*
X147351455Y-56634383D01*
X147341090Y-56583876D01*
X147324308Y-56541704D01*
X147301513Y-56506596D01*
X147273107Y-56477277D01*
X147239787Y-56452694D01*
X147239785Y-56452692D01*
X147239494Y-56452478D01*
X147239186Y-56452305D01*
X147239178Y-56452300D01*
X147201278Y-56431035D01*
X147201273Y-56431032D01*
X147201078Y-56430923D01*
X147200864Y-56430825D01*
X147158389Y-56411399D01*
X147158369Y-56411390D01*
X147158261Y-56411341D01*
X147111446Y-56392458D01*
X147093380Y-56385485D01*
X147068651Y-56375940D01*
X147062167Y-56369764D01*
X147061165Y-56364843D01*
X147062603Y-56272648D01*
X147068899Y-55868770D01*
X147072455Y-55860552D01*
X147080780Y-55857254D01*
X147083670Y-55857664D01*
G37*
G04 #@! TD.AperFunction*
G04 #@! TA.AperFunction,Conductor*
G36*
X132801859Y-52708446D02*
G01*
X132802182Y-52708769D01*
X133147923Y-53068296D01*
X133151188Y-53076635D01*
X133149868Y-53081809D01*
X133117485Y-53144005D01*
X133117192Y-53144534D01*
X133082262Y-53203921D01*
X133082069Y-53204236D01*
X133048866Y-53256812D01*
X133018060Y-53305561D01*
X133018042Y-53305590D01*
X133018011Y-53305640D01*
X133017970Y-53305710D01*
X133017899Y-53305829D01*
X132990344Y-53353442D01*
X132990337Y-53353455D01*
X132990226Y-53353647D01*
X132990134Y-53353838D01*
X132990126Y-53353854D01*
X132966255Y-53403659D01*
X132966246Y-53403678D01*
X132966124Y-53403935D01*
X132966025Y-53404211D01*
X132966020Y-53404225D01*
X132946425Y-53459298D01*
X132946314Y-53459610D01*
X132946243Y-53459914D01*
X132946239Y-53459929D01*
X132931478Y-53523475D01*
X132931408Y-53523777D01*
X132931370Y-53524082D01*
X132931369Y-53524089D01*
X132922047Y-53599281D01*
X132922045Y-53599300D01*
X132922016Y-53599538D01*
X132922007Y-53599785D01*
X132922006Y-53599799D01*
X132919157Y-53678722D01*
X132915434Y-53686866D01*
X132907465Y-53690000D01*
X132680035Y-53690000D01*
X132671762Y-53686573D01*
X132668343Y-53678722D01*
X132665492Y-53599799D01*
X132665483Y-53599538D01*
X132656091Y-53523777D01*
X132641185Y-53459610D01*
X132621375Y-53403935D01*
X132597273Y-53353647D01*
X132569488Y-53305640D01*
X132538633Y-53256812D01*
X132505398Y-53204186D01*
X132505236Y-53203921D01*
X132470306Y-53144534D01*
X132470013Y-53144005D01*
X132437631Y-53081809D01*
X132436850Y-53072888D01*
X132439574Y-53068297D01*
X132785318Y-52708768D01*
X132793520Y-52705181D01*
X132801859Y-52708446D01*
G37*
G04 #@! TD.AperFunction*
G04 #@! TA.AperFunction,Conductor*
G36*
X148036959Y-78021487D02*
G01*
X148040379Y-78029368D01*
X148043145Y-78111892D01*
X148043146Y-78111908D01*
X148043154Y-78112140D01*
X148043181Y-78112375D01*
X148052186Y-78190793D01*
X148052187Y-78190803D01*
X148052218Y-78191067D01*
X148052275Y-78191335D01*
X148052276Y-78191338D01*
X148058292Y-78219387D01*
X148066590Y-78258072D01*
X148085668Y-78316389D01*
X148108852Y-78369249D01*
X148108950Y-78369435D01*
X148108951Y-78369437D01*
X148135540Y-78419885D01*
X148135653Y-78420088D01*
X148165131Y-78471529D01*
X148196933Y-78527256D01*
X148197108Y-78527574D01*
X148230486Y-78590523D01*
X148230744Y-78591041D01*
X148261752Y-78657237D01*
X148262158Y-78666183D01*
X148259256Y-78670644D01*
X148095071Y-78828110D01*
X148095071Y-78828111D01*
X147890477Y-79024336D01*
X147572898Y-78666183D01*
X147551461Y-78642007D01*
X147548536Y-78633544D01*
X147550048Y-78628456D01*
X147576284Y-78582398D01*
X147578166Y-78579930D01*
X147595255Y-78562841D01*
X147671401Y-78458032D01*
X147730213Y-78342601D01*
X147739871Y-78312872D01*
X147740447Y-78311439D01*
X147742645Y-78306885D01*
X147762584Y-78250639D01*
X147768483Y-78224939D01*
X147768741Y-78224009D01*
X147770242Y-78219390D01*
X147771259Y-78212962D01*
X147771403Y-78212218D01*
X147777469Y-78185798D01*
X147783786Y-78133894D01*
X147783832Y-78133563D01*
X147790503Y-78091434D01*
X147790500Y-78029760D01*
X147793926Y-78021487D01*
X147802199Y-78018060D01*
X148028686Y-78018060D01*
X148036959Y-78021487D01*
G37*
G04 #@! TD.AperFunction*
G04 #@! TA.AperFunction,Conductor*
G36*
X186036962Y-73595817D02*
G01*
X186040381Y-73603693D01*
X186043165Y-73686157D01*
X186043188Y-73686361D01*
X186043190Y-73686380D01*
X186051736Y-73760270D01*
X186052261Y-73764809D01*
X186052319Y-73765079D01*
X186052320Y-73765083D01*
X186066618Y-73831271D01*
X186066622Y-73831285D01*
X186066683Y-73831568D01*
X186066775Y-73831849D01*
X186066777Y-73831854D01*
X186085744Y-73889393D01*
X186085748Y-73889404D01*
X186085831Y-73889655D01*
X186109101Y-73942292D01*
X186109188Y-73942455D01*
X186109193Y-73942466D01*
X186135891Y-73992701D01*
X186135991Y-73992879D01*
X186165599Y-74044101D01*
X186165599Y-74044102D01*
X186187016Y-74081297D01*
X186197526Y-74099548D01*
X186197703Y-74099866D01*
X186231224Y-74162517D01*
X186231473Y-74163011D01*
X186252568Y-74207630D01*
X186262619Y-74228890D01*
X186263056Y-74237834D01*
X186260168Y-74242307D01*
X186095816Y-74401013D01*
X186095816Y-74401014D01*
X185892598Y-74597252D01*
X185552283Y-74216083D01*
X185549330Y-74207630D01*
X185550826Y-74202533D01*
X185573451Y-74162517D01*
X185585707Y-74140840D01*
X185585947Y-74140438D01*
X185623009Y-74081377D01*
X185623097Y-74081240D01*
X185657888Y-74028727D01*
X185689780Y-73979860D01*
X185718210Y-73931623D01*
X185742651Y-73880946D01*
X185762576Y-73824755D01*
X185777461Y-73759980D01*
X185786777Y-73683549D01*
X185789600Y-73603677D01*
X185793318Y-73595530D01*
X185801294Y-73592390D01*
X186028689Y-73592390D01*
X186036962Y-73595817D01*
G37*
G04 #@! TD.AperFunction*
G04 #@! TA.AperFunction,Conductor*
G36*
X224036988Y-91673427D02*
G01*
X224040407Y-91681278D01*
X224043256Y-91760199D01*
X224043256Y-91760211D01*
X224043266Y-91760461D01*
X224043295Y-91760700D01*
X224043297Y-91760717D01*
X224052619Y-91835909D01*
X224052658Y-91836222D01*
X224052728Y-91836523D01*
X224067489Y-91900069D01*
X224067492Y-91900079D01*
X224067564Y-91900389D01*
X224087374Y-91956064D01*
X224087499Y-91956326D01*
X224087505Y-91956339D01*
X224111376Y-92006144D01*
X224111476Y-92006352D01*
X224139261Y-92054359D01*
X224170116Y-92103187D01*
X224203338Y-92155793D01*
X224203512Y-92156077D01*
X224238442Y-92215464D01*
X224238735Y-92215993D01*
X224271118Y-92278190D01*
X224271899Y-92287111D01*
X224269173Y-92291703D01*
X223923432Y-92651230D01*
X223915228Y-92654818D01*
X223906889Y-92651553D01*
X223906566Y-92651230D01*
X223560826Y-92291703D01*
X223557561Y-92283364D01*
X223558881Y-92278190D01*
X223591263Y-92215993D01*
X223591547Y-92215479D01*
X223626513Y-92156032D01*
X223626629Y-92155841D01*
X223659883Y-92103187D01*
X223690738Y-92054359D01*
X223690793Y-92054263D01*
X223690850Y-92054170D01*
X223711164Y-92019065D01*
X223718523Y-92006352D01*
X223742625Y-91956064D01*
X223762435Y-91900389D01*
X223777341Y-91836222D01*
X223786733Y-91760461D01*
X223789592Y-91681278D01*
X223793316Y-91673134D01*
X223801285Y-91670000D01*
X224028715Y-91670000D01*
X224036988Y-91673427D01*
G37*
G04 #@! TD.AperFunction*
G04 #@! TA.AperFunction,Conductor*
G36*
X205106166Y-66458787D02*
G01*
X205106166Y-66458788D01*
X205106166Y-66458789D01*
X205269173Y-66628296D01*
X205272438Y-66636635D01*
X205271118Y-66641809D01*
X205238735Y-66704005D01*
X205238442Y-66704534D01*
X205203512Y-66763921D01*
X205203319Y-66764236D01*
X205170116Y-66816812D01*
X205139310Y-66865561D01*
X205139292Y-66865590D01*
X205139261Y-66865640D01*
X205139220Y-66865710D01*
X205139149Y-66865829D01*
X205111594Y-66913442D01*
X205111587Y-66913455D01*
X205111476Y-66913647D01*
X205111384Y-66913838D01*
X205111376Y-66913854D01*
X205087505Y-66963659D01*
X205087496Y-66963678D01*
X205087374Y-66963935D01*
X205087275Y-66964211D01*
X205087270Y-66964225D01*
X205075302Y-66997863D01*
X205067564Y-67019610D01*
X205067493Y-67019914D01*
X205067489Y-67019929D01*
X205054755Y-67074749D01*
X205052658Y-67083777D01*
X205052620Y-67084082D01*
X205052619Y-67084089D01*
X205043297Y-67159281D01*
X205043295Y-67159300D01*
X205043266Y-67159538D01*
X205043257Y-67159785D01*
X205043256Y-67159799D01*
X205040407Y-67238722D01*
X205036684Y-67246866D01*
X205028715Y-67250000D01*
X204802201Y-67250000D01*
X204793928Y-67246573D01*
X204790501Y-67238303D01*
X204790500Y-67234594D01*
X204790514Y-67234557D01*
X204790514Y-67229731D01*
X204790515Y-67229731D01*
X204790509Y-67151438D01*
X204777908Y-67088113D01*
X204777777Y-67087295D01*
X204777341Y-67083777D01*
X204775320Y-67075077D01*
X204775256Y-67074783D01*
X204759951Y-66997863D01*
X204700023Y-66853199D01*
X204613026Y-66723005D01*
X204595460Y-66705439D01*
X204595456Y-66705433D01*
X204589534Y-66699512D01*
X204587431Y-66696645D01*
X204558881Y-66641809D01*
X204558100Y-66632888D01*
X204560826Y-66628296D01*
X204617613Y-66569244D01*
X204915000Y-66260000D01*
X205106166Y-66458787D01*
G37*
G04 #@! TD.AperFunction*
G04 #@! TA.AperFunction,Conductor*
G36*
X139954434Y-71219075D02*
G01*
X140085472Y-71290118D01*
X140086336Y-71290636D01*
X140201456Y-71366750D01*
X140202079Y-71367193D01*
X140301098Y-71442508D01*
X140301364Y-71442716D01*
X140391152Y-71515197D01*
X140391249Y-71515273D01*
X140478103Y-71582394D01*
X140478282Y-71582532D01*
X140478463Y-71582651D01*
X140478470Y-71582656D01*
X140569129Y-71642269D01*
X140569426Y-71642464D01*
X140671377Y-71692836D01*
X140790928Y-71731488D01*
X140790932Y-71731488D01*
X140790933Y-71731489D01*
X140813990Y-71735457D01*
X140934871Y-71756262D01*
X141098883Y-71764445D01*
X141106975Y-71768279D01*
X141110000Y-71776130D01*
X141110000Y-72003869D01*
X141106573Y-72012142D01*
X141098883Y-72015554D01*
X140935229Y-72023719D01*
X140935226Y-72023719D01*
X140934871Y-72023737D01*
X140934519Y-72023797D01*
X140934515Y-72023798D01*
X140790933Y-72048509D01*
X140671378Y-72087162D01*
X140569739Y-72137380D01*
X140569734Y-72137382D01*
X140569426Y-72137535D01*
X140569144Y-72137720D01*
X140569129Y-72137729D01*
X140478470Y-72197342D01*
X140478445Y-72197359D01*
X140478282Y-72197467D01*
X140478125Y-72197587D01*
X140478103Y-72197604D01*
X140391152Y-72264802D01*
X140391054Y-72264880D01*
X140301364Y-72337282D01*
X140301098Y-72337490D01*
X140202079Y-72412805D01*
X140201449Y-72413253D01*
X140086342Y-72489358D01*
X140085465Y-72489884D01*
X139954436Y-72560923D01*
X139945530Y-72561853D01*
X139940751Y-72559070D01*
X139253768Y-71898432D01*
X139250181Y-71890229D01*
X139253446Y-71881890D01*
X139253769Y-71881567D01*
X139940752Y-71220927D01*
X139949089Y-71217664D01*
X139954434Y-71219075D01*
G37*
G04 #@! TD.AperFunction*
G04 #@! TA.AperFunction,Conductor*
G36*
X186036991Y-89348427D02*
G01*
X186040409Y-89356274D01*
X186043255Y-89434516D01*
X186043288Y-89434781D01*
X186043289Y-89434789D01*
X186044014Y-89440553D01*
X186052700Y-89509564D01*
X186052773Y-89509870D01*
X186052775Y-89509881D01*
X186067773Y-89572764D01*
X186067856Y-89573112D01*
X186067977Y-89573440D01*
X186067980Y-89573448D01*
X186088123Y-89627806D01*
X186088127Y-89627816D01*
X186088243Y-89628128D01*
X186088392Y-89628422D01*
X186088396Y-89628430D01*
X186113263Y-89677348D01*
X186113268Y-89677357D01*
X186113381Y-89677579D01*
X186142790Y-89724434D01*
X186163691Y-89754165D01*
X186175990Y-89771660D01*
X186212442Y-89822143D01*
X186212578Y-89822336D01*
X186251697Y-89878885D01*
X186251973Y-89879302D01*
X186284300Y-89930588D01*
X186289076Y-89938164D01*
X186290588Y-89946990D01*
X186288275Y-89951761D01*
X185974580Y-90339604D01*
X185966713Y-90343881D01*
X185958125Y-90341343D01*
X185957775Y-90341048D01*
X185781439Y-90186642D01*
X185582504Y-90012448D01*
X185578539Y-90004421D01*
X185579405Y-89999166D01*
X185607873Y-89930557D01*
X185608092Y-89930067D01*
X185639110Y-89865038D01*
X185639269Y-89864720D01*
X185669190Y-89807255D01*
X185697313Y-89754165D01*
X185697390Y-89754012D01*
X185712045Y-89724299D01*
X185722905Y-89702282D01*
X185745313Y-89648294D01*
X185763881Y-89588886D01*
X185777955Y-89520743D01*
X185786879Y-89440553D01*
X185789630Y-89356317D01*
X185793325Y-89348161D01*
X185801324Y-89345000D01*
X186028718Y-89345000D01*
X186036991Y-89348427D01*
G37*
G04 #@! TD.AperFunction*
G04 #@! TA.AperFunction,Conductor*
G36*
X186108507Y-63461224D02*
G01*
X186269173Y-63628296D01*
X186272438Y-63636635D01*
X186271118Y-63641809D01*
X186238735Y-63704005D01*
X186238442Y-63704534D01*
X186203512Y-63763921D01*
X186203319Y-63764236D01*
X186170116Y-63816812D01*
X186139310Y-63865561D01*
X186139292Y-63865590D01*
X186139261Y-63865640D01*
X186139220Y-63865710D01*
X186139149Y-63865829D01*
X186111594Y-63913442D01*
X186111587Y-63913455D01*
X186111476Y-63913647D01*
X186111384Y-63913838D01*
X186111376Y-63913854D01*
X186087505Y-63963659D01*
X186087496Y-63963678D01*
X186087374Y-63963935D01*
X186087275Y-63964211D01*
X186087270Y-63964225D01*
X186067675Y-64019298D01*
X186067564Y-64019610D01*
X186067493Y-64019914D01*
X186067489Y-64019929D01*
X186052728Y-64083475D01*
X186052658Y-64083777D01*
X186052620Y-64084082D01*
X186052619Y-64084089D01*
X186043297Y-64159281D01*
X186043295Y-64159300D01*
X186043266Y-64159538D01*
X186043257Y-64159785D01*
X186043256Y-64159799D01*
X186040407Y-64238722D01*
X186036684Y-64246866D01*
X186028715Y-64250000D01*
X185801285Y-64250000D01*
X185793012Y-64246573D01*
X185789593Y-64238722D01*
X185786742Y-64159799D01*
X185786733Y-64159538D01*
X185777341Y-64083777D01*
X185762435Y-64019610D01*
X185742625Y-63963935D01*
X185718523Y-63913647D01*
X185690738Y-63865640D01*
X185659883Y-63816812D01*
X185626648Y-63764186D01*
X185626486Y-63763921D01*
X185591556Y-63704534D01*
X185591263Y-63704005D01*
X185558881Y-63641809D01*
X185558100Y-63632888D01*
X185560826Y-63628296D01*
X185665197Y-63519762D01*
X185915000Y-63260000D01*
X186108507Y-63461224D01*
G37*
G04 #@! TD.AperFunction*
G04 #@! TA.AperFunction,Conductor*
G36*
X223925533Y-54268564D02*
G01*
X223925829Y-54268867D01*
X224267021Y-54632772D01*
X224270179Y-54641150D01*
X224268798Y-54646299D01*
X224235576Y-54708304D01*
X224235289Y-54708809D01*
X224199653Y-54768055D01*
X224199483Y-54768327D01*
X224165753Y-54820865D01*
X224146853Y-54850443D01*
X224134622Y-54869585D01*
X224134609Y-54869605D01*
X224134553Y-54869694D01*
X224134486Y-54869807D01*
X224134435Y-54869893D01*
X224106682Y-54917549D01*
X224106673Y-54917564D01*
X224106557Y-54917765D01*
X224106455Y-54917976D01*
X224106452Y-54917983D01*
X224083787Y-54965175D01*
X224082348Y-54968171D01*
X224082246Y-54968457D01*
X224082241Y-54968470D01*
X224062617Y-55023688D01*
X224062505Y-55024004D01*
X224062434Y-55024308D01*
X224062430Y-55024324D01*
X224047680Y-55088062D01*
X224047678Y-55088071D01*
X224047612Y-55088358D01*
X224047575Y-55088651D01*
X224047574Y-55088662D01*
X224038282Y-55164058D01*
X224038280Y-55164077D01*
X224038250Y-55164325D01*
X224038240Y-55164591D01*
X224038240Y-55164597D01*
X224035404Y-55243719D01*
X224031683Y-55251864D01*
X224023712Y-55255000D01*
X223796294Y-55255000D01*
X223788021Y-55251573D01*
X223784601Y-55243713D01*
X223781805Y-55164597D01*
X223781764Y-55163428D01*
X223772465Y-55086696D01*
X223757710Y-55021660D01*
X223738108Y-54965175D01*
X223714269Y-54914099D01*
X223686801Y-54865285D01*
X223686749Y-54865201D01*
X223686695Y-54865108D01*
X223656314Y-54815592D01*
X223623498Y-54762007D01*
X223623311Y-54761690D01*
X223588869Y-54701256D01*
X223588586Y-54700730D01*
X223556603Y-54637286D01*
X223555939Y-54628356D01*
X223558719Y-54623806D01*
X223908989Y-54268676D01*
X223917236Y-54265194D01*
X223925533Y-54268564D01*
G37*
G04 #@! TD.AperFunction*
G04 #@! TA.AperFunction,Conductor*
G36*
X205034380Y-84670820D02*
G01*
X205037798Y-84678672D01*
X205040650Y-84757962D01*
X205050026Y-84833829D01*
X205064925Y-84898091D01*
X205084751Y-84953847D01*
X205084876Y-84954108D01*
X205084880Y-84954117D01*
X205085506Y-84955421D01*
X205108909Y-85004195D01*
X205109018Y-85004383D01*
X205109024Y-85004394D01*
X205110027Y-85006121D01*
X205136803Y-85052233D01*
X205136873Y-85052343D01*
X205136924Y-85052427D01*
X205167838Y-85101060D01*
X205201322Y-85153625D01*
X205201508Y-85153927D01*
X205236799Y-85213222D01*
X205237089Y-85213739D01*
X205269908Y-85275830D01*
X205270744Y-85284745D01*
X205268051Y-85289351D01*
X204924702Y-85651169D01*
X204916521Y-85654811D01*
X204908161Y-85651602D01*
X204907836Y-85651281D01*
X204559716Y-85294057D01*
X204556396Y-85285740D01*
X204557680Y-85280560D01*
X204561739Y-85272630D01*
X204586438Y-85224383D01*
X204588571Y-85221454D01*
X204611416Y-85198610D01*
X204697928Y-85069135D01*
X204757517Y-84925270D01*
X204787894Y-84772544D01*
X204787893Y-84694685D01*
X204787893Y-84693941D01*
X204787893Y-84679092D01*
X204791320Y-84670820D01*
X204799593Y-84667393D01*
X205026107Y-84667393D01*
X205034380Y-84670820D01*
G37*
G04 #@! TD.AperFunction*
G04 #@! TA.AperFunction,Conductor*
G36*
X167106166Y-66458787D02*
G01*
X167106166Y-66458788D01*
X167106166Y-66458789D01*
X167269173Y-66628296D01*
X167272438Y-66636635D01*
X167271118Y-66641809D01*
X167238735Y-66704005D01*
X167238442Y-66704534D01*
X167203512Y-66763921D01*
X167203319Y-66764236D01*
X167170116Y-66816812D01*
X167139310Y-66865561D01*
X167139292Y-66865590D01*
X167139261Y-66865640D01*
X167139220Y-66865710D01*
X167139149Y-66865829D01*
X167111594Y-66913442D01*
X167111587Y-66913455D01*
X167111476Y-66913647D01*
X167111384Y-66913838D01*
X167111376Y-66913854D01*
X167087505Y-66963659D01*
X167087496Y-66963678D01*
X167087374Y-66963935D01*
X167087275Y-66964211D01*
X167087270Y-66964225D01*
X167067675Y-67019298D01*
X167067564Y-67019610D01*
X167067493Y-67019914D01*
X167067489Y-67019929D01*
X167052728Y-67083475D01*
X167052658Y-67083777D01*
X167052620Y-67084082D01*
X167052619Y-67084089D01*
X167043297Y-67159281D01*
X167043295Y-67159300D01*
X167043266Y-67159538D01*
X167043257Y-67159785D01*
X167043256Y-67159799D01*
X167040407Y-67238722D01*
X167036684Y-67246866D01*
X167028715Y-67250000D01*
X166801285Y-67250000D01*
X166793012Y-67246573D01*
X166789593Y-67238722D01*
X166786742Y-67159799D01*
X166786733Y-67159538D01*
X166777341Y-67083777D01*
X166762435Y-67019610D01*
X166742625Y-66963935D01*
X166718523Y-66913647D01*
X166690738Y-66865640D01*
X166659883Y-66816812D01*
X166626648Y-66764186D01*
X166626486Y-66763921D01*
X166591556Y-66704534D01*
X166591263Y-66704005D01*
X166558881Y-66641809D01*
X166558100Y-66632888D01*
X166560826Y-66628296D01*
X166617613Y-66569244D01*
X166915000Y-66260000D01*
X167106166Y-66458787D01*
G37*
G04 #@! TD.AperFunction*
G04 #@! TA.AperFunction,Conductor*
G36*
X224092513Y-81706740D02*
G01*
X224092513Y-81706741D01*
X224250264Y-81847452D01*
X224254157Y-81855516D01*
X224253239Y-81860771D01*
X224224412Y-81928394D01*
X224224156Y-81928953D01*
X224192741Y-81993087D01*
X224192553Y-81993455D01*
X224162254Y-82050151D01*
X224133774Y-82102566D01*
X224133695Y-82102721D01*
X224107950Y-82153650D01*
X224107868Y-82153813D01*
X224107797Y-82153979D01*
X224107791Y-82153993D01*
X224098569Y-82175698D01*
X224085194Y-82207176D01*
X224085111Y-82207432D01*
X224085107Y-82207446D01*
X224066503Y-82265647D01*
X224066499Y-82265658D01*
X224066410Y-82265940D01*
X224066348Y-82266229D01*
X224066348Y-82266233D01*
X224052233Y-82333121D01*
X224052230Y-82333136D01*
X224052177Y-82333390D01*
X224052147Y-82333649D01*
X224052145Y-82333665D01*
X224043180Y-82412578D01*
X224043178Y-82412592D01*
X224043154Y-82412812D01*
X224043146Y-82413024D01*
X224043146Y-82413037D01*
X224040377Y-82496180D01*
X224036676Y-82504334D01*
X224028683Y-82507490D01*
X223801280Y-82507490D01*
X223793007Y-82504063D01*
X223789588Y-82496218D01*
X223789017Y-82480629D01*
X223786736Y-82418219D01*
X223777281Y-82343402D01*
X223762131Y-82280064D01*
X223741788Y-82225229D01*
X223716751Y-82175921D01*
X223687520Y-82129164D01*
X223654594Y-82081982D01*
X223618536Y-82031487D01*
X223618390Y-82031277D01*
X223579808Y-81974660D01*
X223579525Y-81974225D01*
X223543053Y-81915254D01*
X223541616Y-81906416D01*
X223543975Y-81901659D01*
X223584040Y-81853044D01*
X223868951Y-81507328D01*
X224092513Y-81706740D01*
G37*
G04 #@! TD.AperFunction*
G04 #@! TA.AperFunction,Conductor*
G36*
X167031985Y-65668427D02*
G01*
X167035404Y-65676281D01*
X167038240Y-65755401D01*
X167038250Y-65755674D01*
X167038280Y-65755922D01*
X167038282Y-65755940D01*
X167047574Y-65831336D01*
X167047612Y-65831641D01*
X167047679Y-65831931D01*
X167047680Y-65831936D01*
X167062430Y-65895674D01*
X167062433Y-65895685D01*
X167062505Y-65895995D01*
X167082348Y-65951828D01*
X167106557Y-66002234D01*
X167106679Y-66002444D01*
X167106682Y-66002449D01*
X167134553Y-66050305D01*
X167165753Y-66099134D01*
X167199472Y-66151653D01*
X167199653Y-66151943D01*
X167235289Y-66211188D01*
X167235576Y-66211694D01*
X167268797Y-66273700D01*
X167269684Y-66282610D01*
X167267019Y-66287227D01*
X167106166Y-66458787D01*
X167106166Y-66458789D01*
X166917531Y-66659983D01*
X166558720Y-66296195D01*
X166555351Y-66287899D01*
X166556602Y-66282716D01*
X166588601Y-66219239D01*
X166588851Y-66218773D01*
X166623320Y-66158292D01*
X166623498Y-66157990D01*
X166627202Y-66151943D01*
X166656314Y-66104407D01*
X166686801Y-66054714D01*
X166714269Y-66005900D01*
X166738108Y-65954824D01*
X166757710Y-65898339D01*
X166772465Y-65833303D01*
X166781764Y-65756571D01*
X166784601Y-65676286D01*
X166788318Y-65668140D01*
X166796294Y-65665000D01*
X167023712Y-65665000D01*
X167031985Y-65668427D01*
G37*
G04 #@! TD.AperFunction*
G04 #@! TA.AperFunction,Conductor*
G36*
X130401859Y-59033446D02*
G01*
X130402182Y-59033769D01*
X130747923Y-59393296D01*
X130751188Y-59401635D01*
X130749868Y-59406809D01*
X130717485Y-59469005D01*
X130717192Y-59469534D01*
X130682262Y-59528921D01*
X130682069Y-59529236D01*
X130648866Y-59581812D01*
X130618060Y-59630561D01*
X130618042Y-59630590D01*
X130618011Y-59630640D01*
X130617970Y-59630710D01*
X130617899Y-59630829D01*
X130590344Y-59678442D01*
X130590337Y-59678455D01*
X130590226Y-59678647D01*
X130590134Y-59678838D01*
X130590126Y-59678854D01*
X130566255Y-59728659D01*
X130566246Y-59728678D01*
X130566124Y-59728935D01*
X130566025Y-59729211D01*
X130566020Y-59729225D01*
X130546425Y-59784298D01*
X130546314Y-59784610D01*
X130546243Y-59784914D01*
X130546239Y-59784929D01*
X130531478Y-59848475D01*
X130531408Y-59848777D01*
X130531370Y-59849082D01*
X130531369Y-59849089D01*
X130522047Y-59924281D01*
X130522045Y-59924300D01*
X130522016Y-59924538D01*
X130522007Y-59924785D01*
X130522006Y-59924799D01*
X130519157Y-60003722D01*
X130515434Y-60011866D01*
X130507465Y-60015000D01*
X130280035Y-60015000D01*
X130271762Y-60011573D01*
X130268343Y-60003722D01*
X130265492Y-59924799D01*
X130265483Y-59924538D01*
X130256091Y-59848777D01*
X130241185Y-59784610D01*
X130221375Y-59728935D01*
X130197273Y-59678647D01*
X130169488Y-59630640D01*
X130138633Y-59581812D01*
X130105398Y-59529186D01*
X130105236Y-59528921D01*
X130070306Y-59469534D01*
X130070013Y-59469005D01*
X130037631Y-59406809D01*
X130036850Y-59397888D01*
X130039574Y-59393297D01*
X130385318Y-59033768D01*
X130393520Y-59030181D01*
X130401859Y-59033446D01*
G37*
G04 #@! TD.AperFunction*
G04 #@! TA.AperFunction,Conductor*
G36*
X243106165Y-73458788D02*
G01*
X243106166Y-73458788D01*
X243106166Y-73458789D01*
X243269173Y-73628296D01*
X243272438Y-73636635D01*
X243271118Y-73641809D01*
X243238735Y-73704005D01*
X243238442Y-73704534D01*
X243203512Y-73763921D01*
X243203319Y-73764236D01*
X243170116Y-73816812D01*
X243139310Y-73865561D01*
X243139292Y-73865590D01*
X243139261Y-73865640D01*
X243139220Y-73865710D01*
X243139149Y-73865829D01*
X243111594Y-73913442D01*
X243111587Y-73913455D01*
X243111476Y-73913647D01*
X243111384Y-73913838D01*
X243111376Y-73913854D01*
X243087505Y-73963659D01*
X243087496Y-73963678D01*
X243087374Y-73963935D01*
X243087275Y-73964211D01*
X243087270Y-73964225D01*
X243067675Y-74019298D01*
X243067564Y-74019610D01*
X243067493Y-74019914D01*
X243067489Y-74019929D01*
X243052728Y-74083475D01*
X243052658Y-74083777D01*
X243052620Y-74084082D01*
X243052619Y-74084089D01*
X243043297Y-74159281D01*
X243043295Y-74159300D01*
X243043266Y-74159538D01*
X243043257Y-74159785D01*
X243043256Y-74159799D01*
X243040407Y-74238722D01*
X243036684Y-74246866D01*
X243028715Y-74250000D01*
X242801285Y-74250000D01*
X242793012Y-74246573D01*
X242789593Y-74238722D01*
X242786742Y-74159799D01*
X242786733Y-74159538D01*
X242777341Y-74083777D01*
X242762435Y-74019610D01*
X242742625Y-73963935D01*
X242718523Y-73913647D01*
X242690738Y-73865640D01*
X242659883Y-73816812D01*
X242626648Y-73764186D01*
X242626486Y-73763921D01*
X242591556Y-73704534D01*
X242591263Y-73704005D01*
X242558881Y-73641809D01*
X242558100Y-73632888D01*
X242560824Y-73628297D01*
X242915000Y-73260000D01*
X243106165Y-73458788D01*
G37*
G04 #@! TD.AperFunction*
G04 #@! TA.AperFunction,Conductor*
G36*
X166925533Y-47268564D02*
G01*
X166925829Y-47268867D01*
X167267021Y-47632772D01*
X167270179Y-47641150D01*
X167268798Y-47646299D01*
X167235576Y-47708304D01*
X167235289Y-47708809D01*
X167199653Y-47768055D01*
X167199483Y-47768327D01*
X167165753Y-47820865D01*
X167146853Y-47850443D01*
X167134622Y-47869585D01*
X167134609Y-47869605D01*
X167134553Y-47869694D01*
X167134486Y-47869807D01*
X167134435Y-47869893D01*
X167106682Y-47917549D01*
X167106673Y-47917564D01*
X167106557Y-47917765D01*
X167106455Y-47917976D01*
X167106452Y-47917983D01*
X167083787Y-47965175D01*
X167082348Y-47968171D01*
X167082246Y-47968457D01*
X167082241Y-47968470D01*
X167062617Y-48023688D01*
X167062505Y-48024004D01*
X167062434Y-48024308D01*
X167062430Y-48024324D01*
X167047680Y-48088062D01*
X167047678Y-48088071D01*
X167047612Y-48088358D01*
X167047575Y-48088651D01*
X167047574Y-48088662D01*
X167038282Y-48164058D01*
X167038280Y-48164077D01*
X167038250Y-48164325D01*
X167038240Y-48164591D01*
X167038240Y-48164597D01*
X167035404Y-48243719D01*
X167031683Y-48251864D01*
X167023712Y-48255000D01*
X166796294Y-48255000D01*
X166788021Y-48251573D01*
X166784601Y-48243713D01*
X166781805Y-48164597D01*
X166781764Y-48163428D01*
X166772465Y-48086696D01*
X166757710Y-48021660D01*
X166738108Y-47965175D01*
X166714269Y-47914099D01*
X166686801Y-47865285D01*
X166686749Y-47865201D01*
X166686695Y-47865108D01*
X166656314Y-47815592D01*
X166623498Y-47762007D01*
X166623311Y-47761690D01*
X166588869Y-47701256D01*
X166588586Y-47700730D01*
X166556603Y-47637286D01*
X166555939Y-47628356D01*
X166558719Y-47623806D01*
X166908989Y-47268676D01*
X166917236Y-47265194D01*
X166925533Y-47268564D01*
G37*
G04 #@! TD.AperFunction*
G04 #@! TA.AperFunction,Conductor*
G36*
X148051962Y-67958427D02*
G01*
X148055381Y-67966303D01*
X148058165Y-68048767D01*
X148058188Y-68048971D01*
X148058190Y-68048990D01*
X148066736Y-68122880D01*
X148067261Y-68127419D01*
X148067319Y-68127689D01*
X148067320Y-68127693D01*
X148081618Y-68193881D01*
X148081622Y-68193895D01*
X148081683Y-68194178D01*
X148081775Y-68194459D01*
X148081777Y-68194464D01*
X148100744Y-68252003D01*
X148100748Y-68252014D01*
X148100831Y-68252265D01*
X148124101Y-68304902D01*
X148124188Y-68305065D01*
X148124193Y-68305076D01*
X148150891Y-68355311D01*
X148150991Y-68355489D01*
X148180599Y-68406712D01*
X148202016Y-68443907D01*
X148212526Y-68462158D01*
X148212703Y-68462476D01*
X148246224Y-68525127D01*
X148246473Y-68525621D01*
X148267568Y-68570240D01*
X148277619Y-68591500D01*
X148278056Y-68600444D01*
X148275168Y-68604917D01*
X148110816Y-68763623D01*
X148110816Y-68763624D01*
X147907598Y-68959862D01*
X147567283Y-68578693D01*
X147564330Y-68570240D01*
X147565826Y-68565143D01*
X147588451Y-68525127D01*
X147600707Y-68503450D01*
X147600947Y-68503048D01*
X147638009Y-68443987D01*
X147638097Y-68443850D01*
X147672888Y-68391337D01*
X147704780Y-68342470D01*
X147733210Y-68294233D01*
X147757651Y-68243556D01*
X147777576Y-68187365D01*
X147792461Y-68122590D01*
X147801777Y-68046159D01*
X147804600Y-67966287D01*
X147808318Y-67958140D01*
X147816294Y-67955000D01*
X148043689Y-67955000D01*
X148051962Y-67958427D01*
G37*
G04 #@! TD.AperFunction*
G04 #@! TA.AperFunction,Conductor*
G36*
X243103965Y-80988498D02*
G01*
X243103966Y-80988498D01*
X243221635Y-81120293D01*
X243262716Y-81166306D01*
X243265669Y-81174759D01*
X243264173Y-81179857D01*
X243229302Y-81241528D01*
X243229027Y-81241988D01*
X243192028Y-81300949D01*
X243191872Y-81301192D01*
X243157111Y-81353662D01*
X243125298Y-81402407D01*
X243125285Y-81402426D01*
X243125219Y-81402529D01*
X243125157Y-81402633D01*
X243125154Y-81402639D01*
X243096915Y-81450551D01*
X243096908Y-81450563D01*
X243096789Y-81450766D01*
X243096683Y-81450985D01*
X243096677Y-81450997D01*
X243072486Y-81501155D01*
X243072480Y-81501168D01*
X243072348Y-81501443D01*
X243072242Y-81501739D01*
X243072241Y-81501744D01*
X243052538Y-81557307D01*
X243052533Y-81557321D01*
X243052423Y-81557634D01*
X243052347Y-81557963D01*
X243052346Y-81557968D01*
X243037604Y-81622118D01*
X243037601Y-81622133D01*
X243037538Y-81622409D01*
X243037503Y-81622690D01*
X243037501Y-81622706D01*
X243028252Y-81698588D01*
X243028250Y-81698604D01*
X243028222Y-81698840D01*
X243028213Y-81699084D01*
X243028213Y-81699089D01*
X243025399Y-81778713D01*
X243021682Y-81786860D01*
X243013706Y-81790000D01*
X242786311Y-81790000D01*
X242778038Y-81786573D01*
X242774618Y-81778695D01*
X242771930Y-81699089D01*
X242771834Y-81696232D01*
X242762738Y-81617580D01*
X242748316Y-81550821D01*
X242729168Y-81492734D01*
X242705898Y-81440097D01*
X242679108Y-81389688D01*
X242679008Y-81389510D01*
X242649400Y-81338287D01*
X242649400Y-81338286D01*
X242617437Y-81282778D01*
X242617315Y-81282559D01*
X242583767Y-81219858D01*
X242583533Y-81219394D01*
X242552379Y-81153497D01*
X242551943Y-81144553D01*
X242554831Y-81140081D01*
X242922402Y-80785138D01*
X243103965Y-80988498D01*
G37*
G04 #@! TD.AperFunction*
G04 #@! TA.AperFunction,Conductor*
G36*
X147916015Y-49568277D02*
G01*
X147916350Y-49568589D01*
X148275168Y-49915082D01*
X148278739Y-49923294D01*
X148277618Y-49928499D01*
X148246485Y-49994351D01*
X148246224Y-49994870D01*
X148212703Y-50057522D01*
X148212526Y-50057840D01*
X148180599Y-50113287D01*
X148150891Y-50164688D01*
X148150789Y-50164874D01*
X148124193Y-50214922D01*
X148124182Y-50214943D01*
X148124101Y-50215097D01*
X148124026Y-50215265D01*
X148124019Y-50215281D01*
X148119479Y-50225551D01*
X148100831Y-50267734D01*
X148100750Y-50267977D01*
X148100744Y-50267995D01*
X148081777Y-50325534D01*
X148081774Y-50325544D01*
X148081683Y-50325821D01*
X148081623Y-50326098D01*
X148081618Y-50326117D01*
X148067320Y-50392305D01*
X148067261Y-50392580D01*
X148067230Y-50392844D01*
X148067229Y-50392853D01*
X148058190Y-50471008D01*
X148058188Y-50471028D01*
X148058165Y-50471232D01*
X148058157Y-50471463D01*
X148058157Y-50471466D01*
X148055382Y-50553695D01*
X148051678Y-50561847D01*
X148043689Y-50565000D01*
X147816294Y-50565000D01*
X147808021Y-50561573D01*
X147804601Y-50553713D01*
X147804422Y-50548678D01*
X147801777Y-50473840D01*
X147792461Y-50397409D01*
X147777576Y-50332634D01*
X147757651Y-50276443D01*
X147733210Y-50225766D01*
X147704780Y-50177529D01*
X147672888Y-50128662D01*
X147638118Y-50076179D01*
X147637970Y-50075949D01*
X147626407Y-50057522D01*
X147600958Y-50016968D01*
X147600707Y-50016547D01*
X147565826Y-49954857D01*
X147564737Y-49945968D01*
X147567281Y-49941308D01*
X147899496Y-49569212D01*
X147907562Y-49565324D01*
X147916015Y-49568277D01*
G37*
G04 #@! TD.AperFunction*
G04 #@! TA.AperFunction,Conductor*
G36*
X148021590Y-94003427D02*
G01*
X148025017Y-94011683D01*
X148025140Y-94096576D01*
X148025520Y-94178489D01*
X148026080Y-94249024D01*
X148026760Y-94311462D01*
X148027500Y-94369091D01*
X148028240Y-94425192D01*
X148028919Y-94483049D01*
X148029480Y-94545947D01*
X148029860Y-94617169D01*
X148029984Y-94691097D01*
X148026571Y-94699376D01*
X148021423Y-94702388D01*
X147510549Y-94844664D01*
X147501660Y-94843582D01*
X147496139Y-94836532D01*
X147495716Y-94833779D01*
X147491274Y-94699376D01*
X147479322Y-94337736D01*
X147482474Y-94329357D01*
X147486617Y-94326511D01*
X147529929Y-94308971D01*
X147577133Y-94289135D01*
X147620270Y-94268749D01*
X147658941Y-94246495D01*
X147692751Y-94221057D01*
X147721303Y-94191118D01*
X147744200Y-94155360D01*
X147761047Y-94112465D01*
X147771445Y-94061118D01*
X147774358Y-94011021D01*
X147778260Y-94002960D01*
X147786039Y-94000000D01*
X148013317Y-94000000D01*
X148021590Y-94003427D01*
G37*
G04 #@! TD.AperFunction*
G04 #@! TA.AperFunction,Conductor*
G36*
X188140171Y-94098833D02*
G01*
X188301162Y-94259823D01*
X188304589Y-94268096D01*
X188301540Y-94275973D01*
X188206580Y-94380263D01*
X188206566Y-94380280D01*
X188206355Y-94380512D01*
X188206166Y-94380773D01*
X188206160Y-94380781D01*
X188131988Y-94483447D01*
X188131979Y-94483460D01*
X188131761Y-94483763D01*
X188131582Y-94484096D01*
X188131575Y-94484108D01*
X188080161Y-94579992D01*
X188080155Y-94580003D01*
X188079970Y-94580350D01*
X188079832Y-94580721D01*
X188079828Y-94580732D01*
X188045793Y-94672820D01*
X188045672Y-94673148D01*
X188045593Y-94673475D01*
X188045590Y-94673486D01*
X188023613Y-94764822D01*
X188023562Y-94765036D01*
X188023530Y-94765227D01*
X188023527Y-94765247D01*
X188008334Y-94858891D01*
X188008312Y-94859038D01*
X187994697Y-94957455D01*
X187994654Y-94957739D01*
X187977348Y-95063663D01*
X187977214Y-95064353D01*
X187950968Y-95180572D01*
X187950723Y-95181484D01*
X187912632Y-95303394D01*
X187906893Y-95310269D01*
X187901564Y-95311605D01*
X187078317Y-95318668D01*
X187070015Y-95315312D01*
X187066517Y-95307068D01*
X187066522Y-95306611D01*
X187073927Y-95064013D01*
X187091638Y-94483711D01*
X187095316Y-94475547D01*
X187100083Y-94472830D01*
X187221944Y-94437629D01*
X187222827Y-94437411D01*
X187339052Y-94413644D01*
X187339663Y-94413537D01*
X187445627Y-94398217D01*
X187445766Y-94398199D01*
X187544201Y-94386162D01*
X187544367Y-94386138D01*
X187589998Y-94379334D01*
X187637804Y-94372208D01*
X187729350Y-94351123D01*
X187821704Y-94317680D01*
X187917733Y-94266653D01*
X188020303Y-94192816D01*
X188124026Y-94098451D01*
X188132450Y-94095419D01*
X188140171Y-94098833D01*
G37*
G04 #@! TD.AperFunction*
G04 #@! TA.AperFunction,Conductor*
G36*
X125937700Y-55309250D02*
G01*
X125942291Y-55316938D01*
X125942364Y-55317544D01*
X125963533Y-55543457D01*
X125960893Y-55552014D01*
X125953934Y-55556068D01*
X125752389Y-55591936D01*
X125589282Y-55658505D01*
X125467208Y-55751118D01*
X125378150Y-55867008D01*
X125314101Y-56003403D01*
X125267105Y-56157331D01*
X125267041Y-56157542D01*
X125266995Y-56157742D01*
X125266992Y-56157757D01*
X125228960Y-56326651D01*
X125191881Y-56507784D01*
X125191818Y-56508076D01*
X125147767Y-56698349D01*
X125147575Y-56699072D01*
X125090912Y-56887960D01*
X125085252Y-56894899D01*
X125079934Y-56896296D01*
X124129291Y-56914882D01*
X124120952Y-56911617D01*
X124117364Y-56903413D01*
X124117573Y-56900973D01*
X124308467Y-55911364D01*
X124313399Y-55903892D01*
X124318173Y-55902019D01*
X124517296Y-55871386D01*
X124688904Y-55821474D01*
X124834545Y-55757970D01*
X124963913Y-55685307D01*
X125086701Y-55607918D01*
X125212296Y-55530428D01*
X125212915Y-55530073D01*
X125350775Y-55456984D01*
X125351871Y-55456474D01*
X125511879Y-55391995D01*
X125513196Y-55391555D01*
X125705266Y-55339959D01*
X125706592Y-55339684D01*
X125929019Y-55307060D01*
X125937700Y-55309250D01*
G37*
G04 #@! TD.AperFunction*
G04 #@! TA.AperFunction,Conductor*
G36*
X139954434Y-63599075D02*
G01*
X140085472Y-63670118D01*
X140086336Y-63670636D01*
X140201456Y-63746750D01*
X140202079Y-63747193D01*
X140301098Y-63822508D01*
X140301364Y-63822716D01*
X140391152Y-63895197D01*
X140391249Y-63895273D01*
X140478103Y-63962394D01*
X140478282Y-63962532D01*
X140478463Y-63962651D01*
X140478470Y-63962656D01*
X140569129Y-64022269D01*
X140569426Y-64022464D01*
X140671377Y-64072836D01*
X140790928Y-64111488D01*
X140790932Y-64111488D01*
X140790933Y-64111489D01*
X140813990Y-64115457D01*
X140934871Y-64136262D01*
X141098883Y-64144445D01*
X141106975Y-64148279D01*
X141110000Y-64156130D01*
X141110000Y-64383869D01*
X141106573Y-64392142D01*
X141098883Y-64395554D01*
X140935229Y-64403719D01*
X140935226Y-64403719D01*
X140934871Y-64403737D01*
X140934519Y-64403797D01*
X140934515Y-64403798D01*
X140790933Y-64428509D01*
X140671378Y-64467162D01*
X140569739Y-64517380D01*
X140569734Y-64517382D01*
X140569426Y-64517535D01*
X140569144Y-64517720D01*
X140569129Y-64517729D01*
X140478470Y-64577342D01*
X140478445Y-64577359D01*
X140478282Y-64577467D01*
X140478125Y-64577587D01*
X140478103Y-64577604D01*
X140391152Y-64644802D01*
X140391054Y-64644880D01*
X140301364Y-64717282D01*
X140301098Y-64717490D01*
X140202079Y-64792805D01*
X140201449Y-64793253D01*
X140086342Y-64869358D01*
X140085465Y-64869884D01*
X139954436Y-64940923D01*
X139945530Y-64941853D01*
X139940751Y-64939070D01*
X139253768Y-64278432D01*
X139250181Y-64270229D01*
X139253446Y-64261890D01*
X139253769Y-64261567D01*
X139940752Y-63600927D01*
X139949089Y-63597664D01*
X139954434Y-63599075D01*
G37*
G04 #@! TD.AperFunction*
G04 #@! TA.AperFunction,Conductor*
G36*
X224036956Y-80909419D02*
G01*
X224040377Y-80917302D01*
X224042973Y-80995262D01*
X224043154Y-81000669D01*
X224043179Y-81000890D01*
X224043180Y-81000902D01*
X224052145Y-81079815D01*
X224052147Y-81079828D01*
X224052177Y-81080091D01*
X224052231Y-81080347D01*
X224052233Y-81080359D01*
X224063430Y-81133417D01*
X224066410Y-81147541D01*
X224066501Y-81147826D01*
X224066503Y-81147833D01*
X224079323Y-81187940D01*
X224085194Y-81206305D01*
X224107868Y-81259668D01*
X224107950Y-81259830D01*
X224133775Y-81310915D01*
X224133856Y-81311067D01*
X224162254Y-81363330D01*
X224192553Y-81420025D01*
X224192741Y-81420393D01*
X224224156Y-81484527D01*
X224224412Y-81485086D01*
X224253239Y-81552710D01*
X224253331Y-81561664D01*
X224250264Y-81566029D01*
X224092513Y-81706740D01*
X224092513Y-81706741D01*
X223868951Y-81906154D01*
X223588648Y-81566029D01*
X223543975Y-81511822D01*
X223541358Y-81503258D01*
X223543053Y-81498227D01*
X223551181Y-81485086D01*
X223579530Y-81439246D01*
X223579808Y-81438820D01*
X223618410Y-81382173D01*
X223618537Y-81381993D01*
X223654595Y-81331499D01*
X223668959Y-81310915D01*
X223687520Y-81284317D01*
X223716751Y-81237560D01*
X223741788Y-81188252D01*
X223762131Y-81133417D01*
X223777281Y-81070079D01*
X223786736Y-80995262D01*
X223789059Y-80931722D01*
X223789588Y-80917264D01*
X223793315Y-80909122D01*
X223801280Y-80905992D01*
X224028683Y-80905992D01*
X224036956Y-80909419D01*
G37*
G04 #@! TD.AperFunction*
G04 #@! TA.AperFunction,Conductor*
G36*
X139802521Y-55333010D02*
G01*
X139809543Y-55379994D01*
X139809543Y-55379999D01*
X139823911Y-55476112D01*
X139823913Y-55476123D01*
X139823966Y-55476475D01*
X139824062Y-55476818D01*
X139824064Y-55476827D01*
X139857549Y-55596379D01*
X139857653Y-55596750D01*
X139901900Y-55700188D01*
X139902060Y-55700468D01*
X139902065Y-55700478D01*
X139939567Y-55766095D01*
X139955026Y-55793144D01*
X139955148Y-55793324D01*
X139955152Y-55793330D01*
X140015350Y-55881972D01*
X140015456Y-55882121D01*
X140081191Y-55973026D01*
X140150695Y-56072413D01*
X140151020Y-56072903D01*
X140222479Y-56186880D01*
X140222894Y-56187598D01*
X140291013Y-56315592D01*
X140291875Y-56324505D01*
X140289118Y-56329199D01*
X139628433Y-57016230D01*
X139620229Y-57019818D01*
X139611890Y-57016553D01*
X139611567Y-57016230D01*
X138950881Y-56329199D01*
X138947616Y-56320860D01*
X138948985Y-56315594D01*
X139017111Y-56187585D01*
X139017512Y-56186891D01*
X139088996Y-56072874D01*
X139089283Y-56072441D01*
X139158808Y-55973026D01*
X139224649Y-55881972D01*
X139224741Y-55881838D01*
X139260389Y-55829343D01*
X139284973Y-55793144D01*
X139338099Y-55700188D01*
X139382346Y-55596750D01*
X139416033Y-55476475D01*
X139430454Y-55379999D01*
X139437478Y-55333010D01*
X139445000Y-55160000D01*
X139795000Y-55160000D01*
X139802521Y-55333010D01*
G37*
G04 #@! TD.AperFunction*
G04 #@! TA.AperFunction,Conductor*
G36*
X205036983Y-74510820D02*
G01*
X205040403Y-74518676D01*
X205043223Y-74597697D01*
X205043250Y-74598434D01*
X205043279Y-74598678D01*
X205043280Y-74598679D01*
X205052556Y-74674397D01*
X205052558Y-74674408D01*
X205052594Y-74674702D01*
X205067423Y-74739323D01*
X205087126Y-74795421D01*
X205087254Y-74795692D01*
X205087257Y-74795699D01*
X205111000Y-74845925D01*
X205111093Y-74846121D01*
X205111197Y-74846304D01*
X205111200Y-74846309D01*
X205138714Y-74894549D01*
X205138829Y-74894737D01*
X205169379Y-74943829D01*
X205202383Y-74996933D01*
X205202573Y-74997250D01*
X205237244Y-75057175D01*
X205237532Y-75057702D01*
X205269712Y-75120559D01*
X205270431Y-75129485D01*
X205267676Y-75134057D01*
X205106584Y-75299362D01*
X205105339Y-75300640D01*
X204911065Y-75499995D01*
X204559341Y-75129351D01*
X204556132Y-75120991D01*
X204557482Y-75115833D01*
X204590318Y-75053710D01*
X204590575Y-75053250D01*
X204625898Y-74993901D01*
X204626052Y-74993651D01*
X204659554Y-74941060D01*
X204690589Y-74892233D01*
X204718483Y-74844195D01*
X204742641Y-74793847D01*
X204762467Y-74738091D01*
X204777366Y-74673829D01*
X204786742Y-74597962D01*
X204789594Y-74518671D01*
X204793316Y-74510528D01*
X204801286Y-74507393D01*
X205028710Y-74507393D01*
X205036983Y-74510820D01*
G37*
G04 #@! TD.AperFunction*
M02*
